0
SECTION
2
HEADER
9
$INSUNITS
70
4
9
$ACADVER
1
AC1014
9
$HANDSEED
5
FFFF
0
ENDSEC
0
SECTION
2
TABLES
0
TABLE
2
VPORT
5
8
100
AcDbSymbolTable
0
ENDTAB
0
TABLE
2
LTYPE
5
5
100
AcDbSymbolTable
0
LTYPE
5
14
100
AcDbSymbolTableRecord
100
AcDbLinetypeTableRecord
2
BYBLOCK
70
0
0
LTYPE
5
15
100
AcDbSymbolTableRecord
100
AcDbLinetypeTableRecord
2
BYLAYER
70
0
0
ENDTAB
0
TABLE
2
LAYER
5
2
100
AcDbSymbolTable
70
2
0
LAYER
5
50
100
AcDbSymbolTableRecord
100
AcDbLayerTableRecord
2
0
70
0
6
CONTINUOUS
0
ENDTAB
0
TABLE
2
STYLE
5
3
100
AcDbSymbolTable
70
1
0
STYLE
5
11
100
AcDbSymbolTableRecord
100
AcDbTextStyleTableRecord
2
STANDARD
70
0
0
ENDTAB
0
TABLE
2
VIEW
5
6
100
AcDbSymbolTable
70
0
0
ENDTAB
0
TABLE
2
UCS
5
7
100
AcDbSymbolTable
70
0
0
ENDTAB
0
TABLE
2
APPID
5
9
100
AcDbSymbolTable
70
2
0
APPID
5
12
100
AcDbSymbolTableRecord
100
AcDbRegAppTableRecord
2
ACAD
70
0
0
ENDTAB
0
TABLE
2
DIMSTYLE
5
A
100
AcDbSymbolTable
70
1
0
ENDTAB
0
TABLE
2
BLOCK_RECORD
5
1
100
AcDbSymbolTable
70
1
0
BLOCK_RECORD
5
1F
100
AcDbSymbolTableRecord
100
AcDbBlockTableRecord
2
*MODEL_SPACE
0
BLOCK_RECORD
5
1B
100
AcDbSymbolTableRecord
100
AcDbBlockTableRecord
2
*PAPER_SPACE
0
ENDTAB
0
ENDSEC
0
SECTION
2
BLOCKS
0
BLOCK
5
20
100
AcDbEntity
100
AcDbBlockBegin
2
*MODEL_SPACE
0
ENDBLK
5
21
100
AcDbEntity
100
AcDbBlockEnd
0
BLOCK
5
1C
100
AcDbEntity
100
AcDbBlockBegin
2
*PAPER_SPACE
0
ENDBLK
5
1D
100
AcDbEntity
100
AcDbBlockEnd
0
ENDSEC
0
SECTION
2
ENTITIES
0
LINE
5
100
100
AcDbEntity
8
OUTER_PROFILES
100
AcDbLine
10
244.99999999999528
20
61.772404055749575
30
0
11
247.9999999999954
21
61.772404055749597
31
0
0
LINE
5
101
100
AcDbEntity
8
OUTER_PROFILES
100
AcDbLine
10
247.9999999999954
20
61.772404055749597
30
0
11
248.3929200658724
21
61.837246952389926
31
0
0
LINE
5
102
100
AcDbEntity
8
OUTER_PROFILES
100
AcDbLine
10
248.3929200658724
20
61.837246952389926
30
0
11
248.3929200658724
21
60.538400473853081
31
0
0
LINE
5
103
100
AcDbEntity
8
OUTER_PROFILES
100
AcDbLine
10
248.3929200658724
20
60.538400473853081
30
0
11
248.91988605397572
21
60.624810039707889
31
0
0
LINE
5
104
100
AcDbEntity
8
OUTER_PROFILES
100
AcDbLine
10
248.91988605397572
20
60.624810039707889
30
0
11
301.14050192667457
21
69.694394462692983
31
0
0
LINE
5
105
100
AcDbEntity
8
OUTER_PROFILES
100
AcDbLine
10
301.14050192667457
20
69.694394462692983
30
0
11
304.10096545845215
21
70.179838256571614
31
0
0
LINE
5
106
100
AcDbEntity
8
OUTER_PROFILES
100
AcDbLine
10
304.10096545845215
20
70.179838256571614
30
0
11
275.5070206000305
21
244.5591012123559
31
0
0
LINE
5
107
100
AcDbEntity
8
OUTER_PROFILES
100
AcDbLine
10
275.5070206000305
20
244.5591012123559
30
0
11
272.46695592161365
21
244.55910121235581
31
0
0
LINE
5
108
100
AcDbEntity
8
OUTER_PROFILES
100
AcDbLine
10
272.46939764468607
20
244.55950159536991
30
0
11
248.39292006587237
21
244.55950159536991
31
0
0
LINE
5
109
100
AcDbEntity
8
OUTER_PROFILES
100
AcDbLine
10
248.39292006587237
20
244.55950159536991
30
0
11
248.39292006587237
21
243.55950159536988
31
0
0
LINE
5
110
100
AcDbEntity
8
OUTER_PROFILES
100
AcDbLine
10
248.39292006587237
20
243.55950159536988
30
0
11
244.99999999999528
21
243.5595015953698
31
0
0
LINE
5
111
100
AcDbEntity
8
OUTER_PROFILES
100
AcDbLine
10
244.99999999999528
20
243.5595015953698
30
0
11
244.99999999999528
21
246.95242166124666
31
0
0
LINE
5
112
100
AcDbEntity
8
OUTER_PROFILES
100
AcDbLine
10
244.99999999999528
20
246.95242166124666
30
0
11
247.99999999999721
21
246.95242166124609
31
0
0
LINE
5
113
100
AcDbEntity
8
OUTER_PROFILES
100
AcDbLine
10
247.99999999999721
20
246.95242166124609
30
0
11
247.99999999999753
21
273.05950159536917
31
0
0
LINE
5
114
100
AcDbEntity
8
OUTER_PROFILES
100
AcDbLine
10
247.99999999999753
20
273.05950159536917
30
0
11
-2.5224267119483557e-12
21
273.05950159536911
31
0
0
LINE
5
115
100
AcDbEntity
8
OUTER_PROFILES
100
AcDbLine
10
-2.5224267119483557e-12
20
273.05950159536911
30
0
11
-2.8066438062523957e-12
21
246.95242166124609
31
0
0
LINE
5
116
100
AcDbEntity
8
OUTER_PROFILES
100
AcDbLine
10
-2.8066438062523957e-12
20
246.95242166124609
30
0
11
2.9999999999971649
21
246.95242166124658
31
0
0
LINE
5
117
100
AcDbEntity
8
OUTER_PROFILES
100
AcDbLine
10
2.9999999999971649
20
246.95242166124658
30
0
11
2.9999999999971294
21
243.5595015953698
31
0
0
LINE
5
118
100
AcDbEntity
8
OUTER_PROFILES
100
AcDbLine
10
2.9999999999971294
20
243.5595015953698
30
0
11
-0.39292006587988482
21
243.55950159536988
31
0
0
LINE
5
119
100
AcDbEntity
8
OUTER_PROFILES
100
AcDbLine
10
-0.39292006587988482
20
243.55950159536988
30
0
11
-0.39292006587942296
21
244.55910121235689
31
0
0
LINE
5
120
100
AcDbEntity
8
OUTER_PROFILES
100
AcDbLine
10
-0.39292006587942296
20
244.55910121235689
30
0
11
-27.50702039241375
21
244.55910121235689
31
0
0
LINE
5
121
100
AcDbEntity
8
OUTER_PROFILES
100
AcDbLine
10
-27.50702039241375
20
244.55910121235689
30
0
11
-56.043050245763837
21
70.533031072340549
31
0
0
LINE
5
122
100
AcDbEntity
8
OUTER_PROFILES
100
AcDbLine
10
-56.043050245763837
20
70.533031072340549
30
0
11
-53.082586713986295
21
70.047587278461918
31
0
0
LINE
5
123
100
AcDbEntity
8
OUTER_PROFILES
100
AcDbLine
10
-53.082586713986295
20
70.047587278461918
30
0
11
-0.39292006587984929
21
60.756977443863846
31
0
0
LINE
5
124
100
AcDbEntity
8
OUTER_PROFILES
100
AcDbLine
10
-0.39292006587984929
20
60.756977443863846
30
0
11
-0.39292006587995587
21
61.837246952389577
31
0
0
LINE
5
125
100
AcDbEntity
8
OUTER_PROFILES
100
AcDbLine
10
-0.39292006587995587
20
61.837246952389577
30
0
11
-4.8316906031686813e-12
21
61.772404055749561
31
0
0
LINE
5
126
100
AcDbEntity
8
OUTER_PROFILES
100
AcDbLine
10
-4.8316906031686813e-12
20
61.772404055749561
30
0
11
2.9999999999971649
21
61.772404055749526
31
0
0
LINE
5
127
100
AcDbEntity
8
OUTER_PROFILES
100
AcDbLine
10
2.9999999999971649
20
61.772404055749526
30
0
11
2.9999999999971649
21
58.379483989872547
31
0
0
LINE
5
128
100
AcDbEntity
8
OUTER_PROFILES
100
AcDbLine
10
2.9999999999971649
20
58.379483989872547
30
0
11
-4.7961634663806763e-12
21
58.379483989872597
31
0
0
LINE
5
129
100
AcDbEntity
8
OUTER_PROFILES
100
AcDbLine
10
-4.7961634663806763e-12
20
58.379483989872597
30
0
11
0
21
0
31
0
0
LINE
5
130
100
AcDbEntity
8
OUTER_PROFILES
100
AcDbLine
10
0
20
0
30
0
11
247.9999999999946
21
-8.8817841970012523e-15
31
0
0
LINE
5
131
100
AcDbEntity
8
OUTER_PROFILES
100
AcDbLine
10
247.9999999999946
20
-8.8817841970012523e-15
30
0
11
247.99999999999528
21
58.379483989872575
31
0
0
LINE
5
132
100
AcDbEntity
8
OUTER_PROFILES
100
AcDbLine
10
247.99999999999528
20
58.379483989872575
30
0
11
244.99999999999528
21
58.379483989872433
31
0
0
LINE
5
133
100
AcDbEntity
8
OUTER_PROFILES
100
AcDbLine
10
244.99999999999528
20
58.379483989872433
30
0
11
244.99999999999528
21
61.772404055749575
31
0
0
CIRCLE
5
134
100
AcDbEntity
8
INTERIOR_PROFILES
100
AcDbCircle
10
-214.99999999999523
20
213.55950159536985
30
0
40
1.25
210
0
220
0
230
-1
0
CIRCLE
5
135
100
AcDbEntity
8
INTERIOR_PROFILES
100
AcDbCircle
10
-142.00000445171671
20
11.604408185602972
30
0
40
2.5
210
0
220
0
230
-1
0
ELLIPSE
5
136
100
AcDbEntity
8
INTERIOR_PROFILES
100
AcDbEllipse
10
74.999996498224348
20
267.04782414652152
30
0
11
2.1171322958864818e-15
21
-1.2500900611670249
31
0.0
40
0.999927956257055
41
4.7195910997435444
42
7.8467795146155144
0
ELLIPSE
5
137
100
AcDbEntity
8
INTERIOR_PROFILES
100
AcDbEllipse
10
74.999996498224348
20
267.02981770653054
30
0
11
2.117132295886481e-15
21
-1.2500900611670249
31
0.0
40
0.999927956257055
41
3.1415926535897931
42
4.7051868610262613
0
ELLIPSE
5
138
100
AcDbEntity
8
INTERIOR_PROFILES
100
AcDbEllipse
10
74.999996498224348
20
267.02981770653054
30
0
11
2.117132295886481e-15
21
-1.2500900611670249
31
0.0
40
0.999927956257055
41
1.5779984461532113
42
3.1415926535897931
0
CIRCLE
5
139
100
AcDbEntity
8
INTERIOR_PROFILES
100
AcDbCircle
10
-214.99999999999523
20
91.772404055749547
30
0
40
1.25
210
0
220
0
230
-1
0
CIRCLE
5
140
100
AcDbEntity
8
INTERIOR_PROFILES
100
AcDbCircle
10
-225.49999999999494
20
48.318659863137164
30
0
40
1.7000000000000171
210
0
220
0
230
-1
0
LWPOLYLINE
5
141
100
AcDbEntity
8
INTERIOR_PROFILES
100
AcDbPolyline
90
8
70
1
43
0.0
10
117.50000455229954
20
11.504408221365763
10
117.50000455229954
20
14.704408149840189
42
-0.41421356237309892
10
119.50000455229954
20
16.704408149840209
10
128.50000435113387
20
16.704408149840194
42
-0.4142135623731002
10
130.50000435113384
20
14.70440814984018
10
130.50000435113387
20
11.504408221365763
42
-0.41421356237309759
10
128.50000435113387
20
9.5044082213657699
10
119.50000455229954
20
9.5044082213657521
42
-0.41421356237309759
0
ELLIPSE
5
142
100
AcDbEntity
8
INTERIOR_PROFILES
100
AcDbEllipse
10
172.99999999999721
20
267.02981770653076
30
0
11
2.117132295886481e-15
21
-1.2500900611670249
31
0.0
40
0.999927956257055
41
1.5779984461542913
42
3.1415926535897931
0
ELLIPSE
5
143
100
AcDbEntity
8
INTERIOR_PROFILES
100
AcDbEllipse
10
172.99999999999721
20
267.04782414652175
30
0
11
2.1171322958864818e-15
21
-1.2500900611670249
31
0.0
40
0.999927956257055
41
4.7195910997428339
42
7.8467795146165944
0
ELLIPSE
5
144
100
AcDbEntity
8
INTERIOR_PROFILES
100
AcDbEllipse
10
172.99999999999721
20
267.02981770653076
30
0
11
2.117132295886481e-15
21
-1.2500900611670249
31
0.0
40
0.999927956257055
41
3.1415926535897931
42
4.7051868610255507
0
CIRCLE
5
145
100
AcDbEntity
8
INTERIOR_PROFILES
100
AcDbCircle
10
48.564447634307086
20
75.331755037628014
30
0
40
1.2500000000000002
210
0
220
0
230
-1
0
CIRCLE
5
146
100
AcDbEntity
8
INTERIOR_PROFILES
100
AcDbCircle
10
-206.49999999999491
20
24.318659863137153
30
0
40
1.6999999999999815
210
0
220
0
230
-1
0
CIRCLE
5
147
100
AcDbEntity
8
INTERIOR_PROFILES
100
AcDbCircle
10
-296.56444763429954
20
75.331755037625371
30
0
40
1.2500000000000002
210
0
220
0
230
-1
0
CIRCLE
5
148
100
AcDbEntity
8
INTERIOR_PROFILES
100
AcDbCircle
10
21.629010837252949
20
239.59665934931934
30
0
40
1.2499999999999931
210
0
220
0
230
-1
0
CIRCLE
5
149
100
AcDbEntity
8
INTERIOR_PROFILES
100
AcDbCircle
10
-32.999999999997094
20
91.772404055749547
30
0
40
1.25
210
0
220
0
230
-1
0
CIRCLE
5
150
100
AcDbEntity
8
INTERIOR_PROFILES
100
AcDbCircle
10
35.095749041511546
20
157.47018487703346
30
0
40
1.2499999999999931
210
0
220
0
230
-1
0
CIRCLE
5
151
100
AcDbEntity
8
INTERIOR_PROFILES
100
AcDbCircle
10
-32.999999999997129
20
213.55950159536985
30
0
40
1.25
210
0
220
0
230
-1
0
CIRCLE
5
152
100
AcDbEntity
8
INTERIOR_PROFILES
100
AcDbCircle
10
-269.62901083724535
20
239.59665934931672
30
0
40
1.2499999999999916
210
0
220
0
230
-1
0
CIRCLE
5
153
100
AcDbEntity
8
INTERIOR_PROFILES
100
AcDbCircle
10
-283.09574904150395
20
157.47018487703082
30
0
40
1.2499999999999916
210
0
220
0
230
-1
0
CIRCLE
5
154
100
AcDbEntity
8
INTERIOR_PROFILES
100
AcDbCircle
10
-215.99999999999494
20
36.318659863137157
30
0
40
11.999999999999993
210
0
220
0
230
-1
0
LINE
5
155
100
AcDbEntity
8
BEND
100
AcDbLine
10
246.69646003293391
20
243.55950159536988
30
-1.9031470687900829e-14
11
246.69646003293391
21
61.772404055749561
31
-1.9834849289995146e-14
0
LINE
5
156
100
AcDbEntity
8
BEND
100
AcDbLine
10
2.9999999999971294
20
245.25596162830837
30
-4.442004849024818e-14
11
244.99999999999531
21
245.25596162830837
31
-4.442004849024818e-14
0
LINE
5
157
100
AcDbEntity
8
BEND
100
AcDbLine
10
1.3035399670586401
20
61.772404055749561
30
-1.9642608723526826e-14
11
1.3035399670586401
21
243.55950159536988
31
-4.2529352853002068e-14
0
LINE
5
158
100
AcDbEntity
8
BEND
100
AcDbLine
10
244.99999999999531
20
59.887448463595661
30
2.1995842191092484e-15
11
2.9999999999972005
21
59.887448463595661
31
-5.5209580290870821e-15
0
LINE
5
159
100
AcDbEntity
8
BEND_EXTENT
100
AcDbLine
10
247.99999999999523
20
58.002492871441795
30
-8.8817841970012523e-15
11
-4.8316906031686813e-12
21
58.002492871441795
31
-8.8817841970012523e-15
0
LINE
5
160
100
AcDbEntity
8
BEND_EXTENT
100
AcDbLine
10
248.39292006587237
20
243.55950159536988
30
-8.8817841970012523e-15
11
248.3929200658724
21
61.837246952389933
31
-8.8817841970012523e-15
0
LWPOLYLINE
5
161
100
AcDbEntity
8
BEND_EXTENT
100
AcDbPolyline
90
4
70
1
43
0.0
10
244.99999999999528
20
243.5595015953698
10
244.99999999999528
20
61.772404055749561
10
2.9999999999971649
20
61.772404055749526
10
2.9999999999971294
20
243.5595015953698
0
LINE
5
162
100
AcDbEntity
8
BEND_EXTENT
100
AcDbLine
10
-0.39292006587995587
20
61.837246952389577
30
-1.7763568394002505e-14
11
-0.39292006587988482
21
243.55950159536988
31
-1.7763568394002505e-14
0
LINE
5
163
100
AcDbEntity
8
BEND_EXTENT
100
AcDbLine
10
2.9999999999971649
20
246.95242166124658
30
-8.8817841970012523e-14
11
244.99999999999528
21
246.95242166124666
31
-5.3290705182007514e-14
0
ENDSEC
0
SECTION
2
OBJECTS
0
DICTIONARY
5
C
100
AcDbDictionary
3
ACAD_GROUP
350
D
3
ACAD_MLINESTYLE
350
17
0
DICTIONARY
5
D
100
AcDbDictionary
0
DICTIONARY
5
1A
330
C
100
AcDbDictionary
0
DICTIONARY
5
17
100
AcDbDictionary
0
ENDSEC
0
EOF
