0
SECTION
2
HEADER
9
$INSUNITS
70
4
9
$ACADVER
1
AC1014
9
$HANDSEED
5
FFFF
0
ENDSEC
0
SECTION
2
TABLES
0
TABLE
2
VPORT
5
8
100
AcDbSymbolTable
0
ENDTAB
0
TABLE
2
LTYPE
5
5
100
AcDbSymbolTable
0
LTYPE
5
14
100
AcDbSymbolTableRecord
100
AcDbLinetypeTableRecord
2
BYBLOCK
70
0
0
LTYPE
5
15
100
AcDbSymbolTableRecord
100
AcDbLinetypeTableRecord
2
BYLAYER
70
0
0
LTYPE
5
16
100
AcDbSymbolTableRecord
100
AcDbLinetypeTableRecord
2
DASHED
70
0
3
Dashed __ __ __ __ __ __ __ __ __ __ __ __ __ _
72
65
73
2
40
0.75
49
0.5
74
0
49
-0.25
74
0
0
ENDTAB
0
TABLE
2
LAYER
5
2
100
AcDbSymbolTable
70
3
0
LAYER
5
50
100
AcDbSymbolTableRecord
100
AcDbLayerTableRecord
2
1
70
0
62
7
6
DASHED
0
LAYER
5
51
100
AcDbSymbolTableRecord
100
AcDbLayerTableRecord
2
0
70
0
62
7
6
CONTINUOUS
0
ENDTAB
0
TABLE
2
STYLE
5
3
100
AcDbSymbolTable
70
1
0
STYLE
5
11
100
AcDbSymbolTableRecord
100
AcDbTextStyleTableRecord
2
STANDARD
70
0
0
ENDTAB
0
TABLE
2
VIEW
5
6
100
AcDbSymbolTable
70
0
0
ENDTAB
0
TABLE
2
UCS
5
7
100
AcDbSymbolTable
70
0
0
ENDTAB
0
TABLE
2
APPID
5
9
100
AcDbSymbolTable
70
2
0
APPID
5
12
100
AcDbSymbolTableRecord
100
AcDbRegAppTableRecord
2
ACAD
70
0
0
ENDTAB
0
TABLE
2
DIMSTYLE
5
A
100
AcDbSymbolTable
70
1
0
ENDTAB
0
TABLE
2
BLOCK_RECORD
5
1
100
AcDbSymbolTable
70
1
0
BLOCK_RECORD
5
1F
100
AcDbSymbolTableRecord
100
AcDbBlockTableRecord
2
*MODEL_SPACE
0
BLOCK_RECORD
5
1B
100
AcDbSymbolTableRecord
100
AcDbBlockTableRecord
2
*PAPER_SPACE
0
ENDTAB
0
ENDSEC
0
SECTION
2
BLOCKS
0
BLOCK
5
20
100
AcDbEntity
100
AcDbBlockBegin
2
*MODEL_SPACE
0
ENDBLK
5
21
100
AcDbEntity
100
AcDbBlockEnd
0
BLOCK
5
1C
100
AcDbEntity
100
AcDbBlockBegin
2
*PAPER_SPACE
0
ENDBLK
5
1D
100
AcDbEntity
100
AcDbBlockEnd
0
ENDSEC
0
SECTION
2
ENTITIES
0
ARC
5
100
100
AcDbEntity
8
OUTER_PROFILES
100
AcDbCircle
10
-3.5000000000000053
20
203.99999919533724
30
0
40
2.0000000000000098
210
0
220
0
230
-1
100
AcDbArc
50
0
51
90.000000000000242
0
LINE
5
101
100
AcDbEntity
8
OUTER_PROFILES
100
AcDbLine
10
1.4999999999999958
20
203.99999919533727
30
0
11
1.4999999999999858
21
197.55353996706148
31
0
0
LINE
5
102
100
AcDbEntity
8
OUTER_PROFILES
100
AcDbLine
10
1.4999999999999858
20
197.55353996706148
30
0
11
0
21
197.55353996706148
31
0
0
LINE
5
103
100
AcDbEntity
8
OUTER_PROFILES
100
AcDbLine
10
0
20
197.55399999999997
30
0
11
-14.50000000000135
21
197.55399999999995
31
0
0
ARC
5
104
100
AcDbEntity
8
OUTER_PROFILES
100
AcDbCircle
10
14.500000000001346
20
193.55399999999997
30
0
40
4.0000000000000018
210
0
220
0
230
-1
100
AcDbArc
50
0
51
89.999999999999943
0
LINE
5
105
100
AcDbEntity
8
OUTER_PROFILES
100
AcDbLine
10
-18.50000000000135
20
193.55399999999997
30
0
11
-18.500000000000014
21
16.473460385830663
31
0
0
LINE
5
106
100
AcDbEntity
8
OUTER_PROFILES
100
AcDbLine
10
-18.500000000000014
20
16.473460385830663
30
0
11
-18.326351822333073
21
15.488652632818471
31
0
0
LINE
5
107
100
AcDbEntity
8
OUTER_PROFILES
100
AcDbLine
10
-18.326351822333073
20
15.488652632818471
30
0
11
-1.7192718882100522
21
18.416928895986509
31
0
0
LINE
5
108
100
AcDbEntity
8
OUTER_PROFILES
100
AcDbLine
10
-1.7192718882100522
20
18.416928895986509
30
0
11
-1.8929200658769929
21
19.4017366489987
31
0
0
LINE
5
109
100
AcDbEntity
8
OUTER_PROFILES
100
AcDbLine
10
-1.8929200658769929
20
19.4017366489987
30
0
11
1.4999999999999858
21
19.999999999999964
31
0
0
LINE
5
110
100
AcDbEntity
8
OUTER_PROFILES
100
AcDbLine
10
1.4999999999999858
20
19.999999999999964
30
0
11
2.2500000000000142
21
19.999999999999964
31
0
0
LINE
5
111
100
AcDbEntity
8
OUTER_PROFILES
100
AcDbLine
10
2.2500000000000142
20
19.999999999999964
30
0
11
2.2500000000000142
21
18.499999999999979
31
0
0
LINE
5
112
100
AcDbEntity
8
OUTER_PROFILES
100
AcDbLine
10
2.2500000000000142
20
18.499999999999979
30
0
11
0
21
18.499999999999979
31
0
0
LINE
5
113
100
AcDbEntity
8
OUTER_PROFILES
100
AcDbLine
10
0
20
18.499999999999979
30
0
11
0
21
0
31
0
0
LINE
5
114
100
AcDbEntity
8
OUTER_PROFILES
100
AcDbLine
10
0
20
0
30
0
11
248.00000350177285
21
0
31
0
0
LINE
5
115
100
AcDbEntity
8
OUTER_PROFILES
100
AcDbLine
10
248.00000350177285
20
0
30
0
11
248.00000350177285
21
18.499999999999979
31
0
0
LINE
5
116
100
AcDbEntity
8
OUTER_PROFILES
100
AcDbLine
10
248.00000350177285
20
18.499999999999979
30
0
11
245.75000350177291
21
18.499999999999979
31
0
0
LINE
5
117
100
AcDbEntity
8
OUTER_PROFILES
100
AcDbLine
10
245.75000350177291
20
18.499999999999979
30
0
11
245.75000350177291
21
19.999999999999964
31
0
0
LINE
5
118
100
AcDbEntity
8
OUTER_PROFILES
100
AcDbLine
10
245.75000350177291
20
19.999999999999964
30
0
11
246.50000350177288
21
19.999999999999964
31
0
0
LINE
5
119
100
AcDbEntity
8
OUTER_PROFILES
100
AcDbLine
10
246.50000350177288
20
19.999999999999964
30
0
11
249.89292356764986
21
19.4017366489987
31
0
0
LINE
5
120
100
AcDbEntity
8
OUTER_PROFILES
100
AcDbLine
10
249.89292356764986
20
19.4017366489987
30
0
11
249.71927538998295
21
18.416928895986509
31
0
0
LINE
5
121
100
AcDbEntity
8
OUTER_PROFILES
100
AcDbLine
10
249.71927538998295
20
18.416928895986509
30
0
11
266.32635532410598
21
15.488652632818471
31
0
0
LINE
5
122
100
AcDbEntity
8
OUTER_PROFILES
100
AcDbLine
10
266.32635532410598
20
15.488652632818471
30
0
11
266.50000350177288
21
16.473460385830663
31
0
0
LINE
5
123
100
AcDbEntity
8
OUTER_PROFILES
100
AcDbLine
10
266.50000350177288
20
16.473460385830663
30
0
11
266.50000350177288
21
193.55399999999997
31
0
0
ARC
5
124
100
AcDbEntity
8
OUTER_PROFILES
100
AcDbCircle
10
-262.50000350177288
20
193.55399999999997
30
0
40
3.9999999999999858
210
0
220
0
230
-1
100
AcDbArc
50
90
51
180
0
LINE
5
125
100
AcDbEntity
8
OUTER_PROFILES
100
AcDbLine
10
262.50000350177288
20
197.55399999999995
30
0
11
248.00000350177285
21
197.55399999999997
31
0
0
LINE
5
126
100
AcDbEntity
8
OUTER_PROFILES
100
AcDbLine
10
248.00000350177285
20
197.55353996706148
30
0
11
246.50000350177288
21
197.55353996706148
31
0
0
LINE
5
127
100
AcDbEntity
8
OUTER_PROFILES
100
AcDbLine
10
246.50000350177288
20
197.55353996706148
30
0
11
246.50000350177288
21
203.99999919533727
31
0
0
ARC
5
128
100
AcDbEntity
8
OUTER_PROFILES
100
AcDbCircle
10
-244.50000350177291
20
203.99999919533727
30
0
40
1.9999999999999929
210
0
220
0
230
-1
100
AcDbArc
50
90
51
180
0
LINE
5
129
100
AcDbEntity
8
OUTER_PROFILES
100
AcDbLine
10
244.50000350177291
20
205.99999919533727
30
0
11
3.5000000000000138
21
205.99999919533724
31
0
0
LWPOLYLINE
5
130
100
AcDbEntity
8
INTERIOR_PROFILES
100
AcDbPolyline
90
4
70
1
43
0.0
10
135.8604992698431
20
168.79499999999996
10
231.26049926984314
20
168.79499999999996
10
231.26049926984314
20
149.59499999999997
10
135.8604992698431
20
149.59499999999997
0
LWPOLYLINE
5
131
100
AcDbEntity
8
INTERIOR_PROFILES
100
AcDbPolyline
90
4
70
1
43
0.0
10
112.19749926984312
20
73.394999999999996
10
16.797499269843108
20
73.394999999999996
10
16.797499269843108
20
92.595000000000013
10
112.19749926984312
20
92.595000000000013
0
CIRCLE
5
132
100
AcDbEntity
8
INTERIOR_PROFILES
100
AcDbCircle
10
13.49999926984311
20
31.999999999999972
30
0
40
2.0999999999999908
210
0
220
0
230
1
0
CIRCLE
5
133
100
AcDbEntity
8
INTERIOR_PROFILES
100
AcDbCircle
10
13.499999269843102
20
188.99999999999994
30
0
40
2.0999999999999996
210
0
220
0
230
1
0
CIRCLE
5
134
100
AcDbEntity
8
INTERIOR_PROFILES
100
AcDbCircle
10
-10.196460032938495
20
108.46108595276448
30
0
40
1.25
210
0
220
0
230
1
0
CIRCLE
5
135
100
AcDbEntity
8
INTERIOR_PROFILES
100
AcDbCircle
10
13.49999926984311
20
101.99999999999997
30
0
40
2.0999999999999996
210
0
220
0
230
1
0
CIRCLE
5
136
100
AcDbEntity
8
INTERIOR_PROFILES
100
AcDbCircle
10
-10.196460032938495
20
191.69646003293846
30
0
40
1.25
210
0
220
0
230
1
0
CIRCLE
5
137
100
AcDbEntity
8
INTERIOR_PROFILES
100
AcDbCircle
10
123.99999926984313
20
101.99999999999997
30
0
40
2.1000000000000085
210
0
220
0
230
1
0
CIRCLE
5
138
100
AcDbEntity
8
INTERIOR_PROFILES
100
AcDbCircle
10
258.19646353471092
20
108.46108595276448
30
0
40
1.25
210
0
220
-0
230
1
0
CIRCLE
5
139
100
AcDbEntity
8
INTERIOR_PROFILES
100
AcDbCircle
10
123.99999926984313
20
63.999999999999972
30
0
40
2.099999999999973
210
0
220
0
230
1
0
CIRCLE
5
140
100
AcDbEntity
8
INTERIOR_PROFILES
100
AcDbCircle
10
258.19646353471092
20
25.237826901528862
30
0
40
1.25
210
0
220
-0
230
1
0
CIRCLE
5
141
100
AcDbEntity
8
INTERIOR_PROFILES
100
AcDbCircle
10
75.000000000000014
20
8.4920355262768954
30
0
40
1.25
210
0
220
0
230
1
0
CIRCLE
5
142
100
AcDbEntity
8
INTERIOR_PROFILES
100
AcDbCircle
10
123.99999926984313
20
139.99999999999997
30
0
40
2.099999999999973
210
0
220
0
230
1
0
CIRCLE
5
143
100
AcDbEntity
8
INTERIOR_PROFILES
100
AcDbCircle
10
234.4999992698431
20
31.999999999999972
30
0
40
2.1000000000000085
210
0
220
0
230
1
0
LWPOLYLINE
5
144
100
AcDbEntity
8
INTERIOR_PROFILES
100
AcDbPolyline
90
4
70
1
43
0.0
10
112.19749926984312
20
54.49499999999999
10
112.19749926984312
20
35.294999999999973
10
16.797499269843144
20
35.294999999999973
10
16.797499269843144
20
54.49499999999999
0
LWPOLYLINE
5
145
100
AcDbEntity
8
INTERIOR_PROFILES
100
AcDbPolyline
90
4
70
1
43
0.0
10
135.8604992698431
20
92.595000000000013
10
231.26049926984314
20
92.595000000000013
10
231.26049926984314
20
73.394999999999996
10
135.8604992698431
20
73.394999999999996
0
LWPOLYLINE
5
146
100
AcDbEntity
8
INTERIOR_PROFILES
100
AcDbPolyline
90
4
70
1
43
0.0
10
16.797499269843108
20
130.69499999999996
10
112.19749926984312
20
130.69499999999996
10
112.19749926984312
20
111.49499999999998
10
16.797499269843108
20
111.49499999999998
0
LWPOLYLINE
5
147
100
AcDbEntity
8
INTERIOR_PROFILES
100
AcDbPolyline
90
4
70
1
43
0.0
10
16.797499269843108
20
168.79499999999996
10
112.19749926984312
20
168.79499999999996
10
112.19749926984312
20
149.59499999999997
10
16.797499269843108
20
149.59499999999997
0
CIRCLE
5
148
100
AcDbEntity
8
INTERIOR_PROFILES
100
AcDbCircle
10
258.19646353471092
20
191.69646003293846
30
0
40
1.25
210
0
220
-0
230
1
0
CIRCLE
5
149
100
AcDbEntity
8
INTERIOR_PROFILES
100
AcDbCircle
10
234.4999992698431
20
101.99999999999997
30
0
40
2.1000000000000085
210
0
220
0
230
1
0
LWPOLYLINE
5
150
100
AcDbEntity
8
INTERIOR_PROFILES
100
AcDbPolyline
90
4
70
1
43
0.0
10
231.26049926984314
20
54.49499999999999
10
231.26049926984314
20
35.294999999999973
10
135.86049926984313
20
35.294999999999973
10
135.86049926984313
20
54.49499999999999
0
CIRCLE
5
151
100
AcDbEntity
8
INTERIOR_PROFILES
100
AcDbCircle
10
221.91399926984309
20
185.28299999999999
30
0
40
3.75
210
0
220
0
230
1
0
LWPOLYLINE
5
152
100
AcDbEntity
8
INTERIOR_PROFILES
100
AcDbPolyline
90
4
70
1
43
0.0
10
231.26049926984308
20
130.69499999999996
10
231.26049926984308
20
111.49499999999998
10
135.8604992698431
20
111.49499999999998
10
135.8604992698431
20
130.69499999999996
0
CIRCLE
5
153
100
AcDbEntity
8
INTERIOR_PROFILES
100
AcDbCircle
10
183.1789992698431
20
185.28299999999999
30
0
40
3.75
210
0
220
0
230
1
0
CIRCLE
5
154
100
AcDbEntity
8
INTERIOR_PROFILES
100
AcDbCircle
10
234.4999992698431
20
188.99999999999994
30
0
40
2.1000000000000085
210
0
220
0
230
1
0
CIRCLE
5
155
100
AcDbEntity
8
INTERIOR_PROFILES
100
AcDbCircle
10
173.00000350177285
20
8.4920355262768901
30
0
40
1.25
210
0
220
0
230
1
0
CIRCLE
5
156
100
AcDbEntity
8
INTERIOR_PROFILES
100
AcDbCircle
10
-10.196460032938495
20
25.237826901528862
30
0
40
1.25
210
0
220
0
230
1
0
LINE
5
157
100
AcDbEntity
8
BEND
100
AcDbLine
10
246.50000350177288
20
199.99999999999994
30
1.787459069646502e-13
11
1.4999999999999858
21
199.99999999999994
31
1.8318679906315083e-13
0
LINE
5
158
100
AcDbEntity
8
BEND
100
AcDbLine
10
0
20
18.492035526276901
30
1.6209256159527285e-13
11
248.00000350177285
21
18.492035526276901
31
1.7208559223612453e-13
0
LINE
5
159
100
AcDbEntity
8
BEND
100
AcDbLine
10
-0.19646003293844999
20
197.55399999999997
30
1.787459069646502e-13
11
-0.19646003293844999
21
19.700868324499332
31
1.787459069646502e-13
0
LINE
5
160
100
AcDbEntity
8
BEND
100
AcDbLine
10
248.19646353471137
20
19.700868324499357
30
1.787459069646502e-13
11
248.19646353471137
21
197.55399999999997
31
1.787459069646502e-13
0
LINE
5
161
100
AcDbEntity
8
BEND_EXTENT
100
AcDbLine
10
-1.892920065876984
20
19.401736648998714
30
1.7763568394002505e-13
11
-1.892920065876984
21
197.55399999999997
31
1.7763568394002505e-13
0
LINE
5
162
100
AcDbEntity
8
BEND_EXTENT
100
AcDbLine
10
249.89292356764986
20
197.55399999999997
30
1.4210854715202004e-13
11
249.89292356764986
21
19.4017366489987
31
1.4210854715202004e-13
0
LINE
5
163
100
AcDbEntity
8
BEND_EXTENT
100
AcDbLine
10
1.5000000000000036
20
19.999999999999979
30
1.7763568394002505e-13
11
1.5000000000000036
21
197.55353996706148
31
1.7763568394002505e-13
0
LINE
5
164
100
AcDbEntity
8
BEND_EXTENT
100
AcDbLine
10
1.5000000000000036
20
201.69646003293846
30
1.7763568394002505e-13
11
246.50000350177288
21
201.69646003293846
31
1.7763568394002505e-13
0
LINE
5
165
100
AcDbEntity
8
BEND_EXTENT
100
AcDbLine
10
248.00000350177285
20
16.984071052553791
30
1.7763568394002505e-13
11
0
21
16.984071052553791
31
1.7763568394002505e-13
0
LINE
5
166
100
AcDbEntity
8
BEND_EXTENT
100
AcDbLine
10
245.75000350177291
20
19.999999999999979
30
1.7763568394002505e-13
11
2.2500000000000142
21
19.999999999999979
31
1.7763568394002505e-13
0
LINE
5
167
100
AcDbEntity
8
BEND_EXTENT
100
AcDbLine
10
246.50000350177288
20
197.55353996706148
30
1.7763568394002505e-13
11
246.50000350177288
21
19.999999999999964
31
1.7763568394002505e-13
0
LINE
5
168
100
AcDbEntity
8
BEND_EXTENT
100
AcDbLine
10
1.5000000000000036
20
198.30353996706148
30
1.7763568394002505e-13
11
246.50000350177288
21
198.30353996706148
31
1.7763568394002505e-13
0
ENDSEC
0
SECTION
2
OBJECTS
0
DICTIONARY
5
C
100
AcDbDictionary
3
ACAD_GROUP
350
D
3
ACAD_MLINESTYLE
350
17
0
DICTIONARY
5
D
100
AcDbDictionary
0
DICTIONARY
5
1A
330
C
100
AcDbDictionary
0
DICTIONARY
5
17
100
AcDbDictionary
0
ENDSEC
0
EOF
