G04 #@! TF.GenerationSoftware,KiCad,Pcbnew,8.0.6*
G04 #@! TF.CreationDate,2024-11-09T01:20:35+01:00*
G04 #@! TF.ProjectId,DMX_MIDI_FIGHTER,444d585f-4d49-4444-995f-464947485445,rev?*
G04 #@! TF.SameCoordinates,Original*
G04 #@! TF.FileFunction,Soldermask,Top*
G04 #@! TF.FilePolarity,Negative*
%FSLAX46Y46*%
G04 Gerber Fmt 4.6, Leading zero omitted, Abs format (unit mm)*
G04 Created by KiCad (PCBNEW 8.0.6) date 2024-11-09 01:20:35*
%MOMM*%
%LPD*%
G01*
G04 APERTURE LIST*
G04 Aperture macros list*
%AMRoundRect*
0 Rectangle with rounded corners*
0 $1 Rounding radius*
0 $2 $3 $4 $5 $6 $7 $8 $9 X,Y pos of 4 corners*
0 Add a 4 corners polygon primitive as box body*
4,1,4,$2,$3,$4,$5,$6,$7,$8,$9,$2,$3,0*
0 Add four circle primitives for the rounded corners*
1,1,$1+$1,$2,$3*
1,1,$1+$1,$4,$5*
1,1,$1+$1,$6,$7*
1,1,$1+$1,$8,$9*
0 Add four rect primitives between the rounded corners*
20,1,$1+$1,$2,$3,$4,$5,0*
20,1,$1+$1,$4,$5,$6,$7,0*
20,1,$1+$1,$6,$7,$8,$9,0*
20,1,$1+$1,$8,$9,$2,$3,0*%
G04 Aperture macros list end*
%ADD10C,1.498600*%
%ADD11C,1.000000*%
%ADD12C,3.987800*%
%ADD13C,2.200000*%
%ADD14R,1.800000X1.800000*%
%ADD15C,1.800000*%
%ADD16RoundRect,0.750000X0.750000X-1.250000X0.750000X1.250000X-0.750000X1.250000X-0.750000X-1.250000X0*%
%ADD17R,1.700000X1.700000*%
%ADD18O,1.700000X1.700000*%
%ADD19C,2.100000*%
%ADD20C,1.750000*%
%ADD21C,1.600000*%
%ADD22C,3.400000*%
%ADD23C,2.900000*%
%ADD24RoundRect,0.250000X-0.450000X-0.450000X0.450000X-0.450000X0.450000X0.450000X-0.450000X0.450000X0*%
%ADD25C,1.400000*%
%ADD26O,3.000000X2.200000*%
%ADD27R,1.600000X1.600000*%
%ADD28O,1.600000X1.600000*%
%ADD29C,2.400000*%
%ADD30O,2.400000X2.400000*%
G04 APERTURE END LIST*
D10*
X101917500Y-205105000D03*
D11*
X104497500Y-207485000D03*
X104497500Y-212775000D03*
D12*
X106997500Y-205105000D03*
D11*
X109497500Y-207485000D03*
X109497500Y-212775000D03*
D10*
X112077500Y-205105000D03*
D13*
X103187500Y-202565000D03*
X109537500Y-200025000D03*
D10*
X259080000Y-128905000D03*
D11*
X261660000Y-131285000D03*
X261660000Y-136575000D03*
D12*
X264160000Y-128905000D03*
D11*
X266660000Y-131285000D03*
X266660000Y-136575000D03*
D10*
X269240000Y-128905000D03*
D13*
X260350000Y-126365000D03*
X266700000Y-123825000D03*
D14*
X223179000Y-72217000D03*
D15*
X225679000Y-72217000D03*
X228179000Y-72217000D03*
D16*
X221279000Y-65217000D03*
X230079000Y-65217000D03*
D10*
X101917500Y-167005000D03*
D11*
X104497500Y-169385000D03*
X104497500Y-174675000D03*
D12*
X106997500Y-167005000D03*
D11*
X109497500Y-169385000D03*
X109497500Y-174675000D03*
D10*
X112077500Y-167005000D03*
D13*
X103187500Y-164465000D03*
X109537500Y-161925000D03*
D10*
X220980000Y-128905000D03*
D11*
X223560000Y-131285000D03*
X223560000Y-136575000D03*
D12*
X226060000Y-128905000D03*
D11*
X228560000Y-131285000D03*
X228560000Y-136575000D03*
D10*
X231140000Y-128905000D03*
D13*
X222250000Y-126365000D03*
X228600000Y-123825000D03*
D10*
X140017500Y-90805000D03*
D11*
X142597500Y-93185000D03*
X142597500Y-98475000D03*
D12*
X145097500Y-90805000D03*
D11*
X147597500Y-93185000D03*
X147597500Y-98475000D03*
D10*
X150177500Y-90805000D03*
D13*
X141287500Y-88265000D03*
X147637500Y-85725000D03*
D10*
X82867500Y-90805000D03*
D11*
X85447500Y-93185000D03*
X85447500Y-98475000D03*
D12*
X87947500Y-90805000D03*
D11*
X90447500Y-93185000D03*
X90447500Y-98475000D03*
D10*
X93027500Y-90805000D03*
D13*
X84137500Y-88265000D03*
X90487500Y-85725000D03*
D10*
X182880000Y-205105000D03*
D11*
X185460000Y-207485000D03*
X185460000Y-212775000D03*
D12*
X187960000Y-205105000D03*
D11*
X190460000Y-207485000D03*
X190460000Y-212775000D03*
D10*
X193040000Y-205105000D03*
D13*
X184150000Y-202565000D03*
X190500000Y-200025000D03*
D17*
X115190000Y-77279000D03*
D18*
X115190000Y-74739000D03*
D10*
X140017500Y-128905000D03*
D11*
X142597500Y-131285000D03*
X142597500Y-136575000D03*
D12*
X145097500Y-128905000D03*
D11*
X147597500Y-131285000D03*
X147597500Y-136575000D03*
D10*
X150177500Y-128905000D03*
D13*
X141287500Y-126365000D03*
X147637500Y-123825000D03*
D10*
X259080000Y-90805000D03*
D11*
X261660000Y-93185000D03*
X261660000Y-98475000D03*
D12*
X264160000Y-90805000D03*
D11*
X266660000Y-93185000D03*
X266660000Y-98475000D03*
D10*
X269240000Y-90805000D03*
D13*
X260350000Y-88265000D03*
X266700000Y-85725000D03*
D10*
X201930000Y-205105000D03*
D11*
X204510000Y-207485000D03*
X204510000Y-212775000D03*
D12*
X207010000Y-205105000D03*
D11*
X209510000Y-207485000D03*
X209510000Y-212775000D03*
D10*
X212090000Y-205105000D03*
D13*
X203200000Y-202565000D03*
X209550000Y-200025000D03*
D10*
X220980000Y-90805000D03*
D11*
X223560000Y-93185000D03*
X223560000Y-98475000D03*
D12*
X226060000Y-90805000D03*
D11*
X228560000Y-93185000D03*
X228560000Y-98475000D03*
D10*
X231140000Y-90805000D03*
D13*
X222250000Y-88265000D03*
X228600000Y-85725000D03*
D10*
X82867500Y-167005000D03*
D11*
X85447500Y-169385000D03*
X85447500Y-174675000D03*
D12*
X87947500Y-167005000D03*
D11*
X90447500Y-169385000D03*
X90447500Y-174675000D03*
D10*
X93027500Y-167005000D03*
D13*
X84137500Y-164465000D03*
X90487500Y-161925000D03*
D10*
X182880000Y-90805000D03*
D11*
X185460000Y-93185000D03*
X185460000Y-98475000D03*
D12*
X187960000Y-90805000D03*
D11*
X190460000Y-93185000D03*
X190460000Y-98475000D03*
D10*
X193040000Y-90805000D03*
D13*
X184150000Y-88265000D03*
X190500000Y-85725000D03*
D10*
X259080000Y-167005000D03*
D11*
X261660000Y-169385000D03*
X261660000Y-174675000D03*
D12*
X264160000Y-167005000D03*
D11*
X266660000Y-169385000D03*
X266660000Y-174675000D03*
D10*
X269240000Y-167005000D03*
D13*
X260350000Y-164465000D03*
X266700000Y-161925000D03*
D10*
X240030000Y-128905000D03*
D11*
X242610000Y-131285000D03*
X242610000Y-136575000D03*
D12*
X245110000Y-128905000D03*
D11*
X247610000Y-131285000D03*
X247610000Y-136575000D03*
D10*
X250190000Y-128905000D03*
D13*
X241300000Y-126365000D03*
X247650000Y-123825000D03*
D10*
X101917500Y-128905000D03*
D11*
X104497500Y-131285000D03*
X104497500Y-136575000D03*
D12*
X106997500Y-128905000D03*
D11*
X109497500Y-131285000D03*
X109497500Y-136575000D03*
D10*
X112077500Y-128905000D03*
D13*
X103187500Y-126365000D03*
X109537500Y-123825000D03*
D10*
X120967500Y-167005000D03*
D11*
X123547500Y-169385000D03*
X123547500Y-174675000D03*
D12*
X126047500Y-167005000D03*
D11*
X128547500Y-169385000D03*
X128547500Y-174675000D03*
D10*
X131127500Y-167005000D03*
D13*
X122237500Y-164465000D03*
X128587500Y-161925000D03*
D10*
X63817500Y-128905000D03*
D11*
X66397500Y-131285000D03*
X66397500Y-136575000D03*
D12*
X68897500Y-128905000D03*
D11*
X71397500Y-131285000D03*
X71397500Y-136575000D03*
D10*
X73977500Y-128905000D03*
D13*
X65087500Y-126365000D03*
X71437500Y-123825000D03*
D17*
X104156000Y-77683000D03*
D18*
X101616000Y-77683000D03*
X99076000Y-77683000D03*
D10*
X120967500Y-205105000D03*
D11*
X123547500Y-207485000D03*
X123547500Y-212775000D03*
D12*
X126047500Y-205105000D03*
D11*
X128547500Y-207485000D03*
X128547500Y-212775000D03*
D10*
X131127500Y-205105000D03*
D13*
X122237500Y-202565000D03*
X128587500Y-200025000D03*
D10*
X240030000Y-167005000D03*
D11*
X242610000Y-169385000D03*
X242610000Y-174675000D03*
D12*
X245110000Y-167005000D03*
D11*
X247610000Y-169385000D03*
X247610000Y-174675000D03*
D10*
X250190000Y-167005000D03*
D13*
X241300000Y-164465000D03*
X247650000Y-161925000D03*
D10*
X82867500Y-205105000D03*
D11*
X85447500Y-207485000D03*
X85447500Y-212775000D03*
D12*
X87947500Y-205105000D03*
D11*
X90447500Y-207485000D03*
X90447500Y-212775000D03*
D10*
X93027500Y-205105000D03*
D13*
X84137500Y-202565000D03*
X90487500Y-200025000D03*
D10*
X120967500Y-90805000D03*
D11*
X123547500Y-93185000D03*
X123547500Y-98475000D03*
D12*
X126047500Y-90805000D03*
D11*
X128547500Y-93185000D03*
X128547500Y-98475000D03*
D10*
X131127500Y-90805000D03*
D13*
X122237500Y-88265000D03*
X128587500Y-85725000D03*
D10*
X259080000Y-205105000D03*
D11*
X261660000Y-207485000D03*
X261660000Y-212775000D03*
D12*
X264160000Y-205105000D03*
D11*
X266660000Y-207485000D03*
X266660000Y-212775000D03*
D10*
X269240000Y-205105000D03*
D13*
X260350000Y-202565000D03*
X266700000Y-200025000D03*
D10*
X120967500Y-128905000D03*
D11*
X123547500Y-131285000D03*
X123547500Y-136575000D03*
D12*
X126047500Y-128905000D03*
D11*
X128547500Y-131285000D03*
X128547500Y-136575000D03*
D10*
X131127500Y-128905000D03*
D13*
X122237500Y-126365000D03*
X128587500Y-123825000D03*
D10*
X240030000Y-90805000D03*
D11*
X242610000Y-93185000D03*
X242610000Y-98475000D03*
D12*
X245110000Y-90805000D03*
D11*
X247610000Y-93185000D03*
X247610000Y-98475000D03*
D10*
X250190000Y-90805000D03*
D13*
X241300000Y-88265000D03*
X247650000Y-85725000D03*
D10*
X201930000Y-90805000D03*
D11*
X204510000Y-93185000D03*
X204510000Y-98475000D03*
D12*
X207010000Y-90805000D03*
D11*
X209510000Y-93185000D03*
X209510000Y-98475000D03*
D10*
X212090000Y-90805000D03*
D13*
X203200000Y-88265000D03*
X209550000Y-85725000D03*
D10*
X82867500Y-128905000D03*
D11*
X85447500Y-131285000D03*
X85447500Y-136575000D03*
D12*
X87947500Y-128905000D03*
D11*
X90447500Y-131285000D03*
X90447500Y-136575000D03*
D10*
X93027500Y-128905000D03*
D13*
X84137500Y-126365000D03*
X90487500Y-123825000D03*
D10*
X63817500Y-205105000D03*
D11*
X66397500Y-207485000D03*
X66397500Y-212775000D03*
D12*
X68897500Y-205105000D03*
D11*
X71397500Y-207485000D03*
X71397500Y-212775000D03*
D10*
X73977500Y-205105000D03*
D13*
X65087500Y-202565000D03*
X71437500Y-200025000D03*
D10*
X201930000Y-167005000D03*
D11*
X204510000Y-169385000D03*
X204510000Y-174675000D03*
D12*
X207010000Y-167005000D03*
D11*
X209510000Y-169385000D03*
X209510000Y-174675000D03*
D10*
X212090000Y-167005000D03*
D13*
X203200000Y-164465000D03*
X209550000Y-161925000D03*
D10*
X63817500Y-90805000D03*
D11*
X66397500Y-93185000D03*
X66397500Y-98475000D03*
D12*
X68897500Y-90805000D03*
D11*
X71397500Y-93185000D03*
X71397500Y-98475000D03*
D10*
X73977500Y-90805000D03*
D13*
X65087500Y-88265000D03*
X71437500Y-85725000D03*
D10*
X182880000Y-128905000D03*
D11*
X185460000Y-131285000D03*
X185460000Y-136575000D03*
D12*
X187960000Y-128905000D03*
D11*
X190460000Y-131285000D03*
X190460000Y-136575000D03*
D10*
X193040000Y-128905000D03*
D13*
X184150000Y-126365000D03*
X190500000Y-123825000D03*
D14*
X261914000Y-72217000D03*
D15*
X264414000Y-72217000D03*
X266914000Y-72217000D03*
D16*
X260014000Y-65217000D03*
X268814000Y-65217000D03*
D10*
X240030000Y-205105000D03*
D11*
X242610000Y-207485000D03*
X242610000Y-212775000D03*
D12*
X245110000Y-205105000D03*
D11*
X247610000Y-207485000D03*
X247610000Y-212775000D03*
D10*
X250190000Y-205105000D03*
D13*
X241300000Y-202565000D03*
X247650000Y-200025000D03*
D10*
X140017500Y-167005000D03*
D11*
X142597500Y-169385000D03*
X142597500Y-174675000D03*
D12*
X145097500Y-167005000D03*
D11*
X147597500Y-169385000D03*
X147597500Y-174675000D03*
D10*
X150177500Y-167005000D03*
D13*
X141287500Y-164465000D03*
X147637500Y-161925000D03*
D10*
X201930000Y-128905000D03*
D11*
X204510000Y-131285000D03*
X204510000Y-136575000D03*
D12*
X207010000Y-128905000D03*
D11*
X209510000Y-131285000D03*
X209510000Y-136575000D03*
D10*
X212090000Y-128905000D03*
D13*
X203200000Y-126365000D03*
X209550000Y-123825000D03*
D10*
X140017500Y-205105000D03*
D11*
X142597500Y-207485000D03*
X142597500Y-212775000D03*
D12*
X145097500Y-205105000D03*
D11*
X147597500Y-207485000D03*
X147597500Y-212775000D03*
D10*
X150177500Y-205105000D03*
D13*
X141287500Y-202565000D03*
X147637500Y-200025000D03*
D10*
X101917500Y-90805000D03*
D11*
X104497500Y-93185000D03*
X104497500Y-98475000D03*
D12*
X106997500Y-90805000D03*
D11*
X109497500Y-93185000D03*
X109497500Y-98475000D03*
D10*
X112077500Y-90805000D03*
D13*
X103187500Y-88265000D03*
X109537500Y-85725000D03*
D10*
X63817500Y-167005000D03*
D11*
X66397500Y-169385000D03*
X66397500Y-174675000D03*
D12*
X68897500Y-167005000D03*
D11*
X71397500Y-169385000D03*
X71397500Y-174675000D03*
D10*
X73977500Y-167005000D03*
D13*
X65087500Y-164465000D03*
X71437500Y-161925000D03*
D10*
X220980000Y-167005000D03*
D11*
X223560000Y-169385000D03*
X223560000Y-174675000D03*
D12*
X226060000Y-167005000D03*
D11*
X228560000Y-169385000D03*
X228560000Y-174675000D03*
D10*
X231140000Y-167005000D03*
D13*
X222250000Y-164465000D03*
X228600000Y-161925000D03*
D10*
X220980000Y-205105000D03*
D11*
X223560000Y-207485000D03*
X223560000Y-212775000D03*
D12*
X226060000Y-205105000D03*
D11*
X228560000Y-207485000D03*
X228560000Y-212775000D03*
D10*
X231140000Y-205105000D03*
D13*
X222250000Y-202565000D03*
X228600000Y-200025000D03*
D10*
X182880000Y-167005000D03*
D11*
X185460000Y-169385000D03*
X185460000Y-174675000D03*
D12*
X187960000Y-167005000D03*
D11*
X190460000Y-169385000D03*
X190460000Y-174675000D03*
D10*
X193040000Y-167005000D03*
D13*
X184150000Y-164465000D03*
X190500000Y-161925000D03*
D19*
X152369000Y-63527500D03*
X145359000Y-63527500D03*
D20*
X151119000Y-61037500D03*
X146619000Y-61037500D03*
D21*
X71120000Y-63500000D03*
X78740000Y-58420000D03*
D22*
X78740000Y-67310000D03*
X71120000Y-67945000D03*
D23*
X74930000Y-71760000D03*
D24*
X90504000Y-58545000D03*
D25*
X93004000Y-58545000D03*
X95504000Y-58545000D03*
X95504000Y-55245000D03*
X93004000Y-55245000D03*
X90504000Y-55245000D03*
D26*
X174490000Y-59182000D03*
X174490000Y-61722000D03*
X174490000Y-64262000D03*
X174490000Y-66802000D03*
X174490000Y-69342000D03*
X174490000Y-71882000D03*
X174490000Y-74422000D03*
X174490000Y-76962000D03*
X174490000Y-79502000D03*
X174490000Y-82042000D03*
X174490000Y-84582000D03*
X174490000Y-87122000D03*
X158250000Y-59182000D03*
X158250000Y-61722000D03*
X158250000Y-64262000D03*
X158250000Y-66802000D03*
X158250000Y-69342000D03*
X158250000Y-71882000D03*
X158250000Y-74422000D03*
X158250000Y-76962000D03*
X158250000Y-79502000D03*
X158250000Y-82042000D03*
X158250000Y-84582000D03*
X158250000Y-87122000D03*
D27*
X119390000Y-77079000D03*
D28*
X119390000Y-74539000D03*
X119390000Y-71999000D03*
X119390000Y-69459000D03*
X127010000Y-69459000D03*
X127010000Y-71999000D03*
X127010000Y-74539000D03*
X127010000Y-77079000D03*
D29*
X130937000Y-78795000D03*
D30*
X143637000Y-78795000D03*
D29*
X108966000Y-71683000D03*
D30*
X96266000Y-71683000D03*
D29*
X108966000Y-67183000D03*
D30*
X96266000Y-67183000D03*
D29*
X143637000Y-69795000D03*
D30*
X130937000Y-69795000D03*
D29*
X130937000Y-74295000D03*
D30*
X143637000Y-74295000D03*
M02*
