M48
; DRILL file {KiCad 8.0.6} date 2024-11-09T01:21:00+0100
; FORMAT={-:-/ absolute / metric / decimal}
; #@! TF.CreationDate,2024-11-09T01:21:00+01:00
; #@! TF.GenerationSoftware,Kicad,Pcbnew,8.0.6
; #@! TF.FileFunction,Plated,1,2,PTH
FMAT,2
METRIC
; #@! TA.AperFunction,Plated,PTH,ViaDrill
T1C0.300
; #@! TA.AperFunction,Plated,PTH,ComponentDrill
T2C0.800
; #@! TA.AperFunction,Plated,PTH,ComponentDrill
T3C0.900
; #@! TA.AperFunction,Plated,PTH,ComponentDrill
T4C0.990
; #@! TA.AperFunction,Plated,PTH,ComponentDrill
T5C1.000
; #@! TA.AperFunction,Plated,PTH,ComponentDrill
T6C1.200
; #@! TA.AperFunction,Plated,PTH,ComponentDrill
T7C1.300
; #@! TA.AperFunction,Plated,PTH,ComponentDrill
T8C1.499
; #@! TA.AperFunction,Plated,PTH,ComponentDrill
T9C1.600
; #@! TA.AperFunction,Plated,PTH,ComponentDrill
T10C1.800
%
G90
G05
T1
X64.262Y-144.272
X64.389Y-94.234
X64.389Y-132.334
X64.389Y-170.561
X64.389Y-175.133
X64.389Y-208.661
X64.643Y-99.187
X64.643Y-213.36
X64.77Y-137.16
X65.024Y-105.918
X65.151Y-182.499
X65.913Y-78.359
X68.326Y-86.741
X68.453Y-110.998
X68.58Y-124.841
X69.469Y-189.103
X69.723Y-219.075
X70.485Y-117.475
X70.739Y-141.732
X70.993Y-149.098
X73.025Y-137.541
X73.152Y-213.995
X73.279Y-177.165
X74.168Y-92.837
X74.168Y-135.255
X74.676Y-95.885
X74.676Y-98.552
X74.676Y-172.72
X75.057Y-210.693
X78.105Y-86.233
X78.74Y-98.425
X79.883Y-176.53
X80.137Y-128.27
X80.137Y-213.106
X80.264Y-166.624
X80.391Y-204.724
X81.153Y-141.478
X82.677Y-72.898
X83.058Y-188.214
X83.185Y-67.183
X83.439Y-170.561
X83.439Y-208.534
X83.566Y-94.234
X83.566Y-132.334
X83.566Y-137.033
X83.566Y-175.133
X83.693Y-98.806
X83.693Y-213.36
X84.074Y-117.475
X85.598Y-110.998
X86.868Y-219.202
X87.376Y-71.247
X87.884Y-149.606
X89.154Y-67.183
X91.567Y-141.605
X91.694Y-73.66
X92.075Y-177.292
X92.71Y-98.806
X92.964Y-96.012
X93.091Y-133.985
X93.091Y-213.741
X93.472Y-136.271
X93.472Y-172.847
X93.599Y-93.091
X93.726Y-69.469
X93.726Y-210.566
X97.282Y-212.471
X97.536Y-98.679
X98.044Y-86.36
X98.552Y-141.605
X98.806Y-176.403
X99.187Y-128.905
X99.187Y-166.878
X99.822Y-205.486
X102.489Y-94.107
X102.489Y-170.434
X102.489Y-208.788
X102.616Y-63.119
X102.616Y-132.461
X102.616Y-136.906
X102.716Y-98.73
X102.743Y-110.998
X102.743Y-175.26
X102.87Y-213.233
X104.394Y-186.563
X104.775Y-146.939
X104.902Y-66.929
X105.029Y-57.404
X107.188Y-116.84
X108.331Y-218.821
X109.347Y-77.724
X111.379Y-67.056
X111.379Y-141.224
X111.379Y-213.487
X111.506Y-177.038
X112.395Y-97.028
X112.776Y-93.218
X112.776Y-134.112
X112.776Y-136.906
X112.903Y-98.933
X113.03Y-172.339
X113.03Y-210.693
X115.062Y-72.136
X116.078Y-86.36
X117.729Y-204.724
X117.856Y-213.106
X118.11Y-61.214
X118.237Y-128.651
X118.237Y-167.005
X118.364Y-98.552
X118.364Y-176.022
X118.999Y-80.645
X119.126Y-141.351
X121.412Y-116.586
X121.412Y-170.434
X121.539Y-132.334
X121.539Y-175.133
X121.539Y-208.661
X121.666Y-94.234
X121.666Y-213.233
X121.793Y-98.806
X121.793Y-137.033
X122.428Y-72.517
X123.444Y-186.309
X124.079Y-111.252
X124.968Y-151.003
X125.222Y-218.44
X125.857Y-85.979
X126.873Y-65.913
X129.159Y-141.605
X130.175Y-213.741
X130.429Y-177.038
X130.683Y-137.287
X130.937Y-61.468
X131.064Y-92.71
X131.445Y-134.62
X131.699Y-98.933
X131.953Y-172.72
X132.207Y-97.028
X132.207Y-210.693
X135.89Y-89.408
X136.017Y-99.314
X136.652Y-70.485
X137.287Y-128.651
X137.287Y-141.351
X137.414Y-167.005
X137.414Y-204.724
X138.049Y-81.026
X138.049Y-176.657
X138.176Y-213.741
X138.938Y-68.199
X139.319Y-116.205
X139.827Y-111.252
X140.589Y-94.234
X140.589Y-132.461
X140.589Y-170.561
X140.589Y-208.661
X140.716Y-136.906
X140.843Y-70.485
X140.843Y-213.487
X140.97Y-175.387
X141.224Y-98.806
X141.351Y-57.15
X141.351Y-186.69
X142.621Y-148.082
X144.78Y-217.678
X145.923Y-141.224
X146.05Y-87.63
X147.193Y-70.739
X147.193Y-73.152
X147.193Y-75.946
X147.193Y-78.359
X147.193Y-81.026
X148.336Y-117.475
X148.463Y-213.868
X148.844Y-63.754
X149.098Y-176.657
X149.479Y-156.718
X149.733Y-98.933
X149.733Y-138.049
X149.86Y-211.709
X150.241Y-172.72
X150.241Y-195.199
X150.368Y-92.456
X150.622Y-103.378
X150.876Y-135.001
X151.384Y-96.139
X151.765Y-84.963
X154.813Y-142.367
X155.067Y-61.341
X155.067Y-65.151
X155.067Y-139.573
X155.194Y-70.993
X155.194Y-102.616
X155.194Y-179.197
X155.448Y-118.872
X155.448Y-176.403
X155.575Y-183.007
X155.829Y-98.425
X155.956Y-101.346
X156.21Y-164.973
X156.464Y-214.884
X157.48Y-212.979
X157.607Y-92.583
X159.004Y-101.346
X160.274Y-194.564
X161.544Y-72.644
X161.671Y-60.198
X162.052Y-78.486
X164.592Y-68.961
X164.592Y-90.297
X164.719Y-123.317
X164.973Y-95.377
X165.227Y-55.118
X165.989Y-56.515
X167.386Y-86.36
X167.386Y-159.893
X168.021Y-91.948
X169.545Y-55.88
X169.672Y-214.376
X170.18Y-209.55
X170.307Y-68.834
X171.577Y-60.325
X173.228Y-97.917
X175.387Y-141.351
X175.514Y-127.0
X175.641Y-115.316
X175.895Y-157.226
X176.53Y-172.72
X176.784Y-193.802
X176.911Y-92.075
X178.308Y-64.897
X179.197Y-216.027
X180.213Y-204.851
X181.864Y-118.491
X182.626Y-98.425
X182.88Y-101.981
X183.515Y-94.234
X183.515Y-132.334
X183.515Y-208.661
X183.642Y-170.561
X183.769Y-59.436
X183.769Y-99.441
X183.896Y-175.006
X183.896Y-213.233
X184.15Y-137.414
X185.801Y-108.966
X186.436Y-78.486
X186.436Y-81.153
X187.325Y-186.817
X187.579Y-148.717
X188.214Y-64.389
X190.373Y-99.822
X191.262Y-95.758
X191.77Y-55.88
X191.897Y-126.111
X192.278Y-213.868
X192.405Y-137.922
X193.04Y-176.403
X193.675Y-171.958
X193.929Y-134.493
X194.437Y-210.693
X196.088Y-77.597
X197.612Y-81.534
X197.612Y-99.695
X197.739Y-126.873
X198.12Y-89.916
X198.12Y-176.022
X198.247Y-213.614
X199.136Y-204.343
X199.263Y-137.541
X199.39Y-166.497
X201.041Y-65.151
X202.438Y-94.234
X202.438Y-208.534
X202.565Y-170.434
X202.565Y-175.133
X202.692Y-132.334
X202.819Y-72.263
X202.819Y-213.233
X202.946Y-99.441
X203.073Y-137.541
X203.073Y-214.63
X203.581Y-148.971
X203.708Y-73.279
X203.962Y-217.297
X204.216Y-138.557
X204.343Y-176.657
X204.47Y-186.817
X204.597Y-100.711
X205.486Y-103.378
X207.137Y-110.998
X208.026Y-71.755
X209.423Y-99.822
X209.677Y-73.152
X210.312Y-95.758
X211.074Y-100.076
X211.709Y-126.111
X211.709Y-214.376
X212.09Y-138.049
X212.471Y-92.456
X212.471Y-135.636
X212.979Y-96.774
X213.106Y-176.276
X213.233Y-173.228
X213.741Y-210.947
X216.281Y-99.822
X216.535Y-81.534
X217.17Y-213.868
X217.424Y-89.281
X217.424Y-127.635
X217.551Y-66.167
X217.551Y-175.133
X217.805Y-137.541
X218.059Y-166.624
X218.44Y-204.597
X218.694Y-93.853
X221.488Y-170.434
X221.615Y-94.234
X221.615Y-132.334
X221.615Y-175.006
X221.615Y-208.661
X221.742Y-213.106
X221.869Y-214.884
X221.996Y-99.695
X221.996Y-137.414
X222.25Y-148.463
X222.25Y-218.059
X223.139Y-100.584
X223.139Y-138.43
X223.393Y-176.784
X224.536Y-110.236
X224.663Y-186.817
X225.044Y-103.378
X225.679Y-64.897
X228.346Y-77.851
X228.473Y-99.822
X229.108Y-214.122
X229.235Y-89.281
X229.362Y-95.758
X229.87Y-126.238
X230.251Y-138.303
X230.886Y-70.485
X231.013Y-100.076
X231.14Y-176.403
X231.521Y-92.583
X231.521Y-174.117
X231.902Y-210.439
X232.156Y-72.263
X232.537Y-96.901
X232.537Y-134.493
X234.061Y-66.548
X235.585Y-81.534
X235.839Y-89.535
X236.474Y-99.695
X236.474Y-127.508
X237.236Y-213.487
X237.363Y-166.37
X237.363Y-205.105
X237.744Y-93.853
X237.744Y-137.541
X237.998Y-176.403
X240.538Y-94.234
X240.538Y-170.561
X240.538Y-175.006
X240.665Y-208.661
X240.792Y-132.334
X240.919Y-99.695
X240.919Y-137.414
X241.046Y-77.851
X241.046Y-213.233
X241.681Y-219.837
X242.189Y-100.584
X242.443Y-138.557
X242.57Y-176.53
X242.824Y-110.363
X243.205Y-148.336
X243.332Y-103.378
X244.221Y-87.249
X245.364Y-72.009
X245.872Y-185.801
X247.523Y-99.822
X247.65Y-77.216
X248.158Y-214.503
X248.412Y-95.758
X249.047Y-137.668
X249.428Y-100.203
X250.063Y-126.238
X250.19Y-175.641
X250.444Y-210.693
X250.698Y-96.647
X251.206Y-134.112
X251.46Y-173.228
X253.746Y-66.802
X253.873Y-70.612
X254.762Y-81.407
X255.27Y-92.456
X255.397Y-127.381
X255.397Y-175.768
X255.524Y-213.614
X255.905Y-138.303
X256.159Y-204.724
X256.413Y-166.624
X256.794Y-99.314
X257.556Y-215.646
X259.461Y-94.107
X259.715Y-132.334
X259.715Y-170.307
X259.715Y-208.661
X259.842Y-77.216
X259.842Y-137.033
X259.941Y-213.057
X259.969Y-175.133
X260.096Y-99.949
X260.223Y-177.038
X260.477Y-218.948
X262.255Y-109.728
X262.509Y-147.066
X262.89Y-184.785
X264.414Y-64.77
X266.319Y-142.24
X266.446Y-99.822
X266.827Y-69.85
X267.462Y-95.758
X267.589Y-126.238
X267.843Y-74.549
X267.843Y-88.265
X267.97Y-101.6
X268.097Y-138.684
X268.605Y-144.272
X269.113Y-178.308
X269.621Y-96.901
X269.748Y-134.62
X269.875Y-140.843
X269.875Y-210.82
X270.002Y-172.72
X271.399Y-81.407
X271.78Y-85.852
X272.796Y-221.234
X273.05Y-154.686
X273.431Y-138.811
X273.431Y-141.732
X273.685Y-172.593
X274.066Y-131.064
X274.066Y-194.31
X274.32Y-99.441
X274.32Y-115.57
T2
X119.39Y-69.459
X119.39Y-71.999
X119.39Y-74.539
X119.39Y-77.079
X127.01Y-69.459
X127.01Y-71.999
X127.01Y-74.539
X127.01Y-77.079
T3
X90.504Y-55.245
X90.504Y-58.545
X93.004Y-55.245
X93.004Y-58.545
X95.504Y-55.245
X95.504Y-58.545
T4
X146.619Y-61.037
X151.119Y-61.037
T5
X99.076Y-77.683
X101.616Y-77.683
X104.156Y-77.683
X115.19Y-74.739
X115.19Y-77.279
X223.179Y-72.217
X225.679Y-72.217
X228.179Y-72.217
X261.914Y-72.217
X264.414Y-72.217
X266.914Y-72.217
T6
X74.93Y-71.76
X96.266Y-67.183
X96.266Y-71.683
X108.966Y-67.183
X108.966Y-71.683
X130.937Y-69.795
X130.937Y-74.295
X130.937Y-78.795
X143.637Y-69.795
X143.637Y-74.295
X143.637Y-78.795
X158.75Y-59.182
X158.75Y-61.722
X158.75Y-64.262
X158.75Y-66.802
X158.75Y-69.342
X158.75Y-71.882
X158.75Y-74.422
X158.75Y-76.962
X158.75Y-79.502
X158.75Y-82.042
X158.75Y-84.582
X158.75Y-87.122
X173.99Y-59.182
X173.99Y-61.722
X173.99Y-64.262
X173.99Y-66.802
X173.99Y-69.342
X173.99Y-71.882
X173.99Y-74.422
X173.99Y-76.962
X173.99Y-79.502
X173.99Y-82.042
X173.99Y-84.582
X173.99Y-87.122
T7
X145.359Y-63.527
X152.369Y-63.527
T8
X65.087Y-88.265
X65.087Y-126.365
X65.087Y-164.465
X65.087Y-202.565
X71.438Y-85.725
X71.438Y-123.825
X71.438Y-161.925
X71.438Y-200.025
X84.138Y-88.265
X84.138Y-126.365
X84.138Y-164.465
X84.138Y-202.565
X90.487Y-85.725
X90.487Y-123.825
X90.487Y-161.925
X90.487Y-200.025
X103.188Y-88.265
X103.188Y-126.365
X103.188Y-164.465
X103.188Y-202.565
X109.537Y-85.725
X109.537Y-123.825
X109.537Y-161.925
X109.537Y-200.025
X122.237Y-88.265
X122.237Y-126.365
X122.237Y-164.465
X122.237Y-202.565
X128.588Y-85.725
X128.588Y-123.825
X128.588Y-161.925
X128.588Y-200.025
X141.287Y-88.265
X141.287Y-126.365
X141.287Y-164.465
X141.287Y-202.565
X147.637Y-85.725
X147.637Y-123.825
X147.637Y-161.925
X147.637Y-200.025
X184.15Y-88.265
X184.15Y-126.365
X184.15Y-164.465
X184.15Y-202.565
X190.5Y-85.725
X190.5Y-123.825
X190.5Y-161.925
X190.5Y-200.025
X203.2Y-88.265
X203.2Y-126.365
X203.2Y-164.465
X203.2Y-202.565
X209.55Y-85.725
X209.55Y-123.825
X209.55Y-161.925
X209.55Y-200.025
X222.25Y-88.265
X222.25Y-126.365
X222.25Y-164.465
X222.25Y-202.565
X228.6Y-85.725
X228.6Y-123.825
X228.6Y-161.925
X228.6Y-200.025
X241.3Y-88.265
X241.3Y-126.365
X241.3Y-164.465
X241.3Y-202.565
X247.65Y-85.725
X247.65Y-123.825
X247.65Y-161.925
X247.65Y-200.025
X260.35Y-88.265
X260.35Y-126.365
X260.35Y-164.465
X260.35Y-202.565
X266.7Y-85.725
X266.7Y-123.825
X266.7Y-161.925
X266.7Y-200.025
T9
X71.12Y-67.945
X78.74Y-67.31
T10
X221.279Y-65.367G85X221.279Y-65.067
G05
X230.079Y-65.367G85X230.079Y-65.067
G05
X260.014Y-65.367G85X260.014Y-65.067
G05
X268.814Y-65.367G85X268.814Y-65.067
G05
M30
