G04 #@! TF.GenerationSoftware,KiCad,Pcbnew,8.0.6*
G04 #@! TF.CreationDate,2024-11-09T01:20:35+01:00*
G04 #@! TF.ProjectId,DMX_MIDI_FIGHTER,444d585f-4d49-4444-995f-464947485445,rev?*
G04 #@! TF.SameCoordinates,Original*
G04 #@! TF.FileFunction,Paste,Bot*
G04 #@! TF.FilePolarity,Positive*
%FSLAX46Y46*%
G04 Gerber Fmt 4.6, Leading zero omitted, Abs format (unit mm)*
G04 Created by KiCad (PCBNEW 8.0.6) date 2024-11-09 01:20:35*
%MOMM*%
%LPD*%
G01*
G04 APERTURE LIST*
G04 Aperture macros list*
%AMRoundRect*
0 Rectangle with rounded corners*
0 $1 Rounding radius*
0 $2 $3 $4 $5 $6 $7 $8 $9 X,Y pos of 4 corners*
0 Add a 4 corners polygon primitive as box body*
4,1,4,$2,$3,$4,$5,$6,$7,$8,$9,$2,$3,0*
0 Add four circle primitives for the rounded corners*
1,1,$1+$1,$2,$3*
1,1,$1+$1,$4,$5*
1,1,$1+$1,$6,$7*
1,1,$1+$1,$8,$9*
0 Add four rect primitives between the rounded corners*
20,1,$1+$1,$2,$3,$4,$5,0*
20,1,$1+$1,$4,$5,$6,$7,0*
20,1,$1+$1,$6,$7,$8,$9,0*
20,1,$1+$1,$8,$9,$2,$3,0*%
G04 Aperture macros list end*
%ADD10R,1.500000X1.500000*%
%ADD11RoundRect,0.250000X-0.375000X-0.625000X0.375000X-0.625000X0.375000X0.625000X-0.375000X0.625000X0*%
%ADD12RoundRect,0.250000X0.350000X0.450000X-0.350000X0.450000X-0.350000X-0.450000X0.350000X-0.450000X0*%
%ADD13RoundRect,0.250000X-0.250000X-0.475000X0.250000X-0.475000X0.250000X0.475000X-0.250000X0.475000X0*%
%ADD14RoundRect,0.250000X0.375000X0.625000X-0.375000X0.625000X-0.375000X-0.625000X0.375000X-0.625000X0*%
%ADD15RoundRect,0.250000X-0.350000X-0.450000X0.350000X-0.450000X0.350000X0.450000X-0.350000X0.450000X0*%
%ADD16RoundRect,0.150000X0.825000X0.150000X-0.825000X0.150000X-0.825000X-0.150000X0.825000X-0.150000X0*%
G04 APERTURE END LIST*
D10*
X103695500Y-208407000D03*
X103695500Y-211836000D03*
X110299500Y-208407000D03*
X110299500Y-211836000D03*
X260858000Y-132207000D03*
X260858000Y-135636000D03*
X267462000Y-132207000D03*
X267462000Y-135636000D03*
X103695500Y-170307000D03*
X103695500Y-173736000D03*
X110299500Y-170307000D03*
X110299500Y-173736000D03*
X222758000Y-132207000D03*
X222758000Y-135636000D03*
X229362000Y-132207000D03*
X229362000Y-135636000D03*
X141795500Y-94107000D03*
X141795500Y-97536000D03*
X148399500Y-94107000D03*
X148399500Y-97536000D03*
X84645500Y-94107000D03*
X84645500Y-97536000D03*
X91249500Y-94107000D03*
X91249500Y-97536000D03*
X184658000Y-208407000D03*
X184658000Y-211836000D03*
X191262000Y-208407000D03*
X191262000Y-211836000D03*
X141795500Y-132207000D03*
X141795500Y-135636000D03*
X148399500Y-132207000D03*
X148399500Y-135636000D03*
X260858000Y-94107000D03*
X260858000Y-97536000D03*
X267462000Y-94107000D03*
X267462000Y-97536000D03*
X203708000Y-208407000D03*
X203708000Y-211836000D03*
X210312000Y-208407000D03*
X210312000Y-211836000D03*
X222758000Y-94107000D03*
X222758000Y-97536000D03*
X229362000Y-94107000D03*
X229362000Y-97536000D03*
X84645500Y-170307000D03*
X84645500Y-173736000D03*
X91249500Y-170307000D03*
X91249500Y-173736000D03*
X184658000Y-94107000D03*
X184658000Y-97536000D03*
X191262000Y-94107000D03*
X191262000Y-97536000D03*
X260858000Y-170307000D03*
X260858000Y-173736000D03*
X267462000Y-170307000D03*
X267462000Y-173736000D03*
X241808000Y-132207000D03*
X241808000Y-135636000D03*
X248412000Y-132207000D03*
X248412000Y-135636000D03*
X103695500Y-132207000D03*
X103695500Y-135636000D03*
X110299500Y-132207000D03*
X110299500Y-135636000D03*
X122745500Y-170307000D03*
X122745500Y-173736000D03*
X129349500Y-170307000D03*
X129349500Y-173736000D03*
X65595500Y-132207000D03*
X65595500Y-135636000D03*
X72199500Y-132207000D03*
X72199500Y-135636000D03*
X122745500Y-208407000D03*
X122745500Y-211836000D03*
X129349500Y-208407000D03*
X129349500Y-211836000D03*
X241808000Y-170307000D03*
X241808000Y-173736000D03*
X248412000Y-170307000D03*
X248412000Y-173736000D03*
X84645500Y-208407000D03*
X84645500Y-211836000D03*
X91249500Y-208407000D03*
X91249500Y-211836000D03*
X122745500Y-94107000D03*
X122745500Y-97536000D03*
X129349500Y-94107000D03*
X129349500Y-97536000D03*
X260858000Y-208407000D03*
X260858000Y-211836000D03*
X267462000Y-208407000D03*
X267462000Y-211836000D03*
X122745500Y-132207000D03*
X122745500Y-135636000D03*
X129349500Y-132207000D03*
X129349500Y-135636000D03*
X241808000Y-94107000D03*
X241808000Y-97536000D03*
X248412000Y-94107000D03*
X248412000Y-97536000D03*
X203708000Y-94107000D03*
X203708000Y-97536000D03*
X210312000Y-94107000D03*
X210312000Y-97536000D03*
X84645500Y-132207000D03*
X84645500Y-135636000D03*
X91249500Y-132207000D03*
X91249500Y-135636000D03*
X65595500Y-208407000D03*
X65595500Y-211836000D03*
X72199500Y-208407000D03*
X72199500Y-211836000D03*
X203708000Y-170307000D03*
X203708000Y-173736000D03*
X210312000Y-170307000D03*
X210312000Y-173736000D03*
X65595500Y-94107000D03*
X65595500Y-97536000D03*
X72199500Y-94107000D03*
X72199500Y-97536000D03*
X184658000Y-132207000D03*
X184658000Y-135636000D03*
X191262000Y-132207000D03*
X191262000Y-135636000D03*
X241808000Y-208407000D03*
X241808000Y-211836000D03*
X248412000Y-208407000D03*
X248412000Y-211836000D03*
X141795500Y-170307000D03*
X141795500Y-173736000D03*
X148399500Y-170307000D03*
X148399500Y-173736000D03*
X203708000Y-132207000D03*
X203708000Y-135636000D03*
X210312000Y-132207000D03*
X210312000Y-135636000D03*
X141795500Y-208407000D03*
X141795500Y-211836000D03*
X148399500Y-208407000D03*
X148399500Y-211836000D03*
X103695500Y-94107000D03*
X103695500Y-97536000D03*
X110299500Y-94107000D03*
X110299500Y-97536000D03*
X65595500Y-170307000D03*
X65595500Y-173736000D03*
X72199500Y-170307000D03*
X72199500Y-173736000D03*
X222758000Y-170307000D03*
X222758000Y-173736000D03*
X229362000Y-170307000D03*
X229362000Y-173736000D03*
X222758000Y-208407000D03*
X222758000Y-211836000D03*
X229362000Y-208407000D03*
X229362000Y-211836000D03*
X184658000Y-170307000D03*
X184658000Y-173736000D03*
X191262000Y-170307000D03*
X191262000Y-173736000D03*
D11*
X200908000Y-123190000D03*
X203708000Y-123190000D03*
D12*
X152892000Y-79502000D03*
X150892000Y-79502000D03*
X182753000Y-69469000D03*
X180753000Y-69469000D03*
D11*
X120012000Y-199390000D03*
X122812000Y-199390000D03*
X120012000Y-161290000D03*
X122812000Y-161290000D03*
X220088000Y-199390000D03*
X222888000Y-199390000D03*
D12*
X152892000Y-77470000D03*
X150892000Y-77470000D03*
X182753000Y-71501000D03*
X180753000Y-71501000D03*
D13*
X244160000Y-99568000D03*
X246060000Y-99568000D03*
D11*
X101092000Y-85090000D03*
X103892000Y-85090000D03*
D14*
X116090000Y-69779000D03*
X113290000Y-69779000D03*
D11*
X201038000Y-199390000D03*
X203838000Y-199390000D03*
X82036000Y-85090000D03*
X84836000Y-85090000D03*
D13*
X105984000Y-175768000D03*
X107884000Y-175768000D03*
D12*
X152892000Y-71374000D03*
X150892000Y-71374000D03*
D13*
X206126000Y-175768000D03*
X208026000Y-175768000D03*
D11*
X100962000Y-199390000D03*
X103762000Y-199390000D03*
X258058000Y-85090000D03*
X260858000Y-85090000D03*
D15*
X180737000Y-77597000D03*
X182737000Y-77597000D03*
D11*
X181988000Y-161290000D03*
X184788000Y-161290000D03*
D13*
X225110000Y-99568000D03*
X227010000Y-99568000D03*
D11*
X220088000Y-85090000D03*
X222888000Y-85090000D03*
D13*
X187010000Y-99568000D03*
X188910000Y-99568000D03*
D11*
X120012000Y-123190000D03*
X122812000Y-123190000D03*
D16*
X89975000Y-68595000D03*
X89975000Y-69865000D03*
X89975000Y-71135000D03*
X89975000Y-72405000D03*
X85025000Y-72405000D03*
X85025000Y-71135000D03*
X85025000Y-69865000D03*
X85025000Y-68595000D03*
D13*
X86934000Y-175768000D03*
X88834000Y-175768000D03*
X144084000Y-213868000D03*
X145984000Y-213868000D03*
D11*
X258188000Y-123190000D03*
X260988000Y-123190000D03*
X181988000Y-199390000D03*
X184788000Y-199390000D03*
D13*
X67884000Y-137668000D03*
X69784000Y-137668000D03*
D12*
X152892000Y-73406000D03*
X150892000Y-73406000D03*
D11*
X81912000Y-199390000D03*
X84712000Y-199390000D03*
D13*
X206060000Y-99568000D03*
X207960000Y-99568000D03*
X105984000Y-137668000D03*
X107884000Y-137668000D03*
D11*
X139062000Y-199390000D03*
X141862000Y-199390000D03*
X62862000Y-161290000D03*
X65662000Y-161290000D03*
X239008000Y-85090000D03*
X241808000Y-85090000D03*
X81912000Y-161290000D03*
X84712000Y-161290000D03*
D13*
X67884000Y-175768000D03*
X69784000Y-175768000D03*
X86934000Y-137668000D03*
X88834000Y-137668000D03*
X125034000Y-137668000D03*
X126934000Y-137668000D03*
D11*
X239138000Y-199390000D03*
X241938000Y-199390000D03*
X239138000Y-123190000D03*
X241938000Y-123190000D03*
X220088000Y-123190000D03*
X222888000Y-123190000D03*
X258188000Y-161290000D03*
X260988000Y-161290000D03*
D13*
X263144000Y-175768000D03*
X265044000Y-175768000D03*
X86868000Y-99568000D03*
X88768000Y-99568000D03*
D12*
X152892000Y-81534000D03*
X150892000Y-81534000D03*
D11*
X220088000Y-161290000D03*
X222888000Y-161290000D03*
X181988000Y-85090000D03*
X184788000Y-85090000D03*
X100962000Y-161290000D03*
X103762000Y-161290000D03*
D13*
X263210000Y-137668000D03*
X265110000Y-137668000D03*
D12*
X182753000Y-73533000D03*
X180753000Y-73533000D03*
D11*
X62862000Y-85000000D03*
X65662000Y-85000000D03*
D13*
X225044000Y-137668000D03*
X226944000Y-137668000D03*
D11*
X81912000Y-123190000D03*
X84712000Y-123190000D03*
D12*
X152892000Y-75438000D03*
X150892000Y-75438000D03*
D13*
X263210000Y-213868000D03*
X265110000Y-213868000D03*
X225110000Y-213868000D03*
X227010000Y-213868000D03*
X244094000Y-213868000D03*
X245994000Y-213868000D03*
X86934000Y-213868000D03*
X88834000Y-213868000D03*
X144084000Y-137668000D03*
X145984000Y-137668000D03*
D12*
X182737000Y-75565000D03*
X180737000Y-75565000D03*
D11*
X62600000Y-123000000D03*
X65400000Y-123000000D03*
D13*
X105984000Y-213868000D03*
X107884000Y-213868000D03*
D11*
X239138000Y-161290000D03*
X241938000Y-161290000D03*
D13*
X125034000Y-99568000D03*
X126934000Y-99568000D03*
D11*
X120012000Y-85090000D03*
X122812000Y-85090000D03*
D13*
X125034000Y-213868000D03*
X126934000Y-213868000D03*
D11*
X139062000Y-85090000D03*
X141862000Y-85090000D03*
D13*
X225110000Y-175768000D03*
X227010000Y-175768000D03*
X187010000Y-175768000D03*
X188910000Y-175768000D03*
X105984000Y-99568000D03*
X107884000Y-99568000D03*
D11*
X139062000Y-161290000D03*
X141862000Y-161290000D03*
D13*
X263144000Y-99568000D03*
X265044000Y-99568000D03*
X125034000Y-175768000D03*
X126934000Y-175768000D03*
D11*
X100962000Y-123190000D03*
X103762000Y-123190000D03*
D15*
X180737000Y-79629000D03*
X182737000Y-79629000D03*
D13*
X144338000Y-99568000D03*
X146238000Y-99568000D03*
X187010000Y-213868000D03*
X188910000Y-213868000D03*
X206060000Y-137668000D03*
X207960000Y-137668000D03*
X144084000Y-175768000D03*
X145984000Y-175768000D03*
X206060000Y-213868000D03*
X207960000Y-213868000D03*
X244160000Y-137668000D03*
X246060000Y-137668000D03*
D12*
X182753000Y-67437000D03*
X180753000Y-67437000D03*
D13*
X244160000Y-175768000D03*
X246060000Y-175768000D03*
D11*
X181988000Y-123190000D03*
X184788000Y-123190000D03*
X139062000Y-123190000D03*
X141862000Y-123190000D03*
D13*
X67884000Y-99568000D03*
X69784000Y-99568000D03*
D11*
X258188000Y-199390000D03*
X260988000Y-199390000D03*
X62862000Y-199390000D03*
X65662000Y-199390000D03*
X201038000Y-85090000D03*
X203838000Y-85090000D03*
D13*
X187010000Y-137668000D03*
X188910000Y-137668000D03*
X67950000Y-213868000D03*
X69850000Y-213868000D03*
D11*
X201038000Y-161290000D03*
X203838000Y-161290000D03*
M02*
