G04 #@! TF.GenerationSoftware,KiCad,Pcbnew,8.0.6*
G04 #@! TF.CreationDate,2024-11-09T01:20:35+01:00*
G04 #@! TF.ProjectId,DMX_MIDI_FIGHTER,444d585f-4d49-4444-995f-464947485445,rev?*
G04 #@! TF.SameCoordinates,Original*
G04 #@! TF.FileFunction,Legend,Top*
G04 #@! TF.FilePolarity,Positive*
%FSLAX46Y46*%
G04 Gerber Fmt 4.6, Leading zero omitted, Abs format (unit mm)*
G04 Created by KiCad (PCBNEW 8.0.6) date 2024-11-09 01:20:35*
%MOMM*%
%LPD*%
G01*
G04 APERTURE LIST*
G04 Aperture macros list*
%AMRoundRect*
0 Rectangle with rounded corners*
0 $1 Rounding radius*
0 $2 $3 $4 $5 $6 $7 $8 $9 X,Y pos of 4 corners*
0 Add a 4 corners polygon primitive as box body*
4,1,4,$2,$3,$4,$5,$6,$7,$8,$9,$2,$3,0*
0 Add four circle primitives for the rounded corners*
1,1,$1+$1,$2,$3*
1,1,$1+$1,$4,$5*
1,1,$1+$1,$6,$7*
1,1,$1+$1,$8,$9*
0 Add four rect primitives between the rounded corners*
20,1,$1+$1,$2,$3,$4,$5,0*
20,1,$1+$1,$4,$5,$6,$7,0*
20,1,$1+$1,$6,$7,$8,$9,0*
20,1,$1+$1,$8,$9,$2,$3,0*%
G04 Aperture macros list end*
%ADD10C,0.150000*%
%ADD11C,0.120000*%
%ADD12C,1.498600*%
%ADD13C,1.000000*%
%ADD14C,3.987800*%
%ADD15C,2.200000*%
%ADD16R,1.800000X1.800000*%
%ADD17C,1.800000*%
%ADD18RoundRect,0.750000X0.750000X-1.250000X0.750000X1.250000X-0.750000X1.250000X-0.750000X-1.250000X0*%
%ADD19R,1.700000X1.700000*%
%ADD20O,1.700000X1.700000*%
%ADD21C,2.100000*%
%ADD22C,1.750000*%
%ADD23C,1.600000*%
%ADD24C,3.400000*%
%ADD25C,2.900000*%
%ADD26RoundRect,0.250000X-0.450000X-0.450000X0.450000X-0.450000X0.450000X0.450000X-0.450000X0.450000X0*%
%ADD27C,1.400000*%
%ADD28O,3.000000X2.200000*%
%ADD29R,1.600000X1.600000*%
%ADD30O,1.600000X1.600000*%
%ADD31C,2.400000*%
%ADD32O,2.400000X2.400000*%
G04 APERTURE END LIST*
D10*
X100800700Y-212248523D02*
X100848319Y-212105666D01*
X100848319Y-212105666D02*
X100848319Y-211867571D01*
X100848319Y-211867571D02*
X100800700Y-211772333D01*
X100800700Y-211772333D02*
X100753080Y-211724714D01*
X100753080Y-211724714D02*
X100657842Y-211677095D01*
X100657842Y-211677095D02*
X100562604Y-211677095D01*
X100562604Y-211677095D02*
X100467366Y-211724714D01*
X100467366Y-211724714D02*
X100419747Y-211772333D01*
X100419747Y-211772333D02*
X100372128Y-211867571D01*
X100372128Y-211867571D02*
X100324509Y-212058047D01*
X100324509Y-212058047D02*
X100276890Y-212153285D01*
X100276890Y-212153285D02*
X100229271Y-212200904D01*
X100229271Y-212200904D02*
X100134033Y-212248523D01*
X100134033Y-212248523D02*
X100038795Y-212248523D01*
X100038795Y-212248523D02*
X99943557Y-212200904D01*
X99943557Y-212200904D02*
X99895938Y-212153285D01*
X99895938Y-212153285D02*
X99848319Y-212058047D01*
X99848319Y-212058047D02*
X99848319Y-211819952D01*
X99848319Y-211819952D02*
X99895938Y-211677095D01*
X99848319Y-211343761D02*
X100848319Y-211105666D01*
X100848319Y-211105666D02*
X100134033Y-210915190D01*
X100134033Y-210915190D02*
X100848319Y-210724714D01*
X100848319Y-210724714D02*
X99848319Y-210486619D01*
X99943557Y-210153285D02*
X99895938Y-210105666D01*
X99895938Y-210105666D02*
X99848319Y-210010428D01*
X99848319Y-210010428D02*
X99848319Y-209772333D01*
X99848319Y-209772333D02*
X99895938Y-209677095D01*
X99895938Y-209677095D02*
X99943557Y-209629476D01*
X99943557Y-209629476D02*
X100038795Y-209581857D01*
X100038795Y-209581857D02*
X100134033Y-209581857D01*
X100134033Y-209581857D02*
X100276890Y-209629476D01*
X100276890Y-209629476D02*
X100848319Y-210200904D01*
X100848319Y-210200904D02*
X100848319Y-209581857D01*
X99848319Y-208962809D02*
X99848319Y-208867571D01*
X99848319Y-208867571D02*
X99895938Y-208772333D01*
X99895938Y-208772333D02*
X99943557Y-208724714D01*
X99943557Y-208724714D02*
X100038795Y-208677095D01*
X100038795Y-208677095D02*
X100229271Y-208629476D01*
X100229271Y-208629476D02*
X100467366Y-208629476D01*
X100467366Y-208629476D02*
X100657842Y-208677095D01*
X100657842Y-208677095D02*
X100753080Y-208724714D01*
X100753080Y-208724714D02*
X100800700Y-208772333D01*
X100800700Y-208772333D02*
X100848319Y-208867571D01*
X100848319Y-208867571D02*
X100848319Y-208962809D01*
X100848319Y-208962809D02*
X100800700Y-209058047D01*
X100800700Y-209058047D02*
X100753080Y-209105666D01*
X100753080Y-209105666D02*
X100657842Y-209153285D01*
X100657842Y-209153285D02*
X100467366Y-209200904D01*
X100467366Y-209200904D02*
X100229271Y-209200904D01*
X100229271Y-209200904D02*
X100038795Y-209153285D01*
X100038795Y-209153285D02*
X99943557Y-209105666D01*
X99943557Y-209105666D02*
X99895938Y-209058047D01*
X99895938Y-209058047D02*
X99848319Y-208962809D01*
X257963200Y-136048523D02*
X258010819Y-135905666D01*
X258010819Y-135905666D02*
X258010819Y-135667571D01*
X258010819Y-135667571D02*
X257963200Y-135572333D01*
X257963200Y-135572333D02*
X257915580Y-135524714D01*
X257915580Y-135524714D02*
X257820342Y-135477095D01*
X257820342Y-135477095D02*
X257725104Y-135477095D01*
X257725104Y-135477095D02*
X257629866Y-135524714D01*
X257629866Y-135524714D02*
X257582247Y-135572333D01*
X257582247Y-135572333D02*
X257534628Y-135667571D01*
X257534628Y-135667571D02*
X257487009Y-135858047D01*
X257487009Y-135858047D02*
X257439390Y-135953285D01*
X257439390Y-135953285D02*
X257391771Y-136000904D01*
X257391771Y-136000904D02*
X257296533Y-136048523D01*
X257296533Y-136048523D02*
X257201295Y-136048523D01*
X257201295Y-136048523D02*
X257106057Y-136000904D01*
X257106057Y-136000904D02*
X257058438Y-135953285D01*
X257058438Y-135953285D02*
X257010819Y-135858047D01*
X257010819Y-135858047D02*
X257010819Y-135619952D01*
X257010819Y-135619952D02*
X257058438Y-135477095D01*
X257010819Y-135143761D02*
X258010819Y-134905666D01*
X258010819Y-134905666D02*
X257296533Y-134715190D01*
X257296533Y-134715190D02*
X258010819Y-134524714D01*
X258010819Y-134524714D02*
X257010819Y-134286619D01*
X257010819Y-134000904D02*
X257010819Y-133381857D01*
X257010819Y-133381857D02*
X257391771Y-133715190D01*
X257391771Y-133715190D02*
X257391771Y-133572333D01*
X257391771Y-133572333D02*
X257439390Y-133477095D01*
X257439390Y-133477095D02*
X257487009Y-133429476D01*
X257487009Y-133429476D02*
X257582247Y-133381857D01*
X257582247Y-133381857D02*
X257820342Y-133381857D01*
X257820342Y-133381857D02*
X257915580Y-133429476D01*
X257915580Y-133429476D02*
X257963200Y-133477095D01*
X257963200Y-133477095D02*
X258010819Y-133572333D01*
X258010819Y-133572333D02*
X258010819Y-133858047D01*
X258010819Y-133858047D02*
X257963200Y-133953285D01*
X257963200Y-133953285D02*
X257915580Y-134000904D01*
X257439390Y-132810428D02*
X257391771Y-132905666D01*
X257391771Y-132905666D02*
X257344152Y-132953285D01*
X257344152Y-132953285D02*
X257248914Y-133000904D01*
X257248914Y-133000904D02*
X257201295Y-133000904D01*
X257201295Y-133000904D02*
X257106057Y-132953285D01*
X257106057Y-132953285D02*
X257058438Y-132905666D01*
X257058438Y-132905666D02*
X257010819Y-132810428D01*
X257010819Y-132810428D02*
X257010819Y-132619952D01*
X257010819Y-132619952D02*
X257058438Y-132524714D01*
X257058438Y-132524714D02*
X257106057Y-132477095D01*
X257106057Y-132477095D02*
X257201295Y-132429476D01*
X257201295Y-132429476D02*
X257248914Y-132429476D01*
X257248914Y-132429476D02*
X257344152Y-132477095D01*
X257344152Y-132477095D02*
X257391771Y-132524714D01*
X257391771Y-132524714D02*
X257439390Y-132619952D01*
X257439390Y-132619952D02*
X257439390Y-132810428D01*
X257439390Y-132810428D02*
X257487009Y-132905666D01*
X257487009Y-132905666D02*
X257534628Y-132953285D01*
X257534628Y-132953285D02*
X257629866Y-133000904D01*
X257629866Y-133000904D02*
X257820342Y-133000904D01*
X257820342Y-133000904D02*
X257915580Y-132953285D01*
X257915580Y-132953285D02*
X257963200Y-132905666D01*
X257963200Y-132905666D02*
X258010819Y-132810428D01*
X258010819Y-132810428D02*
X258010819Y-132619952D01*
X258010819Y-132619952D02*
X257963200Y-132524714D01*
X257963200Y-132524714D02*
X257915580Y-132477095D01*
X257915580Y-132477095D02*
X257820342Y-132429476D01*
X257820342Y-132429476D02*
X257629866Y-132429476D01*
X257629866Y-132429476D02*
X257534628Y-132477095D01*
X257534628Y-132477095D02*
X257487009Y-132524714D01*
X257487009Y-132524714D02*
X257439390Y-132619952D01*
X218483819Y-66762238D02*
X218007628Y-67095571D01*
X218483819Y-67333666D02*
X217483819Y-67333666D01*
X217483819Y-67333666D02*
X217483819Y-66952714D01*
X217483819Y-66952714D02*
X217531438Y-66857476D01*
X217531438Y-66857476D02*
X217579057Y-66809857D01*
X217579057Y-66809857D02*
X217674295Y-66762238D01*
X217674295Y-66762238D02*
X217817152Y-66762238D01*
X217817152Y-66762238D02*
X217912390Y-66809857D01*
X217912390Y-66809857D02*
X217960009Y-66857476D01*
X217960009Y-66857476D02*
X218007628Y-66952714D01*
X218007628Y-66952714D02*
X218007628Y-67333666D01*
X217483819Y-66476523D02*
X218483819Y-66143190D01*
X218483819Y-66143190D02*
X217483819Y-65809857D01*
X218483819Y-64952714D02*
X218483819Y-65524142D01*
X218483819Y-65238428D02*
X217483819Y-65238428D01*
X217483819Y-65238428D02*
X217626676Y-65333666D01*
X217626676Y-65333666D02*
X217721914Y-65428904D01*
X217721914Y-65428904D02*
X217769533Y-65524142D01*
X100800700Y-174148523D02*
X100848319Y-174005666D01*
X100848319Y-174005666D02*
X100848319Y-173767571D01*
X100848319Y-173767571D02*
X100800700Y-173672333D01*
X100800700Y-173672333D02*
X100753080Y-173624714D01*
X100753080Y-173624714D02*
X100657842Y-173577095D01*
X100657842Y-173577095D02*
X100562604Y-173577095D01*
X100562604Y-173577095D02*
X100467366Y-173624714D01*
X100467366Y-173624714D02*
X100419747Y-173672333D01*
X100419747Y-173672333D02*
X100372128Y-173767571D01*
X100372128Y-173767571D02*
X100324509Y-173958047D01*
X100324509Y-173958047D02*
X100276890Y-174053285D01*
X100276890Y-174053285D02*
X100229271Y-174100904D01*
X100229271Y-174100904D02*
X100134033Y-174148523D01*
X100134033Y-174148523D02*
X100038795Y-174148523D01*
X100038795Y-174148523D02*
X99943557Y-174100904D01*
X99943557Y-174100904D02*
X99895938Y-174053285D01*
X99895938Y-174053285D02*
X99848319Y-173958047D01*
X99848319Y-173958047D02*
X99848319Y-173719952D01*
X99848319Y-173719952D02*
X99895938Y-173577095D01*
X99848319Y-173243761D02*
X100848319Y-173005666D01*
X100848319Y-173005666D02*
X100134033Y-172815190D01*
X100134033Y-172815190D02*
X100848319Y-172624714D01*
X100848319Y-172624714D02*
X99848319Y-172386619D01*
X100848319Y-171481857D02*
X100848319Y-172053285D01*
X100848319Y-171767571D02*
X99848319Y-171767571D01*
X99848319Y-171767571D02*
X99991176Y-171862809D01*
X99991176Y-171862809D02*
X100086414Y-171958047D01*
X100086414Y-171958047D02*
X100134033Y-172053285D01*
X100848319Y-171005666D02*
X100848319Y-170815190D01*
X100848319Y-170815190D02*
X100800700Y-170719952D01*
X100800700Y-170719952D02*
X100753080Y-170672333D01*
X100753080Y-170672333D02*
X100610223Y-170577095D01*
X100610223Y-170577095D02*
X100419747Y-170529476D01*
X100419747Y-170529476D02*
X100038795Y-170529476D01*
X100038795Y-170529476D02*
X99943557Y-170577095D01*
X99943557Y-170577095D02*
X99895938Y-170624714D01*
X99895938Y-170624714D02*
X99848319Y-170719952D01*
X99848319Y-170719952D02*
X99848319Y-170910428D01*
X99848319Y-170910428D02*
X99895938Y-171005666D01*
X99895938Y-171005666D02*
X99943557Y-171053285D01*
X99943557Y-171053285D02*
X100038795Y-171100904D01*
X100038795Y-171100904D02*
X100276890Y-171100904D01*
X100276890Y-171100904D02*
X100372128Y-171053285D01*
X100372128Y-171053285D02*
X100419747Y-171005666D01*
X100419747Y-171005666D02*
X100467366Y-170910428D01*
X100467366Y-170910428D02*
X100467366Y-170719952D01*
X100467366Y-170719952D02*
X100419747Y-170624714D01*
X100419747Y-170624714D02*
X100372128Y-170577095D01*
X100372128Y-170577095D02*
X100276890Y-170529476D01*
X219863200Y-136048523D02*
X219910819Y-135905666D01*
X219910819Y-135905666D02*
X219910819Y-135667571D01*
X219910819Y-135667571D02*
X219863200Y-135572333D01*
X219863200Y-135572333D02*
X219815580Y-135524714D01*
X219815580Y-135524714D02*
X219720342Y-135477095D01*
X219720342Y-135477095D02*
X219625104Y-135477095D01*
X219625104Y-135477095D02*
X219529866Y-135524714D01*
X219529866Y-135524714D02*
X219482247Y-135572333D01*
X219482247Y-135572333D02*
X219434628Y-135667571D01*
X219434628Y-135667571D02*
X219387009Y-135858047D01*
X219387009Y-135858047D02*
X219339390Y-135953285D01*
X219339390Y-135953285D02*
X219291771Y-136000904D01*
X219291771Y-136000904D02*
X219196533Y-136048523D01*
X219196533Y-136048523D02*
X219101295Y-136048523D01*
X219101295Y-136048523D02*
X219006057Y-136000904D01*
X219006057Y-136000904D02*
X218958438Y-135953285D01*
X218958438Y-135953285D02*
X218910819Y-135858047D01*
X218910819Y-135858047D02*
X218910819Y-135619952D01*
X218910819Y-135619952D02*
X218958438Y-135477095D01*
X218910819Y-135143761D02*
X219910819Y-134905666D01*
X219910819Y-134905666D02*
X219196533Y-134715190D01*
X219196533Y-134715190D02*
X219910819Y-134524714D01*
X219910819Y-134524714D02*
X218910819Y-134286619D01*
X219006057Y-133953285D02*
X218958438Y-133905666D01*
X218958438Y-133905666D02*
X218910819Y-133810428D01*
X218910819Y-133810428D02*
X218910819Y-133572333D01*
X218910819Y-133572333D02*
X218958438Y-133477095D01*
X218958438Y-133477095D02*
X219006057Y-133429476D01*
X219006057Y-133429476D02*
X219101295Y-133381857D01*
X219101295Y-133381857D02*
X219196533Y-133381857D01*
X219196533Y-133381857D02*
X219339390Y-133429476D01*
X219339390Y-133429476D02*
X219910819Y-134000904D01*
X219910819Y-134000904D02*
X219910819Y-133381857D01*
X219006057Y-133000904D02*
X218958438Y-132953285D01*
X218958438Y-132953285D02*
X218910819Y-132858047D01*
X218910819Y-132858047D02*
X218910819Y-132619952D01*
X218910819Y-132619952D02*
X218958438Y-132524714D01*
X218958438Y-132524714D02*
X219006057Y-132477095D01*
X219006057Y-132477095D02*
X219101295Y-132429476D01*
X219101295Y-132429476D02*
X219196533Y-132429476D01*
X219196533Y-132429476D02*
X219339390Y-132477095D01*
X219339390Y-132477095D02*
X219910819Y-133048523D01*
X219910819Y-133048523D02*
X219910819Y-132429476D01*
X138900700Y-97948523D02*
X138948319Y-97805666D01*
X138948319Y-97805666D02*
X138948319Y-97567571D01*
X138948319Y-97567571D02*
X138900700Y-97472333D01*
X138900700Y-97472333D02*
X138853080Y-97424714D01*
X138853080Y-97424714D02*
X138757842Y-97377095D01*
X138757842Y-97377095D02*
X138662604Y-97377095D01*
X138662604Y-97377095D02*
X138567366Y-97424714D01*
X138567366Y-97424714D02*
X138519747Y-97472333D01*
X138519747Y-97472333D02*
X138472128Y-97567571D01*
X138472128Y-97567571D02*
X138424509Y-97758047D01*
X138424509Y-97758047D02*
X138376890Y-97853285D01*
X138376890Y-97853285D02*
X138329271Y-97900904D01*
X138329271Y-97900904D02*
X138234033Y-97948523D01*
X138234033Y-97948523D02*
X138138795Y-97948523D01*
X138138795Y-97948523D02*
X138043557Y-97900904D01*
X138043557Y-97900904D02*
X137995938Y-97853285D01*
X137995938Y-97853285D02*
X137948319Y-97758047D01*
X137948319Y-97758047D02*
X137948319Y-97519952D01*
X137948319Y-97519952D02*
X137995938Y-97377095D01*
X137948319Y-97043761D02*
X138948319Y-96805666D01*
X138948319Y-96805666D02*
X138234033Y-96615190D01*
X138234033Y-96615190D02*
X138948319Y-96424714D01*
X138948319Y-96424714D02*
X137948319Y-96186619D01*
X137948319Y-95900904D02*
X137948319Y-95281857D01*
X137948319Y-95281857D02*
X138329271Y-95615190D01*
X138329271Y-95615190D02*
X138329271Y-95472333D01*
X138329271Y-95472333D02*
X138376890Y-95377095D01*
X138376890Y-95377095D02*
X138424509Y-95329476D01*
X138424509Y-95329476D02*
X138519747Y-95281857D01*
X138519747Y-95281857D02*
X138757842Y-95281857D01*
X138757842Y-95281857D02*
X138853080Y-95329476D01*
X138853080Y-95329476D02*
X138900700Y-95377095D01*
X138900700Y-95377095D02*
X138948319Y-95472333D01*
X138948319Y-95472333D02*
X138948319Y-95758047D01*
X138948319Y-95758047D02*
X138900700Y-95853285D01*
X138900700Y-95853285D02*
X138853080Y-95900904D01*
X137948319Y-94948523D02*
X137948319Y-94329476D01*
X137948319Y-94329476D02*
X138329271Y-94662809D01*
X138329271Y-94662809D02*
X138329271Y-94519952D01*
X138329271Y-94519952D02*
X138376890Y-94424714D01*
X138376890Y-94424714D02*
X138424509Y-94377095D01*
X138424509Y-94377095D02*
X138519747Y-94329476D01*
X138519747Y-94329476D02*
X138757842Y-94329476D01*
X138757842Y-94329476D02*
X138853080Y-94377095D01*
X138853080Y-94377095D02*
X138900700Y-94424714D01*
X138900700Y-94424714D02*
X138948319Y-94519952D01*
X138948319Y-94519952D02*
X138948319Y-94805666D01*
X138948319Y-94805666D02*
X138900700Y-94900904D01*
X138900700Y-94900904D02*
X138853080Y-94948523D01*
X81750700Y-97472332D02*
X81798319Y-97329475D01*
X81798319Y-97329475D02*
X81798319Y-97091380D01*
X81798319Y-97091380D02*
X81750700Y-96996142D01*
X81750700Y-96996142D02*
X81703080Y-96948523D01*
X81703080Y-96948523D02*
X81607842Y-96900904D01*
X81607842Y-96900904D02*
X81512604Y-96900904D01*
X81512604Y-96900904D02*
X81417366Y-96948523D01*
X81417366Y-96948523D02*
X81369747Y-96996142D01*
X81369747Y-96996142D02*
X81322128Y-97091380D01*
X81322128Y-97091380D02*
X81274509Y-97281856D01*
X81274509Y-97281856D02*
X81226890Y-97377094D01*
X81226890Y-97377094D02*
X81179271Y-97424713D01*
X81179271Y-97424713D02*
X81084033Y-97472332D01*
X81084033Y-97472332D02*
X80988795Y-97472332D01*
X80988795Y-97472332D02*
X80893557Y-97424713D01*
X80893557Y-97424713D02*
X80845938Y-97377094D01*
X80845938Y-97377094D02*
X80798319Y-97281856D01*
X80798319Y-97281856D02*
X80798319Y-97043761D01*
X80798319Y-97043761D02*
X80845938Y-96900904D01*
X80798319Y-96567570D02*
X81798319Y-96329475D01*
X81798319Y-96329475D02*
X81084033Y-96138999D01*
X81084033Y-96138999D02*
X81798319Y-95948523D01*
X81798319Y-95948523D02*
X80798319Y-95710428D01*
X81798319Y-95281856D02*
X81798319Y-95091380D01*
X81798319Y-95091380D02*
X81750700Y-94996142D01*
X81750700Y-94996142D02*
X81703080Y-94948523D01*
X81703080Y-94948523D02*
X81560223Y-94853285D01*
X81560223Y-94853285D02*
X81369747Y-94805666D01*
X81369747Y-94805666D02*
X80988795Y-94805666D01*
X80988795Y-94805666D02*
X80893557Y-94853285D01*
X80893557Y-94853285D02*
X80845938Y-94900904D01*
X80845938Y-94900904D02*
X80798319Y-94996142D01*
X80798319Y-94996142D02*
X80798319Y-95186618D01*
X80798319Y-95186618D02*
X80845938Y-95281856D01*
X80845938Y-95281856D02*
X80893557Y-95329475D01*
X80893557Y-95329475D02*
X80988795Y-95377094D01*
X80988795Y-95377094D02*
X81226890Y-95377094D01*
X81226890Y-95377094D02*
X81322128Y-95329475D01*
X81322128Y-95329475D02*
X81369747Y-95281856D01*
X81369747Y-95281856D02*
X81417366Y-95186618D01*
X81417366Y-95186618D02*
X81417366Y-94996142D01*
X81417366Y-94996142D02*
X81369747Y-94900904D01*
X81369747Y-94900904D02*
X81322128Y-94853285D01*
X81322128Y-94853285D02*
X81226890Y-94805666D01*
X181763200Y-211772332D02*
X181810819Y-211629475D01*
X181810819Y-211629475D02*
X181810819Y-211391380D01*
X181810819Y-211391380D02*
X181763200Y-211296142D01*
X181763200Y-211296142D02*
X181715580Y-211248523D01*
X181715580Y-211248523D02*
X181620342Y-211200904D01*
X181620342Y-211200904D02*
X181525104Y-211200904D01*
X181525104Y-211200904D02*
X181429866Y-211248523D01*
X181429866Y-211248523D02*
X181382247Y-211296142D01*
X181382247Y-211296142D02*
X181334628Y-211391380D01*
X181334628Y-211391380D02*
X181287009Y-211581856D01*
X181287009Y-211581856D02*
X181239390Y-211677094D01*
X181239390Y-211677094D02*
X181191771Y-211724713D01*
X181191771Y-211724713D02*
X181096533Y-211772332D01*
X181096533Y-211772332D02*
X181001295Y-211772332D01*
X181001295Y-211772332D02*
X180906057Y-211724713D01*
X180906057Y-211724713D02*
X180858438Y-211677094D01*
X180858438Y-211677094D02*
X180810819Y-211581856D01*
X180810819Y-211581856D02*
X180810819Y-211343761D01*
X180810819Y-211343761D02*
X180858438Y-211200904D01*
X180810819Y-210867570D02*
X181810819Y-210629475D01*
X181810819Y-210629475D02*
X181096533Y-210438999D01*
X181096533Y-210438999D02*
X181810819Y-210248523D01*
X181810819Y-210248523D02*
X180810819Y-210010428D01*
X181239390Y-209486618D02*
X181191771Y-209581856D01*
X181191771Y-209581856D02*
X181144152Y-209629475D01*
X181144152Y-209629475D02*
X181048914Y-209677094D01*
X181048914Y-209677094D02*
X181001295Y-209677094D01*
X181001295Y-209677094D02*
X180906057Y-209629475D01*
X180906057Y-209629475D02*
X180858438Y-209581856D01*
X180858438Y-209581856D02*
X180810819Y-209486618D01*
X180810819Y-209486618D02*
X180810819Y-209296142D01*
X180810819Y-209296142D02*
X180858438Y-209200904D01*
X180858438Y-209200904D02*
X180906057Y-209153285D01*
X180906057Y-209153285D02*
X181001295Y-209105666D01*
X181001295Y-209105666D02*
X181048914Y-209105666D01*
X181048914Y-209105666D02*
X181144152Y-209153285D01*
X181144152Y-209153285D02*
X181191771Y-209200904D01*
X181191771Y-209200904D02*
X181239390Y-209296142D01*
X181239390Y-209296142D02*
X181239390Y-209486618D01*
X181239390Y-209486618D02*
X181287009Y-209581856D01*
X181287009Y-209581856D02*
X181334628Y-209629475D01*
X181334628Y-209629475D02*
X181429866Y-209677094D01*
X181429866Y-209677094D02*
X181620342Y-209677094D01*
X181620342Y-209677094D02*
X181715580Y-209629475D01*
X181715580Y-209629475D02*
X181763200Y-209581856D01*
X181763200Y-209581856D02*
X181810819Y-209486618D01*
X181810819Y-209486618D02*
X181810819Y-209296142D01*
X181810819Y-209296142D02*
X181763200Y-209200904D01*
X181763200Y-209200904D02*
X181715580Y-209153285D01*
X181715580Y-209153285D02*
X181620342Y-209105666D01*
X181620342Y-209105666D02*
X181429866Y-209105666D01*
X181429866Y-209105666D02*
X181334628Y-209153285D01*
X181334628Y-209153285D02*
X181287009Y-209200904D01*
X181287009Y-209200904D02*
X181239390Y-209296142D01*
X114856666Y-79063819D02*
X114856666Y-79778104D01*
X114856666Y-79778104D02*
X114809047Y-79920961D01*
X114809047Y-79920961D02*
X114713809Y-80016200D01*
X114713809Y-80016200D02*
X114570952Y-80063819D01*
X114570952Y-80063819D02*
X114475714Y-80063819D01*
X115237619Y-79063819D02*
X115904285Y-79063819D01*
X115904285Y-79063819D02*
X115475714Y-80063819D01*
X138900700Y-136048523D02*
X138948319Y-135905666D01*
X138948319Y-135905666D02*
X138948319Y-135667571D01*
X138948319Y-135667571D02*
X138900700Y-135572333D01*
X138900700Y-135572333D02*
X138853080Y-135524714D01*
X138853080Y-135524714D02*
X138757842Y-135477095D01*
X138757842Y-135477095D02*
X138662604Y-135477095D01*
X138662604Y-135477095D02*
X138567366Y-135524714D01*
X138567366Y-135524714D02*
X138519747Y-135572333D01*
X138519747Y-135572333D02*
X138472128Y-135667571D01*
X138472128Y-135667571D02*
X138424509Y-135858047D01*
X138424509Y-135858047D02*
X138376890Y-135953285D01*
X138376890Y-135953285D02*
X138329271Y-136000904D01*
X138329271Y-136000904D02*
X138234033Y-136048523D01*
X138234033Y-136048523D02*
X138138795Y-136048523D01*
X138138795Y-136048523D02*
X138043557Y-136000904D01*
X138043557Y-136000904D02*
X137995938Y-135953285D01*
X137995938Y-135953285D02*
X137948319Y-135858047D01*
X137948319Y-135858047D02*
X137948319Y-135619952D01*
X137948319Y-135619952D02*
X137995938Y-135477095D01*
X137948319Y-135143761D02*
X138948319Y-134905666D01*
X138948319Y-134905666D02*
X138234033Y-134715190D01*
X138234033Y-134715190D02*
X138948319Y-134524714D01*
X138948319Y-134524714D02*
X137948319Y-134286619D01*
X137948319Y-134000904D02*
X137948319Y-133381857D01*
X137948319Y-133381857D02*
X138329271Y-133715190D01*
X138329271Y-133715190D02*
X138329271Y-133572333D01*
X138329271Y-133572333D02*
X138376890Y-133477095D01*
X138376890Y-133477095D02*
X138424509Y-133429476D01*
X138424509Y-133429476D02*
X138519747Y-133381857D01*
X138519747Y-133381857D02*
X138757842Y-133381857D01*
X138757842Y-133381857D02*
X138853080Y-133429476D01*
X138853080Y-133429476D02*
X138900700Y-133477095D01*
X138900700Y-133477095D02*
X138948319Y-133572333D01*
X138948319Y-133572333D02*
X138948319Y-133858047D01*
X138948319Y-133858047D02*
X138900700Y-133953285D01*
X138900700Y-133953285D02*
X138853080Y-134000904D01*
X138281652Y-132524714D02*
X138948319Y-132524714D01*
X137900700Y-132762809D02*
X138614985Y-133000904D01*
X138614985Y-133000904D02*
X138614985Y-132381857D01*
X257963200Y-98075523D02*
X258010819Y-97932666D01*
X258010819Y-97932666D02*
X258010819Y-97694571D01*
X258010819Y-97694571D02*
X257963200Y-97599333D01*
X257963200Y-97599333D02*
X257915580Y-97551714D01*
X257915580Y-97551714D02*
X257820342Y-97504095D01*
X257820342Y-97504095D02*
X257725104Y-97504095D01*
X257725104Y-97504095D02*
X257629866Y-97551714D01*
X257629866Y-97551714D02*
X257582247Y-97599333D01*
X257582247Y-97599333D02*
X257534628Y-97694571D01*
X257534628Y-97694571D02*
X257487009Y-97885047D01*
X257487009Y-97885047D02*
X257439390Y-97980285D01*
X257439390Y-97980285D02*
X257391771Y-98027904D01*
X257391771Y-98027904D02*
X257296533Y-98075523D01*
X257296533Y-98075523D02*
X257201295Y-98075523D01*
X257201295Y-98075523D02*
X257106057Y-98027904D01*
X257106057Y-98027904D02*
X257058438Y-97980285D01*
X257058438Y-97980285D02*
X257010819Y-97885047D01*
X257010819Y-97885047D02*
X257010819Y-97646952D01*
X257010819Y-97646952D02*
X257058438Y-97504095D01*
X257010819Y-97170761D02*
X258010819Y-96932666D01*
X258010819Y-96932666D02*
X257296533Y-96742190D01*
X257296533Y-96742190D02*
X258010819Y-96551714D01*
X258010819Y-96551714D02*
X257010819Y-96313619D01*
X257010819Y-96027904D02*
X257010819Y-95408857D01*
X257010819Y-95408857D02*
X257391771Y-95742190D01*
X257391771Y-95742190D02*
X257391771Y-95599333D01*
X257391771Y-95599333D02*
X257439390Y-95504095D01*
X257439390Y-95504095D02*
X257487009Y-95456476D01*
X257487009Y-95456476D02*
X257582247Y-95408857D01*
X257582247Y-95408857D02*
X257820342Y-95408857D01*
X257820342Y-95408857D02*
X257915580Y-95456476D01*
X257915580Y-95456476D02*
X257963200Y-95504095D01*
X257963200Y-95504095D02*
X258010819Y-95599333D01*
X258010819Y-95599333D02*
X258010819Y-95885047D01*
X258010819Y-95885047D02*
X257963200Y-95980285D01*
X257963200Y-95980285D02*
X257915580Y-96027904D01*
X257010819Y-95075523D02*
X257010819Y-94408857D01*
X257010819Y-94408857D02*
X258010819Y-94837428D01*
X200813200Y-212248523D02*
X200860819Y-212105666D01*
X200860819Y-212105666D02*
X200860819Y-211867571D01*
X200860819Y-211867571D02*
X200813200Y-211772333D01*
X200813200Y-211772333D02*
X200765580Y-211724714D01*
X200765580Y-211724714D02*
X200670342Y-211677095D01*
X200670342Y-211677095D02*
X200575104Y-211677095D01*
X200575104Y-211677095D02*
X200479866Y-211724714D01*
X200479866Y-211724714D02*
X200432247Y-211772333D01*
X200432247Y-211772333D02*
X200384628Y-211867571D01*
X200384628Y-211867571D02*
X200337009Y-212058047D01*
X200337009Y-212058047D02*
X200289390Y-212153285D01*
X200289390Y-212153285D02*
X200241771Y-212200904D01*
X200241771Y-212200904D02*
X200146533Y-212248523D01*
X200146533Y-212248523D02*
X200051295Y-212248523D01*
X200051295Y-212248523D02*
X199956057Y-212200904D01*
X199956057Y-212200904D02*
X199908438Y-212153285D01*
X199908438Y-212153285D02*
X199860819Y-212058047D01*
X199860819Y-212058047D02*
X199860819Y-211819952D01*
X199860819Y-211819952D02*
X199908438Y-211677095D01*
X199860819Y-211343761D02*
X200860819Y-211105666D01*
X200860819Y-211105666D02*
X200146533Y-210915190D01*
X200146533Y-210915190D02*
X200860819Y-210724714D01*
X200860819Y-210724714D02*
X199860819Y-210486619D01*
X200860819Y-209581857D02*
X200860819Y-210153285D01*
X200860819Y-209867571D02*
X199860819Y-209867571D01*
X199860819Y-209867571D02*
X200003676Y-209962809D01*
X200003676Y-209962809D02*
X200098914Y-210058047D01*
X200098914Y-210058047D02*
X200146533Y-210153285D01*
X199860819Y-208724714D02*
X199860819Y-208915190D01*
X199860819Y-208915190D02*
X199908438Y-209010428D01*
X199908438Y-209010428D02*
X199956057Y-209058047D01*
X199956057Y-209058047D02*
X200098914Y-209153285D01*
X200098914Y-209153285D02*
X200289390Y-209200904D01*
X200289390Y-209200904D02*
X200670342Y-209200904D01*
X200670342Y-209200904D02*
X200765580Y-209153285D01*
X200765580Y-209153285D02*
X200813200Y-209105666D01*
X200813200Y-209105666D02*
X200860819Y-209010428D01*
X200860819Y-209010428D02*
X200860819Y-208819952D01*
X200860819Y-208819952D02*
X200813200Y-208724714D01*
X200813200Y-208724714D02*
X200765580Y-208677095D01*
X200765580Y-208677095D02*
X200670342Y-208629476D01*
X200670342Y-208629476D02*
X200432247Y-208629476D01*
X200432247Y-208629476D02*
X200337009Y-208677095D01*
X200337009Y-208677095D02*
X200289390Y-208724714D01*
X200289390Y-208724714D02*
X200241771Y-208819952D01*
X200241771Y-208819952D02*
X200241771Y-209010428D01*
X200241771Y-209010428D02*
X200289390Y-209105666D01*
X200289390Y-209105666D02*
X200337009Y-209153285D01*
X200337009Y-209153285D02*
X200432247Y-209200904D01*
X219863200Y-97948523D02*
X219910819Y-97805666D01*
X219910819Y-97805666D02*
X219910819Y-97567571D01*
X219910819Y-97567571D02*
X219863200Y-97472333D01*
X219863200Y-97472333D02*
X219815580Y-97424714D01*
X219815580Y-97424714D02*
X219720342Y-97377095D01*
X219720342Y-97377095D02*
X219625104Y-97377095D01*
X219625104Y-97377095D02*
X219529866Y-97424714D01*
X219529866Y-97424714D02*
X219482247Y-97472333D01*
X219482247Y-97472333D02*
X219434628Y-97567571D01*
X219434628Y-97567571D02*
X219387009Y-97758047D01*
X219387009Y-97758047D02*
X219339390Y-97853285D01*
X219339390Y-97853285D02*
X219291771Y-97900904D01*
X219291771Y-97900904D02*
X219196533Y-97948523D01*
X219196533Y-97948523D02*
X219101295Y-97948523D01*
X219101295Y-97948523D02*
X219006057Y-97900904D01*
X219006057Y-97900904D02*
X218958438Y-97853285D01*
X218958438Y-97853285D02*
X218910819Y-97758047D01*
X218910819Y-97758047D02*
X218910819Y-97519952D01*
X218910819Y-97519952D02*
X218958438Y-97377095D01*
X218910819Y-97043761D02*
X219910819Y-96805666D01*
X219910819Y-96805666D02*
X219196533Y-96615190D01*
X219196533Y-96615190D02*
X219910819Y-96424714D01*
X219910819Y-96424714D02*
X218910819Y-96186619D01*
X219006057Y-95853285D02*
X218958438Y-95805666D01*
X218958438Y-95805666D02*
X218910819Y-95710428D01*
X218910819Y-95710428D02*
X218910819Y-95472333D01*
X218910819Y-95472333D02*
X218958438Y-95377095D01*
X218958438Y-95377095D02*
X219006057Y-95329476D01*
X219006057Y-95329476D02*
X219101295Y-95281857D01*
X219101295Y-95281857D02*
X219196533Y-95281857D01*
X219196533Y-95281857D02*
X219339390Y-95329476D01*
X219339390Y-95329476D02*
X219910819Y-95900904D01*
X219910819Y-95900904D02*
X219910819Y-95281857D01*
X219910819Y-94329476D02*
X219910819Y-94900904D01*
X219910819Y-94615190D02*
X218910819Y-94615190D01*
X218910819Y-94615190D02*
X219053676Y-94710428D01*
X219053676Y-94710428D02*
X219148914Y-94805666D01*
X219148914Y-94805666D02*
X219196533Y-94900904D01*
X81750700Y-174148523D02*
X81798319Y-174005666D01*
X81798319Y-174005666D02*
X81798319Y-173767571D01*
X81798319Y-173767571D02*
X81750700Y-173672333D01*
X81750700Y-173672333D02*
X81703080Y-173624714D01*
X81703080Y-173624714D02*
X81607842Y-173577095D01*
X81607842Y-173577095D02*
X81512604Y-173577095D01*
X81512604Y-173577095D02*
X81417366Y-173624714D01*
X81417366Y-173624714D02*
X81369747Y-173672333D01*
X81369747Y-173672333D02*
X81322128Y-173767571D01*
X81322128Y-173767571D02*
X81274509Y-173958047D01*
X81274509Y-173958047D02*
X81226890Y-174053285D01*
X81226890Y-174053285D02*
X81179271Y-174100904D01*
X81179271Y-174100904D02*
X81084033Y-174148523D01*
X81084033Y-174148523D02*
X80988795Y-174148523D01*
X80988795Y-174148523D02*
X80893557Y-174100904D01*
X80893557Y-174100904D02*
X80845938Y-174053285D01*
X80845938Y-174053285D02*
X80798319Y-173958047D01*
X80798319Y-173958047D02*
X80798319Y-173719952D01*
X80798319Y-173719952D02*
X80845938Y-173577095D01*
X80798319Y-173243761D02*
X81798319Y-173005666D01*
X81798319Y-173005666D02*
X81084033Y-172815190D01*
X81084033Y-172815190D02*
X81798319Y-172624714D01*
X81798319Y-172624714D02*
X80798319Y-172386619D01*
X81798319Y-171481857D02*
X81798319Y-172053285D01*
X81798319Y-171767571D02*
X80798319Y-171767571D01*
X80798319Y-171767571D02*
X80941176Y-171862809D01*
X80941176Y-171862809D02*
X81036414Y-171958047D01*
X81036414Y-171958047D02*
X81084033Y-172053285D01*
X81798319Y-170529476D02*
X81798319Y-171100904D01*
X81798319Y-170815190D02*
X80798319Y-170815190D01*
X80798319Y-170815190D02*
X80941176Y-170910428D01*
X80941176Y-170910428D02*
X81036414Y-171005666D01*
X81036414Y-171005666D02*
X81084033Y-171100904D01*
X181763200Y-97472332D02*
X181810819Y-97329475D01*
X181810819Y-97329475D02*
X181810819Y-97091380D01*
X181810819Y-97091380D02*
X181763200Y-96996142D01*
X181763200Y-96996142D02*
X181715580Y-96948523D01*
X181715580Y-96948523D02*
X181620342Y-96900904D01*
X181620342Y-96900904D02*
X181525104Y-96900904D01*
X181525104Y-96900904D02*
X181429866Y-96948523D01*
X181429866Y-96948523D02*
X181382247Y-96996142D01*
X181382247Y-96996142D02*
X181334628Y-97091380D01*
X181334628Y-97091380D02*
X181287009Y-97281856D01*
X181287009Y-97281856D02*
X181239390Y-97377094D01*
X181239390Y-97377094D02*
X181191771Y-97424713D01*
X181191771Y-97424713D02*
X181096533Y-97472332D01*
X181096533Y-97472332D02*
X181001295Y-97472332D01*
X181001295Y-97472332D02*
X180906057Y-97424713D01*
X180906057Y-97424713D02*
X180858438Y-97377094D01*
X180858438Y-97377094D02*
X180810819Y-97281856D01*
X180810819Y-97281856D02*
X180810819Y-97043761D01*
X180810819Y-97043761D02*
X180858438Y-96900904D01*
X180810819Y-96567570D02*
X181810819Y-96329475D01*
X181810819Y-96329475D02*
X181096533Y-96138999D01*
X181096533Y-96138999D02*
X181810819Y-95948523D01*
X181810819Y-95948523D02*
X180810819Y-95710428D01*
X180810819Y-94853285D02*
X180810819Y-95329475D01*
X180810819Y-95329475D02*
X181287009Y-95377094D01*
X181287009Y-95377094D02*
X181239390Y-95329475D01*
X181239390Y-95329475D02*
X181191771Y-95234237D01*
X181191771Y-95234237D02*
X181191771Y-94996142D01*
X181191771Y-94996142D02*
X181239390Y-94900904D01*
X181239390Y-94900904D02*
X181287009Y-94853285D01*
X181287009Y-94853285D02*
X181382247Y-94805666D01*
X181382247Y-94805666D02*
X181620342Y-94805666D01*
X181620342Y-94805666D02*
X181715580Y-94853285D01*
X181715580Y-94853285D02*
X181763200Y-94900904D01*
X181763200Y-94900904D02*
X181810819Y-94996142D01*
X181810819Y-94996142D02*
X181810819Y-95234237D01*
X181810819Y-95234237D02*
X181763200Y-95329475D01*
X181763200Y-95329475D02*
X181715580Y-95377094D01*
X257963200Y-174148523D02*
X258010819Y-174005666D01*
X258010819Y-174005666D02*
X258010819Y-173767571D01*
X258010819Y-173767571D02*
X257963200Y-173672333D01*
X257963200Y-173672333D02*
X257915580Y-173624714D01*
X257915580Y-173624714D02*
X257820342Y-173577095D01*
X257820342Y-173577095D02*
X257725104Y-173577095D01*
X257725104Y-173577095D02*
X257629866Y-173624714D01*
X257629866Y-173624714D02*
X257582247Y-173672333D01*
X257582247Y-173672333D02*
X257534628Y-173767571D01*
X257534628Y-173767571D02*
X257487009Y-173958047D01*
X257487009Y-173958047D02*
X257439390Y-174053285D01*
X257439390Y-174053285D02*
X257391771Y-174100904D01*
X257391771Y-174100904D02*
X257296533Y-174148523D01*
X257296533Y-174148523D02*
X257201295Y-174148523D01*
X257201295Y-174148523D02*
X257106057Y-174100904D01*
X257106057Y-174100904D02*
X257058438Y-174053285D01*
X257058438Y-174053285D02*
X257010819Y-173958047D01*
X257010819Y-173958047D02*
X257010819Y-173719952D01*
X257010819Y-173719952D02*
X257058438Y-173577095D01*
X257010819Y-173243761D02*
X258010819Y-173005666D01*
X258010819Y-173005666D02*
X257296533Y-172815190D01*
X257296533Y-172815190D02*
X258010819Y-172624714D01*
X258010819Y-172624714D02*
X257010819Y-172386619D01*
X257010819Y-172100904D02*
X257010819Y-171481857D01*
X257010819Y-171481857D02*
X257391771Y-171815190D01*
X257391771Y-171815190D02*
X257391771Y-171672333D01*
X257391771Y-171672333D02*
X257439390Y-171577095D01*
X257439390Y-171577095D02*
X257487009Y-171529476D01*
X257487009Y-171529476D02*
X257582247Y-171481857D01*
X257582247Y-171481857D02*
X257820342Y-171481857D01*
X257820342Y-171481857D02*
X257915580Y-171529476D01*
X257915580Y-171529476D02*
X257963200Y-171577095D01*
X257963200Y-171577095D02*
X258010819Y-171672333D01*
X258010819Y-171672333D02*
X258010819Y-171958047D01*
X258010819Y-171958047D02*
X257963200Y-172053285D01*
X257963200Y-172053285D02*
X257915580Y-172100904D01*
X258010819Y-171005666D02*
X258010819Y-170815190D01*
X258010819Y-170815190D02*
X257963200Y-170719952D01*
X257963200Y-170719952D02*
X257915580Y-170672333D01*
X257915580Y-170672333D02*
X257772723Y-170577095D01*
X257772723Y-170577095D02*
X257582247Y-170529476D01*
X257582247Y-170529476D02*
X257201295Y-170529476D01*
X257201295Y-170529476D02*
X257106057Y-170577095D01*
X257106057Y-170577095D02*
X257058438Y-170624714D01*
X257058438Y-170624714D02*
X257010819Y-170719952D01*
X257010819Y-170719952D02*
X257010819Y-170910428D01*
X257010819Y-170910428D02*
X257058438Y-171005666D01*
X257058438Y-171005666D02*
X257106057Y-171053285D01*
X257106057Y-171053285D02*
X257201295Y-171100904D01*
X257201295Y-171100904D02*
X257439390Y-171100904D01*
X257439390Y-171100904D02*
X257534628Y-171053285D01*
X257534628Y-171053285D02*
X257582247Y-171005666D01*
X257582247Y-171005666D02*
X257629866Y-170910428D01*
X257629866Y-170910428D02*
X257629866Y-170719952D01*
X257629866Y-170719952D02*
X257582247Y-170624714D01*
X257582247Y-170624714D02*
X257534628Y-170577095D01*
X257534628Y-170577095D02*
X257439390Y-170529476D01*
X238913200Y-136048523D02*
X238960819Y-135905666D01*
X238960819Y-135905666D02*
X238960819Y-135667571D01*
X238960819Y-135667571D02*
X238913200Y-135572333D01*
X238913200Y-135572333D02*
X238865580Y-135524714D01*
X238865580Y-135524714D02*
X238770342Y-135477095D01*
X238770342Y-135477095D02*
X238675104Y-135477095D01*
X238675104Y-135477095D02*
X238579866Y-135524714D01*
X238579866Y-135524714D02*
X238532247Y-135572333D01*
X238532247Y-135572333D02*
X238484628Y-135667571D01*
X238484628Y-135667571D02*
X238437009Y-135858047D01*
X238437009Y-135858047D02*
X238389390Y-135953285D01*
X238389390Y-135953285D02*
X238341771Y-136000904D01*
X238341771Y-136000904D02*
X238246533Y-136048523D01*
X238246533Y-136048523D02*
X238151295Y-136048523D01*
X238151295Y-136048523D02*
X238056057Y-136000904D01*
X238056057Y-136000904D02*
X238008438Y-135953285D01*
X238008438Y-135953285D02*
X237960819Y-135858047D01*
X237960819Y-135858047D02*
X237960819Y-135619952D01*
X237960819Y-135619952D02*
X238008438Y-135477095D01*
X237960819Y-135143761D02*
X238960819Y-134905666D01*
X238960819Y-134905666D02*
X238246533Y-134715190D01*
X238246533Y-134715190D02*
X238960819Y-134524714D01*
X238960819Y-134524714D02*
X237960819Y-134286619D01*
X237960819Y-134000904D02*
X237960819Y-133381857D01*
X237960819Y-133381857D02*
X238341771Y-133715190D01*
X238341771Y-133715190D02*
X238341771Y-133572333D01*
X238341771Y-133572333D02*
X238389390Y-133477095D01*
X238389390Y-133477095D02*
X238437009Y-133429476D01*
X238437009Y-133429476D02*
X238532247Y-133381857D01*
X238532247Y-133381857D02*
X238770342Y-133381857D01*
X238770342Y-133381857D02*
X238865580Y-133429476D01*
X238865580Y-133429476D02*
X238913200Y-133477095D01*
X238913200Y-133477095D02*
X238960819Y-133572333D01*
X238960819Y-133572333D02*
X238960819Y-133858047D01*
X238960819Y-133858047D02*
X238913200Y-133953285D01*
X238913200Y-133953285D02*
X238865580Y-134000904D01*
X237960819Y-132762809D02*
X237960819Y-132667571D01*
X237960819Y-132667571D02*
X238008438Y-132572333D01*
X238008438Y-132572333D02*
X238056057Y-132524714D01*
X238056057Y-132524714D02*
X238151295Y-132477095D01*
X238151295Y-132477095D02*
X238341771Y-132429476D01*
X238341771Y-132429476D02*
X238579866Y-132429476D01*
X238579866Y-132429476D02*
X238770342Y-132477095D01*
X238770342Y-132477095D02*
X238865580Y-132524714D01*
X238865580Y-132524714D02*
X238913200Y-132572333D01*
X238913200Y-132572333D02*
X238960819Y-132667571D01*
X238960819Y-132667571D02*
X238960819Y-132762809D01*
X238960819Y-132762809D02*
X238913200Y-132858047D01*
X238913200Y-132858047D02*
X238865580Y-132905666D01*
X238865580Y-132905666D02*
X238770342Y-132953285D01*
X238770342Y-132953285D02*
X238579866Y-133000904D01*
X238579866Y-133000904D02*
X238341771Y-133000904D01*
X238341771Y-133000904D02*
X238151295Y-132953285D01*
X238151295Y-132953285D02*
X238056057Y-132905666D01*
X238056057Y-132905666D02*
X238008438Y-132858047D01*
X238008438Y-132858047D02*
X237960819Y-132762809D01*
X100800700Y-136048523D02*
X100848319Y-135905666D01*
X100848319Y-135905666D02*
X100848319Y-135667571D01*
X100848319Y-135667571D02*
X100800700Y-135572333D01*
X100800700Y-135572333D02*
X100753080Y-135524714D01*
X100753080Y-135524714D02*
X100657842Y-135477095D01*
X100657842Y-135477095D02*
X100562604Y-135477095D01*
X100562604Y-135477095D02*
X100467366Y-135524714D01*
X100467366Y-135524714D02*
X100419747Y-135572333D01*
X100419747Y-135572333D02*
X100372128Y-135667571D01*
X100372128Y-135667571D02*
X100324509Y-135858047D01*
X100324509Y-135858047D02*
X100276890Y-135953285D01*
X100276890Y-135953285D02*
X100229271Y-136000904D01*
X100229271Y-136000904D02*
X100134033Y-136048523D01*
X100134033Y-136048523D02*
X100038795Y-136048523D01*
X100038795Y-136048523D02*
X99943557Y-136000904D01*
X99943557Y-136000904D02*
X99895938Y-135953285D01*
X99895938Y-135953285D02*
X99848319Y-135858047D01*
X99848319Y-135858047D02*
X99848319Y-135619952D01*
X99848319Y-135619952D02*
X99895938Y-135477095D01*
X99848319Y-135143761D02*
X100848319Y-134905666D01*
X100848319Y-134905666D02*
X100134033Y-134715190D01*
X100134033Y-134715190D02*
X100848319Y-134524714D01*
X100848319Y-134524714D02*
X99848319Y-134286619D01*
X100848319Y-133381857D02*
X100848319Y-133953285D01*
X100848319Y-133667571D02*
X99848319Y-133667571D01*
X99848319Y-133667571D02*
X99991176Y-133762809D01*
X99991176Y-133762809D02*
X100086414Y-133858047D01*
X100086414Y-133858047D02*
X100134033Y-133953285D01*
X100276890Y-132810428D02*
X100229271Y-132905666D01*
X100229271Y-132905666D02*
X100181652Y-132953285D01*
X100181652Y-132953285D02*
X100086414Y-133000904D01*
X100086414Y-133000904D02*
X100038795Y-133000904D01*
X100038795Y-133000904D02*
X99943557Y-132953285D01*
X99943557Y-132953285D02*
X99895938Y-132905666D01*
X99895938Y-132905666D02*
X99848319Y-132810428D01*
X99848319Y-132810428D02*
X99848319Y-132619952D01*
X99848319Y-132619952D02*
X99895938Y-132524714D01*
X99895938Y-132524714D02*
X99943557Y-132477095D01*
X99943557Y-132477095D02*
X100038795Y-132429476D01*
X100038795Y-132429476D02*
X100086414Y-132429476D01*
X100086414Y-132429476D02*
X100181652Y-132477095D01*
X100181652Y-132477095D02*
X100229271Y-132524714D01*
X100229271Y-132524714D02*
X100276890Y-132619952D01*
X100276890Y-132619952D02*
X100276890Y-132810428D01*
X100276890Y-132810428D02*
X100324509Y-132905666D01*
X100324509Y-132905666D02*
X100372128Y-132953285D01*
X100372128Y-132953285D02*
X100467366Y-133000904D01*
X100467366Y-133000904D02*
X100657842Y-133000904D01*
X100657842Y-133000904D02*
X100753080Y-132953285D01*
X100753080Y-132953285D02*
X100800700Y-132905666D01*
X100800700Y-132905666D02*
X100848319Y-132810428D01*
X100848319Y-132810428D02*
X100848319Y-132619952D01*
X100848319Y-132619952D02*
X100800700Y-132524714D01*
X100800700Y-132524714D02*
X100753080Y-132477095D01*
X100753080Y-132477095D02*
X100657842Y-132429476D01*
X100657842Y-132429476D02*
X100467366Y-132429476D01*
X100467366Y-132429476D02*
X100372128Y-132477095D01*
X100372128Y-132477095D02*
X100324509Y-132524714D01*
X100324509Y-132524714D02*
X100276890Y-132619952D01*
X119850700Y-174148523D02*
X119898319Y-174005666D01*
X119898319Y-174005666D02*
X119898319Y-173767571D01*
X119898319Y-173767571D02*
X119850700Y-173672333D01*
X119850700Y-173672333D02*
X119803080Y-173624714D01*
X119803080Y-173624714D02*
X119707842Y-173577095D01*
X119707842Y-173577095D02*
X119612604Y-173577095D01*
X119612604Y-173577095D02*
X119517366Y-173624714D01*
X119517366Y-173624714D02*
X119469747Y-173672333D01*
X119469747Y-173672333D02*
X119422128Y-173767571D01*
X119422128Y-173767571D02*
X119374509Y-173958047D01*
X119374509Y-173958047D02*
X119326890Y-174053285D01*
X119326890Y-174053285D02*
X119279271Y-174100904D01*
X119279271Y-174100904D02*
X119184033Y-174148523D01*
X119184033Y-174148523D02*
X119088795Y-174148523D01*
X119088795Y-174148523D02*
X118993557Y-174100904D01*
X118993557Y-174100904D02*
X118945938Y-174053285D01*
X118945938Y-174053285D02*
X118898319Y-173958047D01*
X118898319Y-173958047D02*
X118898319Y-173719952D01*
X118898319Y-173719952D02*
X118945938Y-173577095D01*
X118898319Y-173243761D02*
X119898319Y-173005666D01*
X119898319Y-173005666D02*
X119184033Y-172815190D01*
X119184033Y-172815190D02*
X119898319Y-172624714D01*
X119898319Y-172624714D02*
X118898319Y-172386619D01*
X118993557Y-172053285D02*
X118945938Y-172005666D01*
X118945938Y-172005666D02*
X118898319Y-171910428D01*
X118898319Y-171910428D02*
X118898319Y-171672333D01*
X118898319Y-171672333D02*
X118945938Y-171577095D01*
X118945938Y-171577095D02*
X118993557Y-171529476D01*
X118993557Y-171529476D02*
X119088795Y-171481857D01*
X119088795Y-171481857D02*
X119184033Y-171481857D01*
X119184033Y-171481857D02*
X119326890Y-171529476D01*
X119326890Y-171529476D02*
X119898319Y-172100904D01*
X119898319Y-172100904D02*
X119898319Y-171481857D01*
X118898319Y-171148523D02*
X118898319Y-170481857D01*
X118898319Y-170481857D02*
X119898319Y-170910428D01*
X62700700Y-135572332D02*
X62748319Y-135429475D01*
X62748319Y-135429475D02*
X62748319Y-135191380D01*
X62748319Y-135191380D02*
X62700700Y-135096142D01*
X62700700Y-135096142D02*
X62653080Y-135048523D01*
X62653080Y-135048523D02*
X62557842Y-135000904D01*
X62557842Y-135000904D02*
X62462604Y-135000904D01*
X62462604Y-135000904D02*
X62367366Y-135048523D01*
X62367366Y-135048523D02*
X62319747Y-135096142D01*
X62319747Y-135096142D02*
X62272128Y-135191380D01*
X62272128Y-135191380D02*
X62224509Y-135381856D01*
X62224509Y-135381856D02*
X62176890Y-135477094D01*
X62176890Y-135477094D02*
X62129271Y-135524713D01*
X62129271Y-135524713D02*
X62034033Y-135572332D01*
X62034033Y-135572332D02*
X61938795Y-135572332D01*
X61938795Y-135572332D02*
X61843557Y-135524713D01*
X61843557Y-135524713D02*
X61795938Y-135477094D01*
X61795938Y-135477094D02*
X61748319Y-135381856D01*
X61748319Y-135381856D02*
X61748319Y-135143761D01*
X61748319Y-135143761D02*
X61795938Y-135000904D01*
X61748319Y-134667570D02*
X62748319Y-134429475D01*
X62748319Y-134429475D02*
X62034033Y-134238999D01*
X62034033Y-134238999D02*
X62748319Y-134048523D01*
X62748319Y-134048523D02*
X61748319Y-133810428D01*
X61843557Y-133477094D02*
X61795938Y-133429475D01*
X61795938Y-133429475D02*
X61748319Y-133334237D01*
X61748319Y-133334237D02*
X61748319Y-133096142D01*
X61748319Y-133096142D02*
X61795938Y-133000904D01*
X61795938Y-133000904D02*
X61843557Y-132953285D01*
X61843557Y-132953285D02*
X61938795Y-132905666D01*
X61938795Y-132905666D02*
X62034033Y-132905666D01*
X62034033Y-132905666D02*
X62176890Y-132953285D01*
X62176890Y-132953285D02*
X62748319Y-133524713D01*
X62748319Y-133524713D02*
X62748319Y-132905666D01*
X105940819Y-78016333D02*
X106655104Y-78016333D01*
X106655104Y-78016333D02*
X106797961Y-78063952D01*
X106797961Y-78063952D02*
X106893200Y-78159190D01*
X106893200Y-78159190D02*
X106940819Y-78302047D01*
X106940819Y-78302047D02*
X106940819Y-78397285D01*
X106369390Y-77397285D02*
X106321771Y-77492523D01*
X106321771Y-77492523D02*
X106274152Y-77540142D01*
X106274152Y-77540142D02*
X106178914Y-77587761D01*
X106178914Y-77587761D02*
X106131295Y-77587761D01*
X106131295Y-77587761D02*
X106036057Y-77540142D01*
X106036057Y-77540142D02*
X105988438Y-77492523D01*
X105988438Y-77492523D02*
X105940819Y-77397285D01*
X105940819Y-77397285D02*
X105940819Y-77206809D01*
X105940819Y-77206809D02*
X105988438Y-77111571D01*
X105988438Y-77111571D02*
X106036057Y-77063952D01*
X106036057Y-77063952D02*
X106131295Y-77016333D01*
X106131295Y-77016333D02*
X106178914Y-77016333D01*
X106178914Y-77016333D02*
X106274152Y-77063952D01*
X106274152Y-77063952D02*
X106321771Y-77111571D01*
X106321771Y-77111571D02*
X106369390Y-77206809D01*
X106369390Y-77206809D02*
X106369390Y-77397285D01*
X106369390Y-77397285D02*
X106417009Y-77492523D01*
X106417009Y-77492523D02*
X106464628Y-77540142D01*
X106464628Y-77540142D02*
X106559866Y-77587761D01*
X106559866Y-77587761D02*
X106750342Y-77587761D01*
X106750342Y-77587761D02*
X106845580Y-77540142D01*
X106845580Y-77540142D02*
X106893200Y-77492523D01*
X106893200Y-77492523D02*
X106940819Y-77397285D01*
X106940819Y-77397285D02*
X106940819Y-77206809D01*
X106940819Y-77206809D02*
X106893200Y-77111571D01*
X106893200Y-77111571D02*
X106845580Y-77063952D01*
X106845580Y-77063952D02*
X106750342Y-77016333D01*
X106750342Y-77016333D02*
X106559866Y-77016333D01*
X106559866Y-77016333D02*
X106464628Y-77063952D01*
X106464628Y-77063952D02*
X106417009Y-77111571D01*
X106417009Y-77111571D02*
X106369390Y-77206809D01*
X119850700Y-212248523D02*
X119898319Y-212105666D01*
X119898319Y-212105666D02*
X119898319Y-211867571D01*
X119898319Y-211867571D02*
X119850700Y-211772333D01*
X119850700Y-211772333D02*
X119803080Y-211724714D01*
X119803080Y-211724714D02*
X119707842Y-211677095D01*
X119707842Y-211677095D02*
X119612604Y-211677095D01*
X119612604Y-211677095D02*
X119517366Y-211724714D01*
X119517366Y-211724714D02*
X119469747Y-211772333D01*
X119469747Y-211772333D02*
X119422128Y-211867571D01*
X119422128Y-211867571D02*
X119374509Y-212058047D01*
X119374509Y-212058047D02*
X119326890Y-212153285D01*
X119326890Y-212153285D02*
X119279271Y-212200904D01*
X119279271Y-212200904D02*
X119184033Y-212248523D01*
X119184033Y-212248523D02*
X119088795Y-212248523D01*
X119088795Y-212248523D02*
X118993557Y-212200904D01*
X118993557Y-212200904D02*
X118945938Y-212153285D01*
X118945938Y-212153285D02*
X118898319Y-212058047D01*
X118898319Y-212058047D02*
X118898319Y-211819952D01*
X118898319Y-211819952D02*
X118945938Y-211677095D01*
X118898319Y-211343761D02*
X119898319Y-211105666D01*
X119898319Y-211105666D02*
X119184033Y-210915190D01*
X119184033Y-210915190D02*
X119898319Y-210724714D01*
X119898319Y-210724714D02*
X118898319Y-210486619D01*
X118993557Y-210153285D02*
X118945938Y-210105666D01*
X118945938Y-210105666D02*
X118898319Y-210010428D01*
X118898319Y-210010428D02*
X118898319Y-209772333D01*
X118898319Y-209772333D02*
X118945938Y-209677095D01*
X118945938Y-209677095D02*
X118993557Y-209629476D01*
X118993557Y-209629476D02*
X119088795Y-209581857D01*
X119088795Y-209581857D02*
X119184033Y-209581857D01*
X119184033Y-209581857D02*
X119326890Y-209629476D01*
X119326890Y-209629476D02*
X119898319Y-210200904D01*
X119898319Y-210200904D02*
X119898319Y-209581857D01*
X119326890Y-209010428D02*
X119279271Y-209105666D01*
X119279271Y-209105666D02*
X119231652Y-209153285D01*
X119231652Y-209153285D02*
X119136414Y-209200904D01*
X119136414Y-209200904D02*
X119088795Y-209200904D01*
X119088795Y-209200904D02*
X118993557Y-209153285D01*
X118993557Y-209153285D02*
X118945938Y-209105666D01*
X118945938Y-209105666D02*
X118898319Y-209010428D01*
X118898319Y-209010428D02*
X118898319Y-208819952D01*
X118898319Y-208819952D02*
X118945938Y-208724714D01*
X118945938Y-208724714D02*
X118993557Y-208677095D01*
X118993557Y-208677095D02*
X119088795Y-208629476D01*
X119088795Y-208629476D02*
X119136414Y-208629476D01*
X119136414Y-208629476D02*
X119231652Y-208677095D01*
X119231652Y-208677095D02*
X119279271Y-208724714D01*
X119279271Y-208724714D02*
X119326890Y-208819952D01*
X119326890Y-208819952D02*
X119326890Y-209010428D01*
X119326890Y-209010428D02*
X119374509Y-209105666D01*
X119374509Y-209105666D02*
X119422128Y-209153285D01*
X119422128Y-209153285D02*
X119517366Y-209200904D01*
X119517366Y-209200904D02*
X119707842Y-209200904D01*
X119707842Y-209200904D02*
X119803080Y-209153285D01*
X119803080Y-209153285D02*
X119850700Y-209105666D01*
X119850700Y-209105666D02*
X119898319Y-209010428D01*
X119898319Y-209010428D02*
X119898319Y-208819952D01*
X119898319Y-208819952D02*
X119850700Y-208724714D01*
X119850700Y-208724714D02*
X119803080Y-208677095D01*
X119803080Y-208677095D02*
X119707842Y-208629476D01*
X119707842Y-208629476D02*
X119517366Y-208629476D01*
X119517366Y-208629476D02*
X119422128Y-208677095D01*
X119422128Y-208677095D02*
X119374509Y-208724714D01*
X119374509Y-208724714D02*
X119326890Y-208819952D01*
X238913200Y-174148523D02*
X238960819Y-174005666D01*
X238960819Y-174005666D02*
X238960819Y-173767571D01*
X238960819Y-173767571D02*
X238913200Y-173672333D01*
X238913200Y-173672333D02*
X238865580Y-173624714D01*
X238865580Y-173624714D02*
X238770342Y-173577095D01*
X238770342Y-173577095D02*
X238675104Y-173577095D01*
X238675104Y-173577095D02*
X238579866Y-173624714D01*
X238579866Y-173624714D02*
X238532247Y-173672333D01*
X238532247Y-173672333D02*
X238484628Y-173767571D01*
X238484628Y-173767571D02*
X238437009Y-173958047D01*
X238437009Y-173958047D02*
X238389390Y-174053285D01*
X238389390Y-174053285D02*
X238341771Y-174100904D01*
X238341771Y-174100904D02*
X238246533Y-174148523D01*
X238246533Y-174148523D02*
X238151295Y-174148523D01*
X238151295Y-174148523D02*
X238056057Y-174100904D01*
X238056057Y-174100904D02*
X238008438Y-174053285D01*
X238008438Y-174053285D02*
X237960819Y-173958047D01*
X237960819Y-173958047D02*
X237960819Y-173719952D01*
X237960819Y-173719952D02*
X238008438Y-173577095D01*
X237960819Y-173243761D02*
X238960819Y-173005666D01*
X238960819Y-173005666D02*
X238246533Y-172815190D01*
X238246533Y-172815190D02*
X238960819Y-172624714D01*
X238960819Y-172624714D02*
X237960819Y-172386619D01*
X237960819Y-172100904D02*
X237960819Y-171481857D01*
X237960819Y-171481857D02*
X238341771Y-171815190D01*
X238341771Y-171815190D02*
X238341771Y-171672333D01*
X238341771Y-171672333D02*
X238389390Y-171577095D01*
X238389390Y-171577095D02*
X238437009Y-171529476D01*
X238437009Y-171529476D02*
X238532247Y-171481857D01*
X238532247Y-171481857D02*
X238770342Y-171481857D01*
X238770342Y-171481857D02*
X238865580Y-171529476D01*
X238865580Y-171529476D02*
X238913200Y-171577095D01*
X238913200Y-171577095D02*
X238960819Y-171672333D01*
X238960819Y-171672333D02*
X238960819Y-171958047D01*
X238960819Y-171958047D02*
X238913200Y-172053285D01*
X238913200Y-172053285D02*
X238865580Y-172100904D01*
X238960819Y-170529476D02*
X238960819Y-171100904D01*
X238960819Y-170815190D02*
X237960819Y-170815190D01*
X237960819Y-170815190D02*
X238103676Y-170910428D01*
X238103676Y-170910428D02*
X238198914Y-171005666D01*
X238198914Y-171005666D02*
X238246533Y-171100904D01*
X81750700Y-212248523D02*
X81798319Y-212105666D01*
X81798319Y-212105666D02*
X81798319Y-211867571D01*
X81798319Y-211867571D02*
X81750700Y-211772333D01*
X81750700Y-211772333D02*
X81703080Y-211724714D01*
X81703080Y-211724714D02*
X81607842Y-211677095D01*
X81607842Y-211677095D02*
X81512604Y-211677095D01*
X81512604Y-211677095D02*
X81417366Y-211724714D01*
X81417366Y-211724714D02*
X81369747Y-211772333D01*
X81369747Y-211772333D02*
X81322128Y-211867571D01*
X81322128Y-211867571D02*
X81274509Y-212058047D01*
X81274509Y-212058047D02*
X81226890Y-212153285D01*
X81226890Y-212153285D02*
X81179271Y-212200904D01*
X81179271Y-212200904D02*
X81084033Y-212248523D01*
X81084033Y-212248523D02*
X80988795Y-212248523D01*
X80988795Y-212248523D02*
X80893557Y-212200904D01*
X80893557Y-212200904D02*
X80845938Y-212153285D01*
X80845938Y-212153285D02*
X80798319Y-212058047D01*
X80798319Y-212058047D02*
X80798319Y-211819952D01*
X80798319Y-211819952D02*
X80845938Y-211677095D01*
X80798319Y-211343761D02*
X81798319Y-211105666D01*
X81798319Y-211105666D02*
X81084033Y-210915190D01*
X81084033Y-210915190D02*
X81798319Y-210724714D01*
X81798319Y-210724714D02*
X80798319Y-210486619D01*
X81798319Y-209581857D02*
X81798319Y-210153285D01*
X81798319Y-209867571D02*
X80798319Y-209867571D01*
X80798319Y-209867571D02*
X80941176Y-209962809D01*
X80941176Y-209962809D02*
X81036414Y-210058047D01*
X81036414Y-210058047D02*
X81084033Y-210153285D01*
X80893557Y-209200904D02*
X80845938Y-209153285D01*
X80845938Y-209153285D02*
X80798319Y-209058047D01*
X80798319Y-209058047D02*
X80798319Y-208819952D01*
X80798319Y-208819952D02*
X80845938Y-208724714D01*
X80845938Y-208724714D02*
X80893557Y-208677095D01*
X80893557Y-208677095D02*
X80988795Y-208629476D01*
X80988795Y-208629476D02*
X81084033Y-208629476D01*
X81084033Y-208629476D02*
X81226890Y-208677095D01*
X81226890Y-208677095D02*
X81798319Y-209248523D01*
X81798319Y-209248523D02*
X81798319Y-208629476D01*
X119850700Y-97948523D02*
X119898319Y-97805666D01*
X119898319Y-97805666D02*
X119898319Y-97567571D01*
X119898319Y-97567571D02*
X119850700Y-97472333D01*
X119850700Y-97472333D02*
X119803080Y-97424714D01*
X119803080Y-97424714D02*
X119707842Y-97377095D01*
X119707842Y-97377095D02*
X119612604Y-97377095D01*
X119612604Y-97377095D02*
X119517366Y-97424714D01*
X119517366Y-97424714D02*
X119469747Y-97472333D01*
X119469747Y-97472333D02*
X119422128Y-97567571D01*
X119422128Y-97567571D02*
X119374509Y-97758047D01*
X119374509Y-97758047D02*
X119326890Y-97853285D01*
X119326890Y-97853285D02*
X119279271Y-97900904D01*
X119279271Y-97900904D02*
X119184033Y-97948523D01*
X119184033Y-97948523D02*
X119088795Y-97948523D01*
X119088795Y-97948523D02*
X118993557Y-97900904D01*
X118993557Y-97900904D02*
X118945938Y-97853285D01*
X118945938Y-97853285D02*
X118898319Y-97758047D01*
X118898319Y-97758047D02*
X118898319Y-97519952D01*
X118898319Y-97519952D02*
X118945938Y-97377095D01*
X118898319Y-97043761D02*
X119898319Y-96805666D01*
X119898319Y-96805666D02*
X119184033Y-96615190D01*
X119184033Y-96615190D02*
X119898319Y-96424714D01*
X119898319Y-96424714D02*
X118898319Y-96186619D01*
X118993557Y-95853285D02*
X118945938Y-95805666D01*
X118945938Y-95805666D02*
X118898319Y-95710428D01*
X118898319Y-95710428D02*
X118898319Y-95472333D01*
X118898319Y-95472333D02*
X118945938Y-95377095D01*
X118945938Y-95377095D02*
X118993557Y-95329476D01*
X118993557Y-95329476D02*
X119088795Y-95281857D01*
X119088795Y-95281857D02*
X119184033Y-95281857D01*
X119184033Y-95281857D02*
X119326890Y-95329476D01*
X119326890Y-95329476D02*
X119898319Y-95900904D01*
X119898319Y-95900904D02*
X119898319Y-95281857D01*
X118898319Y-94377095D02*
X118898319Y-94853285D01*
X118898319Y-94853285D02*
X119374509Y-94900904D01*
X119374509Y-94900904D02*
X119326890Y-94853285D01*
X119326890Y-94853285D02*
X119279271Y-94758047D01*
X119279271Y-94758047D02*
X119279271Y-94519952D01*
X119279271Y-94519952D02*
X119326890Y-94424714D01*
X119326890Y-94424714D02*
X119374509Y-94377095D01*
X119374509Y-94377095D02*
X119469747Y-94329476D01*
X119469747Y-94329476D02*
X119707842Y-94329476D01*
X119707842Y-94329476D02*
X119803080Y-94377095D01*
X119803080Y-94377095D02*
X119850700Y-94424714D01*
X119850700Y-94424714D02*
X119898319Y-94519952D01*
X119898319Y-94519952D02*
X119898319Y-94758047D01*
X119898319Y-94758047D02*
X119850700Y-94853285D01*
X119850700Y-94853285D02*
X119803080Y-94900904D01*
X257963200Y-212248523D02*
X258010819Y-212105666D01*
X258010819Y-212105666D02*
X258010819Y-211867571D01*
X258010819Y-211867571D02*
X257963200Y-211772333D01*
X257963200Y-211772333D02*
X257915580Y-211724714D01*
X257915580Y-211724714D02*
X257820342Y-211677095D01*
X257820342Y-211677095D02*
X257725104Y-211677095D01*
X257725104Y-211677095D02*
X257629866Y-211724714D01*
X257629866Y-211724714D02*
X257582247Y-211772333D01*
X257582247Y-211772333D02*
X257534628Y-211867571D01*
X257534628Y-211867571D02*
X257487009Y-212058047D01*
X257487009Y-212058047D02*
X257439390Y-212153285D01*
X257439390Y-212153285D02*
X257391771Y-212200904D01*
X257391771Y-212200904D02*
X257296533Y-212248523D01*
X257296533Y-212248523D02*
X257201295Y-212248523D01*
X257201295Y-212248523D02*
X257106057Y-212200904D01*
X257106057Y-212200904D02*
X257058438Y-212153285D01*
X257058438Y-212153285D02*
X257010819Y-212058047D01*
X257010819Y-212058047D02*
X257010819Y-211819952D01*
X257010819Y-211819952D02*
X257058438Y-211677095D01*
X257010819Y-211343761D02*
X258010819Y-211105666D01*
X258010819Y-211105666D02*
X257296533Y-210915190D01*
X257296533Y-210915190D02*
X258010819Y-210724714D01*
X258010819Y-210724714D02*
X257010819Y-210486619D01*
X257344152Y-209677095D02*
X258010819Y-209677095D01*
X256963200Y-209915190D02*
X257677485Y-210153285D01*
X257677485Y-210153285D02*
X257677485Y-209534238D01*
X257010819Y-208962809D02*
X257010819Y-208867571D01*
X257010819Y-208867571D02*
X257058438Y-208772333D01*
X257058438Y-208772333D02*
X257106057Y-208724714D01*
X257106057Y-208724714D02*
X257201295Y-208677095D01*
X257201295Y-208677095D02*
X257391771Y-208629476D01*
X257391771Y-208629476D02*
X257629866Y-208629476D01*
X257629866Y-208629476D02*
X257820342Y-208677095D01*
X257820342Y-208677095D02*
X257915580Y-208724714D01*
X257915580Y-208724714D02*
X257963200Y-208772333D01*
X257963200Y-208772333D02*
X258010819Y-208867571D01*
X258010819Y-208867571D02*
X258010819Y-208962809D01*
X258010819Y-208962809D02*
X257963200Y-209058047D01*
X257963200Y-209058047D02*
X257915580Y-209105666D01*
X257915580Y-209105666D02*
X257820342Y-209153285D01*
X257820342Y-209153285D02*
X257629866Y-209200904D01*
X257629866Y-209200904D02*
X257391771Y-209200904D01*
X257391771Y-209200904D02*
X257201295Y-209153285D01*
X257201295Y-209153285D02*
X257106057Y-209105666D01*
X257106057Y-209105666D02*
X257058438Y-209058047D01*
X257058438Y-209058047D02*
X257010819Y-208962809D01*
X119850700Y-136048523D02*
X119898319Y-135905666D01*
X119898319Y-135905666D02*
X119898319Y-135667571D01*
X119898319Y-135667571D02*
X119850700Y-135572333D01*
X119850700Y-135572333D02*
X119803080Y-135524714D01*
X119803080Y-135524714D02*
X119707842Y-135477095D01*
X119707842Y-135477095D02*
X119612604Y-135477095D01*
X119612604Y-135477095D02*
X119517366Y-135524714D01*
X119517366Y-135524714D02*
X119469747Y-135572333D01*
X119469747Y-135572333D02*
X119422128Y-135667571D01*
X119422128Y-135667571D02*
X119374509Y-135858047D01*
X119374509Y-135858047D02*
X119326890Y-135953285D01*
X119326890Y-135953285D02*
X119279271Y-136000904D01*
X119279271Y-136000904D02*
X119184033Y-136048523D01*
X119184033Y-136048523D02*
X119088795Y-136048523D01*
X119088795Y-136048523D02*
X118993557Y-136000904D01*
X118993557Y-136000904D02*
X118945938Y-135953285D01*
X118945938Y-135953285D02*
X118898319Y-135858047D01*
X118898319Y-135858047D02*
X118898319Y-135619952D01*
X118898319Y-135619952D02*
X118945938Y-135477095D01*
X118898319Y-135143761D02*
X119898319Y-134905666D01*
X119898319Y-134905666D02*
X119184033Y-134715190D01*
X119184033Y-134715190D02*
X119898319Y-134524714D01*
X119898319Y-134524714D02*
X118898319Y-134286619D01*
X118993557Y-133953285D02*
X118945938Y-133905666D01*
X118945938Y-133905666D02*
X118898319Y-133810428D01*
X118898319Y-133810428D02*
X118898319Y-133572333D01*
X118898319Y-133572333D02*
X118945938Y-133477095D01*
X118945938Y-133477095D02*
X118993557Y-133429476D01*
X118993557Y-133429476D02*
X119088795Y-133381857D01*
X119088795Y-133381857D02*
X119184033Y-133381857D01*
X119184033Y-133381857D02*
X119326890Y-133429476D01*
X119326890Y-133429476D02*
X119898319Y-134000904D01*
X119898319Y-134000904D02*
X119898319Y-133381857D01*
X118898319Y-132524714D02*
X118898319Y-132715190D01*
X118898319Y-132715190D02*
X118945938Y-132810428D01*
X118945938Y-132810428D02*
X118993557Y-132858047D01*
X118993557Y-132858047D02*
X119136414Y-132953285D01*
X119136414Y-132953285D02*
X119326890Y-133000904D01*
X119326890Y-133000904D02*
X119707842Y-133000904D01*
X119707842Y-133000904D02*
X119803080Y-132953285D01*
X119803080Y-132953285D02*
X119850700Y-132905666D01*
X119850700Y-132905666D02*
X119898319Y-132810428D01*
X119898319Y-132810428D02*
X119898319Y-132619952D01*
X119898319Y-132619952D02*
X119850700Y-132524714D01*
X119850700Y-132524714D02*
X119803080Y-132477095D01*
X119803080Y-132477095D02*
X119707842Y-132429476D01*
X119707842Y-132429476D02*
X119469747Y-132429476D01*
X119469747Y-132429476D02*
X119374509Y-132477095D01*
X119374509Y-132477095D02*
X119326890Y-132524714D01*
X119326890Y-132524714D02*
X119279271Y-132619952D01*
X119279271Y-132619952D02*
X119279271Y-132810428D01*
X119279271Y-132810428D02*
X119326890Y-132905666D01*
X119326890Y-132905666D02*
X119374509Y-132953285D01*
X119374509Y-132953285D02*
X119469747Y-133000904D01*
X238913200Y-97948523D02*
X238960819Y-97805666D01*
X238960819Y-97805666D02*
X238960819Y-97567571D01*
X238960819Y-97567571D02*
X238913200Y-97472333D01*
X238913200Y-97472333D02*
X238865580Y-97424714D01*
X238865580Y-97424714D02*
X238770342Y-97377095D01*
X238770342Y-97377095D02*
X238675104Y-97377095D01*
X238675104Y-97377095D02*
X238579866Y-97424714D01*
X238579866Y-97424714D02*
X238532247Y-97472333D01*
X238532247Y-97472333D02*
X238484628Y-97567571D01*
X238484628Y-97567571D02*
X238437009Y-97758047D01*
X238437009Y-97758047D02*
X238389390Y-97853285D01*
X238389390Y-97853285D02*
X238341771Y-97900904D01*
X238341771Y-97900904D02*
X238246533Y-97948523D01*
X238246533Y-97948523D02*
X238151295Y-97948523D01*
X238151295Y-97948523D02*
X238056057Y-97900904D01*
X238056057Y-97900904D02*
X238008438Y-97853285D01*
X238008438Y-97853285D02*
X237960819Y-97758047D01*
X237960819Y-97758047D02*
X237960819Y-97519952D01*
X237960819Y-97519952D02*
X238008438Y-97377095D01*
X237960819Y-97043761D02*
X238960819Y-96805666D01*
X238960819Y-96805666D02*
X238246533Y-96615190D01*
X238246533Y-96615190D02*
X238960819Y-96424714D01*
X238960819Y-96424714D02*
X237960819Y-96186619D01*
X238056057Y-95853285D02*
X238008438Y-95805666D01*
X238008438Y-95805666D02*
X237960819Y-95710428D01*
X237960819Y-95710428D02*
X237960819Y-95472333D01*
X237960819Y-95472333D02*
X238008438Y-95377095D01*
X238008438Y-95377095D02*
X238056057Y-95329476D01*
X238056057Y-95329476D02*
X238151295Y-95281857D01*
X238151295Y-95281857D02*
X238246533Y-95281857D01*
X238246533Y-95281857D02*
X238389390Y-95329476D01*
X238389390Y-95329476D02*
X238960819Y-95900904D01*
X238960819Y-95900904D02*
X238960819Y-95281857D01*
X238960819Y-94805666D02*
X238960819Y-94615190D01*
X238960819Y-94615190D02*
X238913200Y-94519952D01*
X238913200Y-94519952D02*
X238865580Y-94472333D01*
X238865580Y-94472333D02*
X238722723Y-94377095D01*
X238722723Y-94377095D02*
X238532247Y-94329476D01*
X238532247Y-94329476D02*
X238151295Y-94329476D01*
X238151295Y-94329476D02*
X238056057Y-94377095D01*
X238056057Y-94377095D02*
X238008438Y-94424714D01*
X238008438Y-94424714D02*
X237960819Y-94519952D01*
X237960819Y-94519952D02*
X237960819Y-94710428D01*
X237960819Y-94710428D02*
X238008438Y-94805666D01*
X238008438Y-94805666D02*
X238056057Y-94853285D01*
X238056057Y-94853285D02*
X238151295Y-94900904D01*
X238151295Y-94900904D02*
X238389390Y-94900904D01*
X238389390Y-94900904D02*
X238484628Y-94853285D01*
X238484628Y-94853285D02*
X238532247Y-94805666D01*
X238532247Y-94805666D02*
X238579866Y-94710428D01*
X238579866Y-94710428D02*
X238579866Y-94519952D01*
X238579866Y-94519952D02*
X238532247Y-94424714D01*
X238532247Y-94424714D02*
X238484628Y-94377095D01*
X238484628Y-94377095D02*
X238389390Y-94329476D01*
X200813200Y-97948523D02*
X200860819Y-97805666D01*
X200860819Y-97805666D02*
X200860819Y-97567571D01*
X200860819Y-97567571D02*
X200813200Y-97472333D01*
X200813200Y-97472333D02*
X200765580Y-97424714D01*
X200765580Y-97424714D02*
X200670342Y-97377095D01*
X200670342Y-97377095D02*
X200575104Y-97377095D01*
X200575104Y-97377095D02*
X200479866Y-97424714D01*
X200479866Y-97424714D02*
X200432247Y-97472333D01*
X200432247Y-97472333D02*
X200384628Y-97567571D01*
X200384628Y-97567571D02*
X200337009Y-97758047D01*
X200337009Y-97758047D02*
X200289390Y-97853285D01*
X200289390Y-97853285D02*
X200241771Y-97900904D01*
X200241771Y-97900904D02*
X200146533Y-97948523D01*
X200146533Y-97948523D02*
X200051295Y-97948523D01*
X200051295Y-97948523D02*
X199956057Y-97900904D01*
X199956057Y-97900904D02*
X199908438Y-97853285D01*
X199908438Y-97853285D02*
X199860819Y-97758047D01*
X199860819Y-97758047D02*
X199860819Y-97519952D01*
X199860819Y-97519952D02*
X199908438Y-97377095D01*
X199860819Y-97043761D02*
X200860819Y-96805666D01*
X200860819Y-96805666D02*
X200146533Y-96615190D01*
X200146533Y-96615190D02*
X200860819Y-96424714D01*
X200860819Y-96424714D02*
X199860819Y-96186619D01*
X200860819Y-95281857D02*
X200860819Y-95853285D01*
X200860819Y-95567571D02*
X199860819Y-95567571D01*
X199860819Y-95567571D02*
X200003676Y-95662809D01*
X200003676Y-95662809D02*
X200098914Y-95758047D01*
X200098914Y-95758047D02*
X200146533Y-95853285D01*
X199860819Y-94948523D02*
X199860819Y-94329476D01*
X199860819Y-94329476D02*
X200241771Y-94662809D01*
X200241771Y-94662809D02*
X200241771Y-94519952D01*
X200241771Y-94519952D02*
X200289390Y-94424714D01*
X200289390Y-94424714D02*
X200337009Y-94377095D01*
X200337009Y-94377095D02*
X200432247Y-94329476D01*
X200432247Y-94329476D02*
X200670342Y-94329476D01*
X200670342Y-94329476D02*
X200765580Y-94377095D01*
X200765580Y-94377095D02*
X200813200Y-94424714D01*
X200813200Y-94424714D02*
X200860819Y-94519952D01*
X200860819Y-94519952D02*
X200860819Y-94805666D01*
X200860819Y-94805666D02*
X200813200Y-94900904D01*
X200813200Y-94900904D02*
X200765580Y-94948523D01*
X81750700Y-136048523D02*
X81798319Y-135905666D01*
X81798319Y-135905666D02*
X81798319Y-135667571D01*
X81798319Y-135667571D02*
X81750700Y-135572333D01*
X81750700Y-135572333D02*
X81703080Y-135524714D01*
X81703080Y-135524714D02*
X81607842Y-135477095D01*
X81607842Y-135477095D02*
X81512604Y-135477095D01*
X81512604Y-135477095D02*
X81417366Y-135524714D01*
X81417366Y-135524714D02*
X81369747Y-135572333D01*
X81369747Y-135572333D02*
X81322128Y-135667571D01*
X81322128Y-135667571D02*
X81274509Y-135858047D01*
X81274509Y-135858047D02*
X81226890Y-135953285D01*
X81226890Y-135953285D02*
X81179271Y-136000904D01*
X81179271Y-136000904D02*
X81084033Y-136048523D01*
X81084033Y-136048523D02*
X80988795Y-136048523D01*
X80988795Y-136048523D02*
X80893557Y-136000904D01*
X80893557Y-136000904D02*
X80845938Y-135953285D01*
X80845938Y-135953285D02*
X80798319Y-135858047D01*
X80798319Y-135858047D02*
X80798319Y-135619952D01*
X80798319Y-135619952D02*
X80845938Y-135477095D01*
X80798319Y-135143761D02*
X81798319Y-134905666D01*
X81798319Y-134905666D02*
X81084033Y-134715190D01*
X81084033Y-134715190D02*
X81798319Y-134524714D01*
X81798319Y-134524714D02*
X80798319Y-134286619D01*
X81798319Y-133381857D02*
X81798319Y-133953285D01*
X81798319Y-133667571D02*
X80798319Y-133667571D01*
X80798319Y-133667571D02*
X80941176Y-133762809D01*
X80941176Y-133762809D02*
X81036414Y-133858047D01*
X81036414Y-133858047D02*
X81084033Y-133953285D01*
X80798319Y-132762809D02*
X80798319Y-132667571D01*
X80798319Y-132667571D02*
X80845938Y-132572333D01*
X80845938Y-132572333D02*
X80893557Y-132524714D01*
X80893557Y-132524714D02*
X80988795Y-132477095D01*
X80988795Y-132477095D02*
X81179271Y-132429476D01*
X81179271Y-132429476D02*
X81417366Y-132429476D01*
X81417366Y-132429476D02*
X81607842Y-132477095D01*
X81607842Y-132477095D02*
X81703080Y-132524714D01*
X81703080Y-132524714D02*
X81750700Y-132572333D01*
X81750700Y-132572333D02*
X81798319Y-132667571D01*
X81798319Y-132667571D02*
X81798319Y-132762809D01*
X81798319Y-132762809D02*
X81750700Y-132858047D01*
X81750700Y-132858047D02*
X81703080Y-132905666D01*
X81703080Y-132905666D02*
X81607842Y-132953285D01*
X81607842Y-132953285D02*
X81417366Y-133000904D01*
X81417366Y-133000904D02*
X81179271Y-133000904D01*
X81179271Y-133000904D02*
X80988795Y-132953285D01*
X80988795Y-132953285D02*
X80893557Y-132905666D01*
X80893557Y-132905666D02*
X80845938Y-132858047D01*
X80845938Y-132858047D02*
X80798319Y-132762809D01*
X62700700Y-211772332D02*
X62748319Y-211629475D01*
X62748319Y-211629475D02*
X62748319Y-211391380D01*
X62748319Y-211391380D02*
X62700700Y-211296142D01*
X62700700Y-211296142D02*
X62653080Y-211248523D01*
X62653080Y-211248523D02*
X62557842Y-211200904D01*
X62557842Y-211200904D02*
X62462604Y-211200904D01*
X62462604Y-211200904D02*
X62367366Y-211248523D01*
X62367366Y-211248523D02*
X62319747Y-211296142D01*
X62319747Y-211296142D02*
X62272128Y-211391380D01*
X62272128Y-211391380D02*
X62224509Y-211581856D01*
X62224509Y-211581856D02*
X62176890Y-211677094D01*
X62176890Y-211677094D02*
X62129271Y-211724713D01*
X62129271Y-211724713D02*
X62034033Y-211772332D01*
X62034033Y-211772332D02*
X61938795Y-211772332D01*
X61938795Y-211772332D02*
X61843557Y-211724713D01*
X61843557Y-211724713D02*
X61795938Y-211677094D01*
X61795938Y-211677094D02*
X61748319Y-211581856D01*
X61748319Y-211581856D02*
X61748319Y-211343761D01*
X61748319Y-211343761D02*
X61795938Y-211200904D01*
X61748319Y-210867570D02*
X62748319Y-210629475D01*
X62748319Y-210629475D02*
X62034033Y-210438999D01*
X62034033Y-210438999D02*
X62748319Y-210248523D01*
X62748319Y-210248523D02*
X61748319Y-210010428D01*
X62081652Y-209200904D02*
X62748319Y-209200904D01*
X61700700Y-209438999D02*
X62414985Y-209677094D01*
X62414985Y-209677094D02*
X62414985Y-209058047D01*
X200813200Y-174148523D02*
X200860819Y-174005666D01*
X200860819Y-174005666D02*
X200860819Y-173767571D01*
X200860819Y-173767571D02*
X200813200Y-173672333D01*
X200813200Y-173672333D02*
X200765580Y-173624714D01*
X200765580Y-173624714D02*
X200670342Y-173577095D01*
X200670342Y-173577095D02*
X200575104Y-173577095D01*
X200575104Y-173577095D02*
X200479866Y-173624714D01*
X200479866Y-173624714D02*
X200432247Y-173672333D01*
X200432247Y-173672333D02*
X200384628Y-173767571D01*
X200384628Y-173767571D02*
X200337009Y-173958047D01*
X200337009Y-173958047D02*
X200289390Y-174053285D01*
X200289390Y-174053285D02*
X200241771Y-174100904D01*
X200241771Y-174100904D02*
X200146533Y-174148523D01*
X200146533Y-174148523D02*
X200051295Y-174148523D01*
X200051295Y-174148523D02*
X199956057Y-174100904D01*
X199956057Y-174100904D02*
X199908438Y-174053285D01*
X199908438Y-174053285D02*
X199860819Y-173958047D01*
X199860819Y-173958047D02*
X199860819Y-173719952D01*
X199860819Y-173719952D02*
X199908438Y-173577095D01*
X199860819Y-173243761D02*
X200860819Y-173005666D01*
X200860819Y-173005666D02*
X200146533Y-172815190D01*
X200146533Y-172815190D02*
X200860819Y-172624714D01*
X200860819Y-172624714D02*
X199860819Y-172386619D01*
X200860819Y-171481857D02*
X200860819Y-172053285D01*
X200860819Y-171767571D02*
X199860819Y-171767571D01*
X199860819Y-171767571D02*
X200003676Y-171862809D01*
X200003676Y-171862809D02*
X200098914Y-171958047D01*
X200098914Y-171958047D02*
X200146533Y-172053285D01*
X199860819Y-170577095D02*
X199860819Y-171053285D01*
X199860819Y-171053285D02*
X200337009Y-171100904D01*
X200337009Y-171100904D02*
X200289390Y-171053285D01*
X200289390Y-171053285D02*
X200241771Y-170958047D01*
X200241771Y-170958047D02*
X200241771Y-170719952D01*
X200241771Y-170719952D02*
X200289390Y-170624714D01*
X200289390Y-170624714D02*
X200337009Y-170577095D01*
X200337009Y-170577095D02*
X200432247Y-170529476D01*
X200432247Y-170529476D02*
X200670342Y-170529476D01*
X200670342Y-170529476D02*
X200765580Y-170577095D01*
X200765580Y-170577095D02*
X200813200Y-170624714D01*
X200813200Y-170624714D02*
X200860819Y-170719952D01*
X200860819Y-170719952D02*
X200860819Y-170958047D01*
X200860819Y-170958047D02*
X200813200Y-171053285D01*
X200813200Y-171053285D02*
X200765580Y-171100904D01*
X62700700Y-97472332D02*
X62748319Y-97329475D01*
X62748319Y-97329475D02*
X62748319Y-97091380D01*
X62748319Y-97091380D02*
X62700700Y-96996142D01*
X62700700Y-96996142D02*
X62653080Y-96948523D01*
X62653080Y-96948523D02*
X62557842Y-96900904D01*
X62557842Y-96900904D02*
X62462604Y-96900904D01*
X62462604Y-96900904D02*
X62367366Y-96948523D01*
X62367366Y-96948523D02*
X62319747Y-96996142D01*
X62319747Y-96996142D02*
X62272128Y-97091380D01*
X62272128Y-97091380D02*
X62224509Y-97281856D01*
X62224509Y-97281856D02*
X62176890Y-97377094D01*
X62176890Y-97377094D02*
X62129271Y-97424713D01*
X62129271Y-97424713D02*
X62034033Y-97472332D01*
X62034033Y-97472332D02*
X61938795Y-97472332D01*
X61938795Y-97472332D02*
X61843557Y-97424713D01*
X61843557Y-97424713D02*
X61795938Y-97377094D01*
X61795938Y-97377094D02*
X61748319Y-97281856D01*
X61748319Y-97281856D02*
X61748319Y-97043761D01*
X61748319Y-97043761D02*
X61795938Y-96900904D01*
X61748319Y-96567570D02*
X62748319Y-96329475D01*
X62748319Y-96329475D02*
X62034033Y-96138999D01*
X62034033Y-96138999D02*
X62748319Y-95948523D01*
X62748319Y-95948523D02*
X61748319Y-95710428D01*
X62748319Y-94805666D02*
X62748319Y-95377094D01*
X62748319Y-95091380D02*
X61748319Y-95091380D01*
X61748319Y-95091380D02*
X61891176Y-95186618D01*
X61891176Y-95186618D02*
X61986414Y-95281856D01*
X61986414Y-95281856D02*
X62034033Y-95377094D01*
X181763200Y-135572332D02*
X181810819Y-135429475D01*
X181810819Y-135429475D02*
X181810819Y-135191380D01*
X181810819Y-135191380D02*
X181763200Y-135096142D01*
X181763200Y-135096142D02*
X181715580Y-135048523D01*
X181715580Y-135048523D02*
X181620342Y-135000904D01*
X181620342Y-135000904D02*
X181525104Y-135000904D01*
X181525104Y-135000904D02*
X181429866Y-135048523D01*
X181429866Y-135048523D02*
X181382247Y-135096142D01*
X181382247Y-135096142D02*
X181334628Y-135191380D01*
X181334628Y-135191380D02*
X181287009Y-135381856D01*
X181287009Y-135381856D02*
X181239390Y-135477094D01*
X181239390Y-135477094D02*
X181191771Y-135524713D01*
X181191771Y-135524713D02*
X181096533Y-135572332D01*
X181096533Y-135572332D02*
X181001295Y-135572332D01*
X181001295Y-135572332D02*
X180906057Y-135524713D01*
X180906057Y-135524713D02*
X180858438Y-135477094D01*
X180858438Y-135477094D02*
X180810819Y-135381856D01*
X180810819Y-135381856D02*
X180810819Y-135143761D01*
X180810819Y-135143761D02*
X180858438Y-135000904D01*
X180810819Y-134667570D02*
X181810819Y-134429475D01*
X181810819Y-134429475D02*
X181096533Y-134238999D01*
X181096533Y-134238999D02*
X181810819Y-134048523D01*
X181810819Y-134048523D02*
X180810819Y-133810428D01*
X180810819Y-133000904D02*
X180810819Y-133191380D01*
X180810819Y-133191380D02*
X180858438Y-133286618D01*
X180858438Y-133286618D02*
X180906057Y-133334237D01*
X180906057Y-133334237D02*
X181048914Y-133429475D01*
X181048914Y-133429475D02*
X181239390Y-133477094D01*
X181239390Y-133477094D02*
X181620342Y-133477094D01*
X181620342Y-133477094D02*
X181715580Y-133429475D01*
X181715580Y-133429475D02*
X181763200Y-133381856D01*
X181763200Y-133381856D02*
X181810819Y-133286618D01*
X181810819Y-133286618D02*
X181810819Y-133096142D01*
X181810819Y-133096142D02*
X181763200Y-133000904D01*
X181763200Y-133000904D02*
X181715580Y-132953285D01*
X181715580Y-132953285D02*
X181620342Y-132905666D01*
X181620342Y-132905666D02*
X181382247Y-132905666D01*
X181382247Y-132905666D02*
X181287009Y-132953285D01*
X181287009Y-132953285D02*
X181239390Y-133000904D01*
X181239390Y-133000904D02*
X181191771Y-133096142D01*
X181191771Y-133096142D02*
X181191771Y-133286618D01*
X181191771Y-133286618D02*
X181239390Y-133381856D01*
X181239390Y-133381856D02*
X181287009Y-133429475D01*
X181287009Y-133429475D02*
X181382247Y-133477094D01*
X257218819Y-66762238D02*
X256742628Y-67095571D01*
X257218819Y-67333666D02*
X256218819Y-67333666D01*
X256218819Y-67333666D02*
X256218819Y-66952714D01*
X256218819Y-66952714D02*
X256266438Y-66857476D01*
X256266438Y-66857476D02*
X256314057Y-66809857D01*
X256314057Y-66809857D02*
X256409295Y-66762238D01*
X256409295Y-66762238D02*
X256552152Y-66762238D01*
X256552152Y-66762238D02*
X256647390Y-66809857D01*
X256647390Y-66809857D02*
X256695009Y-66857476D01*
X256695009Y-66857476D02*
X256742628Y-66952714D01*
X256742628Y-66952714D02*
X256742628Y-67333666D01*
X256218819Y-66476523D02*
X257218819Y-66143190D01*
X257218819Y-66143190D02*
X256218819Y-65809857D01*
X256314057Y-65524142D02*
X256266438Y-65476523D01*
X256266438Y-65476523D02*
X256218819Y-65381285D01*
X256218819Y-65381285D02*
X256218819Y-65143190D01*
X256218819Y-65143190D02*
X256266438Y-65047952D01*
X256266438Y-65047952D02*
X256314057Y-65000333D01*
X256314057Y-65000333D02*
X256409295Y-64952714D01*
X256409295Y-64952714D02*
X256504533Y-64952714D01*
X256504533Y-64952714D02*
X256647390Y-65000333D01*
X256647390Y-65000333D02*
X257218819Y-65571761D01*
X257218819Y-65571761D02*
X257218819Y-64952714D01*
X238913200Y-212248523D02*
X238960819Y-212105666D01*
X238960819Y-212105666D02*
X238960819Y-211867571D01*
X238960819Y-211867571D02*
X238913200Y-211772333D01*
X238913200Y-211772333D02*
X238865580Y-211724714D01*
X238865580Y-211724714D02*
X238770342Y-211677095D01*
X238770342Y-211677095D02*
X238675104Y-211677095D01*
X238675104Y-211677095D02*
X238579866Y-211724714D01*
X238579866Y-211724714D02*
X238532247Y-211772333D01*
X238532247Y-211772333D02*
X238484628Y-211867571D01*
X238484628Y-211867571D02*
X238437009Y-212058047D01*
X238437009Y-212058047D02*
X238389390Y-212153285D01*
X238389390Y-212153285D02*
X238341771Y-212200904D01*
X238341771Y-212200904D02*
X238246533Y-212248523D01*
X238246533Y-212248523D02*
X238151295Y-212248523D01*
X238151295Y-212248523D02*
X238056057Y-212200904D01*
X238056057Y-212200904D02*
X238008438Y-212153285D01*
X238008438Y-212153285D02*
X237960819Y-212058047D01*
X237960819Y-212058047D02*
X237960819Y-211819952D01*
X237960819Y-211819952D02*
X238008438Y-211677095D01*
X237960819Y-211343761D02*
X238960819Y-211105666D01*
X238960819Y-211105666D02*
X238246533Y-210915190D01*
X238246533Y-210915190D02*
X238960819Y-210724714D01*
X238960819Y-210724714D02*
X237960819Y-210486619D01*
X237960819Y-210200904D02*
X237960819Y-209581857D01*
X237960819Y-209581857D02*
X238341771Y-209915190D01*
X238341771Y-209915190D02*
X238341771Y-209772333D01*
X238341771Y-209772333D02*
X238389390Y-209677095D01*
X238389390Y-209677095D02*
X238437009Y-209629476D01*
X238437009Y-209629476D02*
X238532247Y-209581857D01*
X238532247Y-209581857D02*
X238770342Y-209581857D01*
X238770342Y-209581857D02*
X238865580Y-209629476D01*
X238865580Y-209629476D02*
X238913200Y-209677095D01*
X238913200Y-209677095D02*
X238960819Y-209772333D01*
X238960819Y-209772333D02*
X238960819Y-210058047D01*
X238960819Y-210058047D02*
X238913200Y-210153285D01*
X238913200Y-210153285D02*
X238865580Y-210200904D01*
X238056057Y-209200904D02*
X238008438Y-209153285D01*
X238008438Y-209153285D02*
X237960819Y-209058047D01*
X237960819Y-209058047D02*
X237960819Y-208819952D01*
X237960819Y-208819952D02*
X238008438Y-208724714D01*
X238008438Y-208724714D02*
X238056057Y-208677095D01*
X238056057Y-208677095D02*
X238151295Y-208629476D01*
X238151295Y-208629476D02*
X238246533Y-208629476D01*
X238246533Y-208629476D02*
X238389390Y-208677095D01*
X238389390Y-208677095D02*
X238960819Y-209248523D01*
X238960819Y-209248523D02*
X238960819Y-208629476D01*
X138900700Y-174148523D02*
X138948319Y-174005666D01*
X138948319Y-174005666D02*
X138948319Y-173767571D01*
X138948319Y-173767571D02*
X138900700Y-173672333D01*
X138900700Y-173672333D02*
X138853080Y-173624714D01*
X138853080Y-173624714D02*
X138757842Y-173577095D01*
X138757842Y-173577095D02*
X138662604Y-173577095D01*
X138662604Y-173577095D02*
X138567366Y-173624714D01*
X138567366Y-173624714D02*
X138519747Y-173672333D01*
X138519747Y-173672333D02*
X138472128Y-173767571D01*
X138472128Y-173767571D02*
X138424509Y-173958047D01*
X138424509Y-173958047D02*
X138376890Y-174053285D01*
X138376890Y-174053285D02*
X138329271Y-174100904D01*
X138329271Y-174100904D02*
X138234033Y-174148523D01*
X138234033Y-174148523D02*
X138138795Y-174148523D01*
X138138795Y-174148523D02*
X138043557Y-174100904D01*
X138043557Y-174100904D02*
X137995938Y-174053285D01*
X137995938Y-174053285D02*
X137948319Y-173958047D01*
X137948319Y-173958047D02*
X137948319Y-173719952D01*
X137948319Y-173719952D02*
X137995938Y-173577095D01*
X137948319Y-173243761D02*
X138948319Y-173005666D01*
X138948319Y-173005666D02*
X138234033Y-172815190D01*
X138234033Y-172815190D02*
X138948319Y-172624714D01*
X138948319Y-172624714D02*
X137948319Y-172386619D01*
X137948319Y-172100904D02*
X137948319Y-171481857D01*
X137948319Y-171481857D02*
X138329271Y-171815190D01*
X138329271Y-171815190D02*
X138329271Y-171672333D01*
X138329271Y-171672333D02*
X138376890Y-171577095D01*
X138376890Y-171577095D02*
X138424509Y-171529476D01*
X138424509Y-171529476D02*
X138519747Y-171481857D01*
X138519747Y-171481857D02*
X138757842Y-171481857D01*
X138757842Y-171481857D02*
X138853080Y-171529476D01*
X138853080Y-171529476D02*
X138900700Y-171577095D01*
X138900700Y-171577095D02*
X138948319Y-171672333D01*
X138948319Y-171672333D02*
X138948319Y-171958047D01*
X138948319Y-171958047D02*
X138900700Y-172053285D01*
X138900700Y-172053285D02*
X138853080Y-172100904D01*
X137948319Y-170577095D02*
X137948319Y-171053285D01*
X137948319Y-171053285D02*
X138424509Y-171100904D01*
X138424509Y-171100904D02*
X138376890Y-171053285D01*
X138376890Y-171053285D02*
X138329271Y-170958047D01*
X138329271Y-170958047D02*
X138329271Y-170719952D01*
X138329271Y-170719952D02*
X138376890Y-170624714D01*
X138376890Y-170624714D02*
X138424509Y-170577095D01*
X138424509Y-170577095D02*
X138519747Y-170529476D01*
X138519747Y-170529476D02*
X138757842Y-170529476D01*
X138757842Y-170529476D02*
X138853080Y-170577095D01*
X138853080Y-170577095D02*
X138900700Y-170624714D01*
X138900700Y-170624714D02*
X138948319Y-170719952D01*
X138948319Y-170719952D02*
X138948319Y-170958047D01*
X138948319Y-170958047D02*
X138900700Y-171053285D01*
X138900700Y-171053285D02*
X138853080Y-171100904D01*
X200813200Y-136048523D02*
X200860819Y-135905666D01*
X200860819Y-135905666D02*
X200860819Y-135667571D01*
X200860819Y-135667571D02*
X200813200Y-135572333D01*
X200813200Y-135572333D02*
X200765580Y-135524714D01*
X200765580Y-135524714D02*
X200670342Y-135477095D01*
X200670342Y-135477095D02*
X200575104Y-135477095D01*
X200575104Y-135477095D02*
X200479866Y-135524714D01*
X200479866Y-135524714D02*
X200432247Y-135572333D01*
X200432247Y-135572333D02*
X200384628Y-135667571D01*
X200384628Y-135667571D02*
X200337009Y-135858047D01*
X200337009Y-135858047D02*
X200289390Y-135953285D01*
X200289390Y-135953285D02*
X200241771Y-136000904D01*
X200241771Y-136000904D02*
X200146533Y-136048523D01*
X200146533Y-136048523D02*
X200051295Y-136048523D01*
X200051295Y-136048523D02*
X199956057Y-136000904D01*
X199956057Y-136000904D02*
X199908438Y-135953285D01*
X199908438Y-135953285D02*
X199860819Y-135858047D01*
X199860819Y-135858047D02*
X199860819Y-135619952D01*
X199860819Y-135619952D02*
X199908438Y-135477095D01*
X199860819Y-135143761D02*
X200860819Y-134905666D01*
X200860819Y-134905666D02*
X200146533Y-134715190D01*
X200146533Y-134715190D02*
X200860819Y-134524714D01*
X200860819Y-134524714D02*
X199860819Y-134286619D01*
X200860819Y-133381857D02*
X200860819Y-133953285D01*
X200860819Y-133667571D02*
X199860819Y-133667571D01*
X199860819Y-133667571D02*
X200003676Y-133762809D01*
X200003676Y-133762809D02*
X200098914Y-133858047D01*
X200098914Y-133858047D02*
X200146533Y-133953285D01*
X200194152Y-132524714D02*
X200860819Y-132524714D01*
X199813200Y-132762809D02*
X200527485Y-133000904D01*
X200527485Y-133000904D02*
X200527485Y-132381857D01*
X138900700Y-212248523D02*
X138948319Y-212105666D01*
X138948319Y-212105666D02*
X138948319Y-211867571D01*
X138948319Y-211867571D02*
X138900700Y-211772333D01*
X138900700Y-211772333D02*
X138853080Y-211724714D01*
X138853080Y-211724714D02*
X138757842Y-211677095D01*
X138757842Y-211677095D02*
X138662604Y-211677095D01*
X138662604Y-211677095D02*
X138567366Y-211724714D01*
X138567366Y-211724714D02*
X138519747Y-211772333D01*
X138519747Y-211772333D02*
X138472128Y-211867571D01*
X138472128Y-211867571D02*
X138424509Y-212058047D01*
X138424509Y-212058047D02*
X138376890Y-212153285D01*
X138376890Y-212153285D02*
X138329271Y-212200904D01*
X138329271Y-212200904D02*
X138234033Y-212248523D01*
X138234033Y-212248523D02*
X138138795Y-212248523D01*
X138138795Y-212248523D02*
X138043557Y-212200904D01*
X138043557Y-212200904D02*
X137995938Y-212153285D01*
X137995938Y-212153285D02*
X137948319Y-212058047D01*
X137948319Y-212058047D02*
X137948319Y-211819952D01*
X137948319Y-211819952D02*
X137995938Y-211677095D01*
X137948319Y-211343761D02*
X138948319Y-211105666D01*
X138948319Y-211105666D02*
X138234033Y-210915190D01*
X138234033Y-210915190D02*
X138948319Y-210724714D01*
X138948319Y-210724714D02*
X137948319Y-210486619D01*
X137948319Y-210200904D02*
X137948319Y-209581857D01*
X137948319Y-209581857D02*
X138329271Y-209915190D01*
X138329271Y-209915190D02*
X138329271Y-209772333D01*
X138329271Y-209772333D02*
X138376890Y-209677095D01*
X138376890Y-209677095D02*
X138424509Y-209629476D01*
X138424509Y-209629476D02*
X138519747Y-209581857D01*
X138519747Y-209581857D02*
X138757842Y-209581857D01*
X138757842Y-209581857D02*
X138853080Y-209629476D01*
X138853080Y-209629476D02*
X138900700Y-209677095D01*
X138900700Y-209677095D02*
X138948319Y-209772333D01*
X138948319Y-209772333D02*
X138948319Y-210058047D01*
X138948319Y-210058047D02*
X138900700Y-210153285D01*
X138900700Y-210153285D02*
X138853080Y-210200904D01*
X137948319Y-208724714D02*
X137948319Y-208915190D01*
X137948319Y-208915190D02*
X137995938Y-209010428D01*
X137995938Y-209010428D02*
X138043557Y-209058047D01*
X138043557Y-209058047D02*
X138186414Y-209153285D01*
X138186414Y-209153285D02*
X138376890Y-209200904D01*
X138376890Y-209200904D02*
X138757842Y-209200904D01*
X138757842Y-209200904D02*
X138853080Y-209153285D01*
X138853080Y-209153285D02*
X138900700Y-209105666D01*
X138900700Y-209105666D02*
X138948319Y-209010428D01*
X138948319Y-209010428D02*
X138948319Y-208819952D01*
X138948319Y-208819952D02*
X138900700Y-208724714D01*
X138900700Y-208724714D02*
X138853080Y-208677095D01*
X138853080Y-208677095D02*
X138757842Y-208629476D01*
X138757842Y-208629476D02*
X138519747Y-208629476D01*
X138519747Y-208629476D02*
X138424509Y-208677095D01*
X138424509Y-208677095D02*
X138376890Y-208724714D01*
X138376890Y-208724714D02*
X138329271Y-208819952D01*
X138329271Y-208819952D02*
X138329271Y-209010428D01*
X138329271Y-209010428D02*
X138376890Y-209105666D01*
X138376890Y-209105666D02*
X138424509Y-209153285D01*
X138424509Y-209153285D02*
X138519747Y-209200904D01*
X100800700Y-97948523D02*
X100848319Y-97805666D01*
X100848319Y-97805666D02*
X100848319Y-97567571D01*
X100848319Y-97567571D02*
X100800700Y-97472333D01*
X100800700Y-97472333D02*
X100753080Y-97424714D01*
X100753080Y-97424714D02*
X100657842Y-97377095D01*
X100657842Y-97377095D02*
X100562604Y-97377095D01*
X100562604Y-97377095D02*
X100467366Y-97424714D01*
X100467366Y-97424714D02*
X100419747Y-97472333D01*
X100419747Y-97472333D02*
X100372128Y-97567571D01*
X100372128Y-97567571D02*
X100324509Y-97758047D01*
X100324509Y-97758047D02*
X100276890Y-97853285D01*
X100276890Y-97853285D02*
X100229271Y-97900904D01*
X100229271Y-97900904D02*
X100134033Y-97948523D01*
X100134033Y-97948523D02*
X100038795Y-97948523D01*
X100038795Y-97948523D02*
X99943557Y-97900904D01*
X99943557Y-97900904D02*
X99895938Y-97853285D01*
X99895938Y-97853285D02*
X99848319Y-97758047D01*
X99848319Y-97758047D02*
X99848319Y-97519952D01*
X99848319Y-97519952D02*
X99895938Y-97377095D01*
X99848319Y-97043761D02*
X100848319Y-96805666D01*
X100848319Y-96805666D02*
X100134033Y-96615190D01*
X100134033Y-96615190D02*
X100848319Y-96424714D01*
X100848319Y-96424714D02*
X99848319Y-96186619D01*
X100848319Y-95281857D02*
X100848319Y-95853285D01*
X100848319Y-95567571D02*
X99848319Y-95567571D01*
X99848319Y-95567571D02*
X99991176Y-95662809D01*
X99991176Y-95662809D02*
X100086414Y-95758047D01*
X100086414Y-95758047D02*
X100134033Y-95853285D01*
X99848319Y-94948523D02*
X99848319Y-94281857D01*
X99848319Y-94281857D02*
X100848319Y-94710428D01*
X62700700Y-173672332D02*
X62748319Y-173529475D01*
X62748319Y-173529475D02*
X62748319Y-173291380D01*
X62748319Y-173291380D02*
X62700700Y-173196142D01*
X62700700Y-173196142D02*
X62653080Y-173148523D01*
X62653080Y-173148523D02*
X62557842Y-173100904D01*
X62557842Y-173100904D02*
X62462604Y-173100904D01*
X62462604Y-173100904D02*
X62367366Y-173148523D01*
X62367366Y-173148523D02*
X62319747Y-173196142D01*
X62319747Y-173196142D02*
X62272128Y-173291380D01*
X62272128Y-173291380D02*
X62224509Y-173481856D01*
X62224509Y-173481856D02*
X62176890Y-173577094D01*
X62176890Y-173577094D02*
X62129271Y-173624713D01*
X62129271Y-173624713D02*
X62034033Y-173672332D01*
X62034033Y-173672332D02*
X61938795Y-173672332D01*
X61938795Y-173672332D02*
X61843557Y-173624713D01*
X61843557Y-173624713D02*
X61795938Y-173577094D01*
X61795938Y-173577094D02*
X61748319Y-173481856D01*
X61748319Y-173481856D02*
X61748319Y-173243761D01*
X61748319Y-173243761D02*
X61795938Y-173100904D01*
X61748319Y-172767570D02*
X62748319Y-172529475D01*
X62748319Y-172529475D02*
X62034033Y-172338999D01*
X62034033Y-172338999D02*
X62748319Y-172148523D01*
X62748319Y-172148523D02*
X61748319Y-171910428D01*
X61748319Y-171624713D02*
X61748319Y-171005666D01*
X61748319Y-171005666D02*
X62129271Y-171338999D01*
X62129271Y-171338999D02*
X62129271Y-171196142D01*
X62129271Y-171196142D02*
X62176890Y-171100904D01*
X62176890Y-171100904D02*
X62224509Y-171053285D01*
X62224509Y-171053285D02*
X62319747Y-171005666D01*
X62319747Y-171005666D02*
X62557842Y-171005666D01*
X62557842Y-171005666D02*
X62653080Y-171053285D01*
X62653080Y-171053285D02*
X62700700Y-171100904D01*
X62700700Y-171100904D02*
X62748319Y-171196142D01*
X62748319Y-171196142D02*
X62748319Y-171481856D01*
X62748319Y-171481856D02*
X62700700Y-171577094D01*
X62700700Y-171577094D02*
X62653080Y-171624713D01*
X219863200Y-174148523D02*
X219910819Y-174005666D01*
X219910819Y-174005666D02*
X219910819Y-173767571D01*
X219910819Y-173767571D02*
X219863200Y-173672333D01*
X219863200Y-173672333D02*
X219815580Y-173624714D01*
X219815580Y-173624714D02*
X219720342Y-173577095D01*
X219720342Y-173577095D02*
X219625104Y-173577095D01*
X219625104Y-173577095D02*
X219529866Y-173624714D01*
X219529866Y-173624714D02*
X219482247Y-173672333D01*
X219482247Y-173672333D02*
X219434628Y-173767571D01*
X219434628Y-173767571D02*
X219387009Y-173958047D01*
X219387009Y-173958047D02*
X219339390Y-174053285D01*
X219339390Y-174053285D02*
X219291771Y-174100904D01*
X219291771Y-174100904D02*
X219196533Y-174148523D01*
X219196533Y-174148523D02*
X219101295Y-174148523D01*
X219101295Y-174148523D02*
X219006057Y-174100904D01*
X219006057Y-174100904D02*
X218958438Y-174053285D01*
X218958438Y-174053285D02*
X218910819Y-173958047D01*
X218910819Y-173958047D02*
X218910819Y-173719952D01*
X218910819Y-173719952D02*
X218958438Y-173577095D01*
X218910819Y-173243761D02*
X219910819Y-173005666D01*
X219910819Y-173005666D02*
X219196533Y-172815190D01*
X219196533Y-172815190D02*
X219910819Y-172624714D01*
X219910819Y-172624714D02*
X218910819Y-172386619D01*
X219006057Y-172053285D02*
X218958438Y-172005666D01*
X218958438Y-172005666D02*
X218910819Y-171910428D01*
X218910819Y-171910428D02*
X218910819Y-171672333D01*
X218910819Y-171672333D02*
X218958438Y-171577095D01*
X218958438Y-171577095D02*
X219006057Y-171529476D01*
X219006057Y-171529476D02*
X219101295Y-171481857D01*
X219101295Y-171481857D02*
X219196533Y-171481857D01*
X219196533Y-171481857D02*
X219339390Y-171529476D01*
X219339390Y-171529476D02*
X219910819Y-172100904D01*
X219910819Y-172100904D02*
X219910819Y-171481857D01*
X218910819Y-171148523D02*
X218910819Y-170529476D01*
X218910819Y-170529476D02*
X219291771Y-170862809D01*
X219291771Y-170862809D02*
X219291771Y-170719952D01*
X219291771Y-170719952D02*
X219339390Y-170624714D01*
X219339390Y-170624714D02*
X219387009Y-170577095D01*
X219387009Y-170577095D02*
X219482247Y-170529476D01*
X219482247Y-170529476D02*
X219720342Y-170529476D01*
X219720342Y-170529476D02*
X219815580Y-170577095D01*
X219815580Y-170577095D02*
X219863200Y-170624714D01*
X219863200Y-170624714D02*
X219910819Y-170719952D01*
X219910819Y-170719952D02*
X219910819Y-171005666D01*
X219910819Y-171005666D02*
X219863200Y-171100904D01*
X219863200Y-171100904D02*
X219815580Y-171148523D01*
X219863200Y-212248523D02*
X219910819Y-212105666D01*
X219910819Y-212105666D02*
X219910819Y-211867571D01*
X219910819Y-211867571D02*
X219863200Y-211772333D01*
X219863200Y-211772333D02*
X219815580Y-211724714D01*
X219815580Y-211724714D02*
X219720342Y-211677095D01*
X219720342Y-211677095D02*
X219625104Y-211677095D01*
X219625104Y-211677095D02*
X219529866Y-211724714D01*
X219529866Y-211724714D02*
X219482247Y-211772333D01*
X219482247Y-211772333D02*
X219434628Y-211867571D01*
X219434628Y-211867571D02*
X219387009Y-212058047D01*
X219387009Y-212058047D02*
X219339390Y-212153285D01*
X219339390Y-212153285D02*
X219291771Y-212200904D01*
X219291771Y-212200904D02*
X219196533Y-212248523D01*
X219196533Y-212248523D02*
X219101295Y-212248523D01*
X219101295Y-212248523D02*
X219006057Y-212200904D01*
X219006057Y-212200904D02*
X218958438Y-212153285D01*
X218958438Y-212153285D02*
X218910819Y-212058047D01*
X218910819Y-212058047D02*
X218910819Y-211819952D01*
X218910819Y-211819952D02*
X218958438Y-211677095D01*
X218910819Y-211343761D02*
X219910819Y-211105666D01*
X219910819Y-211105666D02*
X219196533Y-210915190D01*
X219196533Y-210915190D02*
X219910819Y-210724714D01*
X219910819Y-210724714D02*
X218910819Y-210486619D01*
X219006057Y-210153285D02*
X218958438Y-210105666D01*
X218958438Y-210105666D02*
X218910819Y-210010428D01*
X218910819Y-210010428D02*
X218910819Y-209772333D01*
X218910819Y-209772333D02*
X218958438Y-209677095D01*
X218958438Y-209677095D02*
X219006057Y-209629476D01*
X219006057Y-209629476D02*
X219101295Y-209581857D01*
X219101295Y-209581857D02*
X219196533Y-209581857D01*
X219196533Y-209581857D02*
X219339390Y-209629476D01*
X219339390Y-209629476D02*
X219910819Y-210200904D01*
X219910819Y-210200904D02*
X219910819Y-209581857D01*
X219244152Y-208724714D02*
X219910819Y-208724714D01*
X218863200Y-208962809D02*
X219577485Y-209200904D01*
X219577485Y-209200904D02*
X219577485Y-208581857D01*
X181763200Y-173672332D02*
X181810819Y-173529475D01*
X181810819Y-173529475D02*
X181810819Y-173291380D01*
X181810819Y-173291380D02*
X181763200Y-173196142D01*
X181763200Y-173196142D02*
X181715580Y-173148523D01*
X181715580Y-173148523D02*
X181620342Y-173100904D01*
X181620342Y-173100904D02*
X181525104Y-173100904D01*
X181525104Y-173100904D02*
X181429866Y-173148523D01*
X181429866Y-173148523D02*
X181382247Y-173196142D01*
X181382247Y-173196142D02*
X181334628Y-173291380D01*
X181334628Y-173291380D02*
X181287009Y-173481856D01*
X181287009Y-173481856D02*
X181239390Y-173577094D01*
X181239390Y-173577094D02*
X181191771Y-173624713D01*
X181191771Y-173624713D02*
X181096533Y-173672332D01*
X181096533Y-173672332D02*
X181001295Y-173672332D01*
X181001295Y-173672332D02*
X180906057Y-173624713D01*
X180906057Y-173624713D02*
X180858438Y-173577094D01*
X180858438Y-173577094D02*
X180810819Y-173481856D01*
X180810819Y-173481856D02*
X180810819Y-173243761D01*
X180810819Y-173243761D02*
X180858438Y-173100904D01*
X180810819Y-172767570D02*
X181810819Y-172529475D01*
X181810819Y-172529475D02*
X181096533Y-172338999D01*
X181096533Y-172338999D02*
X181810819Y-172148523D01*
X181810819Y-172148523D02*
X180810819Y-171910428D01*
X180810819Y-171624713D02*
X180810819Y-170958047D01*
X180810819Y-170958047D02*
X181810819Y-171386618D01*
X99197500Y-197305000D02*
X99197500Y-212905000D01*
X99197500Y-212905000D02*
X114797500Y-212905000D01*
X114797500Y-197305000D02*
X99197500Y-197305000D01*
X114797500Y-212905000D02*
X114797500Y-197305000D01*
X256360000Y-121105000D02*
X256360000Y-136705000D01*
X256360000Y-136705000D02*
X271960000Y-136705000D01*
X271960000Y-121105000D02*
X256360000Y-121105000D01*
X271960000Y-136705000D02*
X271960000Y-121105000D01*
D11*
X220658000Y-59097000D02*
X230699000Y-59097000D01*
X220658000Y-63033000D02*
X220658000Y-59097000D01*
X220658000Y-71337000D02*
X220658000Y-67400000D01*
X220658000Y-71337000D02*
X221979000Y-71337000D01*
X224429000Y-71337000D02*
X224809000Y-71337000D01*
X226550000Y-71337000D02*
X227309000Y-71337000D01*
X229049000Y-71337000D02*
X230699000Y-71337000D01*
X230699000Y-63033000D02*
X230699000Y-59097000D01*
X230699000Y-71337000D02*
X230699000Y-67400000D01*
D10*
X99197500Y-159205000D02*
X99197500Y-174805000D01*
X99197500Y-174805000D02*
X114797500Y-174805000D01*
X114797500Y-159205000D02*
X99197500Y-159205000D01*
X114797500Y-174805000D02*
X114797500Y-159205000D01*
X218260000Y-121105000D02*
X218260000Y-136705000D01*
X218260000Y-136705000D02*
X233860000Y-136705000D01*
X233860000Y-121105000D02*
X218260000Y-121105000D01*
X233860000Y-136705000D02*
X233860000Y-121105000D01*
X137297500Y-83005000D02*
X137297500Y-98605000D01*
X137297500Y-98605000D02*
X152897500Y-98605000D01*
X152897500Y-83005000D02*
X137297500Y-83005000D01*
X152897500Y-98605000D02*
X152897500Y-83005000D01*
X80147500Y-83005000D02*
X80147500Y-98605000D01*
X80147500Y-98605000D02*
X95747500Y-98605000D01*
X95747500Y-83005000D02*
X80147500Y-83005000D01*
X95747500Y-98605000D02*
X95747500Y-83005000D01*
X180160000Y-197305000D02*
X180160000Y-212905000D01*
X180160000Y-212905000D02*
X195760000Y-212905000D01*
X195760000Y-197305000D02*
X180160000Y-197305000D01*
X195760000Y-212905000D02*
X195760000Y-197305000D01*
D11*
X113860000Y-76009000D02*
X113860000Y-73409000D01*
X116520000Y-73409000D02*
X113860000Y-73409000D01*
X116520000Y-76009000D02*
X113860000Y-76009000D01*
X116520000Y-76009000D02*
X116520000Y-73409000D01*
X116520000Y-77279000D02*
X116520000Y-78609000D01*
X116520000Y-78609000D02*
X115190000Y-78609000D01*
D10*
X137297500Y-121105000D02*
X137297500Y-136705000D01*
X137297500Y-136705000D02*
X152897500Y-136705000D01*
X152897500Y-121105000D02*
X137297500Y-121105000D01*
X152897500Y-136705000D02*
X152897500Y-121105000D01*
X256360000Y-83005000D02*
X256360000Y-98605000D01*
X256360000Y-98605000D02*
X271960000Y-98605000D01*
X271960000Y-83005000D02*
X256360000Y-83005000D01*
X271960000Y-98605000D02*
X271960000Y-83005000D01*
X199210000Y-197305000D02*
X199210000Y-212905000D01*
X199210000Y-212905000D02*
X214810000Y-212905000D01*
X214810000Y-197305000D02*
X199210000Y-197305000D01*
X214810000Y-212905000D02*
X214810000Y-197305000D01*
X218260000Y-83005000D02*
X218260000Y-98605000D01*
X218260000Y-98605000D02*
X233860000Y-98605000D01*
X233860000Y-83005000D02*
X218260000Y-83005000D01*
X233860000Y-98605000D02*
X233860000Y-83005000D01*
X80147500Y-159205000D02*
X80147500Y-174805000D01*
X80147500Y-174805000D02*
X95747500Y-174805000D01*
X95747500Y-159205000D02*
X80147500Y-159205000D01*
X95747500Y-174805000D02*
X95747500Y-159205000D01*
X180160000Y-83005000D02*
X180160000Y-98605000D01*
X180160000Y-98605000D02*
X195760000Y-98605000D01*
X195760000Y-83005000D02*
X180160000Y-83005000D01*
X195760000Y-98605000D02*
X195760000Y-83005000D01*
X256360000Y-159205000D02*
X256360000Y-174805000D01*
X256360000Y-174805000D02*
X271960000Y-174805000D01*
X271960000Y-159205000D02*
X256360000Y-159205000D01*
X271960000Y-174805000D02*
X271960000Y-159205000D01*
X237310000Y-121105000D02*
X237310000Y-136705000D01*
X237310000Y-136705000D02*
X252910000Y-136705000D01*
X252910000Y-121105000D02*
X237310000Y-121105000D01*
X252910000Y-136705000D02*
X252910000Y-121105000D01*
X99197500Y-121105000D02*
X99197500Y-136705000D01*
X99197500Y-136705000D02*
X114797500Y-136705000D01*
X114797500Y-121105000D02*
X99197500Y-121105000D01*
X114797500Y-136705000D02*
X114797500Y-121105000D01*
X118247500Y-159205000D02*
X118247500Y-174805000D01*
X118247500Y-174805000D02*
X133847500Y-174805000D01*
X133847500Y-159205000D02*
X118247500Y-159205000D01*
X133847500Y-174805000D02*
X133847500Y-159205000D01*
X61097500Y-121105000D02*
X61097500Y-136705000D01*
X61097500Y-136705000D02*
X76697500Y-136705000D01*
X76697500Y-121105000D02*
X61097500Y-121105000D01*
X76697500Y-136705000D02*
X76697500Y-121105000D01*
D11*
X97746000Y-76353000D02*
X97746000Y-79013000D01*
X102886000Y-76353000D02*
X97746000Y-76353000D01*
X102886000Y-76353000D02*
X102886000Y-79013000D01*
X102886000Y-79013000D02*
X97746000Y-79013000D01*
X104156000Y-76353000D02*
X105486000Y-76353000D01*
X105486000Y-76353000D02*
X105486000Y-77683000D01*
D10*
X118247500Y-197305000D02*
X118247500Y-212905000D01*
X118247500Y-212905000D02*
X133847500Y-212905000D01*
X133847500Y-197305000D02*
X118247500Y-197305000D01*
X133847500Y-212905000D02*
X133847500Y-197305000D01*
X237310000Y-159205000D02*
X237310000Y-174805000D01*
X237310000Y-174805000D02*
X252910000Y-174805000D01*
X252910000Y-159205000D02*
X237310000Y-159205000D01*
X252910000Y-174805000D02*
X252910000Y-159205000D01*
X80147500Y-197305000D02*
X80147500Y-212905000D01*
X80147500Y-212905000D02*
X95747500Y-212905000D01*
X95747500Y-197305000D02*
X80147500Y-197305000D01*
X95747500Y-212905000D02*
X95747500Y-197305000D01*
X118247500Y-83005000D02*
X118247500Y-98605000D01*
X118247500Y-98605000D02*
X133847500Y-98605000D01*
X133847500Y-83005000D02*
X118247500Y-83005000D01*
X133847500Y-98605000D02*
X133847500Y-83005000D01*
X256360000Y-197305000D02*
X256360000Y-212905000D01*
X256360000Y-212905000D02*
X271960000Y-212905000D01*
X271960000Y-197305000D02*
X256360000Y-197305000D01*
X271960000Y-212905000D02*
X271960000Y-197305000D01*
X118247500Y-121105000D02*
X118247500Y-136705000D01*
X118247500Y-136705000D02*
X133847500Y-136705000D01*
X133847500Y-121105000D02*
X118247500Y-121105000D01*
X133847500Y-136705000D02*
X133847500Y-121105000D01*
X237310000Y-83005000D02*
X237310000Y-98605000D01*
X237310000Y-98605000D02*
X252910000Y-98605000D01*
X252910000Y-83005000D02*
X237310000Y-83005000D01*
X252910000Y-98605000D02*
X252910000Y-83005000D01*
X199210000Y-83005000D02*
X199210000Y-98605000D01*
X199210000Y-98605000D02*
X214810000Y-98605000D01*
X214810000Y-83005000D02*
X199210000Y-83005000D01*
X214810000Y-98605000D02*
X214810000Y-83005000D01*
X80147500Y-121105000D02*
X80147500Y-136705000D01*
X80147500Y-136705000D02*
X95747500Y-136705000D01*
X95747500Y-121105000D02*
X80147500Y-121105000D01*
X95747500Y-136705000D02*
X95747500Y-121105000D01*
X61097500Y-197305000D02*
X61097500Y-212905000D01*
X61097500Y-212905000D02*
X76697500Y-212905000D01*
X76697500Y-197305000D02*
X61097500Y-197305000D01*
X76697500Y-212905000D02*
X76697500Y-197305000D01*
X199210000Y-159205000D02*
X199210000Y-174805000D01*
X199210000Y-174805000D02*
X214810000Y-174805000D01*
X214810000Y-159205000D02*
X199210000Y-159205000D01*
X214810000Y-174805000D02*
X214810000Y-159205000D01*
X61097500Y-83005000D02*
X61097500Y-98605000D01*
X61097500Y-98605000D02*
X76697500Y-98605000D01*
X76697500Y-83005000D02*
X61097500Y-83005000D01*
X76697500Y-98605000D02*
X76697500Y-83005000D01*
X180160000Y-121105000D02*
X180160000Y-136705000D01*
X180160000Y-136705000D02*
X195760000Y-136705000D01*
X195760000Y-121105000D02*
X180160000Y-121105000D01*
X195760000Y-136705000D02*
X195760000Y-121105000D01*
D11*
X259393000Y-59097000D02*
X269434000Y-59097000D01*
X259393000Y-63033000D02*
X259393000Y-59097000D01*
X259393000Y-71337000D02*
X259393000Y-67400000D01*
X259393000Y-71337000D02*
X260714000Y-71337000D01*
X263164000Y-71337000D02*
X263544000Y-71337000D01*
X265285000Y-71337000D02*
X266044000Y-71337000D01*
X267784000Y-71337000D02*
X269434000Y-71337000D01*
X269434000Y-63033000D02*
X269434000Y-59097000D01*
X269434000Y-71337000D02*
X269434000Y-67400000D01*
D10*
X237310000Y-197305000D02*
X237310000Y-212905000D01*
X237310000Y-212905000D02*
X252910000Y-212905000D01*
X252910000Y-197305000D02*
X237310000Y-197305000D01*
X252910000Y-212905000D02*
X252910000Y-197305000D01*
X137297500Y-159205000D02*
X137297500Y-174805000D01*
X137297500Y-174805000D02*
X152897500Y-174805000D01*
X152897500Y-159205000D02*
X137297500Y-159205000D01*
X152897500Y-174805000D02*
X152897500Y-159205000D01*
X199210000Y-121105000D02*
X199210000Y-136705000D01*
X199210000Y-136705000D02*
X214810000Y-136705000D01*
X214810000Y-121105000D02*
X199210000Y-121105000D01*
X214810000Y-136705000D02*
X214810000Y-121105000D01*
X137297500Y-197305000D02*
X137297500Y-212905000D01*
X137297500Y-212905000D02*
X152897500Y-212905000D01*
X152897500Y-197305000D02*
X137297500Y-197305000D01*
X152897500Y-212905000D02*
X152897500Y-197305000D01*
X99197500Y-83005000D02*
X99197500Y-98605000D01*
X99197500Y-98605000D02*
X114797500Y-98605000D01*
X114797500Y-83005000D02*
X99197500Y-83005000D01*
X114797500Y-98605000D02*
X114797500Y-83005000D01*
X61097500Y-159205000D02*
X61097500Y-174805000D01*
X61097500Y-174805000D02*
X76697500Y-174805000D01*
X76697500Y-159205000D02*
X61097500Y-159205000D01*
X76697500Y-174805000D02*
X76697500Y-159205000D01*
X218260000Y-159205000D02*
X218260000Y-174805000D01*
X218260000Y-174805000D02*
X233860000Y-174805000D01*
X233860000Y-159205000D02*
X218260000Y-159205000D01*
X233860000Y-174805000D02*
X233860000Y-159205000D01*
X218260000Y-197305000D02*
X218260000Y-212905000D01*
X218260000Y-212905000D02*
X233860000Y-212905000D01*
X233860000Y-197305000D02*
X218260000Y-197305000D01*
X233860000Y-212905000D02*
X233860000Y-197305000D01*
X180160000Y-159205000D02*
X180160000Y-174805000D01*
X180160000Y-174805000D02*
X195760000Y-174805000D01*
X195760000Y-159205000D02*
X180160000Y-159205000D01*
X195760000Y-174805000D02*
X195760000Y-159205000D01*
%LPC*%
D12*
X101917500Y-205105000D03*
D13*
X104497500Y-207485000D03*
X104497500Y-212775000D03*
D14*
X106997500Y-205105000D03*
D13*
X109497500Y-207485000D03*
X109497500Y-212775000D03*
D12*
X112077500Y-205105000D03*
D15*
X103187500Y-202565000D03*
X109537500Y-200025000D03*
D12*
X259080000Y-128905000D03*
D13*
X261660000Y-131285000D03*
X261660000Y-136575000D03*
D14*
X264160000Y-128905000D03*
D13*
X266660000Y-131285000D03*
X266660000Y-136575000D03*
D12*
X269240000Y-128905000D03*
D15*
X260350000Y-126365000D03*
X266700000Y-123825000D03*
D16*
X223179000Y-72217000D03*
D17*
X225679000Y-72217000D03*
X228179000Y-72217000D03*
D18*
X221279000Y-65217000D03*
X230079000Y-65217000D03*
D12*
X101917500Y-167005000D03*
D13*
X104497500Y-169385000D03*
X104497500Y-174675000D03*
D14*
X106997500Y-167005000D03*
D13*
X109497500Y-169385000D03*
X109497500Y-174675000D03*
D12*
X112077500Y-167005000D03*
D15*
X103187500Y-164465000D03*
X109537500Y-161925000D03*
D12*
X220980000Y-128905000D03*
D13*
X223560000Y-131285000D03*
X223560000Y-136575000D03*
D14*
X226060000Y-128905000D03*
D13*
X228560000Y-131285000D03*
X228560000Y-136575000D03*
D12*
X231140000Y-128905000D03*
D15*
X222250000Y-126365000D03*
X228600000Y-123825000D03*
D12*
X140017500Y-90805000D03*
D13*
X142597500Y-93185000D03*
X142597500Y-98475000D03*
D14*
X145097500Y-90805000D03*
D13*
X147597500Y-93185000D03*
X147597500Y-98475000D03*
D12*
X150177500Y-90805000D03*
D15*
X141287500Y-88265000D03*
X147637500Y-85725000D03*
D12*
X82867500Y-90805000D03*
D13*
X85447500Y-93185000D03*
X85447500Y-98475000D03*
D14*
X87947500Y-90805000D03*
D13*
X90447500Y-93185000D03*
X90447500Y-98475000D03*
D12*
X93027500Y-90805000D03*
D15*
X84137500Y-88265000D03*
X90487500Y-85725000D03*
D12*
X182880000Y-205105000D03*
D13*
X185460000Y-207485000D03*
X185460000Y-212775000D03*
D14*
X187960000Y-205105000D03*
D13*
X190460000Y-207485000D03*
X190460000Y-212775000D03*
D12*
X193040000Y-205105000D03*
D15*
X184150000Y-202565000D03*
X190500000Y-200025000D03*
D19*
X115190000Y-77279000D03*
D20*
X115190000Y-74739000D03*
D12*
X140017500Y-128905000D03*
D13*
X142597500Y-131285000D03*
X142597500Y-136575000D03*
D14*
X145097500Y-128905000D03*
D13*
X147597500Y-131285000D03*
X147597500Y-136575000D03*
D12*
X150177500Y-128905000D03*
D15*
X141287500Y-126365000D03*
X147637500Y-123825000D03*
D12*
X259080000Y-90805000D03*
D13*
X261660000Y-93185000D03*
X261660000Y-98475000D03*
D14*
X264160000Y-90805000D03*
D13*
X266660000Y-93185000D03*
X266660000Y-98475000D03*
D12*
X269240000Y-90805000D03*
D15*
X260350000Y-88265000D03*
X266700000Y-85725000D03*
D12*
X201930000Y-205105000D03*
D13*
X204510000Y-207485000D03*
X204510000Y-212775000D03*
D14*
X207010000Y-205105000D03*
D13*
X209510000Y-207485000D03*
X209510000Y-212775000D03*
D12*
X212090000Y-205105000D03*
D15*
X203200000Y-202565000D03*
X209550000Y-200025000D03*
D12*
X220980000Y-90805000D03*
D13*
X223560000Y-93185000D03*
X223560000Y-98475000D03*
D14*
X226060000Y-90805000D03*
D13*
X228560000Y-93185000D03*
X228560000Y-98475000D03*
D12*
X231140000Y-90805000D03*
D15*
X222250000Y-88265000D03*
X228600000Y-85725000D03*
D12*
X82867500Y-167005000D03*
D13*
X85447500Y-169385000D03*
X85447500Y-174675000D03*
D14*
X87947500Y-167005000D03*
D13*
X90447500Y-169385000D03*
X90447500Y-174675000D03*
D12*
X93027500Y-167005000D03*
D15*
X84137500Y-164465000D03*
X90487500Y-161925000D03*
D12*
X182880000Y-90805000D03*
D13*
X185460000Y-93185000D03*
X185460000Y-98475000D03*
D14*
X187960000Y-90805000D03*
D13*
X190460000Y-93185000D03*
X190460000Y-98475000D03*
D12*
X193040000Y-90805000D03*
D15*
X184150000Y-88265000D03*
X190500000Y-85725000D03*
D12*
X259080000Y-167005000D03*
D13*
X261660000Y-169385000D03*
X261660000Y-174675000D03*
D14*
X264160000Y-167005000D03*
D13*
X266660000Y-169385000D03*
X266660000Y-174675000D03*
D12*
X269240000Y-167005000D03*
D15*
X260350000Y-164465000D03*
X266700000Y-161925000D03*
D12*
X240030000Y-128905000D03*
D13*
X242610000Y-131285000D03*
X242610000Y-136575000D03*
D14*
X245110000Y-128905000D03*
D13*
X247610000Y-131285000D03*
X247610000Y-136575000D03*
D12*
X250190000Y-128905000D03*
D15*
X241300000Y-126365000D03*
X247650000Y-123825000D03*
D12*
X101917500Y-128905000D03*
D13*
X104497500Y-131285000D03*
X104497500Y-136575000D03*
D14*
X106997500Y-128905000D03*
D13*
X109497500Y-131285000D03*
X109497500Y-136575000D03*
D12*
X112077500Y-128905000D03*
D15*
X103187500Y-126365000D03*
X109537500Y-123825000D03*
D12*
X120967500Y-167005000D03*
D13*
X123547500Y-169385000D03*
X123547500Y-174675000D03*
D14*
X126047500Y-167005000D03*
D13*
X128547500Y-169385000D03*
X128547500Y-174675000D03*
D12*
X131127500Y-167005000D03*
D15*
X122237500Y-164465000D03*
X128587500Y-161925000D03*
D12*
X63817500Y-128905000D03*
D13*
X66397500Y-131285000D03*
X66397500Y-136575000D03*
D14*
X68897500Y-128905000D03*
D13*
X71397500Y-131285000D03*
X71397500Y-136575000D03*
D12*
X73977500Y-128905000D03*
D15*
X65087500Y-126365000D03*
X71437500Y-123825000D03*
D19*
X104156000Y-77683000D03*
D20*
X101616000Y-77683000D03*
X99076000Y-77683000D03*
D12*
X120967500Y-205105000D03*
D13*
X123547500Y-207485000D03*
X123547500Y-212775000D03*
D14*
X126047500Y-205105000D03*
D13*
X128547500Y-207485000D03*
X128547500Y-212775000D03*
D12*
X131127500Y-205105000D03*
D15*
X122237500Y-202565000D03*
X128587500Y-200025000D03*
D12*
X240030000Y-167005000D03*
D13*
X242610000Y-169385000D03*
X242610000Y-174675000D03*
D14*
X245110000Y-167005000D03*
D13*
X247610000Y-169385000D03*
X247610000Y-174675000D03*
D12*
X250190000Y-167005000D03*
D15*
X241300000Y-164465000D03*
X247650000Y-161925000D03*
D12*
X82867500Y-205105000D03*
D13*
X85447500Y-207485000D03*
X85447500Y-212775000D03*
D14*
X87947500Y-205105000D03*
D13*
X90447500Y-207485000D03*
X90447500Y-212775000D03*
D12*
X93027500Y-205105000D03*
D15*
X84137500Y-202565000D03*
X90487500Y-200025000D03*
D12*
X120967500Y-90805000D03*
D13*
X123547500Y-93185000D03*
X123547500Y-98475000D03*
D14*
X126047500Y-90805000D03*
D13*
X128547500Y-93185000D03*
X128547500Y-98475000D03*
D12*
X131127500Y-90805000D03*
D15*
X122237500Y-88265000D03*
X128587500Y-85725000D03*
D12*
X259080000Y-205105000D03*
D13*
X261660000Y-207485000D03*
X261660000Y-212775000D03*
D14*
X264160000Y-205105000D03*
D13*
X266660000Y-207485000D03*
X266660000Y-212775000D03*
D12*
X269240000Y-205105000D03*
D15*
X260350000Y-202565000D03*
X266700000Y-200025000D03*
D12*
X120967500Y-128905000D03*
D13*
X123547500Y-131285000D03*
X123547500Y-136575000D03*
D14*
X126047500Y-128905000D03*
D13*
X128547500Y-131285000D03*
X128547500Y-136575000D03*
D12*
X131127500Y-128905000D03*
D15*
X122237500Y-126365000D03*
X128587500Y-123825000D03*
D12*
X240030000Y-90805000D03*
D13*
X242610000Y-93185000D03*
X242610000Y-98475000D03*
D14*
X245110000Y-90805000D03*
D13*
X247610000Y-93185000D03*
X247610000Y-98475000D03*
D12*
X250190000Y-90805000D03*
D15*
X241300000Y-88265000D03*
X247650000Y-85725000D03*
D12*
X201930000Y-90805000D03*
D13*
X204510000Y-93185000D03*
X204510000Y-98475000D03*
D14*
X207010000Y-90805000D03*
D13*
X209510000Y-93185000D03*
X209510000Y-98475000D03*
D12*
X212090000Y-90805000D03*
D15*
X203200000Y-88265000D03*
X209550000Y-85725000D03*
D12*
X82867500Y-128905000D03*
D13*
X85447500Y-131285000D03*
X85447500Y-136575000D03*
D14*
X87947500Y-128905000D03*
D13*
X90447500Y-131285000D03*
X90447500Y-136575000D03*
D12*
X93027500Y-128905000D03*
D15*
X84137500Y-126365000D03*
X90487500Y-123825000D03*
D12*
X63817500Y-205105000D03*
D13*
X66397500Y-207485000D03*
X66397500Y-212775000D03*
D14*
X68897500Y-205105000D03*
D13*
X71397500Y-207485000D03*
X71397500Y-212775000D03*
D12*
X73977500Y-205105000D03*
D15*
X65087500Y-202565000D03*
X71437500Y-200025000D03*
D12*
X201930000Y-167005000D03*
D13*
X204510000Y-169385000D03*
X204510000Y-174675000D03*
D14*
X207010000Y-167005000D03*
D13*
X209510000Y-169385000D03*
X209510000Y-174675000D03*
D12*
X212090000Y-167005000D03*
D15*
X203200000Y-164465000D03*
X209550000Y-161925000D03*
D12*
X63817500Y-90805000D03*
D13*
X66397500Y-93185000D03*
X66397500Y-98475000D03*
D14*
X68897500Y-90805000D03*
D13*
X71397500Y-93185000D03*
X71397500Y-98475000D03*
D12*
X73977500Y-90805000D03*
D15*
X65087500Y-88265000D03*
X71437500Y-85725000D03*
D12*
X182880000Y-128905000D03*
D13*
X185460000Y-131285000D03*
X185460000Y-136575000D03*
D14*
X187960000Y-128905000D03*
D13*
X190460000Y-131285000D03*
X190460000Y-136575000D03*
D12*
X193040000Y-128905000D03*
D15*
X184150000Y-126365000D03*
X190500000Y-123825000D03*
D16*
X261914000Y-72217000D03*
D17*
X264414000Y-72217000D03*
X266914000Y-72217000D03*
D18*
X260014000Y-65217000D03*
X268814000Y-65217000D03*
D12*
X240030000Y-205105000D03*
D13*
X242610000Y-207485000D03*
X242610000Y-212775000D03*
D14*
X245110000Y-205105000D03*
D13*
X247610000Y-207485000D03*
X247610000Y-212775000D03*
D12*
X250190000Y-205105000D03*
D15*
X241300000Y-202565000D03*
X247650000Y-200025000D03*
D12*
X140017500Y-167005000D03*
D13*
X142597500Y-169385000D03*
X142597500Y-174675000D03*
D14*
X145097500Y-167005000D03*
D13*
X147597500Y-169385000D03*
X147597500Y-174675000D03*
D12*
X150177500Y-167005000D03*
D15*
X141287500Y-164465000D03*
X147637500Y-161925000D03*
D12*
X201930000Y-128905000D03*
D13*
X204510000Y-131285000D03*
X204510000Y-136575000D03*
D14*
X207010000Y-128905000D03*
D13*
X209510000Y-131285000D03*
X209510000Y-136575000D03*
D12*
X212090000Y-128905000D03*
D15*
X203200000Y-126365000D03*
X209550000Y-123825000D03*
D12*
X140017500Y-205105000D03*
D13*
X142597500Y-207485000D03*
X142597500Y-212775000D03*
D14*
X145097500Y-205105000D03*
D13*
X147597500Y-207485000D03*
X147597500Y-212775000D03*
D12*
X150177500Y-205105000D03*
D15*
X141287500Y-202565000D03*
X147637500Y-200025000D03*
D12*
X101917500Y-90805000D03*
D13*
X104497500Y-93185000D03*
X104497500Y-98475000D03*
D14*
X106997500Y-90805000D03*
D13*
X109497500Y-93185000D03*
X109497500Y-98475000D03*
D12*
X112077500Y-90805000D03*
D15*
X103187500Y-88265000D03*
X109537500Y-85725000D03*
D12*
X63817500Y-167005000D03*
D13*
X66397500Y-169385000D03*
X66397500Y-174675000D03*
D14*
X68897500Y-167005000D03*
D13*
X71397500Y-169385000D03*
X71397500Y-174675000D03*
D12*
X73977500Y-167005000D03*
D15*
X65087500Y-164465000D03*
X71437500Y-161925000D03*
D12*
X220980000Y-167005000D03*
D13*
X223560000Y-169385000D03*
X223560000Y-174675000D03*
D14*
X226060000Y-167005000D03*
D13*
X228560000Y-169385000D03*
X228560000Y-174675000D03*
D12*
X231140000Y-167005000D03*
D15*
X222250000Y-164465000D03*
X228600000Y-161925000D03*
D12*
X220980000Y-205105000D03*
D13*
X223560000Y-207485000D03*
X223560000Y-212775000D03*
D14*
X226060000Y-205105000D03*
D13*
X228560000Y-207485000D03*
X228560000Y-212775000D03*
D12*
X231140000Y-205105000D03*
D15*
X222250000Y-202565000D03*
X228600000Y-200025000D03*
D12*
X182880000Y-167005000D03*
D13*
X185460000Y-169385000D03*
X185460000Y-174675000D03*
D14*
X187960000Y-167005000D03*
D13*
X190460000Y-169385000D03*
X190460000Y-174675000D03*
D12*
X193040000Y-167005000D03*
D15*
X184150000Y-164465000D03*
X190500000Y-161925000D03*
D21*
X152369000Y-63527500D03*
X145359000Y-63527500D03*
D22*
X151119000Y-61037500D03*
X146619000Y-61037500D03*
D23*
X71120000Y-63500000D03*
X78740000Y-58420000D03*
D24*
X78740000Y-67310000D03*
X71120000Y-67945000D03*
D25*
X74930000Y-71760000D03*
D26*
X90504000Y-58545000D03*
D27*
X93004000Y-58545000D03*
X95504000Y-58545000D03*
X95504000Y-55245000D03*
X93004000Y-55245000D03*
X90504000Y-55245000D03*
D28*
X174490000Y-59182000D03*
X174490000Y-61722000D03*
X174490000Y-64262000D03*
X174490000Y-66802000D03*
X174490000Y-69342000D03*
X174490000Y-71882000D03*
X174490000Y-74422000D03*
X174490000Y-76962000D03*
X174490000Y-79502000D03*
X174490000Y-82042000D03*
X174490000Y-84582000D03*
X174490000Y-87122000D03*
X158250000Y-59182000D03*
X158250000Y-61722000D03*
X158250000Y-64262000D03*
X158250000Y-66802000D03*
X158250000Y-69342000D03*
X158250000Y-71882000D03*
X158250000Y-74422000D03*
X158250000Y-76962000D03*
X158250000Y-79502000D03*
X158250000Y-82042000D03*
X158250000Y-84582000D03*
X158250000Y-87122000D03*
D29*
X119390000Y-77079000D03*
D30*
X119390000Y-74539000D03*
X119390000Y-71999000D03*
X119390000Y-69459000D03*
X127010000Y-69459000D03*
X127010000Y-71999000D03*
X127010000Y-74539000D03*
X127010000Y-77079000D03*
D31*
X130937000Y-78795000D03*
D32*
X143637000Y-78795000D03*
D31*
X108966000Y-71683000D03*
D32*
X96266000Y-71683000D03*
D31*
X108966000Y-67183000D03*
D32*
X96266000Y-67183000D03*
D31*
X143637000Y-69795000D03*
D32*
X130937000Y-69795000D03*
D31*
X130937000Y-74295000D03*
D32*
X143637000Y-74295000D03*
%LPD*%
M02*
