%TF.GenerationSoftware,KiCad,Pcbnew,8.0.6*%
%TF.CreationDate,2024-11-09T01:21:05+01:00*%
%TF.ProjectId,DMX_MIDI_FIGHTER,444d585f-4d49-4444-995f-464947485445,rev?*%
%TF.SameCoordinates,Original*%
%TF.FileFunction,Drillmap*%
%TF.FilePolarity,Positive*%
%FSLAX45Y45*%
G04 Gerber Fmt 4.5, Leading zero omitted, Abs format (unit mm)*
G04 Created by KiCad (PCBNEW 8.0.6) date 2024-11-09 01:21:05*
%MOMM*%
%LPD*%
G01*
G04 APERTURE LIST*
%ADD10C,0.050000*%
%ADD11C,0.120000*%
%ADD12C,0.200000*%
%ADD13C,0.100000*%
%ADD14C,0.149860*%
%ADD15C,0.160000*%
%ADD16C,0.398780*%
G04 APERTURE END LIST*
D10*
X16850000Y-14800000D02*
G75*
G02*
X16450000Y-14800000I-200000J0D01*
G01*
X16450000Y-14800000D02*
G75*
G02*
X16850000Y-14800000I200000J0D01*
G01*
X4900000Y-5400000D02*
X28400000Y-5400000D01*
X28400000Y-22500000D01*
X4900000Y-22500000D01*
X4900000Y-5400000D01*
X13750000Y-6100000D02*
G75*
G02*
X13350000Y-6100000I-200000J0D01*
G01*
X13350000Y-6100000D02*
G75*
G02*
X13750000Y-6100000I200000J0D01*
G01*
X16850000Y-11000000D02*
G75*
G02*
X16450000Y-11000000I-200000J0D01*
G01*
X16450000Y-11000000D02*
G75*
G02*
X16850000Y-11000000I200000J0D01*
G01*
X27900000Y-14800000D02*
G75*
G02*
X27500000Y-14800000I-200000J0D01*
G01*
X27500000Y-14800000D02*
G75*
G02*
X27900000Y-14800000I200000J0D01*
G01*
X27900000Y-11000000D02*
G75*
G02*
X27500000Y-11000000I-200000J0D01*
G01*
X27500000Y-11000000D02*
G75*
G02*
X27900000Y-11000000I200000J0D01*
G01*
X5800000Y-6100000D02*
G75*
G02*
X5400000Y-6100000I-200000J0D01*
G01*
X5400000Y-6100000D02*
G75*
G02*
X5800000Y-6100000I200000J0D01*
G01*
X5800000Y-18600000D02*
G75*
G02*
X5400000Y-18600000I-200000J0D01*
G01*
X5400000Y-18600000D02*
G75*
G02*
X5800000Y-18600000I200000J0D01*
G01*
X5800000Y-21800000D02*
G75*
G02*
X5400000Y-21800000I-200000J0D01*
G01*
X5400000Y-21800000D02*
G75*
G02*
X5800000Y-21800000I200000J0D01*
G01*
X16850000Y-18600000D02*
G75*
G02*
X16450000Y-18600000I-200000J0D01*
G01*
X16450000Y-18600000D02*
G75*
G02*
X16850000Y-18600000I200000J0D01*
G01*
X27900000Y-21800000D02*
G75*
G02*
X27500000Y-21800000I-200000J0D01*
G01*
X27500000Y-21800000D02*
G75*
G02*
X27900000Y-21800000I200000J0D01*
G01*
X5800000Y-11000000D02*
G75*
G02*
X5400000Y-11000000I-200000J0D01*
G01*
X5400000Y-11000000D02*
G75*
G02*
X5800000Y-11000000I200000J0D01*
G01*
X27900000Y-6100000D02*
G75*
G02*
X27500000Y-6100000I-200000J0D01*
G01*
X27500000Y-6100000D02*
G75*
G02*
X27900000Y-6100000I200000J0D01*
G01*
X19900000Y-6100000D02*
G75*
G02*
X19500000Y-6100000I-200000J0D01*
G01*
X19500000Y-6100000D02*
G75*
G02*
X19900000Y-6100000I200000J0D01*
G01*
X5800000Y-14800000D02*
G75*
G02*
X5400000Y-14800000I-200000J0D01*
G01*
X5400000Y-14800000D02*
G75*
G02*
X5800000Y-14800000I200000J0D01*
G01*
X27900000Y-18600000D02*
G75*
G02*
X27500000Y-18600000I-200000J0D01*
G01*
X27500000Y-18600000D02*
G75*
G02*
X27900000Y-18600000I200000J0D01*
G01*
D11*
X10449750Y-20748500D02*
X10449750Y-21277500D01*
X10449750Y-21277500D02*
X10949750Y-21277500D01*
X10949750Y-20748500D02*
X10449750Y-20748500D01*
X10949750Y-21277500D02*
X10949750Y-20748500D01*
X26166000Y-13128500D02*
X26166000Y-13657500D01*
X26166000Y-13657500D02*
X26666000Y-13657500D01*
X26666000Y-13128500D02*
X26166000Y-13128500D01*
X26666000Y-13657500D02*
X26666000Y-13128500D01*
X10449750Y-16938500D02*
X10449750Y-17467500D01*
X10449750Y-17467500D02*
X10949750Y-17467500D01*
X10949750Y-16938500D02*
X10449750Y-16938500D01*
X10949750Y-17467500D02*
X10949750Y-16938500D01*
X22356000Y-13128500D02*
X22356000Y-13657500D01*
X22356000Y-13657500D02*
X22856000Y-13657500D01*
X22856000Y-13128500D02*
X22356000Y-13128500D01*
X22856000Y-13657500D02*
X22856000Y-13128500D01*
X14259750Y-9318500D02*
X14259750Y-9847500D01*
X14259750Y-9847500D02*
X14759750Y-9847500D01*
X14759750Y-9318500D02*
X14259750Y-9318500D01*
X14759750Y-9847500D02*
X14759750Y-9318500D01*
X8544750Y-9318500D02*
X8544750Y-9847500D01*
X8544750Y-9847500D02*
X9044750Y-9847500D01*
X9044750Y-9318500D02*
X8544750Y-9318500D01*
X9044750Y-9847500D02*
X9044750Y-9318500D01*
X18546000Y-20748500D02*
X18546000Y-21277500D01*
X18546000Y-21277500D02*
X19046000Y-21277500D01*
X19046000Y-20748500D02*
X18546000Y-20748500D01*
X19046000Y-21277500D02*
X19046000Y-20748500D01*
X14259750Y-13128500D02*
X14259750Y-13657500D01*
X14259750Y-13657500D02*
X14759750Y-13657500D01*
X14759750Y-13128500D02*
X14259750Y-13128500D01*
X14759750Y-13657500D02*
X14759750Y-13128500D01*
X26166000Y-9318500D02*
X26166000Y-9847500D01*
X26166000Y-9847500D02*
X26666000Y-9847500D01*
X26666000Y-9318500D02*
X26166000Y-9318500D01*
X26666000Y-9847500D02*
X26666000Y-9318500D01*
X20451000Y-20748500D02*
X20451000Y-21277500D01*
X20451000Y-21277500D02*
X20951000Y-21277500D01*
X20951000Y-20748500D02*
X20451000Y-20748500D01*
X20951000Y-21277500D02*
X20951000Y-20748500D01*
X22356000Y-9318500D02*
X22356000Y-9847500D01*
X22356000Y-9847500D02*
X22856000Y-9847500D01*
X22856000Y-9318500D02*
X22356000Y-9318500D01*
X22856000Y-9847500D02*
X22856000Y-9318500D01*
X8544750Y-16938500D02*
X8544750Y-17467500D01*
X8544750Y-17467500D02*
X9044750Y-17467500D01*
X9044750Y-16938500D02*
X8544750Y-16938500D01*
X9044750Y-17467500D02*
X9044750Y-16938500D01*
X18546000Y-9318500D02*
X18546000Y-9847500D01*
X18546000Y-9847500D02*
X19046000Y-9847500D01*
X19046000Y-9318500D02*
X18546000Y-9318500D01*
X19046000Y-9847500D02*
X19046000Y-9318500D01*
X26166000Y-16938500D02*
X26166000Y-17467500D01*
X26166000Y-17467500D02*
X26666000Y-17467500D01*
X26666000Y-16938500D02*
X26166000Y-16938500D01*
X26666000Y-17467500D02*
X26666000Y-16938500D01*
X24261000Y-13128500D02*
X24261000Y-13657500D01*
X24261000Y-13657500D02*
X24761000Y-13657500D01*
X24761000Y-13128500D02*
X24261000Y-13128500D01*
X24761000Y-13657500D02*
X24761000Y-13128500D01*
X10449750Y-13128500D02*
X10449750Y-13657500D01*
X10449750Y-13657500D02*
X10949750Y-13657500D01*
X10949750Y-13128500D02*
X10449750Y-13128500D01*
X10949750Y-13657500D02*
X10949750Y-13128500D01*
X12354750Y-16938500D02*
X12354750Y-17467500D01*
X12354750Y-17467500D02*
X12854750Y-17467500D01*
X12854750Y-16938500D02*
X12354750Y-16938500D01*
X12854750Y-17467500D02*
X12854750Y-16938500D01*
X6639750Y-13128500D02*
X6639750Y-13657500D01*
X6639750Y-13657500D02*
X7139750Y-13657500D01*
X7139750Y-13128500D02*
X6639750Y-13128500D01*
X7139750Y-13657500D02*
X7139750Y-13128500D01*
X12354750Y-20748500D02*
X12354750Y-21277500D01*
X12354750Y-21277500D02*
X12854750Y-21277500D01*
X12854750Y-20748500D02*
X12354750Y-20748500D01*
X12854750Y-21277500D02*
X12854750Y-20748500D01*
X24261000Y-16938500D02*
X24261000Y-17467500D01*
X24261000Y-17467500D02*
X24761000Y-17467500D01*
X24761000Y-16938500D02*
X24261000Y-16938500D01*
X24761000Y-17467500D02*
X24761000Y-16938500D01*
X8544750Y-20748500D02*
X8544750Y-21277500D01*
X8544750Y-21277500D02*
X9044750Y-21277500D01*
X9044750Y-20748500D02*
X8544750Y-20748500D01*
X9044750Y-21277500D02*
X9044750Y-20748500D01*
X12354750Y-9318500D02*
X12354750Y-9847500D01*
X12354750Y-9847500D02*
X12854750Y-9847500D01*
X12854750Y-9318500D02*
X12354750Y-9318500D01*
X12854750Y-9847500D02*
X12854750Y-9318500D01*
X26166000Y-20748500D02*
X26166000Y-21277500D01*
X26166000Y-21277500D02*
X26666000Y-21277500D01*
X26666000Y-20748500D02*
X26166000Y-20748500D01*
X26666000Y-21277500D02*
X26666000Y-20748500D01*
X12354750Y-13128500D02*
X12354750Y-13657500D01*
X12354750Y-13657500D02*
X12854750Y-13657500D01*
X12854750Y-13128500D02*
X12354750Y-13128500D01*
X12854750Y-13657500D02*
X12854750Y-13128500D01*
X24261000Y-9318500D02*
X24261000Y-9847500D01*
X24261000Y-9847500D02*
X24761000Y-9847500D01*
X24761000Y-9318500D02*
X24261000Y-9318500D01*
X24761000Y-9847500D02*
X24761000Y-9318500D01*
X20451000Y-9318500D02*
X20451000Y-9847500D01*
X20451000Y-9847500D02*
X20951000Y-9847500D01*
X20951000Y-9318500D02*
X20451000Y-9318500D01*
X20951000Y-9847500D02*
X20951000Y-9318500D01*
X8544750Y-13128500D02*
X8544750Y-13657500D01*
X8544750Y-13657500D02*
X9044750Y-13657500D01*
X9044750Y-13128500D02*
X8544750Y-13128500D01*
X9044750Y-13657500D02*
X9044750Y-13128500D01*
X6639750Y-20748500D02*
X6639750Y-21277500D01*
X6639750Y-21277500D02*
X7139750Y-21277500D01*
X7139750Y-20748500D02*
X6639750Y-20748500D01*
X7139750Y-21277500D02*
X7139750Y-20748500D01*
X20451000Y-16938500D02*
X20451000Y-17467500D01*
X20451000Y-17467500D02*
X20951000Y-17467500D01*
X20951000Y-16938500D02*
X20451000Y-16938500D01*
X20951000Y-17467500D02*
X20951000Y-16938500D01*
X6639750Y-9318500D02*
X6639750Y-9847500D01*
X6639750Y-9847500D02*
X7139750Y-9847500D01*
X7139750Y-9318500D02*
X6639750Y-9318500D01*
X7139750Y-9847500D02*
X7139750Y-9318500D01*
X18546000Y-13128500D02*
X18546000Y-13657500D01*
X18546000Y-13657500D02*
X19046000Y-13657500D01*
X19046000Y-13128500D02*
X18546000Y-13128500D01*
X19046000Y-13657500D02*
X19046000Y-13128500D01*
X24261000Y-20748500D02*
X24261000Y-21277500D01*
X24261000Y-21277500D02*
X24761000Y-21277500D01*
X24761000Y-20748500D02*
X24261000Y-20748500D01*
X24761000Y-21277500D02*
X24761000Y-20748500D01*
X14259750Y-16938500D02*
X14259750Y-17467500D01*
X14259750Y-17467500D02*
X14759750Y-17467500D01*
X14759750Y-16938500D02*
X14259750Y-16938500D01*
X14759750Y-17467500D02*
X14759750Y-16938500D01*
X20451000Y-13128500D02*
X20451000Y-13657500D01*
X20451000Y-13657500D02*
X20951000Y-13657500D01*
X20951000Y-13128500D02*
X20451000Y-13128500D01*
X20951000Y-13657500D02*
X20951000Y-13128500D01*
X14259750Y-20748500D02*
X14259750Y-21277500D01*
X14259750Y-21277500D02*
X14759750Y-21277500D01*
X14759750Y-20748500D02*
X14259750Y-20748500D01*
X14759750Y-21277500D02*
X14759750Y-20748500D01*
X10449750Y-9318500D02*
X10449750Y-9847500D01*
X10449750Y-9847500D02*
X10949750Y-9847500D01*
X10949750Y-9318500D02*
X10449750Y-9318500D01*
X10949750Y-9847500D02*
X10949750Y-9318500D01*
X6639750Y-16938500D02*
X6639750Y-17467500D01*
X6639750Y-17467500D02*
X7139750Y-17467500D01*
X7139750Y-16938500D02*
X6639750Y-16938500D01*
X7139750Y-17467500D02*
X7139750Y-16938500D01*
X22356000Y-16938500D02*
X22356000Y-17467500D01*
X22356000Y-17467500D02*
X22856000Y-17467500D01*
X22856000Y-16938500D02*
X22356000Y-16938500D01*
X22856000Y-17467500D02*
X22856000Y-16938500D01*
X22356000Y-20748500D02*
X22356000Y-21277500D01*
X22356000Y-21277500D02*
X22856000Y-21277500D01*
X22856000Y-20748500D02*
X22356000Y-20748500D01*
X22856000Y-21277500D02*
X22856000Y-20748500D01*
X18546000Y-16938500D02*
X18546000Y-17467500D01*
X18546000Y-17467500D02*
X19046000Y-17467500D01*
X19046000Y-16938500D02*
X18546000Y-16938500D01*
X19046000Y-17467500D02*
X19046000Y-16938500D01*
D12*
D13*
X6589750Y-9268500D02*
X6689750Y-9368500D01*
X6689750Y-9268500D02*
X6589750Y-9368500D01*
X6589750Y-9797500D02*
X6689750Y-9897500D01*
X6689750Y-9797500D02*
X6589750Y-9897500D01*
X6589750Y-13078500D02*
X6689750Y-13178500D01*
X6689750Y-13078500D02*
X6589750Y-13178500D01*
X6589750Y-13607500D02*
X6689750Y-13707500D01*
X6689750Y-13607500D02*
X6589750Y-13707500D01*
X6589750Y-16888500D02*
X6689750Y-16988500D01*
X6689750Y-16888500D02*
X6589750Y-16988500D01*
X6589750Y-17417500D02*
X6689750Y-17517500D01*
X6689750Y-17417500D02*
X6589750Y-17517500D01*
X6589750Y-20698500D02*
X6689750Y-20798500D01*
X6689750Y-20698500D02*
X6589750Y-20798500D01*
X6589750Y-21227500D02*
X6689750Y-21327500D01*
X6689750Y-21227500D02*
X6589750Y-21327500D01*
X7089750Y-9268500D02*
X7189750Y-9368500D01*
X7189750Y-9268500D02*
X7089750Y-9368500D01*
X7089750Y-9797500D02*
X7189750Y-9897500D01*
X7189750Y-9797500D02*
X7089750Y-9897500D01*
X7089750Y-13078500D02*
X7189750Y-13178500D01*
X7189750Y-13078500D02*
X7089750Y-13178500D01*
X7089750Y-13607500D02*
X7189750Y-13707500D01*
X7189750Y-13607500D02*
X7089750Y-13707500D01*
X7089750Y-16888500D02*
X7189750Y-16988500D01*
X7189750Y-16888500D02*
X7089750Y-16988500D01*
X7089750Y-17417500D02*
X7189750Y-17517500D01*
X7189750Y-17417500D02*
X7089750Y-17517500D01*
X7089750Y-20698500D02*
X7189750Y-20798500D01*
X7189750Y-20698500D02*
X7089750Y-20798500D01*
X7089750Y-21227500D02*
X7189750Y-21327500D01*
X7189750Y-21227500D02*
X7089750Y-21327500D01*
X8494750Y-9268500D02*
X8594750Y-9368500D01*
X8594750Y-9268500D02*
X8494750Y-9368500D01*
X8494750Y-9797500D02*
X8594750Y-9897500D01*
X8594750Y-9797500D02*
X8494750Y-9897500D01*
X8494750Y-13078500D02*
X8594750Y-13178500D01*
X8594750Y-13078500D02*
X8494750Y-13178500D01*
X8494750Y-13607500D02*
X8594750Y-13707500D01*
X8594750Y-13607500D02*
X8494750Y-13707500D01*
X8494750Y-16888500D02*
X8594750Y-16988500D01*
X8594750Y-16888500D02*
X8494750Y-16988500D01*
X8494750Y-17417500D02*
X8594750Y-17517500D01*
X8594750Y-17417500D02*
X8494750Y-17517500D01*
X8494750Y-20698500D02*
X8594750Y-20798500D01*
X8594750Y-20698500D02*
X8494750Y-20798500D01*
X8494750Y-21227500D02*
X8594750Y-21327500D01*
X8594750Y-21227500D02*
X8494750Y-21327500D01*
X8994750Y-9268500D02*
X9094750Y-9368500D01*
X9094750Y-9268500D02*
X8994750Y-9368500D01*
X8994750Y-9797500D02*
X9094750Y-9897500D01*
X9094750Y-9797500D02*
X8994750Y-9897500D01*
X8994750Y-13078500D02*
X9094750Y-13178500D01*
X9094750Y-13078500D02*
X8994750Y-13178500D01*
X8994750Y-13607500D02*
X9094750Y-13707500D01*
X9094750Y-13607500D02*
X8994750Y-13707500D01*
X8994750Y-16888500D02*
X9094750Y-16988500D01*
X9094750Y-16888500D02*
X8994750Y-16988500D01*
X8994750Y-17417500D02*
X9094750Y-17517500D01*
X9094750Y-17417500D02*
X8994750Y-17517500D01*
X8994750Y-20698500D02*
X9094750Y-20798500D01*
X9094750Y-20698500D02*
X8994750Y-20798500D01*
X8994750Y-21227500D02*
X9094750Y-21327500D01*
X9094750Y-21227500D02*
X8994750Y-21327500D01*
X10399750Y-9268500D02*
X10499750Y-9368500D01*
X10499750Y-9268500D02*
X10399750Y-9368500D01*
X10399750Y-9797500D02*
X10499750Y-9897500D01*
X10499750Y-9797500D02*
X10399750Y-9897500D01*
X10399750Y-13078500D02*
X10499750Y-13178500D01*
X10499750Y-13078500D02*
X10399750Y-13178500D01*
X10399750Y-13607500D02*
X10499750Y-13707500D01*
X10499750Y-13607500D02*
X10399750Y-13707500D01*
X10399750Y-16888500D02*
X10499750Y-16988500D01*
X10499750Y-16888500D02*
X10399750Y-16988500D01*
X10399750Y-17417500D02*
X10499750Y-17517500D01*
X10499750Y-17417500D02*
X10399750Y-17517500D01*
X10399750Y-20698500D02*
X10499750Y-20798500D01*
X10499750Y-20698500D02*
X10399750Y-20798500D01*
X10399750Y-21227500D02*
X10499750Y-21327500D01*
X10499750Y-21227500D02*
X10399750Y-21327500D01*
X10899750Y-9268500D02*
X10999750Y-9368500D01*
X10999750Y-9268500D02*
X10899750Y-9368500D01*
X10899750Y-9797500D02*
X10999750Y-9897500D01*
X10999750Y-9797500D02*
X10899750Y-9897500D01*
X10899750Y-13078500D02*
X10999750Y-13178500D01*
X10999750Y-13078500D02*
X10899750Y-13178500D01*
X10899750Y-13607500D02*
X10999750Y-13707500D01*
X10999750Y-13607500D02*
X10899750Y-13707500D01*
X10899750Y-16888500D02*
X10999750Y-16988500D01*
X10999750Y-16888500D02*
X10899750Y-16988500D01*
X10899750Y-17417500D02*
X10999750Y-17517500D01*
X10999750Y-17417500D02*
X10899750Y-17517500D01*
X10899750Y-20698500D02*
X10999750Y-20798500D01*
X10999750Y-20698500D02*
X10899750Y-20798500D01*
X10899750Y-21227500D02*
X10999750Y-21327500D01*
X10999750Y-21227500D02*
X10899750Y-21327500D01*
X12304750Y-9268500D02*
X12404750Y-9368500D01*
X12404750Y-9268500D02*
X12304750Y-9368500D01*
X12304750Y-9797500D02*
X12404750Y-9897500D01*
X12404750Y-9797500D02*
X12304750Y-9897500D01*
X12304750Y-13078500D02*
X12404750Y-13178500D01*
X12404750Y-13078500D02*
X12304750Y-13178500D01*
X12304750Y-13607500D02*
X12404750Y-13707500D01*
X12404750Y-13607500D02*
X12304750Y-13707500D01*
X12304750Y-16888500D02*
X12404750Y-16988500D01*
X12404750Y-16888500D02*
X12304750Y-16988500D01*
X12304750Y-17417500D02*
X12404750Y-17517500D01*
X12404750Y-17417500D02*
X12304750Y-17517500D01*
X12304750Y-20698500D02*
X12404750Y-20798500D01*
X12404750Y-20698500D02*
X12304750Y-20798500D01*
X12304750Y-21227500D02*
X12404750Y-21327500D01*
X12404750Y-21227500D02*
X12304750Y-21327500D01*
X12804750Y-9268500D02*
X12904750Y-9368500D01*
X12904750Y-9268500D02*
X12804750Y-9368500D01*
X12804750Y-9797500D02*
X12904750Y-9897500D01*
X12904750Y-9797500D02*
X12804750Y-9897500D01*
X12804750Y-13078500D02*
X12904750Y-13178500D01*
X12904750Y-13078500D02*
X12804750Y-13178500D01*
X12804750Y-13607500D02*
X12904750Y-13707500D01*
X12904750Y-13607500D02*
X12804750Y-13707500D01*
X12804750Y-16888500D02*
X12904750Y-16988500D01*
X12904750Y-16888500D02*
X12804750Y-16988500D01*
X12804750Y-17417500D02*
X12904750Y-17517500D01*
X12904750Y-17417500D02*
X12804750Y-17517500D01*
X12804750Y-20698500D02*
X12904750Y-20798500D01*
X12904750Y-20698500D02*
X12804750Y-20798500D01*
X12804750Y-21227500D02*
X12904750Y-21327500D01*
X12904750Y-21227500D02*
X12804750Y-21327500D01*
X14209750Y-9268500D02*
X14309750Y-9368500D01*
X14309750Y-9268500D02*
X14209750Y-9368500D01*
X14209750Y-9797500D02*
X14309750Y-9897500D01*
X14309750Y-9797500D02*
X14209750Y-9897500D01*
X14209750Y-13078500D02*
X14309750Y-13178500D01*
X14309750Y-13078500D02*
X14209750Y-13178500D01*
X14209750Y-13607500D02*
X14309750Y-13707500D01*
X14309750Y-13607500D02*
X14209750Y-13707500D01*
X14209750Y-16888500D02*
X14309750Y-16988500D01*
X14309750Y-16888500D02*
X14209750Y-16988500D01*
X14209750Y-17417500D02*
X14309750Y-17517500D01*
X14309750Y-17417500D02*
X14209750Y-17517500D01*
X14209750Y-20698500D02*
X14309750Y-20798500D01*
X14309750Y-20698500D02*
X14209750Y-20798500D01*
X14209750Y-21227500D02*
X14309750Y-21327500D01*
X14309750Y-21227500D02*
X14209750Y-21327500D01*
X14709750Y-9268500D02*
X14809750Y-9368500D01*
X14809750Y-9268500D02*
X14709750Y-9368500D01*
X14709750Y-9797500D02*
X14809750Y-9897500D01*
X14809750Y-9797500D02*
X14709750Y-9897500D01*
X14709750Y-13078500D02*
X14809750Y-13178500D01*
X14809750Y-13078500D02*
X14709750Y-13178500D01*
X14709750Y-13607500D02*
X14809750Y-13707500D01*
X14809750Y-13607500D02*
X14709750Y-13707500D01*
X14709750Y-16888500D02*
X14809750Y-16988500D01*
X14809750Y-16888500D02*
X14709750Y-16988500D01*
X14709750Y-17417500D02*
X14809750Y-17517500D01*
X14809750Y-17417500D02*
X14709750Y-17517500D01*
X14709750Y-20698500D02*
X14809750Y-20798500D01*
X14809750Y-20698500D02*
X14709750Y-20798500D01*
X14709750Y-21227500D02*
X14809750Y-21327500D01*
X14809750Y-21227500D02*
X14709750Y-21327500D01*
X18496000Y-9268500D02*
X18596000Y-9368500D01*
X18596000Y-9268500D02*
X18496000Y-9368500D01*
X18496000Y-9797500D02*
X18596000Y-9897500D01*
X18596000Y-9797500D02*
X18496000Y-9897500D01*
X18496000Y-13078500D02*
X18596000Y-13178500D01*
X18596000Y-13078500D02*
X18496000Y-13178500D01*
X18496000Y-13607500D02*
X18596000Y-13707500D01*
X18596000Y-13607500D02*
X18496000Y-13707500D01*
X18496000Y-16888500D02*
X18596000Y-16988500D01*
X18596000Y-16888500D02*
X18496000Y-16988500D01*
X18496000Y-17417500D02*
X18596000Y-17517500D01*
X18596000Y-17417500D02*
X18496000Y-17517500D01*
X18496000Y-20698500D02*
X18596000Y-20798500D01*
X18596000Y-20698500D02*
X18496000Y-20798500D01*
X18496000Y-21227500D02*
X18596000Y-21327500D01*
X18596000Y-21227500D02*
X18496000Y-21327500D01*
X18996000Y-9268500D02*
X19096000Y-9368500D01*
X19096000Y-9268500D02*
X18996000Y-9368500D01*
X18996000Y-9797500D02*
X19096000Y-9897500D01*
X19096000Y-9797500D02*
X18996000Y-9897500D01*
X18996000Y-13078500D02*
X19096000Y-13178500D01*
X19096000Y-13078500D02*
X18996000Y-13178500D01*
X18996000Y-13607500D02*
X19096000Y-13707500D01*
X19096000Y-13607500D02*
X18996000Y-13707500D01*
X18996000Y-16888500D02*
X19096000Y-16988500D01*
X19096000Y-16888500D02*
X18996000Y-16988500D01*
X18996000Y-17417500D02*
X19096000Y-17517500D01*
X19096000Y-17417500D02*
X18996000Y-17517500D01*
X18996000Y-20698500D02*
X19096000Y-20798500D01*
X19096000Y-20698500D02*
X18996000Y-20798500D01*
X18996000Y-21227500D02*
X19096000Y-21327500D01*
X19096000Y-21227500D02*
X18996000Y-21327500D01*
X20401000Y-9268500D02*
X20501000Y-9368500D01*
X20501000Y-9268500D02*
X20401000Y-9368500D01*
X20401000Y-9797500D02*
X20501000Y-9897500D01*
X20501000Y-9797500D02*
X20401000Y-9897500D01*
X20401000Y-13078500D02*
X20501000Y-13178500D01*
X20501000Y-13078500D02*
X20401000Y-13178500D01*
X20401000Y-13607500D02*
X20501000Y-13707500D01*
X20501000Y-13607500D02*
X20401000Y-13707500D01*
X20401000Y-16888500D02*
X20501000Y-16988500D01*
X20501000Y-16888500D02*
X20401000Y-16988500D01*
X20401000Y-17417500D02*
X20501000Y-17517500D01*
X20501000Y-17417500D02*
X20401000Y-17517500D01*
X20401000Y-20698500D02*
X20501000Y-20798500D01*
X20501000Y-20698500D02*
X20401000Y-20798500D01*
X20401000Y-21227500D02*
X20501000Y-21327500D01*
X20501000Y-21227500D02*
X20401000Y-21327500D01*
X20901000Y-9268500D02*
X21001000Y-9368500D01*
X21001000Y-9268500D02*
X20901000Y-9368500D01*
X20901000Y-9797500D02*
X21001000Y-9897500D01*
X21001000Y-9797500D02*
X20901000Y-9897500D01*
X20901000Y-13078500D02*
X21001000Y-13178500D01*
X21001000Y-13078500D02*
X20901000Y-13178500D01*
X20901000Y-13607500D02*
X21001000Y-13707500D01*
X21001000Y-13607500D02*
X20901000Y-13707500D01*
X20901000Y-16888500D02*
X21001000Y-16988500D01*
X21001000Y-16888500D02*
X20901000Y-16988500D01*
X20901000Y-17417500D02*
X21001000Y-17517500D01*
X21001000Y-17417500D02*
X20901000Y-17517500D01*
X20901000Y-20698500D02*
X21001000Y-20798500D01*
X21001000Y-20698500D02*
X20901000Y-20798500D01*
X20901000Y-21227500D02*
X21001000Y-21327500D01*
X21001000Y-21227500D02*
X20901000Y-21327500D01*
X22306000Y-9268500D02*
X22406000Y-9368500D01*
X22406000Y-9268500D02*
X22306000Y-9368500D01*
X22306000Y-9797500D02*
X22406000Y-9897500D01*
X22406000Y-9797500D02*
X22306000Y-9897500D01*
X22306000Y-13078500D02*
X22406000Y-13178500D01*
X22406000Y-13078500D02*
X22306000Y-13178500D01*
X22306000Y-13607500D02*
X22406000Y-13707500D01*
X22406000Y-13607500D02*
X22306000Y-13707500D01*
X22306000Y-16888500D02*
X22406000Y-16988500D01*
X22406000Y-16888500D02*
X22306000Y-16988500D01*
X22306000Y-17417500D02*
X22406000Y-17517500D01*
X22406000Y-17417500D02*
X22306000Y-17517500D01*
X22306000Y-20698500D02*
X22406000Y-20798500D01*
X22406000Y-20698500D02*
X22306000Y-20798500D01*
X22306000Y-21227500D02*
X22406000Y-21327500D01*
X22406000Y-21227500D02*
X22306000Y-21327500D01*
X22806000Y-9268500D02*
X22906000Y-9368500D01*
X22906000Y-9268500D02*
X22806000Y-9368500D01*
X22806000Y-9797500D02*
X22906000Y-9897500D01*
X22906000Y-9797500D02*
X22806000Y-9897500D01*
X22806000Y-13078500D02*
X22906000Y-13178500D01*
X22906000Y-13078500D02*
X22806000Y-13178500D01*
X22806000Y-13607500D02*
X22906000Y-13707500D01*
X22906000Y-13607500D02*
X22806000Y-13707500D01*
X22806000Y-16888500D02*
X22906000Y-16988500D01*
X22906000Y-16888500D02*
X22806000Y-16988500D01*
X22806000Y-17417500D02*
X22906000Y-17517500D01*
X22906000Y-17417500D02*
X22806000Y-17517500D01*
X22806000Y-20698500D02*
X22906000Y-20798500D01*
X22906000Y-20698500D02*
X22806000Y-20798500D01*
X22806000Y-21227500D02*
X22906000Y-21327500D01*
X22906000Y-21227500D02*
X22806000Y-21327500D01*
X24211000Y-9268500D02*
X24311000Y-9368500D01*
X24311000Y-9268500D02*
X24211000Y-9368500D01*
X24211000Y-9797500D02*
X24311000Y-9897500D01*
X24311000Y-9797500D02*
X24211000Y-9897500D01*
X24211000Y-13078500D02*
X24311000Y-13178500D01*
X24311000Y-13078500D02*
X24211000Y-13178500D01*
X24211000Y-13607500D02*
X24311000Y-13707500D01*
X24311000Y-13607500D02*
X24211000Y-13707500D01*
X24211000Y-16888500D02*
X24311000Y-16988500D01*
X24311000Y-16888500D02*
X24211000Y-16988500D01*
X24211000Y-17417500D02*
X24311000Y-17517500D01*
X24311000Y-17417500D02*
X24211000Y-17517500D01*
X24211000Y-20698500D02*
X24311000Y-20798500D01*
X24311000Y-20698500D02*
X24211000Y-20798500D01*
X24211000Y-21227500D02*
X24311000Y-21327500D01*
X24311000Y-21227500D02*
X24211000Y-21327500D01*
X24711000Y-9268500D02*
X24811000Y-9368500D01*
X24811000Y-9268500D02*
X24711000Y-9368500D01*
X24711000Y-9797500D02*
X24811000Y-9897500D01*
X24811000Y-9797500D02*
X24711000Y-9897500D01*
X24711000Y-13078500D02*
X24811000Y-13178500D01*
X24811000Y-13078500D02*
X24711000Y-13178500D01*
X24711000Y-13607500D02*
X24811000Y-13707500D01*
X24811000Y-13607500D02*
X24711000Y-13707500D01*
X24711000Y-16888500D02*
X24811000Y-16988500D01*
X24811000Y-16888500D02*
X24711000Y-16988500D01*
X24711000Y-17417500D02*
X24811000Y-17517500D01*
X24811000Y-17417500D02*
X24711000Y-17517500D01*
X24711000Y-20698500D02*
X24811000Y-20798500D01*
X24811000Y-20698500D02*
X24711000Y-20798500D01*
X24711000Y-21227500D02*
X24811000Y-21327500D01*
X24811000Y-21227500D02*
X24711000Y-21327500D01*
X26116000Y-9268500D02*
X26216000Y-9368500D01*
X26216000Y-9268500D02*
X26116000Y-9368500D01*
X26116000Y-9797500D02*
X26216000Y-9897500D01*
X26216000Y-9797500D02*
X26116000Y-9897500D01*
X26116000Y-13078500D02*
X26216000Y-13178500D01*
X26216000Y-13078500D02*
X26116000Y-13178500D01*
X26116000Y-13607500D02*
X26216000Y-13707500D01*
X26216000Y-13607500D02*
X26116000Y-13707500D01*
X26116000Y-16888500D02*
X26216000Y-16988500D01*
X26216000Y-16888500D02*
X26116000Y-16988500D01*
X26116000Y-17417500D02*
X26216000Y-17517500D01*
X26216000Y-17417500D02*
X26116000Y-17517500D01*
X26116000Y-20698500D02*
X26216000Y-20798500D01*
X26216000Y-20698500D02*
X26116000Y-20798500D01*
X26116000Y-21227500D02*
X26216000Y-21327500D01*
X26216000Y-21227500D02*
X26116000Y-21327500D01*
X26616000Y-9268500D02*
X26716000Y-9368500D01*
X26716000Y-9268500D02*
X26616000Y-9368500D01*
X26616000Y-9797500D02*
X26716000Y-9897500D01*
X26716000Y-9797500D02*
X26616000Y-9897500D01*
X26616000Y-13078500D02*
X26716000Y-13178500D01*
X26716000Y-13078500D02*
X26616000Y-13178500D01*
X26616000Y-13607500D02*
X26716000Y-13707500D01*
X26716000Y-13607500D02*
X26616000Y-13707500D01*
X26616000Y-16888500D02*
X26716000Y-16988500D01*
X26716000Y-16888500D02*
X26616000Y-16988500D01*
X26616000Y-17417500D02*
X26716000Y-17517500D01*
X26716000Y-17417500D02*
X26616000Y-17517500D01*
X26616000Y-20698500D02*
X26716000Y-20798500D01*
X26716000Y-20698500D02*
X26616000Y-20798500D01*
X26616000Y-21227500D02*
X26716000Y-21327500D01*
X26716000Y-21227500D02*
X26616000Y-21327500D01*
D14*
X6456680Y-9080500D02*
G75*
G02*
X6306820Y-9080500I-74930J0D01*
G01*
X6306820Y-9080500D02*
G75*
G02*
X6456680Y-9080500I74930J0D01*
G01*
X6456680Y-12890500D02*
G75*
G02*
X6306820Y-12890500I-74930J0D01*
G01*
X6306820Y-12890500D02*
G75*
G02*
X6456680Y-12890500I74930J0D01*
G01*
X6456680Y-16700500D02*
G75*
G02*
X6306820Y-16700500I-74930J0D01*
G01*
X6306820Y-16700500D02*
G75*
G02*
X6456680Y-16700500I74930J0D01*
G01*
X6456680Y-20510500D02*
G75*
G02*
X6306820Y-20510500I-74930J0D01*
G01*
X6306820Y-20510500D02*
G75*
G02*
X6456680Y-20510500I74930J0D01*
G01*
X7472680Y-9080500D02*
G75*
G02*
X7322820Y-9080500I-74930J0D01*
G01*
X7322820Y-9080500D02*
G75*
G02*
X7472680Y-9080500I74930J0D01*
G01*
X7472680Y-12890500D02*
G75*
G02*
X7322820Y-12890500I-74930J0D01*
G01*
X7322820Y-12890500D02*
G75*
G02*
X7472680Y-12890500I74930J0D01*
G01*
X7472680Y-16700500D02*
G75*
G02*
X7322820Y-16700500I-74930J0D01*
G01*
X7322820Y-16700500D02*
G75*
G02*
X7472680Y-16700500I74930J0D01*
G01*
X7472680Y-20510500D02*
G75*
G02*
X7322820Y-20510500I-74930J0D01*
G01*
X7322820Y-20510500D02*
G75*
G02*
X7472680Y-20510500I74930J0D01*
G01*
X8361680Y-9080500D02*
G75*
G02*
X8211820Y-9080500I-74930J0D01*
G01*
X8211820Y-9080500D02*
G75*
G02*
X8361680Y-9080500I74930J0D01*
G01*
X8361680Y-12890500D02*
G75*
G02*
X8211820Y-12890500I-74930J0D01*
G01*
X8211820Y-12890500D02*
G75*
G02*
X8361680Y-12890500I74930J0D01*
G01*
X8361680Y-16700500D02*
G75*
G02*
X8211820Y-16700500I-74930J0D01*
G01*
X8211820Y-16700500D02*
G75*
G02*
X8361680Y-16700500I74930J0D01*
G01*
X8361680Y-20510500D02*
G75*
G02*
X8211820Y-20510500I-74930J0D01*
G01*
X8211820Y-20510500D02*
G75*
G02*
X8361680Y-20510500I74930J0D01*
G01*
X9377680Y-9080500D02*
G75*
G02*
X9227820Y-9080500I-74930J0D01*
G01*
X9227820Y-9080500D02*
G75*
G02*
X9377680Y-9080500I74930J0D01*
G01*
X9377680Y-12890500D02*
G75*
G02*
X9227820Y-12890500I-74930J0D01*
G01*
X9227820Y-12890500D02*
G75*
G02*
X9377680Y-12890500I74930J0D01*
G01*
X9377680Y-16700500D02*
G75*
G02*
X9227820Y-16700500I-74930J0D01*
G01*
X9227820Y-16700500D02*
G75*
G02*
X9377680Y-16700500I74930J0D01*
G01*
X9377680Y-20510500D02*
G75*
G02*
X9227820Y-20510500I-74930J0D01*
G01*
X9227820Y-20510500D02*
G75*
G02*
X9377680Y-20510500I74930J0D01*
G01*
X10266680Y-9080500D02*
G75*
G02*
X10116820Y-9080500I-74930J0D01*
G01*
X10116820Y-9080500D02*
G75*
G02*
X10266680Y-9080500I74930J0D01*
G01*
X10266680Y-12890500D02*
G75*
G02*
X10116820Y-12890500I-74930J0D01*
G01*
X10116820Y-12890500D02*
G75*
G02*
X10266680Y-12890500I74930J0D01*
G01*
X10266680Y-16700500D02*
G75*
G02*
X10116820Y-16700500I-74930J0D01*
G01*
X10116820Y-16700500D02*
G75*
G02*
X10266680Y-16700500I74930J0D01*
G01*
X10266680Y-20510500D02*
G75*
G02*
X10116820Y-20510500I-74930J0D01*
G01*
X10116820Y-20510500D02*
G75*
G02*
X10266680Y-20510500I74930J0D01*
G01*
X11282680Y-9080500D02*
G75*
G02*
X11132820Y-9080500I-74930J0D01*
G01*
X11132820Y-9080500D02*
G75*
G02*
X11282680Y-9080500I74930J0D01*
G01*
X11282680Y-12890500D02*
G75*
G02*
X11132820Y-12890500I-74930J0D01*
G01*
X11132820Y-12890500D02*
G75*
G02*
X11282680Y-12890500I74930J0D01*
G01*
X11282680Y-16700500D02*
G75*
G02*
X11132820Y-16700500I-74930J0D01*
G01*
X11132820Y-16700500D02*
G75*
G02*
X11282680Y-16700500I74930J0D01*
G01*
X11282680Y-20510500D02*
G75*
G02*
X11132820Y-20510500I-74930J0D01*
G01*
X11132820Y-20510500D02*
G75*
G02*
X11282680Y-20510500I74930J0D01*
G01*
X12171680Y-9080500D02*
G75*
G02*
X12021820Y-9080500I-74930J0D01*
G01*
X12021820Y-9080500D02*
G75*
G02*
X12171680Y-9080500I74930J0D01*
G01*
X12171680Y-12890500D02*
G75*
G02*
X12021820Y-12890500I-74930J0D01*
G01*
X12021820Y-12890500D02*
G75*
G02*
X12171680Y-12890500I74930J0D01*
G01*
X12171680Y-16700500D02*
G75*
G02*
X12021820Y-16700500I-74930J0D01*
G01*
X12021820Y-16700500D02*
G75*
G02*
X12171680Y-16700500I74930J0D01*
G01*
X12171680Y-20510500D02*
G75*
G02*
X12021820Y-20510500I-74930J0D01*
G01*
X12021820Y-20510500D02*
G75*
G02*
X12171680Y-20510500I74930J0D01*
G01*
X13187680Y-9080500D02*
G75*
G02*
X13037820Y-9080500I-74930J0D01*
G01*
X13037820Y-9080500D02*
G75*
G02*
X13187680Y-9080500I74930J0D01*
G01*
X13187680Y-12890500D02*
G75*
G02*
X13037820Y-12890500I-74930J0D01*
G01*
X13037820Y-12890500D02*
G75*
G02*
X13187680Y-12890500I74930J0D01*
G01*
X13187680Y-16700500D02*
G75*
G02*
X13037820Y-16700500I-74930J0D01*
G01*
X13037820Y-16700500D02*
G75*
G02*
X13187680Y-16700500I74930J0D01*
G01*
X13187680Y-20510500D02*
G75*
G02*
X13037820Y-20510500I-74930J0D01*
G01*
X13037820Y-20510500D02*
G75*
G02*
X13187680Y-20510500I74930J0D01*
G01*
X14076680Y-9080500D02*
G75*
G02*
X13926820Y-9080500I-74930J0D01*
G01*
X13926820Y-9080500D02*
G75*
G02*
X14076680Y-9080500I74930J0D01*
G01*
X14076680Y-12890500D02*
G75*
G02*
X13926820Y-12890500I-74930J0D01*
G01*
X13926820Y-12890500D02*
G75*
G02*
X14076680Y-12890500I74930J0D01*
G01*
X14076680Y-16700500D02*
G75*
G02*
X13926820Y-16700500I-74930J0D01*
G01*
X13926820Y-16700500D02*
G75*
G02*
X14076680Y-16700500I74930J0D01*
G01*
X14076680Y-20510500D02*
G75*
G02*
X13926820Y-20510500I-74930J0D01*
G01*
X13926820Y-20510500D02*
G75*
G02*
X14076680Y-20510500I74930J0D01*
G01*
X15092680Y-9080500D02*
G75*
G02*
X14942820Y-9080500I-74930J0D01*
G01*
X14942820Y-9080500D02*
G75*
G02*
X15092680Y-9080500I74930J0D01*
G01*
X15092680Y-12890500D02*
G75*
G02*
X14942820Y-12890500I-74930J0D01*
G01*
X14942820Y-12890500D02*
G75*
G02*
X15092680Y-12890500I74930J0D01*
G01*
X15092680Y-16700500D02*
G75*
G02*
X14942820Y-16700500I-74930J0D01*
G01*
X14942820Y-16700500D02*
G75*
G02*
X15092680Y-16700500I74930J0D01*
G01*
X15092680Y-20510500D02*
G75*
G02*
X14942820Y-20510500I-74930J0D01*
G01*
X14942820Y-20510500D02*
G75*
G02*
X15092680Y-20510500I74930J0D01*
G01*
X18362930Y-9080500D02*
G75*
G02*
X18213070Y-9080500I-74930J0D01*
G01*
X18213070Y-9080500D02*
G75*
G02*
X18362930Y-9080500I74930J0D01*
G01*
X18362930Y-12890500D02*
G75*
G02*
X18213070Y-12890500I-74930J0D01*
G01*
X18213070Y-12890500D02*
G75*
G02*
X18362930Y-12890500I74930J0D01*
G01*
X18362930Y-16700500D02*
G75*
G02*
X18213070Y-16700500I-74930J0D01*
G01*
X18213070Y-16700500D02*
G75*
G02*
X18362930Y-16700500I74930J0D01*
G01*
X18362930Y-20510500D02*
G75*
G02*
X18213070Y-20510500I-74930J0D01*
G01*
X18213070Y-20510500D02*
G75*
G02*
X18362930Y-20510500I74930J0D01*
G01*
X19378930Y-9080500D02*
G75*
G02*
X19229070Y-9080500I-74930J0D01*
G01*
X19229070Y-9080500D02*
G75*
G02*
X19378930Y-9080500I74930J0D01*
G01*
X19378930Y-12890500D02*
G75*
G02*
X19229070Y-12890500I-74930J0D01*
G01*
X19229070Y-12890500D02*
G75*
G02*
X19378930Y-12890500I74930J0D01*
G01*
X19378930Y-16700500D02*
G75*
G02*
X19229070Y-16700500I-74930J0D01*
G01*
X19229070Y-16700500D02*
G75*
G02*
X19378930Y-16700500I74930J0D01*
G01*
X19378930Y-20510500D02*
G75*
G02*
X19229070Y-20510500I-74930J0D01*
G01*
X19229070Y-20510500D02*
G75*
G02*
X19378930Y-20510500I74930J0D01*
G01*
X20267930Y-9080500D02*
G75*
G02*
X20118070Y-9080500I-74930J0D01*
G01*
X20118070Y-9080500D02*
G75*
G02*
X20267930Y-9080500I74930J0D01*
G01*
X20267930Y-12890500D02*
G75*
G02*
X20118070Y-12890500I-74930J0D01*
G01*
X20118070Y-12890500D02*
G75*
G02*
X20267930Y-12890500I74930J0D01*
G01*
X20267930Y-16700500D02*
G75*
G02*
X20118070Y-16700500I-74930J0D01*
G01*
X20118070Y-16700500D02*
G75*
G02*
X20267930Y-16700500I74930J0D01*
G01*
X20267930Y-20510500D02*
G75*
G02*
X20118070Y-20510500I-74930J0D01*
G01*
X20118070Y-20510500D02*
G75*
G02*
X20267930Y-20510500I74930J0D01*
G01*
X21283930Y-9080500D02*
G75*
G02*
X21134070Y-9080500I-74930J0D01*
G01*
X21134070Y-9080500D02*
G75*
G02*
X21283930Y-9080500I74930J0D01*
G01*
X21283930Y-12890500D02*
G75*
G02*
X21134070Y-12890500I-74930J0D01*
G01*
X21134070Y-12890500D02*
G75*
G02*
X21283930Y-12890500I74930J0D01*
G01*
X21283930Y-16700500D02*
G75*
G02*
X21134070Y-16700500I-74930J0D01*
G01*
X21134070Y-16700500D02*
G75*
G02*
X21283930Y-16700500I74930J0D01*
G01*
X21283930Y-20510500D02*
G75*
G02*
X21134070Y-20510500I-74930J0D01*
G01*
X21134070Y-20510500D02*
G75*
G02*
X21283930Y-20510500I74930J0D01*
G01*
X22172930Y-9080500D02*
G75*
G02*
X22023070Y-9080500I-74930J0D01*
G01*
X22023070Y-9080500D02*
G75*
G02*
X22172930Y-9080500I74930J0D01*
G01*
X22172930Y-12890500D02*
G75*
G02*
X22023070Y-12890500I-74930J0D01*
G01*
X22023070Y-12890500D02*
G75*
G02*
X22172930Y-12890500I74930J0D01*
G01*
X22172930Y-16700500D02*
G75*
G02*
X22023070Y-16700500I-74930J0D01*
G01*
X22023070Y-16700500D02*
G75*
G02*
X22172930Y-16700500I74930J0D01*
G01*
X22172930Y-20510500D02*
G75*
G02*
X22023070Y-20510500I-74930J0D01*
G01*
X22023070Y-20510500D02*
G75*
G02*
X22172930Y-20510500I74930J0D01*
G01*
X23188930Y-9080500D02*
G75*
G02*
X23039070Y-9080500I-74930J0D01*
G01*
X23039070Y-9080500D02*
G75*
G02*
X23188930Y-9080500I74930J0D01*
G01*
X23188930Y-12890500D02*
G75*
G02*
X23039070Y-12890500I-74930J0D01*
G01*
X23039070Y-12890500D02*
G75*
G02*
X23188930Y-12890500I74930J0D01*
G01*
X23188930Y-16700500D02*
G75*
G02*
X23039070Y-16700500I-74930J0D01*
G01*
X23039070Y-16700500D02*
G75*
G02*
X23188930Y-16700500I74930J0D01*
G01*
X23188930Y-20510500D02*
G75*
G02*
X23039070Y-20510500I-74930J0D01*
G01*
X23039070Y-20510500D02*
G75*
G02*
X23188930Y-20510500I74930J0D01*
G01*
X24077930Y-9080500D02*
G75*
G02*
X23928070Y-9080500I-74930J0D01*
G01*
X23928070Y-9080500D02*
G75*
G02*
X24077930Y-9080500I74930J0D01*
G01*
X24077930Y-12890500D02*
G75*
G02*
X23928070Y-12890500I-74930J0D01*
G01*
X23928070Y-12890500D02*
G75*
G02*
X24077930Y-12890500I74930J0D01*
G01*
X24077930Y-16700500D02*
G75*
G02*
X23928070Y-16700500I-74930J0D01*
G01*
X23928070Y-16700500D02*
G75*
G02*
X24077930Y-16700500I74930J0D01*
G01*
X24077930Y-20510500D02*
G75*
G02*
X23928070Y-20510500I-74930J0D01*
G01*
X23928070Y-20510500D02*
G75*
G02*
X24077930Y-20510500I74930J0D01*
G01*
X25093930Y-9080500D02*
G75*
G02*
X24944070Y-9080500I-74930J0D01*
G01*
X24944070Y-9080500D02*
G75*
G02*
X25093930Y-9080500I74930J0D01*
G01*
X25093930Y-12890500D02*
G75*
G02*
X24944070Y-12890500I-74930J0D01*
G01*
X24944070Y-12890500D02*
G75*
G02*
X25093930Y-12890500I74930J0D01*
G01*
X25093930Y-16700500D02*
G75*
G02*
X24944070Y-16700500I-74930J0D01*
G01*
X24944070Y-16700500D02*
G75*
G02*
X25093930Y-16700500I74930J0D01*
G01*
X25093930Y-20510500D02*
G75*
G02*
X24944070Y-20510500I-74930J0D01*
G01*
X24944070Y-20510500D02*
G75*
G02*
X25093930Y-20510500I74930J0D01*
G01*
X25982930Y-9080500D02*
G75*
G02*
X25833070Y-9080500I-74930J0D01*
G01*
X25833070Y-9080500D02*
G75*
G02*
X25982930Y-9080500I74930J0D01*
G01*
X25982930Y-12890500D02*
G75*
G02*
X25833070Y-12890500I-74930J0D01*
G01*
X25833070Y-12890500D02*
G75*
G02*
X25982930Y-12890500I74930J0D01*
G01*
X25982930Y-16700500D02*
G75*
G02*
X25833070Y-16700500I-74930J0D01*
G01*
X25833070Y-16700500D02*
G75*
G02*
X25982930Y-16700500I74930J0D01*
G01*
X25982930Y-20510500D02*
G75*
G02*
X25833070Y-20510500I-74930J0D01*
G01*
X25833070Y-20510500D02*
G75*
G02*
X25982930Y-20510500I74930J0D01*
G01*
X26998930Y-9080500D02*
G75*
G02*
X26849070Y-9080500I-74930J0D01*
G01*
X26849070Y-9080500D02*
G75*
G02*
X26998930Y-9080500I74930J0D01*
G01*
X26998930Y-12890500D02*
G75*
G02*
X26849070Y-12890500I-74930J0D01*
G01*
X26849070Y-12890500D02*
G75*
G02*
X26998930Y-12890500I74930J0D01*
G01*
X26998930Y-16700500D02*
G75*
G02*
X26849070Y-16700500I-74930J0D01*
G01*
X26849070Y-16700500D02*
G75*
G02*
X26998930Y-16700500I74930J0D01*
G01*
X26998930Y-20510500D02*
G75*
G02*
X26849070Y-20510500I-74930J0D01*
G01*
X26849070Y-20510500D02*
G75*
G02*
X26998930Y-20510500I74930J0D01*
G01*
D15*
X7112000Y-6270000D02*
X7112000Y-6430000D01*
X7032000Y-6350000D02*
X7192000Y-6350000D01*
X7874000Y-5762000D02*
X7874000Y-5922000D01*
X7794000Y-5842000D02*
X7954000Y-5842000D01*
D16*
X7030741Y-9221491D02*
X7030741Y-8939509D01*
X6748759Y-8939509D01*
X6748759Y-9221491D01*
X7030741Y-9221491D01*
X7030741Y-13031491D02*
X7030741Y-12749509D01*
X6748759Y-12749509D01*
X6748759Y-13031491D01*
X7030741Y-13031491D01*
X7030741Y-16841491D02*
X7030741Y-16559509D01*
X6748759Y-16559509D01*
X6748759Y-16841491D01*
X7030741Y-16841491D01*
X7030741Y-20651491D02*
X7030741Y-20369509D01*
X6748759Y-20369509D01*
X6748759Y-20651491D01*
X7030741Y-20651491D01*
X8935741Y-9221491D02*
X8935741Y-8939509D01*
X8653759Y-8939509D01*
X8653759Y-9221491D01*
X8935741Y-9221491D01*
X8935741Y-13031491D02*
X8935741Y-12749509D01*
X8653759Y-12749509D01*
X8653759Y-13031491D01*
X8935741Y-13031491D01*
X8935741Y-16841491D02*
X8935741Y-16559509D01*
X8653759Y-16559509D01*
X8653759Y-16841491D01*
X8935741Y-16841491D01*
X8935741Y-20651491D02*
X8935741Y-20369509D01*
X8653759Y-20369509D01*
X8653759Y-20651491D01*
X8935741Y-20651491D01*
X10840741Y-9221491D02*
X10840741Y-8939509D01*
X10558759Y-8939509D01*
X10558759Y-9221491D01*
X10840741Y-9221491D01*
X10840741Y-13031491D02*
X10840741Y-12749509D01*
X10558759Y-12749509D01*
X10558759Y-13031491D01*
X10840741Y-13031491D01*
X10840741Y-16841491D02*
X10840741Y-16559509D01*
X10558759Y-16559509D01*
X10558759Y-16841491D01*
X10840741Y-16841491D01*
X10840741Y-20651491D02*
X10840741Y-20369509D01*
X10558759Y-20369509D01*
X10558759Y-20651491D01*
X10840741Y-20651491D01*
X12745741Y-9221491D02*
X12745741Y-8939509D01*
X12463759Y-8939509D01*
X12463759Y-9221491D01*
X12745741Y-9221491D01*
X12745741Y-13031491D02*
X12745741Y-12749509D01*
X12463759Y-12749509D01*
X12463759Y-13031491D01*
X12745741Y-13031491D01*
X12745741Y-16841491D02*
X12745741Y-16559509D01*
X12463759Y-16559509D01*
X12463759Y-16841491D01*
X12745741Y-16841491D01*
X12745741Y-20651491D02*
X12745741Y-20369509D01*
X12463759Y-20369509D01*
X12463759Y-20651491D01*
X12745741Y-20651491D01*
X14650741Y-9221491D02*
X14650741Y-8939509D01*
X14368759Y-8939509D01*
X14368759Y-9221491D01*
X14650741Y-9221491D01*
X14650741Y-13031491D02*
X14650741Y-12749509D01*
X14368759Y-12749509D01*
X14368759Y-13031491D01*
X14650741Y-13031491D01*
X14650741Y-16841491D02*
X14650741Y-16559509D01*
X14368759Y-16559509D01*
X14368759Y-16841491D01*
X14650741Y-16841491D01*
X14650741Y-20651491D02*
X14650741Y-20369509D01*
X14368759Y-20369509D01*
X14368759Y-20651491D01*
X14650741Y-20651491D01*
X18936991Y-9221491D02*
X18936991Y-8939509D01*
X18655009Y-8939509D01*
X18655009Y-9221491D01*
X18936991Y-9221491D01*
X18936991Y-13031491D02*
X18936991Y-12749509D01*
X18655009Y-12749509D01*
X18655009Y-13031491D01*
X18936991Y-13031491D01*
X18936991Y-16841491D02*
X18936991Y-16559509D01*
X18655009Y-16559509D01*
X18655009Y-16841491D01*
X18936991Y-16841491D01*
X18936991Y-20651491D02*
X18936991Y-20369509D01*
X18655009Y-20369509D01*
X18655009Y-20651491D01*
X18936991Y-20651491D01*
X20841991Y-9221491D02*
X20841991Y-8939509D01*
X20560009Y-8939509D01*
X20560009Y-9221491D01*
X20841991Y-9221491D01*
X20841991Y-13031491D02*
X20841991Y-12749509D01*
X20560009Y-12749509D01*
X20560009Y-13031491D01*
X20841991Y-13031491D01*
X20841991Y-16841491D02*
X20841991Y-16559509D01*
X20560009Y-16559509D01*
X20560009Y-16841491D01*
X20841991Y-16841491D01*
X20841991Y-20651491D02*
X20841991Y-20369509D01*
X20560009Y-20369509D01*
X20560009Y-20651491D01*
X20841991Y-20651491D01*
X22746991Y-9221491D02*
X22746991Y-8939509D01*
X22465009Y-8939509D01*
X22465009Y-9221491D01*
X22746991Y-9221491D01*
X22746991Y-13031491D02*
X22746991Y-12749509D01*
X22465009Y-12749509D01*
X22465009Y-13031491D01*
X22746991Y-13031491D01*
X22746991Y-16841491D02*
X22746991Y-16559509D01*
X22465009Y-16559509D01*
X22465009Y-16841491D01*
X22746991Y-16841491D01*
X22746991Y-20651491D02*
X22746991Y-20369509D01*
X22465009Y-20369509D01*
X22465009Y-20651491D01*
X22746991Y-20651491D01*
X24651991Y-9221491D02*
X24651991Y-8939509D01*
X24370009Y-8939509D01*
X24370009Y-9221491D01*
X24651991Y-9221491D01*
X24651991Y-13031491D02*
X24651991Y-12749509D01*
X24370009Y-12749509D01*
X24370009Y-13031491D01*
X24651991Y-13031491D01*
X24651991Y-16841491D02*
X24651991Y-16559509D01*
X24370009Y-16559509D01*
X24370009Y-16841491D01*
X24651991Y-16841491D01*
X24651991Y-20651491D02*
X24651991Y-20369509D01*
X24370009Y-20369509D01*
X24370009Y-20651491D01*
X24651991Y-20651491D01*
X26556991Y-9221491D02*
X26556991Y-8939509D01*
X26275009Y-8939509D01*
X26275009Y-9221491D01*
X26556991Y-9221491D01*
X26556991Y-13031491D02*
X26556991Y-12749509D01*
X26275009Y-12749509D01*
X26275009Y-13031491D01*
X26556991Y-13031491D01*
X26556991Y-16841491D02*
X26556991Y-16559509D01*
X26275009Y-16559509D01*
X26275009Y-16841491D01*
X26556991Y-16841491D01*
X26556991Y-20651491D02*
X26556991Y-20369509D01*
X26275009Y-20369509D01*
X26275009Y-20651491D01*
X26556991Y-20651491D01*
D12*
X5158277Y-22813984D02*
X5158277Y-22613984D01*
X5158277Y-22613984D02*
X5205896Y-22613984D01*
X5205896Y-22613984D02*
X5234467Y-22623508D01*
X5234467Y-22623508D02*
X5253515Y-22642555D01*
X5253515Y-22642555D02*
X5263039Y-22661603D01*
X5263039Y-22661603D02*
X5272563Y-22699698D01*
X5272563Y-22699698D02*
X5272563Y-22728269D01*
X5272563Y-22728269D02*
X5263039Y-22766365D01*
X5263039Y-22766365D02*
X5253515Y-22785412D01*
X5253515Y-22785412D02*
X5234467Y-22804460D01*
X5234467Y-22804460D02*
X5205896Y-22813984D01*
X5205896Y-22813984D02*
X5158277Y-22813984D01*
X5358277Y-22813984D02*
X5358277Y-22680650D01*
X5358277Y-22718746D02*
X5367801Y-22699698D01*
X5367801Y-22699698D02*
X5377324Y-22690174D01*
X5377324Y-22690174D02*
X5396372Y-22680650D01*
X5396372Y-22680650D02*
X5415420Y-22680650D01*
X5482086Y-22813984D02*
X5482086Y-22680650D01*
X5482086Y-22613984D02*
X5472563Y-22623508D01*
X5472563Y-22623508D02*
X5482086Y-22633031D01*
X5482086Y-22633031D02*
X5491610Y-22623508D01*
X5491610Y-22623508D02*
X5482086Y-22613984D01*
X5482086Y-22613984D02*
X5482086Y-22633031D01*
X5605896Y-22813984D02*
X5586848Y-22804460D01*
X5586848Y-22804460D02*
X5577324Y-22785412D01*
X5577324Y-22785412D02*
X5577324Y-22613984D01*
X5710658Y-22813984D02*
X5691610Y-22804460D01*
X5691610Y-22804460D02*
X5682086Y-22785412D01*
X5682086Y-22785412D02*
X5682086Y-22613984D01*
X5939229Y-22813984D02*
X5939229Y-22613984D01*
X5939229Y-22613984D02*
X6005896Y-22756841D01*
X6005896Y-22756841D02*
X6072562Y-22613984D01*
X6072562Y-22613984D02*
X6072562Y-22813984D01*
X6253515Y-22813984D02*
X6253515Y-22709222D01*
X6253515Y-22709222D02*
X6243991Y-22690174D01*
X6243991Y-22690174D02*
X6224943Y-22680650D01*
X6224943Y-22680650D02*
X6186848Y-22680650D01*
X6186848Y-22680650D02*
X6167801Y-22690174D01*
X6253515Y-22804460D02*
X6234467Y-22813984D01*
X6234467Y-22813984D02*
X6186848Y-22813984D01*
X6186848Y-22813984D02*
X6167801Y-22804460D01*
X6167801Y-22804460D02*
X6158277Y-22785412D01*
X6158277Y-22785412D02*
X6158277Y-22766365D01*
X6158277Y-22766365D02*
X6167801Y-22747317D01*
X6167801Y-22747317D02*
X6186848Y-22737793D01*
X6186848Y-22737793D02*
X6234467Y-22737793D01*
X6234467Y-22737793D02*
X6253515Y-22728269D01*
X6348753Y-22680650D02*
X6348753Y-22880650D01*
X6348753Y-22690174D02*
X6367801Y-22680650D01*
X6367801Y-22680650D02*
X6405896Y-22680650D01*
X6405896Y-22680650D02*
X6424943Y-22690174D01*
X6424943Y-22690174D02*
X6434467Y-22699698D01*
X6434467Y-22699698D02*
X6443991Y-22718746D01*
X6443991Y-22718746D02*
X6443991Y-22775888D01*
X6443991Y-22775888D02*
X6434467Y-22794936D01*
X6434467Y-22794936D02*
X6424943Y-22804460D01*
X6424943Y-22804460D02*
X6405896Y-22813984D01*
X6405896Y-22813984D02*
X6367801Y-22813984D01*
X6367801Y-22813984D02*
X6348753Y-22804460D01*
X6529705Y-22794936D02*
X6539229Y-22804460D01*
X6539229Y-22804460D02*
X6529705Y-22813984D01*
X6529705Y-22813984D02*
X6520182Y-22804460D01*
X6520182Y-22804460D02*
X6529705Y-22794936D01*
X6529705Y-22794936D02*
X6529705Y-22813984D01*
X6529705Y-22690174D02*
X6539229Y-22699698D01*
X6539229Y-22699698D02*
X6529705Y-22709222D01*
X6529705Y-22709222D02*
X6520182Y-22699698D01*
X6520182Y-22699698D02*
X6529705Y-22690174D01*
X6529705Y-22690174D02*
X6529705Y-22709222D01*
D13*
X4797500Y-23092500D02*
X4897500Y-23192500D01*
X4897500Y-23092500D02*
X4797500Y-23192500D01*
D12*
X5263039Y-23233984D02*
X5148753Y-23233984D01*
X5205896Y-23233984D02*
X5205896Y-23033984D01*
X5205896Y-23033984D02*
X5186848Y-23062555D01*
X5186848Y-23062555D02*
X5167801Y-23081603D01*
X5167801Y-23081603D02*
X5148753Y-23091127D01*
X5348753Y-23214936D02*
X5358277Y-23224460D01*
X5358277Y-23224460D02*
X5348753Y-23233984D01*
X5348753Y-23233984D02*
X5339229Y-23224460D01*
X5339229Y-23224460D02*
X5348753Y-23214936D01*
X5348753Y-23214936D02*
X5348753Y-23233984D01*
X5482086Y-23033984D02*
X5501134Y-23033984D01*
X5501134Y-23033984D02*
X5520182Y-23043508D01*
X5520182Y-23043508D02*
X5529705Y-23053031D01*
X5529705Y-23053031D02*
X5539229Y-23072079D01*
X5539229Y-23072079D02*
X5548753Y-23110174D01*
X5548753Y-23110174D02*
X5548753Y-23157793D01*
X5548753Y-23157793D02*
X5539229Y-23195888D01*
X5539229Y-23195888D02*
X5529705Y-23214936D01*
X5529705Y-23214936D02*
X5520182Y-23224460D01*
X5520182Y-23224460D02*
X5501134Y-23233984D01*
X5501134Y-23233984D02*
X5482086Y-23233984D01*
X5482086Y-23233984D02*
X5463039Y-23224460D01*
X5463039Y-23224460D02*
X5453515Y-23214936D01*
X5453515Y-23214936D02*
X5443991Y-23195888D01*
X5443991Y-23195888D02*
X5434467Y-23157793D01*
X5434467Y-23157793D02*
X5434467Y-23110174D01*
X5434467Y-23110174D02*
X5443991Y-23072079D01*
X5443991Y-23072079D02*
X5453515Y-23053031D01*
X5453515Y-23053031D02*
X5463039Y-23043508D01*
X5463039Y-23043508D02*
X5482086Y-23033984D01*
X5672562Y-23033984D02*
X5691610Y-23033984D01*
X5691610Y-23033984D02*
X5710658Y-23043508D01*
X5710658Y-23043508D02*
X5720182Y-23053031D01*
X5720182Y-23053031D02*
X5729705Y-23072079D01*
X5729705Y-23072079D02*
X5739229Y-23110174D01*
X5739229Y-23110174D02*
X5739229Y-23157793D01*
X5739229Y-23157793D02*
X5729705Y-23195888D01*
X5729705Y-23195888D02*
X5720182Y-23214936D01*
X5720182Y-23214936D02*
X5710658Y-23224460D01*
X5710658Y-23224460D02*
X5691610Y-23233984D01*
X5691610Y-23233984D02*
X5672562Y-23233984D01*
X5672562Y-23233984D02*
X5653515Y-23224460D01*
X5653515Y-23224460D02*
X5643991Y-23214936D01*
X5643991Y-23214936D02*
X5634467Y-23195888D01*
X5634467Y-23195888D02*
X5624943Y-23157793D01*
X5624943Y-23157793D02*
X5624943Y-23110174D01*
X5624943Y-23110174D02*
X5634467Y-23072079D01*
X5634467Y-23072079D02*
X5643991Y-23053031D01*
X5643991Y-23053031D02*
X5653515Y-23043508D01*
X5653515Y-23043508D02*
X5672562Y-23033984D01*
X5863039Y-23033984D02*
X5882086Y-23033984D01*
X5882086Y-23033984D02*
X5901134Y-23043508D01*
X5901134Y-23043508D02*
X5910658Y-23053031D01*
X5910658Y-23053031D02*
X5920182Y-23072079D01*
X5920182Y-23072079D02*
X5929705Y-23110174D01*
X5929705Y-23110174D02*
X5929705Y-23157793D01*
X5929705Y-23157793D02*
X5920182Y-23195888D01*
X5920182Y-23195888D02*
X5910658Y-23214936D01*
X5910658Y-23214936D02*
X5901134Y-23224460D01*
X5901134Y-23224460D02*
X5882086Y-23233984D01*
X5882086Y-23233984D02*
X5863039Y-23233984D01*
X5863039Y-23233984D02*
X5843991Y-23224460D01*
X5843991Y-23224460D02*
X5834467Y-23214936D01*
X5834467Y-23214936D02*
X5824943Y-23195888D01*
X5824943Y-23195888D02*
X5815420Y-23157793D01*
X5815420Y-23157793D02*
X5815420Y-23110174D01*
X5815420Y-23110174D02*
X5824943Y-23072079D01*
X5824943Y-23072079D02*
X5834467Y-23053031D01*
X5834467Y-23053031D02*
X5843991Y-23043508D01*
X5843991Y-23043508D02*
X5863039Y-23033984D01*
X6015420Y-23233984D02*
X6015420Y-23100650D01*
X6015420Y-23119698D02*
X6024943Y-23110174D01*
X6024943Y-23110174D02*
X6043991Y-23100650D01*
X6043991Y-23100650D02*
X6072563Y-23100650D01*
X6072563Y-23100650D02*
X6091610Y-23110174D01*
X6091610Y-23110174D02*
X6101134Y-23129222D01*
X6101134Y-23129222D02*
X6101134Y-23233984D01*
X6101134Y-23129222D02*
X6110658Y-23110174D01*
X6110658Y-23110174D02*
X6129705Y-23100650D01*
X6129705Y-23100650D02*
X6158277Y-23100650D01*
X6158277Y-23100650D02*
X6177324Y-23110174D01*
X6177324Y-23110174D02*
X6186848Y-23129222D01*
X6186848Y-23129222D02*
X6186848Y-23233984D01*
X6282086Y-23233984D02*
X6282086Y-23100650D01*
X6282086Y-23119698D02*
X6291610Y-23110174D01*
X6291610Y-23110174D02*
X6310658Y-23100650D01*
X6310658Y-23100650D02*
X6339229Y-23100650D01*
X6339229Y-23100650D02*
X6358277Y-23110174D01*
X6358277Y-23110174D02*
X6367801Y-23129222D01*
X6367801Y-23129222D02*
X6367801Y-23233984D01*
X6367801Y-23129222D02*
X6377324Y-23110174D01*
X6377324Y-23110174D02*
X6396372Y-23100650D01*
X6396372Y-23100650D02*
X6424943Y-23100650D01*
X6424943Y-23100650D02*
X6443991Y-23110174D01*
X6443991Y-23110174D02*
X6453515Y-23129222D01*
X6453515Y-23129222D02*
X6453515Y-23233984D01*
X6843991Y-23024460D02*
X6672563Y-23281603D01*
X7101134Y-23033984D02*
X7120182Y-23033984D01*
X7120182Y-23033984D02*
X7139229Y-23043508D01*
X7139229Y-23043508D02*
X7148753Y-23053031D01*
X7148753Y-23053031D02*
X7158277Y-23072079D01*
X7158277Y-23072079D02*
X7167801Y-23110174D01*
X7167801Y-23110174D02*
X7167801Y-23157793D01*
X7167801Y-23157793D02*
X7158277Y-23195888D01*
X7158277Y-23195888D02*
X7148753Y-23214936D01*
X7148753Y-23214936D02*
X7139229Y-23224460D01*
X7139229Y-23224460D02*
X7120182Y-23233984D01*
X7120182Y-23233984D02*
X7101134Y-23233984D01*
X7101134Y-23233984D02*
X7082086Y-23224460D01*
X7082086Y-23224460D02*
X7072563Y-23214936D01*
X7072563Y-23214936D02*
X7063039Y-23195888D01*
X7063039Y-23195888D02*
X7053515Y-23157793D01*
X7053515Y-23157793D02*
X7053515Y-23110174D01*
X7053515Y-23110174D02*
X7063039Y-23072079D01*
X7063039Y-23072079D02*
X7072563Y-23053031D01*
X7072563Y-23053031D02*
X7082086Y-23043508D01*
X7082086Y-23043508D02*
X7101134Y-23033984D01*
X7253515Y-23214936D02*
X7263039Y-23224460D01*
X7263039Y-23224460D02*
X7253515Y-23233984D01*
X7253515Y-23233984D02*
X7243991Y-23224460D01*
X7243991Y-23224460D02*
X7253515Y-23214936D01*
X7253515Y-23214936D02*
X7253515Y-23233984D01*
X7386848Y-23033984D02*
X7405896Y-23033984D01*
X7405896Y-23033984D02*
X7424944Y-23043508D01*
X7424944Y-23043508D02*
X7434467Y-23053031D01*
X7434467Y-23053031D02*
X7443991Y-23072079D01*
X7443991Y-23072079D02*
X7453515Y-23110174D01*
X7453515Y-23110174D02*
X7453515Y-23157793D01*
X7453515Y-23157793D02*
X7443991Y-23195888D01*
X7443991Y-23195888D02*
X7434467Y-23214936D01*
X7434467Y-23214936D02*
X7424944Y-23224460D01*
X7424944Y-23224460D02*
X7405896Y-23233984D01*
X7405896Y-23233984D02*
X7386848Y-23233984D01*
X7386848Y-23233984D02*
X7367801Y-23224460D01*
X7367801Y-23224460D02*
X7358277Y-23214936D01*
X7358277Y-23214936D02*
X7348753Y-23195888D01*
X7348753Y-23195888D02*
X7339229Y-23157793D01*
X7339229Y-23157793D02*
X7339229Y-23110174D01*
X7339229Y-23110174D02*
X7348753Y-23072079D01*
X7348753Y-23072079D02*
X7358277Y-23053031D01*
X7358277Y-23053031D02*
X7367801Y-23043508D01*
X7367801Y-23043508D02*
X7386848Y-23033984D01*
X7520182Y-23033984D02*
X7643991Y-23033984D01*
X7643991Y-23033984D02*
X7577325Y-23110174D01*
X7577325Y-23110174D02*
X7605896Y-23110174D01*
X7605896Y-23110174D02*
X7624944Y-23119698D01*
X7624944Y-23119698D02*
X7634467Y-23129222D01*
X7634467Y-23129222D02*
X7643991Y-23148269D01*
X7643991Y-23148269D02*
X7643991Y-23195888D01*
X7643991Y-23195888D02*
X7634467Y-23214936D01*
X7634467Y-23214936D02*
X7624944Y-23224460D01*
X7624944Y-23224460D02*
X7605896Y-23233984D01*
X7605896Y-23233984D02*
X7548753Y-23233984D01*
X7548753Y-23233984D02*
X7529706Y-23224460D01*
X7529706Y-23224460D02*
X7520182Y-23214936D01*
X7739229Y-23233984D02*
X7777325Y-23233984D01*
X7777325Y-23233984D02*
X7796372Y-23224460D01*
X7796372Y-23224460D02*
X7805896Y-23214936D01*
X7805896Y-23214936D02*
X7824944Y-23186365D01*
X7824944Y-23186365D02*
X7834467Y-23148269D01*
X7834467Y-23148269D02*
X7834467Y-23072079D01*
X7834467Y-23072079D02*
X7824944Y-23053031D01*
X7824944Y-23053031D02*
X7815420Y-23043508D01*
X7815420Y-23043508D02*
X7796372Y-23033984D01*
X7796372Y-23033984D02*
X7758277Y-23033984D01*
X7758277Y-23033984D02*
X7739229Y-23043508D01*
X7739229Y-23043508D02*
X7729706Y-23053031D01*
X7729706Y-23053031D02*
X7720182Y-23072079D01*
X7720182Y-23072079D02*
X7720182Y-23119698D01*
X7720182Y-23119698D02*
X7729706Y-23138746D01*
X7729706Y-23138746D02*
X7739229Y-23148269D01*
X7739229Y-23148269D02*
X7758277Y-23157793D01*
X7758277Y-23157793D02*
X7796372Y-23157793D01*
X7796372Y-23157793D02*
X7815420Y-23148269D01*
X7815420Y-23148269D02*
X7824944Y-23138746D01*
X7824944Y-23138746D02*
X7834467Y-23119698D01*
X8005896Y-23100650D02*
X8005896Y-23233984D01*
X7958277Y-23024460D02*
X7910658Y-23167317D01*
X7910658Y-23167317D02*
X8034467Y-23167317D01*
X8101134Y-23033984D02*
X8101134Y-23072079D01*
X8177325Y-23033984D02*
X8177325Y-23072079D01*
X8472563Y-23310174D02*
X8463039Y-23300650D01*
X8463039Y-23300650D02*
X8443991Y-23272079D01*
X8443991Y-23272079D02*
X8434468Y-23253031D01*
X8434468Y-23253031D02*
X8424944Y-23224460D01*
X8424944Y-23224460D02*
X8415420Y-23176841D01*
X8415420Y-23176841D02*
X8415420Y-23138746D01*
X8415420Y-23138746D02*
X8424944Y-23091127D01*
X8424944Y-23091127D02*
X8434468Y-23062555D01*
X8434468Y-23062555D02*
X8443991Y-23043508D01*
X8443991Y-23043508D02*
X8463039Y-23014936D01*
X8463039Y-23014936D02*
X8472563Y-23005412D01*
X8653515Y-23233984D02*
X8539230Y-23233984D01*
X8596372Y-23233984D02*
X8596372Y-23033984D01*
X8596372Y-23033984D02*
X8577325Y-23062555D01*
X8577325Y-23062555D02*
X8558277Y-23081603D01*
X8558277Y-23081603D02*
X8539230Y-23091127D01*
X8824944Y-23033984D02*
X8786849Y-23033984D01*
X8786849Y-23033984D02*
X8767801Y-23043508D01*
X8767801Y-23043508D02*
X8758277Y-23053031D01*
X8758277Y-23053031D02*
X8739230Y-23081603D01*
X8739230Y-23081603D02*
X8729706Y-23119698D01*
X8729706Y-23119698D02*
X8729706Y-23195888D01*
X8729706Y-23195888D02*
X8739230Y-23214936D01*
X8739230Y-23214936D02*
X8748753Y-23224460D01*
X8748753Y-23224460D02*
X8767801Y-23233984D01*
X8767801Y-23233984D02*
X8805896Y-23233984D01*
X8805896Y-23233984D02*
X8824944Y-23224460D01*
X8824944Y-23224460D02*
X8834468Y-23214936D01*
X8834468Y-23214936D02*
X8843991Y-23195888D01*
X8843991Y-23195888D02*
X8843991Y-23148269D01*
X8843991Y-23148269D02*
X8834468Y-23129222D01*
X8834468Y-23129222D02*
X8824944Y-23119698D01*
X8824944Y-23119698D02*
X8805896Y-23110174D01*
X8805896Y-23110174D02*
X8767801Y-23110174D01*
X8767801Y-23110174D02*
X8748753Y-23119698D01*
X8748753Y-23119698D02*
X8739230Y-23129222D01*
X8739230Y-23129222D02*
X8729706Y-23148269D01*
X8967801Y-23033984D02*
X8986849Y-23033984D01*
X8986849Y-23033984D02*
X9005896Y-23043508D01*
X9005896Y-23043508D02*
X9015420Y-23053031D01*
X9015420Y-23053031D02*
X9024944Y-23072079D01*
X9024944Y-23072079D02*
X9034468Y-23110174D01*
X9034468Y-23110174D02*
X9034468Y-23157793D01*
X9034468Y-23157793D02*
X9024944Y-23195888D01*
X9024944Y-23195888D02*
X9015420Y-23214936D01*
X9015420Y-23214936D02*
X9005896Y-23224460D01*
X9005896Y-23224460D02*
X8986849Y-23233984D01*
X8986849Y-23233984D02*
X8967801Y-23233984D01*
X8967801Y-23233984D02*
X8948753Y-23224460D01*
X8948753Y-23224460D02*
X8939230Y-23214936D01*
X8939230Y-23214936D02*
X8929706Y-23195888D01*
X8929706Y-23195888D02*
X8920182Y-23157793D01*
X8920182Y-23157793D02*
X8920182Y-23110174D01*
X8920182Y-23110174D02*
X8929706Y-23072079D01*
X8929706Y-23072079D02*
X8939230Y-23053031D01*
X8939230Y-23053031D02*
X8948753Y-23043508D01*
X8948753Y-23043508D02*
X8967801Y-23033984D01*
X9272563Y-23233984D02*
X9272563Y-23033984D01*
X9358277Y-23233984D02*
X9358277Y-23129222D01*
X9358277Y-23129222D02*
X9348753Y-23110174D01*
X9348753Y-23110174D02*
X9329706Y-23100650D01*
X9329706Y-23100650D02*
X9301134Y-23100650D01*
X9301134Y-23100650D02*
X9282087Y-23110174D01*
X9282087Y-23110174D02*
X9272563Y-23119698D01*
X9482087Y-23233984D02*
X9463039Y-23224460D01*
X9463039Y-23224460D02*
X9453515Y-23214936D01*
X9453515Y-23214936D02*
X9443992Y-23195888D01*
X9443992Y-23195888D02*
X9443992Y-23138746D01*
X9443992Y-23138746D02*
X9453515Y-23119698D01*
X9453515Y-23119698D02*
X9463039Y-23110174D01*
X9463039Y-23110174D02*
X9482087Y-23100650D01*
X9482087Y-23100650D02*
X9510658Y-23100650D01*
X9510658Y-23100650D02*
X9529706Y-23110174D01*
X9529706Y-23110174D02*
X9539230Y-23119698D01*
X9539230Y-23119698D02*
X9548753Y-23138746D01*
X9548753Y-23138746D02*
X9548753Y-23195888D01*
X9548753Y-23195888D02*
X9539230Y-23214936D01*
X9539230Y-23214936D02*
X9529706Y-23224460D01*
X9529706Y-23224460D02*
X9510658Y-23233984D01*
X9510658Y-23233984D02*
X9482087Y-23233984D01*
X9663039Y-23233984D02*
X9643992Y-23224460D01*
X9643992Y-23224460D02*
X9634468Y-23205412D01*
X9634468Y-23205412D02*
X9634468Y-23033984D01*
X9815420Y-23224460D02*
X9796373Y-23233984D01*
X9796373Y-23233984D02*
X9758277Y-23233984D01*
X9758277Y-23233984D02*
X9739230Y-23224460D01*
X9739230Y-23224460D02*
X9729706Y-23205412D01*
X9729706Y-23205412D02*
X9729706Y-23129222D01*
X9729706Y-23129222D02*
X9739230Y-23110174D01*
X9739230Y-23110174D02*
X9758277Y-23100650D01*
X9758277Y-23100650D02*
X9796373Y-23100650D01*
X9796373Y-23100650D02*
X9815420Y-23110174D01*
X9815420Y-23110174D02*
X9824944Y-23129222D01*
X9824944Y-23129222D02*
X9824944Y-23148269D01*
X9824944Y-23148269D02*
X9729706Y-23167317D01*
X9901134Y-23224460D02*
X9920182Y-23233984D01*
X9920182Y-23233984D02*
X9958277Y-23233984D01*
X9958277Y-23233984D02*
X9977325Y-23224460D01*
X9977325Y-23224460D02*
X9986849Y-23205412D01*
X9986849Y-23205412D02*
X9986849Y-23195888D01*
X9986849Y-23195888D02*
X9977325Y-23176841D01*
X9977325Y-23176841D02*
X9958277Y-23167317D01*
X9958277Y-23167317D02*
X9929706Y-23167317D01*
X9929706Y-23167317D02*
X9910658Y-23157793D01*
X9910658Y-23157793D02*
X9901134Y-23138746D01*
X9901134Y-23138746D02*
X9901134Y-23129222D01*
X9901134Y-23129222D02*
X9910658Y-23110174D01*
X9910658Y-23110174D02*
X9929706Y-23100650D01*
X9929706Y-23100650D02*
X9958277Y-23100650D01*
X9958277Y-23100650D02*
X9977325Y-23110174D01*
X10053515Y-23310174D02*
X10063039Y-23300650D01*
X10063039Y-23300650D02*
X10082087Y-23272079D01*
X10082087Y-23272079D02*
X10091611Y-23253031D01*
X10091611Y-23253031D02*
X10101134Y-23224460D01*
X10101134Y-23224460D02*
X10110658Y-23176841D01*
X10110658Y-23176841D02*
X10110658Y-23138746D01*
X10110658Y-23138746D02*
X10101134Y-23091127D01*
X10101134Y-23091127D02*
X10091611Y-23062555D01*
X10091611Y-23062555D02*
X10082087Y-23043508D01*
X10082087Y-23043508D02*
X10063039Y-23014936D01*
X10063039Y-23014936D02*
X10053515Y-23005412D01*
X10415420Y-23310174D02*
X10405896Y-23300650D01*
X10405896Y-23300650D02*
X10386849Y-23272079D01*
X10386849Y-23272079D02*
X10377325Y-23253031D01*
X10377325Y-23253031D02*
X10367801Y-23224460D01*
X10367801Y-23224460D02*
X10358277Y-23176841D01*
X10358277Y-23176841D02*
X10358277Y-23138746D01*
X10358277Y-23138746D02*
X10367801Y-23091127D01*
X10367801Y-23091127D02*
X10377325Y-23062555D01*
X10377325Y-23062555D02*
X10386849Y-23043508D01*
X10386849Y-23043508D02*
X10405896Y-23014936D01*
X10405896Y-23014936D02*
X10415420Y-23005412D01*
X10491611Y-23100650D02*
X10491611Y-23233984D01*
X10491611Y-23119698D02*
X10501134Y-23110174D01*
X10501134Y-23110174D02*
X10520182Y-23100650D01*
X10520182Y-23100650D02*
X10548754Y-23100650D01*
X10548754Y-23100650D02*
X10567801Y-23110174D01*
X10567801Y-23110174D02*
X10577325Y-23129222D01*
X10577325Y-23129222D02*
X10577325Y-23233984D01*
X10701134Y-23233984D02*
X10682087Y-23224460D01*
X10682087Y-23224460D02*
X10672563Y-23214936D01*
X10672563Y-23214936D02*
X10663039Y-23195888D01*
X10663039Y-23195888D02*
X10663039Y-23138746D01*
X10663039Y-23138746D02*
X10672563Y-23119698D01*
X10672563Y-23119698D02*
X10682087Y-23110174D01*
X10682087Y-23110174D02*
X10701134Y-23100650D01*
X10701134Y-23100650D02*
X10729706Y-23100650D01*
X10729706Y-23100650D02*
X10748754Y-23110174D01*
X10748754Y-23110174D02*
X10758277Y-23119698D01*
X10758277Y-23119698D02*
X10767801Y-23138746D01*
X10767801Y-23138746D02*
X10767801Y-23195888D01*
X10767801Y-23195888D02*
X10758277Y-23214936D01*
X10758277Y-23214936D02*
X10748754Y-23224460D01*
X10748754Y-23224460D02*
X10729706Y-23233984D01*
X10729706Y-23233984D02*
X10701134Y-23233984D01*
X10824944Y-23100650D02*
X10901134Y-23100650D01*
X10853515Y-23033984D02*
X10853515Y-23205412D01*
X10853515Y-23205412D02*
X10863039Y-23224460D01*
X10863039Y-23224460D02*
X10882087Y-23233984D01*
X10882087Y-23233984D02*
X10901134Y-23233984D01*
X11120182Y-23100650D02*
X11120182Y-23300650D01*
X11120182Y-23110174D02*
X11139230Y-23100650D01*
X11139230Y-23100650D02*
X11177325Y-23100650D01*
X11177325Y-23100650D02*
X11196373Y-23110174D01*
X11196373Y-23110174D02*
X11205896Y-23119698D01*
X11205896Y-23119698D02*
X11215420Y-23138746D01*
X11215420Y-23138746D02*
X11215420Y-23195888D01*
X11215420Y-23195888D02*
X11205896Y-23214936D01*
X11205896Y-23214936D02*
X11196373Y-23224460D01*
X11196373Y-23224460D02*
X11177325Y-23233984D01*
X11177325Y-23233984D02*
X11139230Y-23233984D01*
X11139230Y-23233984D02*
X11120182Y-23224460D01*
X11329706Y-23233984D02*
X11310658Y-23224460D01*
X11310658Y-23224460D02*
X11301134Y-23205412D01*
X11301134Y-23205412D02*
X11301134Y-23033984D01*
X11491611Y-23233984D02*
X11491611Y-23129222D01*
X11491611Y-23129222D02*
X11482087Y-23110174D01*
X11482087Y-23110174D02*
X11463039Y-23100650D01*
X11463039Y-23100650D02*
X11424944Y-23100650D01*
X11424944Y-23100650D02*
X11405896Y-23110174D01*
X11491611Y-23224460D02*
X11472563Y-23233984D01*
X11472563Y-23233984D02*
X11424944Y-23233984D01*
X11424944Y-23233984D02*
X11405896Y-23224460D01*
X11405896Y-23224460D02*
X11396373Y-23205412D01*
X11396373Y-23205412D02*
X11396373Y-23186365D01*
X11396373Y-23186365D02*
X11405896Y-23167317D01*
X11405896Y-23167317D02*
X11424944Y-23157793D01*
X11424944Y-23157793D02*
X11472563Y-23157793D01*
X11472563Y-23157793D02*
X11491611Y-23148269D01*
X11558277Y-23100650D02*
X11634468Y-23100650D01*
X11586849Y-23033984D02*
X11586849Y-23205412D01*
X11586849Y-23205412D02*
X11596373Y-23224460D01*
X11596373Y-23224460D02*
X11615420Y-23233984D01*
X11615420Y-23233984D02*
X11634468Y-23233984D01*
X11777325Y-23224460D02*
X11758277Y-23233984D01*
X11758277Y-23233984D02*
X11720182Y-23233984D01*
X11720182Y-23233984D02*
X11701134Y-23224460D01*
X11701134Y-23224460D02*
X11691611Y-23205412D01*
X11691611Y-23205412D02*
X11691611Y-23129222D01*
X11691611Y-23129222D02*
X11701134Y-23110174D01*
X11701134Y-23110174D02*
X11720182Y-23100650D01*
X11720182Y-23100650D02*
X11758277Y-23100650D01*
X11758277Y-23100650D02*
X11777325Y-23110174D01*
X11777325Y-23110174D02*
X11786849Y-23129222D01*
X11786849Y-23129222D02*
X11786849Y-23148269D01*
X11786849Y-23148269D02*
X11691611Y-23167317D01*
X11958277Y-23233984D02*
X11958277Y-23033984D01*
X11958277Y-23224460D02*
X11939230Y-23233984D01*
X11939230Y-23233984D02*
X11901134Y-23233984D01*
X11901134Y-23233984D02*
X11882087Y-23224460D01*
X11882087Y-23224460D02*
X11872563Y-23214936D01*
X11872563Y-23214936D02*
X11863039Y-23195888D01*
X11863039Y-23195888D02*
X11863039Y-23138746D01*
X11863039Y-23138746D02*
X11872563Y-23119698D01*
X11872563Y-23119698D02*
X11882087Y-23110174D01*
X11882087Y-23110174D02*
X11901134Y-23100650D01*
X11901134Y-23100650D02*
X11939230Y-23100650D01*
X11939230Y-23100650D02*
X11958277Y-23110174D01*
X12034468Y-23310174D02*
X12043992Y-23300650D01*
X12043992Y-23300650D02*
X12063039Y-23272079D01*
X12063039Y-23272079D02*
X12072563Y-23253031D01*
X12072563Y-23253031D02*
X12082087Y-23224460D01*
X12082087Y-23224460D02*
X12091611Y-23176841D01*
X12091611Y-23176841D02*
X12091611Y-23138746D01*
X12091611Y-23138746D02*
X12082087Y-23091127D01*
X12082087Y-23091127D02*
X12072563Y-23062555D01*
X12072563Y-23062555D02*
X12063039Y-23043508D01*
X12063039Y-23043508D02*
X12043992Y-23014936D01*
X12043992Y-23014936D02*
X12034468Y-23005412D01*
D14*
X4897500Y-23406500D02*
G75*
G02*
X4747640Y-23406500I-74930J0D01*
G01*
X4747640Y-23406500D02*
G75*
G02*
X4897500Y-23406500I74930J0D01*
G01*
D12*
X5263039Y-23497984D02*
X5148753Y-23497984D01*
X5205896Y-23497984D02*
X5205896Y-23297984D01*
X5205896Y-23297984D02*
X5186848Y-23326555D01*
X5186848Y-23326555D02*
X5167801Y-23345603D01*
X5167801Y-23345603D02*
X5148753Y-23355127D01*
X5348753Y-23478936D02*
X5358277Y-23488460D01*
X5358277Y-23488460D02*
X5348753Y-23497984D01*
X5348753Y-23497984D02*
X5339229Y-23488460D01*
X5339229Y-23488460D02*
X5348753Y-23478936D01*
X5348753Y-23478936D02*
X5348753Y-23497984D01*
X5529705Y-23364650D02*
X5529705Y-23497984D01*
X5482086Y-23288460D02*
X5434467Y-23431317D01*
X5434467Y-23431317D02*
X5558277Y-23431317D01*
X5643991Y-23497984D02*
X5682086Y-23497984D01*
X5682086Y-23497984D02*
X5701134Y-23488460D01*
X5701134Y-23488460D02*
X5710658Y-23478936D01*
X5710658Y-23478936D02*
X5729705Y-23450365D01*
X5729705Y-23450365D02*
X5739229Y-23412269D01*
X5739229Y-23412269D02*
X5739229Y-23336079D01*
X5739229Y-23336079D02*
X5729705Y-23317031D01*
X5729705Y-23317031D02*
X5720182Y-23307508D01*
X5720182Y-23307508D02*
X5701134Y-23297984D01*
X5701134Y-23297984D02*
X5663039Y-23297984D01*
X5663039Y-23297984D02*
X5643991Y-23307508D01*
X5643991Y-23307508D02*
X5634467Y-23317031D01*
X5634467Y-23317031D02*
X5624943Y-23336079D01*
X5624943Y-23336079D02*
X5624943Y-23383698D01*
X5624943Y-23383698D02*
X5634467Y-23402746D01*
X5634467Y-23402746D02*
X5643991Y-23412269D01*
X5643991Y-23412269D02*
X5663039Y-23421793D01*
X5663039Y-23421793D02*
X5701134Y-23421793D01*
X5701134Y-23421793D02*
X5720182Y-23412269D01*
X5720182Y-23412269D02*
X5729705Y-23402746D01*
X5729705Y-23402746D02*
X5739229Y-23383698D01*
X5834467Y-23497984D02*
X5872562Y-23497984D01*
X5872562Y-23497984D02*
X5891610Y-23488460D01*
X5891610Y-23488460D02*
X5901134Y-23478936D01*
X5901134Y-23478936D02*
X5920182Y-23450365D01*
X5920182Y-23450365D02*
X5929705Y-23412269D01*
X5929705Y-23412269D02*
X5929705Y-23336079D01*
X5929705Y-23336079D02*
X5920182Y-23317031D01*
X5920182Y-23317031D02*
X5910658Y-23307508D01*
X5910658Y-23307508D02*
X5891610Y-23297984D01*
X5891610Y-23297984D02*
X5853515Y-23297984D01*
X5853515Y-23297984D02*
X5834467Y-23307508D01*
X5834467Y-23307508D02*
X5824943Y-23317031D01*
X5824943Y-23317031D02*
X5815420Y-23336079D01*
X5815420Y-23336079D02*
X5815420Y-23383698D01*
X5815420Y-23383698D02*
X5824943Y-23402746D01*
X5824943Y-23402746D02*
X5834467Y-23412269D01*
X5834467Y-23412269D02*
X5853515Y-23421793D01*
X5853515Y-23421793D02*
X5891610Y-23421793D01*
X5891610Y-23421793D02*
X5910658Y-23412269D01*
X5910658Y-23412269D02*
X5920182Y-23402746D01*
X5920182Y-23402746D02*
X5929705Y-23383698D01*
X6015420Y-23497984D02*
X6015420Y-23364650D01*
X6015420Y-23383698D02*
X6024943Y-23374174D01*
X6024943Y-23374174D02*
X6043991Y-23364650D01*
X6043991Y-23364650D02*
X6072563Y-23364650D01*
X6072563Y-23364650D02*
X6091610Y-23374174D01*
X6091610Y-23374174D02*
X6101134Y-23393222D01*
X6101134Y-23393222D02*
X6101134Y-23497984D01*
X6101134Y-23393222D02*
X6110658Y-23374174D01*
X6110658Y-23374174D02*
X6129705Y-23364650D01*
X6129705Y-23364650D02*
X6158277Y-23364650D01*
X6158277Y-23364650D02*
X6177324Y-23374174D01*
X6177324Y-23374174D02*
X6186848Y-23393222D01*
X6186848Y-23393222D02*
X6186848Y-23497984D01*
X6282086Y-23497984D02*
X6282086Y-23364650D01*
X6282086Y-23383698D02*
X6291610Y-23374174D01*
X6291610Y-23374174D02*
X6310658Y-23364650D01*
X6310658Y-23364650D02*
X6339229Y-23364650D01*
X6339229Y-23364650D02*
X6358277Y-23374174D01*
X6358277Y-23374174D02*
X6367801Y-23393222D01*
X6367801Y-23393222D02*
X6367801Y-23497984D01*
X6367801Y-23393222D02*
X6377324Y-23374174D01*
X6377324Y-23374174D02*
X6396372Y-23364650D01*
X6396372Y-23364650D02*
X6424943Y-23364650D01*
X6424943Y-23364650D02*
X6443991Y-23374174D01*
X6443991Y-23374174D02*
X6453515Y-23393222D01*
X6453515Y-23393222D02*
X6453515Y-23497984D01*
X6843991Y-23288460D02*
X6672563Y-23545603D01*
X7101134Y-23297984D02*
X7120182Y-23297984D01*
X7120182Y-23297984D02*
X7139229Y-23307508D01*
X7139229Y-23307508D02*
X7148753Y-23317031D01*
X7148753Y-23317031D02*
X7158277Y-23336079D01*
X7158277Y-23336079D02*
X7167801Y-23374174D01*
X7167801Y-23374174D02*
X7167801Y-23421793D01*
X7167801Y-23421793D02*
X7158277Y-23459888D01*
X7158277Y-23459888D02*
X7148753Y-23478936D01*
X7148753Y-23478936D02*
X7139229Y-23488460D01*
X7139229Y-23488460D02*
X7120182Y-23497984D01*
X7120182Y-23497984D02*
X7101134Y-23497984D01*
X7101134Y-23497984D02*
X7082086Y-23488460D01*
X7082086Y-23488460D02*
X7072563Y-23478936D01*
X7072563Y-23478936D02*
X7063039Y-23459888D01*
X7063039Y-23459888D02*
X7053515Y-23421793D01*
X7053515Y-23421793D02*
X7053515Y-23374174D01*
X7053515Y-23374174D02*
X7063039Y-23336079D01*
X7063039Y-23336079D02*
X7072563Y-23317031D01*
X7072563Y-23317031D02*
X7082086Y-23307508D01*
X7082086Y-23307508D02*
X7101134Y-23297984D01*
X7253515Y-23478936D02*
X7263039Y-23488460D01*
X7263039Y-23488460D02*
X7253515Y-23497984D01*
X7253515Y-23497984D02*
X7243991Y-23488460D01*
X7243991Y-23488460D02*
X7253515Y-23478936D01*
X7253515Y-23478936D02*
X7253515Y-23497984D01*
X7386848Y-23297984D02*
X7405896Y-23297984D01*
X7405896Y-23297984D02*
X7424944Y-23307508D01*
X7424944Y-23307508D02*
X7434467Y-23317031D01*
X7434467Y-23317031D02*
X7443991Y-23336079D01*
X7443991Y-23336079D02*
X7453515Y-23374174D01*
X7453515Y-23374174D02*
X7453515Y-23421793D01*
X7453515Y-23421793D02*
X7443991Y-23459888D01*
X7443991Y-23459888D02*
X7434467Y-23478936D01*
X7434467Y-23478936D02*
X7424944Y-23488460D01*
X7424944Y-23488460D02*
X7405896Y-23497984D01*
X7405896Y-23497984D02*
X7386848Y-23497984D01*
X7386848Y-23497984D02*
X7367801Y-23488460D01*
X7367801Y-23488460D02*
X7358277Y-23478936D01*
X7358277Y-23478936D02*
X7348753Y-23459888D01*
X7348753Y-23459888D02*
X7339229Y-23421793D01*
X7339229Y-23421793D02*
X7339229Y-23374174D01*
X7339229Y-23374174D02*
X7348753Y-23336079D01*
X7348753Y-23336079D02*
X7358277Y-23317031D01*
X7358277Y-23317031D02*
X7367801Y-23307508D01*
X7367801Y-23307508D02*
X7386848Y-23297984D01*
X7634467Y-23297984D02*
X7539229Y-23297984D01*
X7539229Y-23297984D02*
X7529706Y-23393222D01*
X7529706Y-23393222D02*
X7539229Y-23383698D01*
X7539229Y-23383698D02*
X7558277Y-23374174D01*
X7558277Y-23374174D02*
X7605896Y-23374174D01*
X7605896Y-23374174D02*
X7624944Y-23383698D01*
X7624944Y-23383698D02*
X7634467Y-23393222D01*
X7634467Y-23393222D02*
X7643991Y-23412269D01*
X7643991Y-23412269D02*
X7643991Y-23459888D01*
X7643991Y-23459888D02*
X7634467Y-23478936D01*
X7634467Y-23478936D02*
X7624944Y-23488460D01*
X7624944Y-23488460D02*
X7605896Y-23497984D01*
X7605896Y-23497984D02*
X7558277Y-23497984D01*
X7558277Y-23497984D02*
X7539229Y-23488460D01*
X7539229Y-23488460D02*
X7529706Y-23478936D01*
X7739229Y-23497984D02*
X7777325Y-23497984D01*
X7777325Y-23497984D02*
X7796372Y-23488460D01*
X7796372Y-23488460D02*
X7805896Y-23478936D01*
X7805896Y-23478936D02*
X7824944Y-23450365D01*
X7824944Y-23450365D02*
X7834467Y-23412269D01*
X7834467Y-23412269D02*
X7834467Y-23336079D01*
X7834467Y-23336079D02*
X7824944Y-23317031D01*
X7824944Y-23317031D02*
X7815420Y-23307508D01*
X7815420Y-23307508D02*
X7796372Y-23297984D01*
X7796372Y-23297984D02*
X7758277Y-23297984D01*
X7758277Y-23297984D02*
X7739229Y-23307508D01*
X7739229Y-23307508D02*
X7729706Y-23317031D01*
X7729706Y-23317031D02*
X7720182Y-23336079D01*
X7720182Y-23336079D02*
X7720182Y-23383698D01*
X7720182Y-23383698D02*
X7729706Y-23402746D01*
X7729706Y-23402746D02*
X7739229Y-23412269D01*
X7739229Y-23412269D02*
X7758277Y-23421793D01*
X7758277Y-23421793D02*
X7796372Y-23421793D01*
X7796372Y-23421793D02*
X7815420Y-23412269D01*
X7815420Y-23412269D02*
X7824944Y-23402746D01*
X7824944Y-23402746D02*
X7834467Y-23383698D01*
X7958277Y-23297984D02*
X7977325Y-23297984D01*
X7977325Y-23297984D02*
X7996372Y-23307508D01*
X7996372Y-23307508D02*
X8005896Y-23317031D01*
X8005896Y-23317031D02*
X8015420Y-23336079D01*
X8015420Y-23336079D02*
X8024944Y-23374174D01*
X8024944Y-23374174D02*
X8024944Y-23421793D01*
X8024944Y-23421793D02*
X8015420Y-23459888D01*
X8015420Y-23459888D02*
X8005896Y-23478936D01*
X8005896Y-23478936D02*
X7996372Y-23488460D01*
X7996372Y-23488460D02*
X7977325Y-23497984D01*
X7977325Y-23497984D02*
X7958277Y-23497984D01*
X7958277Y-23497984D02*
X7939229Y-23488460D01*
X7939229Y-23488460D02*
X7929706Y-23478936D01*
X7929706Y-23478936D02*
X7920182Y-23459888D01*
X7920182Y-23459888D02*
X7910658Y-23421793D01*
X7910658Y-23421793D02*
X7910658Y-23374174D01*
X7910658Y-23374174D02*
X7920182Y-23336079D01*
X7920182Y-23336079D02*
X7929706Y-23317031D01*
X7929706Y-23317031D02*
X7939229Y-23307508D01*
X7939229Y-23307508D02*
X7958277Y-23297984D01*
X8101134Y-23297984D02*
X8101134Y-23336079D01*
X8177325Y-23297984D02*
X8177325Y-23336079D01*
X8472563Y-23574174D02*
X8463039Y-23564650D01*
X8463039Y-23564650D02*
X8443991Y-23536079D01*
X8443991Y-23536079D02*
X8434468Y-23517031D01*
X8434468Y-23517031D02*
X8424944Y-23488460D01*
X8424944Y-23488460D02*
X8415420Y-23440841D01*
X8415420Y-23440841D02*
X8415420Y-23402746D01*
X8415420Y-23402746D02*
X8424944Y-23355127D01*
X8424944Y-23355127D02*
X8434468Y-23326555D01*
X8434468Y-23326555D02*
X8443991Y-23307508D01*
X8443991Y-23307508D02*
X8463039Y-23278936D01*
X8463039Y-23278936D02*
X8472563Y-23269412D01*
X8577325Y-23383698D02*
X8558277Y-23374174D01*
X8558277Y-23374174D02*
X8548753Y-23364650D01*
X8548753Y-23364650D02*
X8539230Y-23345603D01*
X8539230Y-23345603D02*
X8539230Y-23336079D01*
X8539230Y-23336079D02*
X8548753Y-23317031D01*
X8548753Y-23317031D02*
X8558277Y-23307508D01*
X8558277Y-23307508D02*
X8577325Y-23297984D01*
X8577325Y-23297984D02*
X8615420Y-23297984D01*
X8615420Y-23297984D02*
X8634468Y-23307508D01*
X8634468Y-23307508D02*
X8643991Y-23317031D01*
X8643991Y-23317031D02*
X8653515Y-23336079D01*
X8653515Y-23336079D02*
X8653515Y-23345603D01*
X8653515Y-23345603D02*
X8643991Y-23364650D01*
X8643991Y-23364650D02*
X8634468Y-23374174D01*
X8634468Y-23374174D02*
X8615420Y-23383698D01*
X8615420Y-23383698D02*
X8577325Y-23383698D01*
X8577325Y-23383698D02*
X8558277Y-23393222D01*
X8558277Y-23393222D02*
X8548753Y-23402746D01*
X8548753Y-23402746D02*
X8539230Y-23421793D01*
X8539230Y-23421793D02*
X8539230Y-23459888D01*
X8539230Y-23459888D02*
X8548753Y-23478936D01*
X8548753Y-23478936D02*
X8558277Y-23488460D01*
X8558277Y-23488460D02*
X8577325Y-23497984D01*
X8577325Y-23497984D02*
X8615420Y-23497984D01*
X8615420Y-23497984D02*
X8634468Y-23488460D01*
X8634468Y-23488460D02*
X8643991Y-23478936D01*
X8643991Y-23478936D02*
X8653515Y-23459888D01*
X8653515Y-23459888D02*
X8653515Y-23421793D01*
X8653515Y-23421793D02*
X8643991Y-23402746D01*
X8643991Y-23402746D02*
X8634468Y-23393222D01*
X8634468Y-23393222D02*
X8615420Y-23383698D01*
X8777325Y-23297984D02*
X8796372Y-23297984D01*
X8796372Y-23297984D02*
X8815420Y-23307508D01*
X8815420Y-23307508D02*
X8824944Y-23317031D01*
X8824944Y-23317031D02*
X8834468Y-23336079D01*
X8834468Y-23336079D02*
X8843991Y-23374174D01*
X8843991Y-23374174D02*
X8843991Y-23421793D01*
X8843991Y-23421793D02*
X8834468Y-23459888D01*
X8834468Y-23459888D02*
X8824944Y-23478936D01*
X8824944Y-23478936D02*
X8815420Y-23488460D01*
X8815420Y-23488460D02*
X8796372Y-23497984D01*
X8796372Y-23497984D02*
X8777325Y-23497984D01*
X8777325Y-23497984D02*
X8758277Y-23488460D01*
X8758277Y-23488460D02*
X8748753Y-23478936D01*
X8748753Y-23478936D02*
X8739230Y-23459888D01*
X8739230Y-23459888D02*
X8729706Y-23421793D01*
X8729706Y-23421793D02*
X8729706Y-23374174D01*
X8729706Y-23374174D02*
X8739230Y-23336079D01*
X8739230Y-23336079D02*
X8748753Y-23317031D01*
X8748753Y-23317031D02*
X8758277Y-23307508D01*
X8758277Y-23307508D02*
X8777325Y-23297984D01*
X9082087Y-23497984D02*
X9082087Y-23297984D01*
X9167801Y-23497984D02*
X9167801Y-23393222D01*
X9167801Y-23393222D02*
X9158277Y-23374174D01*
X9158277Y-23374174D02*
X9139230Y-23364650D01*
X9139230Y-23364650D02*
X9110658Y-23364650D01*
X9110658Y-23364650D02*
X9091611Y-23374174D01*
X9091611Y-23374174D02*
X9082087Y-23383698D01*
X9291611Y-23497984D02*
X9272563Y-23488460D01*
X9272563Y-23488460D02*
X9263039Y-23478936D01*
X9263039Y-23478936D02*
X9253515Y-23459888D01*
X9253515Y-23459888D02*
X9253515Y-23402746D01*
X9253515Y-23402746D02*
X9263039Y-23383698D01*
X9263039Y-23383698D02*
X9272563Y-23374174D01*
X9272563Y-23374174D02*
X9291611Y-23364650D01*
X9291611Y-23364650D02*
X9320182Y-23364650D01*
X9320182Y-23364650D02*
X9339230Y-23374174D01*
X9339230Y-23374174D02*
X9348753Y-23383698D01*
X9348753Y-23383698D02*
X9358277Y-23402746D01*
X9358277Y-23402746D02*
X9358277Y-23459888D01*
X9358277Y-23459888D02*
X9348753Y-23478936D01*
X9348753Y-23478936D02*
X9339230Y-23488460D01*
X9339230Y-23488460D02*
X9320182Y-23497984D01*
X9320182Y-23497984D02*
X9291611Y-23497984D01*
X9472563Y-23497984D02*
X9453515Y-23488460D01*
X9453515Y-23488460D02*
X9443992Y-23469412D01*
X9443992Y-23469412D02*
X9443992Y-23297984D01*
X9624944Y-23488460D02*
X9605896Y-23497984D01*
X9605896Y-23497984D02*
X9567801Y-23497984D01*
X9567801Y-23497984D02*
X9548753Y-23488460D01*
X9548753Y-23488460D02*
X9539230Y-23469412D01*
X9539230Y-23469412D02*
X9539230Y-23393222D01*
X9539230Y-23393222D02*
X9548753Y-23374174D01*
X9548753Y-23374174D02*
X9567801Y-23364650D01*
X9567801Y-23364650D02*
X9605896Y-23364650D01*
X9605896Y-23364650D02*
X9624944Y-23374174D01*
X9624944Y-23374174D02*
X9634468Y-23393222D01*
X9634468Y-23393222D02*
X9634468Y-23412269D01*
X9634468Y-23412269D02*
X9539230Y-23431317D01*
X9710658Y-23488460D02*
X9729706Y-23497984D01*
X9729706Y-23497984D02*
X9767801Y-23497984D01*
X9767801Y-23497984D02*
X9786849Y-23488460D01*
X9786849Y-23488460D02*
X9796373Y-23469412D01*
X9796373Y-23469412D02*
X9796373Y-23459888D01*
X9796373Y-23459888D02*
X9786849Y-23440841D01*
X9786849Y-23440841D02*
X9767801Y-23431317D01*
X9767801Y-23431317D02*
X9739230Y-23431317D01*
X9739230Y-23431317D02*
X9720182Y-23421793D01*
X9720182Y-23421793D02*
X9710658Y-23402746D01*
X9710658Y-23402746D02*
X9710658Y-23393222D01*
X9710658Y-23393222D02*
X9720182Y-23374174D01*
X9720182Y-23374174D02*
X9739230Y-23364650D01*
X9739230Y-23364650D02*
X9767801Y-23364650D01*
X9767801Y-23364650D02*
X9786849Y-23374174D01*
X9863039Y-23574174D02*
X9872563Y-23564650D01*
X9872563Y-23564650D02*
X9891611Y-23536079D01*
X9891611Y-23536079D02*
X9901134Y-23517031D01*
X9901134Y-23517031D02*
X9910658Y-23488460D01*
X9910658Y-23488460D02*
X9920182Y-23440841D01*
X9920182Y-23440841D02*
X9920182Y-23402746D01*
X9920182Y-23402746D02*
X9910658Y-23355127D01*
X9910658Y-23355127D02*
X9901134Y-23326555D01*
X9901134Y-23326555D02*
X9891611Y-23307508D01*
X9891611Y-23307508D02*
X9872563Y-23278936D01*
X9872563Y-23278936D02*
X9863039Y-23269412D01*
X10224944Y-23574174D02*
X10215420Y-23564650D01*
X10215420Y-23564650D02*
X10196373Y-23536079D01*
X10196373Y-23536079D02*
X10186849Y-23517031D01*
X10186849Y-23517031D02*
X10177325Y-23488460D01*
X10177325Y-23488460D02*
X10167801Y-23440841D01*
X10167801Y-23440841D02*
X10167801Y-23402746D01*
X10167801Y-23402746D02*
X10177325Y-23355127D01*
X10177325Y-23355127D02*
X10186849Y-23326555D01*
X10186849Y-23326555D02*
X10196373Y-23307508D01*
X10196373Y-23307508D02*
X10215420Y-23278936D01*
X10215420Y-23278936D02*
X10224944Y-23269412D01*
X10301134Y-23364650D02*
X10301134Y-23497984D01*
X10301134Y-23383698D02*
X10310658Y-23374174D01*
X10310658Y-23374174D02*
X10329706Y-23364650D01*
X10329706Y-23364650D02*
X10358277Y-23364650D01*
X10358277Y-23364650D02*
X10377325Y-23374174D01*
X10377325Y-23374174D02*
X10386849Y-23393222D01*
X10386849Y-23393222D02*
X10386849Y-23497984D01*
X10510658Y-23497984D02*
X10491611Y-23488460D01*
X10491611Y-23488460D02*
X10482087Y-23478936D01*
X10482087Y-23478936D02*
X10472563Y-23459888D01*
X10472563Y-23459888D02*
X10472563Y-23402746D01*
X10472563Y-23402746D02*
X10482087Y-23383698D01*
X10482087Y-23383698D02*
X10491611Y-23374174D01*
X10491611Y-23374174D02*
X10510658Y-23364650D01*
X10510658Y-23364650D02*
X10539230Y-23364650D01*
X10539230Y-23364650D02*
X10558277Y-23374174D01*
X10558277Y-23374174D02*
X10567801Y-23383698D01*
X10567801Y-23383698D02*
X10577325Y-23402746D01*
X10577325Y-23402746D02*
X10577325Y-23459888D01*
X10577325Y-23459888D02*
X10567801Y-23478936D01*
X10567801Y-23478936D02*
X10558277Y-23488460D01*
X10558277Y-23488460D02*
X10539230Y-23497984D01*
X10539230Y-23497984D02*
X10510658Y-23497984D01*
X10634468Y-23364650D02*
X10710658Y-23364650D01*
X10663039Y-23297984D02*
X10663039Y-23469412D01*
X10663039Y-23469412D02*
X10672563Y-23488460D01*
X10672563Y-23488460D02*
X10691611Y-23497984D01*
X10691611Y-23497984D02*
X10710658Y-23497984D01*
X10929706Y-23364650D02*
X10929706Y-23564650D01*
X10929706Y-23374174D02*
X10948754Y-23364650D01*
X10948754Y-23364650D02*
X10986849Y-23364650D01*
X10986849Y-23364650D02*
X11005896Y-23374174D01*
X11005896Y-23374174D02*
X11015420Y-23383698D01*
X11015420Y-23383698D02*
X11024944Y-23402746D01*
X11024944Y-23402746D02*
X11024944Y-23459888D01*
X11024944Y-23459888D02*
X11015420Y-23478936D01*
X11015420Y-23478936D02*
X11005896Y-23488460D01*
X11005896Y-23488460D02*
X10986849Y-23497984D01*
X10986849Y-23497984D02*
X10948754Y-23497984D01*
X10948754Y-23497984D02*
X10929706Y-23488460D01*
X11139230Y-23497984D02*
X11120182Y-23488460D01*
X11120182Y-23488460D02*
X11110658Y-23469412D01*
X11110658Y-23469412D02*
X11110658Y-23297984D01*
X11301134Y-23497984D02*
X11301134Y-23393222D01*
X11301134Y-23393222D02*
X11291611Y-23374174D01*
X11291611Y-23374174D02*
X11272563Y-23364650D01*
X11272563Y-23364650D02*
X11234468Y-23364650D01*
X11234468Y-23364650D02*
X11215420Y-23374174D01*
X11301134Y-23488460D02*
X11282087Y-23497984D01*
X11282087Y-23497984D02*
X11234468Y-23497984D01*
X11234468Y-23497984D02*
X11215420Y-23488460D01*
X11215420Y-23488460D02*
X11205896Y-23469412D01*
X11205896Y-23469412D02*
X11205896Y-23450365D01*
X11205896Y-23450365D02*
X11215420Y-23431317D01*
X11215420Y-23431317D02*
X11234468Y-23421793D01*
X11234468Y-23421793D02*
X11282087Y-23421793D01*
X11282087Y-23421793D02*
X11301134Y-23412269D01*
X11367801Y-23364650D02*
X11443992Y-23364650D01*
X11396373Y-23297984D02*
X11396373Y-23469412D01*
X11396373Y-23469412D02*
X11405896Y-23488460D01*
X11405896Y-23488460D02*
X11424944Y-23497984D01*
X11424944Y-23497984D02*
X11443992Y-23497984D01*
X11586849Y-23488460D02*
X11567801Y-23497984D01*
X11567801Y-23497984D02*
X11529706Y-23497984D01*
X11529706Y-23497984D02*
X11510658Y-23488460D01*
X11510658Y-23488460D02*
X11501134Y-23469412D01*
X11501134Y-23469412D02*
X11501134Y-23393222D01*
X11501134Y-23393222D02*
X11510658Y-23374174D01*
X11510658Y-23374174D02*
X11529706Y-23364650D01*
X11529706Y-23364650D02*
X11567801Y-23364650D01*
X11567801Y-23364650D02*
X11586849Y-23374174D01*
X11586849Y-23374174D02*
X11596373Y-23393222D01*
X11596373Y-23393222D02*
X11596373Y-23412269D01*
X11596373Y-23412269D02*
X11501134Y-23431317D01*
X11767801Y-23497984D02*
X11767801Y-23297984D01*
X11767801Y-23488460D02*
X11748754Y-23497984D01*
X11748754Y-23497984D02*
X11710658Y-23497984D01*
X11710658Y-23497984D02*
X11691611Y-23488460D01*
X11691611Y-23488460D02*
X11682087Y-23478936D01*
X11682087Y-23478936D02*
X11672563Y-23459888D01*
X11672563Y-23459888D02*
X11672563Y-23402746D01*
X11672563Y-23402746D02*
X11682087Y-23383698D01*
X11682087Y-23383698D02*
X11691611Y-23374174D01*
X11691611Y-23374174D02*
X11710658Y-23364650D01*
X11710658Y-23364650D02*
X11748754Y-23364650D01*
X11748754Y-23364650D02*
X11767801Y-23374174D01*
X11843992Y-23574174D02*
X11853515Y-23564650D01*
X11853515Y-23564650D02*
X11872563Y-23536079D01*
X11872563Y-23536079D02*
X11882087Y-23517031D01*
X11882087Y-23517031D02*
X11891611Y-23488460D01*
X11891611Y-23488460D02*
X11901134Y-23440841D01*
X11901134Y-23440841D02*
X11901134Y-23402746D01*
X11901134Y-23402746D02*
X11891611Y-23355127D01*
X11891611Y-23355127D02*
X11882087Y-23326555D01*
X11882087Y-23326555D02*
X11872563Y-23307508D01*
X11872563Y-23307508D02*
X11853515Y-23278936D01*
X11853515Y-23278936D02*
X11843992Y-23269412D01*
D15*
X4817500Y-23596360D02*
X4817500Y-23756360D01*
X4737500Y-23676360D02*
X4897500Y-23676360D01*
D12*
X5263039Y-23767844D02*
X5148753Y-23767844D01*
X5205896Y-23767844D02*
X5205896Y-23567844D01*
X5205896Y-23567844D02*
X5186848Y-23596415D01*
X5186848Y-23596415D02*
X5167801Y-23615463D01*
X5167801Y-23615463D02*
X5148753Y-23624987D01*
X5348753Y-23748796D02*
X5358277Y-23758320D01*
X5358277Y-23758320D02*
X5348753Y-23767844D01*
X5348753Y-23767844D02*
X5339229Y-23758320D01*
X5339229Y-23758320D02*
X5348753Y-23748796D01*
X5348753Y-23748796D02*
X5348753Y-23767844D01*
X5529705Y-23567844D02*
X5491610Y-23567844D01*
X5491610Y-23567844D02*
X5472563Y-23577368D01*
X5472563Y-23577368D02*
X5463039Y-23586891D01*
X5463039Y-23586891D02*
X5443991Y-23615463D01*
X5443991Y-23615463D02*
X5434467Y-23653558D01*
X5434467Y-23653558D02*
X5434467Y-23729748D01*
X5434467Y-23729748D02*
X5443991Y-23748796D01*
X5443991Y-23748796D02*
X5453515Y-23758320D01*
X5453515Y-23758320D02*
X5472563Y-23767844D01*
X5472563Y-23767844D02*
X5510658Y-23767844D01*
X5510658Y-23767844D02*
X5529705Y-23758320D01*
X5529705Y-23758320D02*
X5539229Y-23748796D01*
X5539229Y-23748796D02*
X5548753Y-23729748D01*
X5548753Y-23729748D02*
X5548753Y-23682129D01*
X5548753Y-23682129D02*
X5539229Y-23663082D01*
X5539229Y-23663082D02*
X5529705Y-23653558D01*
X5529705Y-23653558D02*
X5510658Y-23644034D01*
X5510658Y-23644034D02*
X5472563Y-23644034D01*
X5472563Y-23644034D02*
X5453515Y-23653558D01*
X5453515Y-23653558D02*
X5443991Y-23663082D01*
X5443991Y-23663082D02*
X5434467Y-23682129D01*
X5672562Y-23567844D02*
X5691610Y-23567844D01*
X5691610Y-23567844D02*
X5710658Y-23577368D01*
X5710658Y-23577368D02*
X5720182Y-23586891D01*
X5720182Y-23586891D02*
X5729705Y-23605939D01*
X5729705Y-23605939D02*
X5739229Y-23644034D01*
X5739229Y-23644034D02*
X5739229Y-23691653D01*
X5739229Y-23691653D02*
X5729705Y-23729748D01*
X5729705Y-23729748D02*
X5720182Y-23748796D01*
X5720182Y-23748796D02*
X5710658Y-23758320D01*
X5710658Y-23758320D02*
X5691610Y-23767844D01*
X5691610Y-23767844D02*
X5672562Y-23767844D01*
X5672562Y-23767844D02*
X5653515Y-23758320D01*
X5653515Y-23758320D02*
X5643991Y-23748796D01*
X5643991Y-23748796D02*
X5634467Y-23729748D01*
X5634467Y-23729748D02*
X5624943Y-23691653D01*
X5624943Y-23691653D02*
X5624943Y-23644034D01*
X5624943Y-23644034D02*
X5634467Y-23605939D01*
X5634467Y-23605939D02*
X5643991Y-23586891D01*
X5643991Y-23586891D02*
X5653515Y-23577368D01*
X5653515Y-23577368D02*
X5672562Y-23567844D01*
X5863039Y-23567844D02*
X5882086Y-23567844D01*
X5882086Y-23567844D02*
X5901134Y-23577368D01*
X5901134Y-23577368D02*
X5910658Y-23586891D01*
X5910658Y-23586891D02*
X5920182Y-23605939D01*
X5920182Y-23605939D02*
X5929705Y-23644034D01*
X5929705Y-23644034D02*
X5929705Y-23691653D01*
X5929705Y-23691653D02*
X5920182Y-23729748D01*
X5920182Y-23729748D02*
X5910658Y-23748796D01*
X5910658Y-23748796D02*
X5901134Y-23758320D01*
X5901134Y-23758320D02*
X5882086Y-23767844D01*
X5882086Y-23767844D02*
X5863039Y-23767844D01*
X5863039Y-23767844D02*
X5843991Y-23758320D01*
X5843991Y-23758320D02*
X5834467Y-23748796D01*
X5834467Y-23748796D02*
X5824943Y-23729748D01*
X5824943Y-23729748D02*
X5815420Y-23691653D01*
X5815420Y-23691653D02*
X5815420Y-23644034D01*
X5815420Y-23644034D02*
X5824943Y-23605939D01*
X5824943Y-23605939D02*
X5834467Y-23586891D01*
X5834467Y-23586891D02*
X5843991Y-23577368D01*
X5843991Y-23577368D02*
X5863039Y-23567844D01*
X6015420Y-23767844D02*
X6015420Y-23634510D01*
X6015420Y-23653558D02*
X6024943Y-23644034D01*
X6024943Y-23644034D02*
X6043991Y-23634510D01*
X6043991Y-23634510D02*
X6072563Y-23634510D01*
X6072563Y-23634510D02*
X6091610Y-23644034D01*
X6091610Y-23644034D02*
X6101134Y-23663082D01*
X6101134Y-23663082D02*
X6101134Y-23767844D01*
X6101134Y-23663082D02*
X6110658Y-23644034D01*
X6110658Y-23644034D02*
X6129705Y-23634510D01*
X6129705Y-23634510D02*
X6158277Y-23634510D01*
X6158277Y-23634510D02*
X6177324Y-23644034D01*
X6177324Y-23644034D02*
X6186848Y-23663082D01*
X6186848Y-23663082D02*
X6186848Y-23767844D01*
X6282086Y-23767844D02*
X6282086Y-23634510D01*
X6282086Y-23653558D02*
X6291610Y-23644034D01*
X6291610Y-23644034D02*
X6310658Y-23634510D01*
X6310658Y-23634510D02*
X6339229Y-23634510D01*
X6339229Y-23634510D02*
X6358277Y-23644034D01*
X6358277Y-23644034D02*
X6367801Y-23663082D01*
X6367801Y-23663082D02*
X6367801Y-23767844D01*
X6367801Y-23663082D02*
X6377324Y-23644034D01*
X6377324Y-23644034D02*
X6396372Y-23634510D01*
X6396372Y-23634510D02*
X6424943Y-23634510D01*
X6424943Y-23634510D02*
X6443991Y-23644034D01*
X6443991Y-23644034D02*
X6453515Y-23663082D01*
X6453515Y-23663082D02*
X6453515Y-23767844D01*
X6843991Y-23558320D02*
X6672563Y-23815463D01*
X7101134Y-23567844D02*
X7120182Y-23567844D01*
X7120182Y-23567844D02*
X7139229Y-23577368D01*
X7139229Y-23577368D02*
X7148753Y-23586891D01*
X7148753Y-23586891D02*
X7158277Y-23605939D01*
X7158277Y-23605939D02*
X7167801Y-23644034D01*
X7167801Y-23644034D02*
X7167801Y-23691653D01*
X7167801Y-23691653D02*
X7158277Y-23729748D01*
X7158277Y-23729748D02*
X7148753Y-23748796D01*
X7148753Y-23748796D02*
X7139229Y-23758320D01*
X7139229Y-23758320D02*
X7120182Y-23767844D01*
X7120182Y-23767844D02*
X7101134Y-23767844D01*
X7101134Y-23767844D02*
X7082086Y-23758320D01*
X7082086Y-23758320D02*
X7072563Y-23748796D01*
X7072563Y-23748796D02*
X7063039Y-23729748D01*
X7063039Y-23729748D02*
X7053515Y-23691653D01*
X7053515Y-23691653D02*
X7053515Y-23644034D01*
X7053515Y-23644034D02*
X7063039Y-23605939D01*
X7063039Y-23605939D02*
X7072563Y-23586891D01*
X7072563Y-23586891D02*
X7082086Y-23577368D01*
X7082086Y-23577368D02*
X7101134Y-23567844D01*
X7253515Y-23748796D02*
X7263039Y-23758320D01*
X7263039Y-23758320D02*
X7253515Y-23767844D01*
X7253515Y-23767844D02*
X7243991Y-23758320D01*
X7243991Y-23758320D02*
X7253515Y-23748796D01*
X7253515Y-23748796D02*
X7253515Y-23767844D01*
X7386848Y-23567844D02*
X7405896Y-23567844D01*
X7405896Y-23567844D02*
X7424944Y-23577368D01*
X7424944Y-23577368D02*
X7434467Y-23586891D01*
X7434467Y-23586891D02*
X7443991Y-23605939D01*
X7443991Y-23605939D02*
X7453515Y-23644034D01*
X7453515Y-23644034D02*
X7453515Y-23691653D01*
X7453515Y-23691653D02*
X7443991Y-23729748D01*
X7443991Y-23729748D02*
X7434467Y-23748796D01*
X7434467Y-23748796D02*
X7424944Y-23758320D01*
X7424944Y-23758320D02*
X7405896Y-23767844D01*
X7405896Y-23767844D02*
X7386848Y-23767844D01*
X7386848Y-23767844D02*
X7367801Y-23758320D01*
X7367801Y-23758320D02*
X7358277Y-23748796D01*
X7358277Y-23748796D02*
X7348753Y-23729748D01*
X7348753Y-23729748D02*
X7339229Y-23691653D01*
X7339229Y-23691653D02*
X7339229Y-23644034D01*
X7339229Y-23644034D02*
X7348753Y-23605939D01*
X7348753Y-23605939D02*
X7358277Y-23586891D01*
X7358277Y-23586891D02*
X7367801Y-23577368D01*
X7367801Y-23577368D02*
X7386848Y-23567844D01*
X7624944Y-23567844D02*
X7586848Y-23567844D01*
X7586848Y-23567844D02*
X7567801Y-23577368D01*
X7567801Y-23577368D02*
X7558277Y-23586891D01*
X7558277Y-23586891D02*
X7539229Y-23615463D01*
X7539229Y-23615463D02*
X7529706Y-23653558D01*
X7529706Y-23653558D02*
X7529706Y-23729748D01*
X7529706Y-23729748D02*
X7539229Y-23748796D01*
X7539229Y-23748796D02*
X7548753Y-23758320D01*
X7548753Y-23758320D02*
X7567801Y-23767844D01*
X7567801Y-23767844D02*
X7605896Y-23767844D01*
X7605896Y-23767844D02*
X7624944Y-23758320D01*
X7624944Y-23758320D02*
X7634467Y-23748796D01*
X7634467Y-23748796D02*
X7643991Y-23729748D01*
X7643991Y-23729748D02*
X7643991Y-23682129D01*
X7643991Y-23682129D02*
X7634467Y-23663082D01*
X7634467Y-23663082D02*
X7624944Y-23653558D01*
X7624944Y-23653558D02*
X7605896Y-23644034D01*
X7605896Y-23644034D02*
X7567801Y-23644034D01*
X7567801Y-23644034D02*
X7548753Y-23653558D01*
X7548753Y-23653558D02*
X7539229Y-23663082D01*
X7539229Y-23663082D02*
X7529706Y-23682129D01*
X7710658Y-23567844D02*
X7834467Y-23567844D01*
X7834467Y-23567844D02*
X7767801Y-23644034D01*
X7767801Y-23644034D02*
X7796372Y-23644034D01*
X7796372Y-23644034D02*
X7815420Y-23653558D01*
X7815420Y-23653558D02*
X7824944Y-23663082D01*
X7824944Y-23663082D02*
X7834467Y-23682129D01*
X7834467Y-23682129D02*
X7834467Y-23729748D01*
X7834467Y-23729748D02*
X7824944Y-23748796D01*
X7824944Y-23748796D02*
X7815420Y-23758320D01*
X7815420Y-23758320D02*
X7796372Y-23767844D01*
X7796372Y-23767844D02*
X7739229Y-23767844D01*
X7739229Y-23767844D02*
X7720182Y-23758320D01*
X7720182Y-23758320D02*
X7710658Y-23748796D01*
X7958277Y-23567844D02*
X7977325Y-23567844D01*
X7977325Y-23567844D02*
X7996372Y-23577368D01*
X7996372Y-23577368D02*
X8005896Y-23586891D01*
X8005896Y-23586891D02*
X8015420Y-23605939D01*
X8015420Y-23605939D02*
X8024944Y-23644034D01*
X8024944Y-23644034D02*
X8024944Y-23691653D01*
X8024944Y-23691653D02*
X8015420Y-23729748D01*
X8015420Y-23729748D02*
X8005896Y-23748796D01*
X8005896Y-23748796D02*
X7996372Y-23758320D01*
X7996372Y-23758320D02*
X7977325Y-23767844D01*
X7977325Y-23767844D02*
X7958277Y-23767844D01*
X7958277Y-23767844D02*
X7939229Y-23758320D01*
X7939229Y-23758320D02*
X7929706Y-23748796D01*
X7929706Y-23748796D02*
X7920182Y-23729748D01*
X7920182Y-23729748D02*
X7910658Y-23691653D01*
X7910658Y-23691653D02*
X7910658Y-23644034D01*
X7910658Y-23644034D02*
X7920182Y-23605939D01*
X7920182Y-23605939D02*
X7929706Y-23586891D01*
X7929706Y-23586891D02*
X7939229Y-23577368D01*
X7939229Y-23577368D02*
X7958277Y-23567844D01*
X8101134Y-23567844D02*
X8101134Y-23605939D01*
X8177325Y-23567844D02*
X8177325Y-23605939D01*
X8472563Y-23844034D02*
X8463039Y-23834510D01*
X8463039Y-23834510D02*
X8443991Y-23805939D01*
X8443991Y-23805939D02*
X8434468Y-23786891D01*
X8434468Y-23786891D02*
X8424944Y-23758320D01*
X8424944Y-23758320D02*
X8415420Y-23710701D01*
X8415420Y-23710701D02*
X8415420Y-23672606D01*
X8415420Y-23672606D02*
X8424944Y-23624987D01*
X8424944Y-23624987D02*
X8434468Y-23596415D01*
X8434468Y-23596415D02*
X8443991Y-23577368D01*
X8443991Y-23577368D02*
X8463039Y-23548796D01*
X8463039Y-23548796D02*
X8472563Y-23539272D01*
X8539230Y-23586891D02*
X8548753Y-23577368D01*
X8548753Y-23577368D02*
X8567801Y-23567844D01*
X8567801Y-23567844D02*
X8615420Y-23567844D01*
X8615420Y-23567844D02*
X8634468Y-23577368D01*
X8634468Y-23577368D02*
X8643991Y-23586891D01*
X8643991Y-23586891D02*
X8653515Y-23605939D01*
X8653515Y-23605939D02*
X8653515Y-23624987D01*
X8653515Y-23624987D02*
X8643991Y-23653558D01*
X8643991Y-23653558D02*
X8529706Y-23767844D01*
X8529706Y-23767844D02*
X8653515Y-23767844D01*
X8891611Y-23767844D02*
X8891611Y-23567844D01*
X8977325Y-23767844D02*
X8977325Y-23663082D01*
X8977325Y-23663082D02*
X8967801Y-23644034D01*
X8967801Y-23644034D02*
X8948753Y-23634510D01*
X8948753Y-23634510D02*
X8920182Y-23634510D01*
X8920182Y-23634510D02*
X8901134Y-23644034D01*
X8901134Y-23644034D02*
X8891611Y-23653558D01*
X9101134Y-23767844D02*
X9082087Y-23758320D01*
X9082087Y-23758320D02*
X9072563Y-23748796D01*
X9072563Y-23748796D02*
X9063039Y-23729748D01*
X9063039Y-23729748D02*
X9063039Y-23672606D01*
X9063039Y-23672606D02*
X9072563Y-23653558D01*
X9072563Y-23653558D02*
X9082087Y-23644034D01*
X9082087Y-23644034D02*
X9101134Y-23634510D01*
X9101134Y-23634510D02*
X9129706Y-23634510D01*
X9129706Y-23634510D02*
X9148753Y-23644034D01*
X9148753Y-23644034D02*
X9158277Y-23653558D01*
X9158277Y-23653558D02*
X9167801Y-23672606D01*
X9167801Y-23672606D02*
X9167801Y-23729748D01*
X9167801Y-23729748D02*
X9158277Y-23748796D01*
X9158277Y-23748796D02*
X9148753Y-23758320D01*
X9148753Y-23758320D02*
X9129706Y-23767844D01*
X9129706Y-23767844D02*
X9101134Y-23767844D01*
X9282087Y-23767844D02*
X9263039Y-23758320D01*
X9263039Y-23758320D02*
X9253515Y-23739272D01*
X9253515Y-23739272D02*
X9253515Y-23567844D01*
X9434468Y-23758320D02*
X9415420Y-23767844D01*
X9415420Y-23767844D02*
X9377325Y-23767844D01*
X9377325Y-23767844D02*
X9358277Y-23758320D01*
X9358277Y-23758320D02*
X9348753Y-23739272D01*
X9348753Y-23739272D02*
X9348753Y-23663082D01*
X9348753Y-23663082D02*
X9358277Y-23644034D01*
X9358277Y-23644034D02*
X9377325Y-23634510D01*
X9377325Y-23634510D02*
X9415420Y-23634510D01*
X9415420Y-23634510D02*
X9434468Y-23644034D01*
X9434468Y-23644034D02*
X9443992Y-23663082D01*
X9443992Y-23663082D02*
X9443992Y-23682129D01*
X9443992Y-23682129D02*
X9348753Y-23701177D01*
X9520182Y-23758320D02*
X9539230Y-23767844D01*
X9539230Y-23767844D02*
X9577325Y-23767844D01*
X9577325Y-23767844D02*
X9596373Y-23758320D01*
X9596373Y-23758320D02*
X9605896Y-23739272D01*
X9605896Y-23739272D02*
X9605896Y-23729748D01*
X9605896Y-23729748D02*
X9596373Y-23710701D01*
X9596373Y-23710701D02*
X9577325Y-23701177D01*
X9577325Y-23701177D02*
X9548753Y-23701177D01*
X9548753Y-23701177D02*
X9529706Y-23691653D01*
X9529706Y-23691653D02*
X9520182Y-23672606D01*
X9520182Y-23672606D02*
X9520182Y-23663082D01*
X9520182Y-23663082D02*
X9529706Y-23644034D01*
X9529706Y-23644034D02*
X9548753Y-23634510D01*
X9548753Y-23634510D02*
X9577325Y-23634510D01*
X9577325Y-23634510D02*
X9596373Y-23644034D01*
X9672563Y-23844034D02*
X9682087Y-23834510D01*
X9682087Y-23834510D02*
X9701134Y-23805939D01*
X9701134Y-23805939D02*
X9710658Y-23786891D01*
X9710658Y-23786891D02*
X9720182Y-23758320D01*
X9720182Y-23758320D02*
X9729706Y-23710701D01*
X9729706Y-23710701D02*
X9729706Y-23672606D01*
X9729706Y-23672606D02*
X9720182Y-23624987D01*
X9720182Y-23624987D02*
X9710658Y-23596415D01*
X9710658Y-23596415D02*
X9701134Y-23577368D01*
X9701134Y-23577368D02*
X9682087Y-23548796D01*
X9682087Y-23548796D02*
X9672563Y-23539272D01*
X10034468Y-23844034D02*
X10024944Y-23834510D01*
X10024944Y-23834510D02*
X10005896Y-23805939D01*
X10005896Y-23805939D02*
X9996373Y-23786891D01*
X9996373Y-23786891D02*
X9986849Y-23758320D01*
X9986849Y-23758320D02*
X9977325Y-23710701D01*
X9977325Y-23710701D02*
X9977325Y-23672606D01*
X9977325Y-23672606D02*
X9986849Y-23624987D01*
X9986849Y-23624987D02*
X9996373Y-23596415D01*
X9996373Y-23596415D02*
X10005896Y-23577368D01*
X10005896Y-23577368D02*
X10024944Y-23548796D01*
X10024944Y-23548796D02*
X10034468Y-23539272D01*
X10110658Y-23634510D02*
X10110658Y-23767844D01*
X10110658Y-23653558D02*
X10120182Y-23644034D01*
X10120182Y-23644034D02*
X10139230Y-23634510D01*
X10139230Y-23634510D02*
X10167801Y-23634510D01*
X10167801Y-23634510D02*
X10186849Y-23644034D01*
X10186849Y-23644034D02*
X10196373Y-23663082D01*
X10196373Y-23663082D02*
X10196373Y-23767844D01*
X10320182Y-23767844D02*
X10301134Y-23758320D01*
X10301134Y-23758320D02*
X10291611Y-23748796D01*
X10291611Y-23748796D02*
X10282087Y-23729748D01*
X10282087Y-23729748D02*
X10282087Y-23672606D01*
X10282087Y-23672606D02*
X10291611Y-23653558D01*
X10291611Y-23653558D02*
X10301134Y-23644034D01*
X10301134Y-23644034D02*
X10320182Y-23634510D01*
X10320182Y-23634510D02*
X10348754Y-23634510D01*
X10348754Y-23634510D02*
X10367801Y-23644034D01*
X10367801Y-23644034D02*
X10377325Y-23653558D01*
X10377325Y-23653558D02*
X10386849Y-23672606D01*
X10386849Y-23672606D02*
X10386849Y-23729748D01*
X10386849Y-23729748D02*
X10377325Y-23748796D01*
X10377325Y-23748796D02*
X10367801Y-23758320D01*
X10367801Y-23758320D02*
X10348754Y-23767844D01*
X10348754Y-23767844D02*
X10320182Y-23767844D01*
X10443992Y-23634510D02*
X10520182Y-23634510D01*
X10472563Y-23567844D02*
X10472563Y-23739272D01*
X10472563Y-23739272D02*
X10482087Y-23758320D01*
X10482087Y-23758320D02*
X10501134Y-23767844D01*
X10501134Y-23767844D02*
X10520182Y-23767844D01*
X10739230Y-23634510D02*
X10739230Y-23834510D01*
X10739230Y-23644034D02*
X10758277Y-23634510D01*
X10758277Y-23634510D02*
X10796373Y-23634510D01*
X10796373Y-23634510D02*
X10815420Y-23644034D01*
X10815420Y-23644034D02*
X10824944Y-23653558D01*
X10824944Y-23653558D02*
X10834468Y-23672606D01*
X10834468Y-23672606D02*
X10834468Y-23729748D01*
X10834468Y-23729748D02*
X10824944Y-23748796D01*
X10824944Y-23748796D02*
X10815420Y-23758320D01*
X10815420Y-23758320D02*
X10796373Y-23767844D01*
X10796373Y-23767844D02*
X10758277Y-23767844D01*
X10758277Y-23767844D02*
X10739230Y-23758320D01*
X10948754Y-23767844D02*
X10929706Y-23758320D01*
X10929706Y-23758320D02*
X10920182Y-23739272D01*
X10920182Y-23739272D02*
X10920182Y-23567844D01*
X11110658Y-23767844D02*
X11110658Y-23663082D01*
X11110658Y-23663082D02*
X11101135Y-23644034D01*
X11101135Y-23644034D02*
X11082087Y-23634510D01*
X11082087Y-23634510D02*
X11043992Y-23634510D01*
X11043992Y-23634510D02*
X11024944Y-23644034D01*
X11110658Y-23758320D02*
X11091611Y-23767844D01*
X11091611Y-23767844D02*
X11043992Y-23767844D01*
X11043992Y-23767844D02*
X11024944Y-23758320D01*
X11024944Y-23758320D02*
X11015420Y-23739272D01*
X11015420Y-23739272D02*
X11015420Y-23720225D01*
X11015420Y-23720225D02*
X11024944Y-23701177D01*
X11024944Y-23701177D02*
X11043992Y-23691653D01*
X11043992Y-23691653D02*
X11091611Y-23691653D01*
X11091611Y-23691653D02*
X11110658Y-23682129D01*
X11177325Y-23634510D02*
X11253515Y-23634510D01*
X11205896Y-23567844D02*
X11205896Y-23739272D01*
X11205896Y-23739272D02*
X11215420Y-23758320D01*
X11215420Y-23758320D02*
X11234468Y-23767844D01*
X11234468Y-23767844D02*
X11253515Y-23767844D01*
X11396373Y-23758320D02*
X11377325Y-23767844D01*
X11377325Y-23767844D02*
X11339230Y-23767844D01*
X11339230Y-23767844D02*
X11320182Y-23758320D01*
X11320182Y-23758320D02*
X11310658Y-23739272D01*
X11310658Y-23739272D02*
X11310658Y-23663082D01*
X11310658Y-23663082D02*
X11320182Y-23644034D01*
X11320182Y-23644034D02*
X11339230Y-23634510D01*
X11339230Y-23634510D02*
X11377325Y-23634510D01*
X11377325Y-23634510D02*
X11396373Y-23644034D01*
X11396373Y-23644034D02*
X11405896Y-23663082D01*
X11405896Y-23663082D02*
X11405896Y-23682129D01*
X11405896Y-23682129D02*
X11310658Y-23701177D01*
X11577325Y-23767844D02*
X11577325Y-23567844D01*
X11577325Y-23758320D02*
X11558277Y-23767844D01*
X11558277Y-23767844D02*
X11520182Y-23767844D01*
X11520182Y-23767844D02*
X11501134Y-23758320D01*
X11501134Y-23758320D02*
X11491611Y-23748796D01*
X11491611Y-23748796D02*
X11482087Y-23729748D01*
X11482087Y-23729748D02*
X11482087Y-23672606D01*
X11482087Y-23672606D02*
X11491611Y-23653558D01*
X11491611Y-23653558D02*
X11501134Y-23644034D01*
X11501134Y-23644034D02*
X11520182Y-23634510D01*
X11520182Y-23634510D02*
X11558277Y-23634510D01*
X11558277Y-23634510D02*
X11577325Y-23644034D01*
X11653515Y-23844034D02*
X11663039Y-23834510D01*
X11663039Y-23834510D02*
X11682087Y-23805939D01*
X11682087Y-23805939D02*
X11691611Y-23786891D01*
X11691611Y-23786891D02*
X11701134Y-23758320D01*
X11701134Y-23758320D02*
X11710658Y-23710701D01*
X11710658Y-23710701D02*
X11710658Y-23672606D01*
X11710658Y-23672606D02*
X11701134Y-23624987D01*
X11701134Y-23624987D02*
X11691611Y-23596415D01*
X11691611Y-23596415D02*
X11682087Y-23577368D01*
X11682087Y-23577368D02*
X11663039Y-23548796D01*
X11663039Y-23548796D02*
X11653515Y-23539272D01*
X4868211Y-24027071D02*
X4868211Y-23885649D01*
X4726789Y-23885649D01*
X4726789Y-24027071D01*
X4868211Y-24027071D01*
X5139229Y-23847844D02*
X5263039Y-23847844D01*
X5263039Y-23847844D02*
X5196372Y-23924034D01*
X5196372Y-23924034D02*
X5224944Y-23924034D01*
X5224944Y-23924034D02*
X5243991Y-23933558D01*
X5243991Y-23933558D02*
X5253515Y-23943082D01*
X5253515Y-23943082D02*
X5263039Y-23962129D01*
X5263039Y-23962129D02*
X5263039Y-24009748D01*
X5263039Y-24009748D02*
X5253515Y-24028796D01*
X5253515Y-24028796D02*
X5243991Y-24038320D01*
X5243991Y-24038320D02*
X5224944Y-24047844D01*
X5224944Y-24047844D02*
X5167801Y-24047844D01*
X5167801Y-24047844D02*
X5148753Y-24038320D01*
X5148753Y-24038320D02*
X5139229Y-24028796D01*
X5348753Y-24028796D02*
X5358277Y-24038320D01*
X5358277Y-24038320D02*
X5348753Y-24047844D01*
X5348753Y-24047844D02*
X5339229Y-24038320D01*
X5339229Y-24038320D02*
X5348753Y-24028796D01*
X5348753Y-24028796D02*
X5348753Y-24047844D01*
X5453515Y-24047844D02*
X5491610Y-24047844D01*
X5491610Y-24047844D02*
X5510658Y-24038320D01*
X5510658Y-24038320D02*
X5520182Y-24028796D01*
X5520182Y-24028796D02*
X5539229Y-24000225D01*
X5539229Y-24000225D02*
X5548753Y-23962129D01*
X5548753Y-23962129D02*
X5548753Y-23885939D01*
X5548753Y-23885939D02*
X5539229Y-23866891D01*
X5539229Y-23866891D02*
X5529705Y-23857368D01*
X5529705Y-23857368D02*
X5510658Y-23847844D01*
X5510658Y-23847844D02*
X5472563Y-23847844D01*
X5472563Y-23847844D02*
X5453515Y-23857368D01*
X5453515Y-23857368D02*
X5443991Y-23866891D01*
X5443991Y-23866891D02*
X5434467Y-23885939D01*
X5434467Y-23885939D02*
X5434467Y-23933558D01*
X5434467Y-23933558D02*
X5443991Y-23952606D01*
X5443991Y-23952606D02*
X5453515Y-23962129D01*
X5453515Y-23962129D02*
X5472563Y-23971653D01*
X5472563Y-23971653D02*
X5510658Y-23971653D01*
X5510658Y-23971653D02*
X5529705Y-23962129D01*
X5529705Y-23962129D02*
X5539229Y-23952606D01*
X5539229Y-23952606D02*
X5548753Y-23933558D01*
X5663039Y-23933558D02*
X5643991Y-23924034D01*
X5643991Y-23924034D02*
X5634467Y-23914510D01*
X5634467Y-23914510D02*
X5624943Y-23895463D01*
X5624943Y-23895463D02*
X5624943Y-23885939D01*
X5624943Y-23885939D02*
X5634467Y-23866891D01*
X5634467Y-23866891D02*
X5643991Y-23857368D01*
X5643991Y-23857368D02*
X5663039Y-23847844D01*
X5663039Y-23847844D02*
X5701134Y-23847844D01*
X5701134Y-23847844D02*
X5720182Y-23857368D01*
X5720182Y-23857368D02*
X5729705Y-23866891D01*
X5729705Y-23866891D02*
X5739229Y-23885939D01*
X5739229Y-23885939D02*
X5739229Y-23895463D01*
X5739229Y-23895463D02*
X5729705Y-23914510D01*
X5729705Y-23914510D02*
X5720182Y-23924034D01*
X5720182Y-23924034D02*
X5701134Y-23933558D01*
X5701134Y-23933558D02*
X5663039Y-23933558D01*
X5663039Y-23933558D02*
X5643991Y-23943082D01*
X5643991Y-23943082D02*
X5634467Y-23952606D01*
X5634467Y-23952606D02*
X5624943Y-23971653D01*
X5624943Y-23971653D02*
X5624943Y-24009748D01*
X5624943Y-24009748D02*
X5634467Y-24028796D01*
X5634467Y-24028796D02*
X5643991Y-24038320D01*
X5643991Y-24038320D02*
X5663039Y-24047844D01*
X5663039Y-24047844D02*
X5701134Y-24047844D01*
X5701134Y-24047844D02*
X5720182Y-24038320D01*
X5720182Y-24038320D02*
X5729705Y-24028796D01*
X5729705Y-24028796D02*
X5739229Y-24009748D01*
X5739229Y-24009748D02*
X5739229Y-23971653D01*
X5739229Y-23971653D02*
X5729705Y-23952606D01*
X5729705Y-23952606D02*
X5720182Y-23943082D01*
X5720182Y-23943082D02*
X5701134Y-23933558D01*
X5853515Y-23933558D02*
X5834467Y-23924034D01*
X5834467Y-23924034D02*
X5824943Y-23914510D01*
X5824943Y-23914510D02*
X5815420Y-23895463D01*
X5815420Y-23895463D02*
X5815420Y-23885939D01*
X5815420Y-23885939D02*
X5824943Y-23866891D01*
X5824943Y-23866891D02*
X5834467Y-23857368D01*
X5834467Y-23857368D02*
X5853515Y-23847844D01*
X5853515Y-23847844D02*
X5891610Y-23847844D01*
X5891610Y-23847844D02*
X5910658Y-23857368D01*
X5910658Y-23857368D02*
X5920182Y-23866891D01*
X5920182Y-23866891D02*
X5929705Y-23885939D01*
X5929705Y-23885939D02*
X5929705Y-23895463D01*
X5929705Y-23895463D02*
X5920182Y-23914510D01*
X5920182Y-23914510D02*
X5910658Y-23924034D01*
X5910658Y-23924034D02*
X5891610Y-23933558D01*
X5891610Y-23933558D02*
X5853515Y-23933558D01*
X5853515Y-23933558D02*
X5834467Y-23943082D01*
X5834467Y-23943082D02*
X5824943Y-23952606D01*
X5824943Y-23952606D02*
X5815420Y-23971653D01*
X5815420Y-23971653D02*
X5815420Y-24009748D01*
X5815420Y-24009748D02*
X5824943Y-24028796D01*
X5824943Y-24028796D02*
X5834467Y-24038320D01*
X5834467Y-24038320D02*
X5853515Y-24047844D01*
X5853515Y-24047844D02*
X5891610Y-24047844D01*
X5891610Y-24047844D02*
X5910658Y-24038320D01*
X5910658Y-24038320D02*
X5920182Y-24028796D01*
X5920182Y-24028796D02*
X5929705Y-24009748D01*
X5929705Y-24009748D02*
X5929705Y-23971653D01*
X5929705Y-23971653D02*
X5920182Y-23952606D01*
X5920182Y-23952606D02*
X5910658Y-23943082D01*
X5910658Y-23943082D02*
X5891610Y-23933558D01*
X6015420Y-24047844D02*
X6015420Y-23914510D01*
X6015420Y-23933558D02*
X6024943Y-23924034D01*
X6024943Y-23924034D02*
X6043991Y-23914510D01*
X6043991Y-23914510D02*
X6072563Y-23914510D01*
X6072563Y-23914510D02*
X6091610Y-23924034D01*
X6091610Y-23924034D02*
X6101134Y-23943082D01*
X6101134Y-23943082D02*
X6101134Y-24047844D01*
X6101134Y-23943082D02*
X6110658Y-23924034D01*
X6110658Y-23924034D02*
X6129705Y-23914510D01*
X6129705Y-23914510D02*
X6158277Y-23914510D01*
X6158277Y-23914510D02*
X6177324Y-23924034D01*
X6177324Y-23924034D02*
X6186848Y-23943082D01*
X6186848Y-23943082D02*
X6186848Y-24047844D01*
X6282086Y-24047844D02*
X6282086Y-23914510D01*
X6282086Y-23933558D02*
X6291610Y-23924034D01*
X6291610Y-23924034D02*
X6310658Y-23914510D01*
X6310658Y-23914510D02*
X6339229Y-23914510D01*
X6339229Y-23914510D02*
X6358277Y-23924034D01*
X6358277Y-23924034D02*
X6367801Y-23943082D01*
X6367801Y-23943082D02*
X6367801Y-24047844D01*
X6367801Y-23943082D02*
X6377324Y-23924034D01*
X6377324Y-23924034D02*
X6396372Y-23914510D01*
X6396372Y-23914510D02*
X6424943Y-23914510D01*
X6424943Y-23914510D02*
X6443991Y-23924034D01*
X6443991Y-23924034D02*
X6453515Y-23943082D01*
X6453515Y-23943082D02*
X6453515Y-24047844D01*
X6843991Y-23838320D02*
X6672563Y-24095463D01*
X7101134Y-23847844D02*
X7120182Y-23847844D01*
X7120182Y-23847844D02*
X7139229Y-23857368D01*
X7139229Y-23857368D02*
X7148753Y-23866891D01*
X7148753Y-23866891D02*
X7158277Y-23885939D01*
X7158277Y-23885939D02*
X7167801Y-23924034D01*
X7167801Y-23924034D02*
X7167801Y-23971653D01*
X7167801Y-23971653D02*
X7158277Y-24009748D01*
X7158277Y-24009748D02*
X7148753Y-24028796D01*
X7148753Y-24028796D02*
X7139229Y-24038320D01*
X7139229Y-24038320D02*
X7120182Y-24047844D01*
X7120182Y-24047844D02*
X7101134Y-24047844D01*
X7101134Y-24047844D02*
X7082086Y-24038320D01*
X7082086Y-24038320D02*
X7072563Y-24028796D01*
X7072563Y-24028796D02*
X7063039Y-24009748D01*
X7063039Y-24009748D02*
X7053515Y-23971653D01*
X7053515Y-23971653D02*
X7053515Y-23924034D01*
X7053515Y-23924034D02*
X7063039Y-23885939D01*
X7063039Y-23885939D02*
X7072563Y-23866891D01*
X7072563Y-23866891D02*
X7082086Y-23857368D01*
X7082086Y-23857368D02*
X7101134Y-23847844D01*
X7253515Y-24028796D02*
X7263039Y-24038320D01*
X7263039Y-24038320D02*
X7253515Y-24047844D01*
X7253515Y-24047844D02*
X7243991Y-24038320D01*
X7243991Y-24038320D02*
X7253515Y-24028796D01*
X7253515Y-24028796D02*
X7253515Y-24047844D01*
X7453515Y-24047844D02*
X7339229Y-24047844D01*
X7396372Y-24047844D02*
X7396372Y-23847844D01*
X7396372Y-23847844D02*
X7377325Y-23876415D01*
X7377325Y-23876415D02*
X7358277Y-23895463D01*
X7358277Y-23895463D02*
X7339229Y-23904987D01*
X7634467Y-23847844D02*
X7539229Y-23847844D01*
X7539229Y-23847844D02*
X7529706Y-23943082D01*
X7529706Y-23943082D02*
X7539229Y-23933558D01*
X7539229Y-23933558D02*
X7558277Y-23924034D01*
X7558277Y-23924034D02*
X7605896Y-23924034D01*
X7605896Y-23924034D02*
X7624944Y-23933558D01*
X7624944Y-23933558D02*
X7634467Y-23943082D01*
X7634467Y-23943082D02*
X7643991Y-23962129D01*
X7643991Y-23962129D02*
X7643991Y-24009748D01*
X7643991Y-24009748D02*
X7634467Y-24028796D01*
X7634467Y-24028796D02*
X7624944Y-24038320D01*
X7624944Y-24038320D02*
X7605896Y-24047844D01*
X7605896Y-24047844D02*
X7558277Y-24047844D01*
X7558277Y-24047844D02*
X7539229Y-24038320D01*
X7539229Y-24038320D02*
X7529706Y-24028796D01*
X7710658Y-23847844D02*
X7843991Y-23847844D01*
X7843991Y-23847844D02*
X7758277Y-24047844D01*
X7958277Y-23847844D02*
X7977325Y-23847844D01*
X7977325Y-23847844D02*
X7996372Y-23857368D01*
X7996372Y-23857368D02*
X8005896Y-23866891D01*
X8005896Y-23866891D02*
X8015420Y-23885939D01*
X8015420Y-23885939D02*
X8024944Y-23924034D01*
X8024944Y-23924034D02*
X8024944Y-23971653D01*
X8024944Y-23971653D02*
X8015420Y-24009748D01*
X8015420Y-24009748D02*
X8005896Y-24028796D01*
X8005896Y-24028796D02*
X7996372Y-24038320D01*
X7996372Y-24038320D02*
X7977325Y-24047844D01*
X7977325Y-24047844D02*
X7958277Y-24047844D01*
X7958277Y-24047844D02*
X7939229Y-24038320D01*
X7939229Y-24038320D02*
X7929706Y-24028796D01*
X7929706Y-24028796D02*
X7920182Y-24009748D01*
X7920182Y-24009748D02*
X7910658Y-23971653D01*
X7910658Y-23971653D02*
X7910658Y-23924034D01*
X7910658Y-23924034D02*
X7920182Y-23885939D01*
X7920182Y-23885939D02*
X7929706Y-23866891D01*
X7929706Y-23866891D02*
X7939229Y-23857368D01*
X7939229Y-23857368D02*
X7958277Y-23847844D01*
X8101134Y-23847844D02*
X8101134Y-23885939D01*
X8177325Y-23847844D02*
X8177325Y-23885939D01*
X8472563Y-24124034D02*
X8463039Y-24114510D01*
X8463039Y-24114510D02*
X8443991Y-24085939D01*
X8443991Y-24085939D02*
X8434468Y-24066891D01*
X8434468Y-24066891D02*
X8424944Y-24038320D01*
X8424944Y-24038320D02*
X8415420Y-23990701D01*
X8415420Y-23990701D02*
X8415420Y-23952606D01*
X8415420Y-23952606D02*
X8424944Y-23904987D01*
X8424944Y-23904987D02*
X8434468Y-23876415D01*
X8434468Y-23876415D02*
X8443991Y-23857368D01*
X8443991Y-23857368D02*
X8463039Y-23828796D01*
X8463039Y-23828796D02*
X8472563Y-23819272D01*
X8634468Y-23914510D02*
X8634468Y-24047844D01*
X8586849Y-23838320D02*
X8539230Y-23981177D01*
X8539230Y-23981177D02*
X8663039Y-23981177D01*
X8777325Y-23847844D02*
X8796372Y-23847844D01*
X8796372Y-23847844D02*
X8815420Y-23857368D01*
X8815420Y-23857368D02*
X8824944Y-23866891D01*
X8824944Y-23866891D02*
X8834468Y-23885939D01*
X8834468Y-23885939D02*
X8843991Y-23924034D01*
X8843991Y-23924034D02*
X8843991Y-23971653D01*
X8843991Y-23971653D02*
X8834468Y-24009748D01*
X8834468Y-24009748D02*
X8824944Y-24028796D01*
X8824944Y-24028796D02*
X8815420Y-24038320D01*
X8815420Y-24038320D02*
X8796372Y-24047844D01*
X8796372Y-24047844D02*
X8777325Y-24047844D01*
X8777325Y-24047844D02*
X8758277Y-24038320D01*
X8758277Y-24038320D02*
X8748753Y-24028796D01*
X8748753Y-24028796D02*
X8739230Y-24009748D01*
X8739230Y-24009748D02*
X8729706Y-23971653D01*
X8729706Y-23971653D02*
X8729706Y-23924034D01*
X8729706Y-23924034D02*
X8739230Y-23885939D01*
X8739230Y-23885939D02*
X8748753Y-23866891D01*
X8748753Y-23866891D02*
X8758277Y-23857368D01*
X8758277Y-23857368D02*
X8777325Y-23847844D01*
X9082087Y-24047844D02*
X9082087Y-23847844D01*
X9167801Y-24047844D02*
X9167801Y-23943082D01*
X9167801Y-23943082D02*
X9158277Y-23924034D01*
X9158277Y-23924034D02*
X9139230Y-23914510D01*
X9139230Y-23914510D02*
X9110658Y-23914510D01*
X9110658Y-23914510D02*
X9091611Y-23924034D01*
X9091611Y-23924034D02*
X9082087Y-23933558D01*
X9291611Y-24047844D02*
X9272563Y-24038320D01*
X9272563Y-24038320D02*
X9263039Y-24028796D01*
X9263039Y-24028796D02*
X9253515Y-24009748D01*
X9253515Y-24009748D02*
X9253515Y-23952606D01*
X9253515Y-23952606D02*
X9263039Y-23933558D01*
X9263039Y-23933558D02*
X9272563Y-23924034D01*
X9272563Y-23924034D02*
X9291611Y-23914510D01*
X9291611Y-23914510D02*
X9320182Y-23914510D01*
X9320182Y-23914510D02*
X9339230Y-23924034D01*
X9339230Y-23924034D02*
X9348753Y-23933558D01*
X9348753Y-23933558D02*
X9358277Y-23952606D01*
X9358277Y-23952606D02*
X9358277Y-24009748D01*
X9358277Y-24009748D02*
X9348753Y-24028796D01*
X9348753Y-24028796D02*
X9339230Y-24038320D01*
X9339230Y-24038320D02*
X9320182Y-24047844D01*
X9320182Y-24047844D02*
X9291611Y-24047844D01*
X9472563Y-24047844D02*
X9453515Y-24038320D01*
X9453515Y-24038320D02*
X9443992Y-24019272D01*
X9443992Y-24019272D02*
X9443992Y-23847844D01*
X9624944Y-24038320D02*
X9605896Y-24047844D01*
X9605896Y-24047844D02*
X9567801Y-24047844D01*
X9567801Y-24047844D02*
X9548753Y-24038320D01*
X9548753Y-24038320D02*
X9539230Y-24019272D01*
X9539230Y-24019272D02*
X9539230Y-23943082D01*
X9539230Y-23943082D02*
X9548753Y-23924034D01*
X9548753Y-23924034D02*
X9567801Y-23914510D01*
X9567801Y-23914510D02*
X9605896Y-23914510D01*
X9605896Y-23914510D02*
X9624944Y-23924034D01*
X9624944Y-23924034D02*
X9634468Y-23943082D01*
X9634468Y-23943082D02*
X9634468Y-23962129D01*
X9634468Y-23962129D02*
X9539230Y-23981177D01*
X9710658Y-24038320D02*
X9729706Y-24047844D01*
X9729706Y-24047844D02*
X9767801Y-24047844D01*
X9767801Y-24047844D02*
X9786849Y-24038320D01*
X9786849Y-24038320D02*
X9796373Y-24019272D01*
X9796373Y-24019272D02*
X9796373Y-24009748D01*
X9796373Y-24009748D02*
X9786849Y-23990701D01*
X9786849Y-23990701D02*
X9767801Y-23981177D01*
X9767801Y-23981177D02*
X9739230Y-23981177D01*
X9739230Y-23981177D02*
X9720182Y-23971653D01*
X9720182Y-23971653D02*
X9710658Y-23952606D01*
X9710658Y-23952606D02*
X9710658Y-23943082D01*
X9710658Y-23943082D02*
X9720182Y-23924034D01*
X9720182Y-23924034D02*
X9739230Y-23914510D01*
X9739230Y-23914510D02*
X9767801Y-23914510D01*
X9767801Y-23914510D02*
X9786849Y-23924034D01*
X9863039Y-24124034D02*
X9872563Y-24114510D01*
X9872563Y-24114510D02*
X9891611Y-24085939D01*
X9891611Y-24085939D02*
X9901134Y-24066891D01*
X9901134Y-24066891D02*
X9910658Y-24038320D01*
X9910658Y-24038320D02*
X9920182Y-23990701D01*
X9920182Y-23990701D02*
X9920182Y-23952606D01*
X9920182Y-23952606D02*
X9910658Y-23904987D01*
X9910658Y-23904987D02*
X9901134Y-23876415D01*
X9901134Y-23876415D02*
X9891611Y-23857368D01*
X9891611Y-23857368D02*
X9872563Y-23828796D01*
X9872563Y-23828796D02*
X9863039Y-23819272D01*
X10224944Y-24124034D02*
X10215420Y-24114510D01*
X10215420Y-24114510D02*
X10196373Y-24085939D01*
X10196373Y-24085939D02*
X10186849Y-24066891D01*
X10186849Y-24066891D02*
X10177325Y-24038320D01*
X10177325Y-24038320D02*
X10167801Y-23990701D01*
X10167801Y-23990701D02*
X10167801Y-23952606D01*
X10167801Y-23952606D02*
X10177325Y-23904987D01*
X10177325Y-23904987D02*
X10186849Y-23876415D01*
X10186849Y-23876415D02*
X10196373Y-23857368D01*
X10196373Y-23857368D02*
X10215420Y-23828796D01*
X10215420Y-23828796D02*
X10224944Y-23819272D01*
X10301134Y-23914510D02*
X10301134Y-24047844D01*
X10301134Y-23933558D02*
X10310658Y-23924034D01*
X10310658Y-23924034D02*
X10329706Y-23914510D01*
X10329706Y-23914510D02*
X10358277Y-23914510D01*
X10358277Y-23914510D02*
X10377325Y-23924034D01*
X10377325Y-23924034D02*
X10386849Y-23943082D01*
X10386849Y-23943082D02*
X10386849Y-24047844D01*
X10510658Y-24047844D02*
X10491611Y-24038320D01*
X10491611Y-24038320D02*
X10482087Y-24028796D01*
X10482087Y-24028796D02*
X10472563Y-24009748D01*
X10472563Y-24009748D02*
X10472563Y-23952606D01*
X10472563Y-23952606D02*
X10482087Y-23933558D01*
X10482087Y-23933558D02*
X10491611Y-23924034D01*
X10491611Y-23924034D02*
X10510658Y-23914510D01*
X10510658Y-23914510D02*
X10539230Y-23914510D01*
X10539230Y-23914510D02*
X10558277Y-23924034D01*
X10558277Y-23924034D02*
X10567801Y-23933558D01*
X10567801Y-23933558D02*
X10577325Y-23952606D01*
X10577325Y-23952606D02*
X10577325Y-24009748D01*
X10577325Y-24009748D02*
X10567801Y-24028796D01*
X10567801Y-24028796D02*
X10558277Y-24038320D01*
X10558277Y-24038320D02*
X10539230Y-24047844D01*
X10539230Y-24047844D02*
X10510658Y-24047844D01*
X10634468Y-23914510D02*
X10710658Y-23914510D01*
X10663039Y-23847844D02*
X10663039Y-24019272D01*
X10663039Y-24019272D02*
X10672563Y-24038320D01*
X10672563Y-24038320D02*
X10691611Y-24047844D01*
X10691611Y-24047844D02*
X10710658Y-24047844D01*
X10929706Y-23914510D02*
X10929706Y-24114510D01*
X10929706Y-23924034D02*
X10948754Y-23914510D01*
X10948754Y-23914510D02*
X10986849Y-23914510D01*
X10986849Y-23914510D02*
X11005896Y-23924034D01*
X11005896Y-23924034D02*
X11015420Y-23933558D01*
X11015420Y-23933558D02*
X11024944Y-23952606D01*
X11024944Y-23952606D02*
X11024944Y-24009748D01*
X11024944Y-24009748D02*
X11015420Y-24028796D01*
X11015420Y-24028796D02*
X11005896Y-24038320D01*
X11005896Y-24038320D02*
X10986849Y-24047844D01*
X10986849Y-24047844D02*
X10948754Y-24047844D01*
X10948754Y-24047844D02*
X10929706Y-24038320D01*
X11139230Y-24047844D02*
X11120182Y-24038320D01*
X11120182Y-24038320D02*
X11110658Y-24019272D01*
X11110658Y-24019272D02*
X11110658Y-23847844D01*
X11301134Y-24047844D02*
X11301134Y-23943082D01*
X11301134Y-23943082D02*
X11291611Y-23924034D01*
X11291611Y-23924034D02*
X11272563Y-23914510D01*
X11272563Y-23914510D02*
X11234468Y-23914510D01*
X11234468Y-23914510D02*
X11215420Y-23924034D01*
X11301134Y-24038320D02*
X11282087Y-24047844D01*
X11282087Y-24047844D02*
X11234468Y-24047844D01*
X11234468Y-24047844D02*
X11215420Y-24038320D01*
X11215420Y-24038320D02*
X11205896Y-24019272D01*
X11205896Y-24019272D02*
X11205896Y-24000225D01*
X11205896Y-24000225D02*
X11215420Y-23981177D01*
X11215420Y-23981177D02*
X11234468Y-23971653D01*
X11234468Y-23971653D02*
X11282087Y-23971653D01*
X11282087Y-23971653D02*
X11301134Y-23962129D01*
X11367801Y-23914510D02*
X11443992Y-23914510D01*
X11396373Y-23847844D02*
X11396373Y-24019272D01*
X11396373Y-24019272D02*
X11405896Y-24038320D01*
X11405896Y-24038320D02*
X11424944Y-24047844D01*
X11424944Y-24047844D02*
X11443992Y-24047844D01*
X11586849Y-24038320D02*
X11567801Y-24047844D01*
X11567801Y-24047844D02*
X11529706Y-24047844D01*
X11529706Y-24047844D02*
X11510658Y-24038320D01*
X11510658Y-24038320D02*
X11501134Y-24019272D01*
X11501134Y-24019272D02*
X11501134Y-23943082D01*
X11501134Y-23943082D02*
X11510658Y-23924034D01*
X11510658Y-23924034D02*
X11529706Y-23914510D01*
X11529706Y-23914510D02*
X11567801Y-23914510D01*
X11567801Y-23914510D02*
X11586849Y-23924034D01*
X11586849Y-23924034D02*
X11596373Y-23943082D01*
X11596373Y-23943082D02*
X11596373Y-23962129D01*
X11596373Y-23962129D02*
X11501134Y-23981177D01*
X11767801Y-24047844D02*
X11767801Y-23847844D01*
X11767801Y-24038320D02*
X11748754Y-24047844D01*
X11748754Y-24047844D02*
X11710658Y-24047844D01*
X11710658Y-24047844D02*
X11691611Y-24038320D01*
X11691611Y-24038320D02*
X11682087Y-24028796D01*
X11682087Y-24028796D02*
X11672563Y-24009748D01*
X11672563Y-24009748D02*
X11672563Y-23952606D01*
X11672563Y-23952606D02*
X11682087Y-23933558D01*
X11682087Y-23933558D02*
X11691611Y-23924034D01*
X11691611Y-23924034D02*
X11710658Y-23914510D01*
X11710658Y-23914510D02*
X11748754Y-23914510D01*
X11748754Y-23914510D02*
X11767801Y-23924034D01*
X11843992Y-24124034D02*
X11853515Y-24114510D01*
X11853515Y-24114510D02*
X11872563Y-24085939D01*
X11872563Y-24085939D02*
X11882087Y-24066891D01*
X11882087Y-24066891D02*
X11891611Y-24038320D01*
X11891611Y-24038320D02*
X11901134Y-23990701D01*
X11901134Y-23990701D02*
X11901134Y-23952606D01*
X11901134Y-23952606D02*
X11891611Y-23904987D01*
X11891611Y-23904987D02*
X11882087Y-23876415D01*
X11882087Y-23876415D02*
X11872563Y-23857368D01*
X11872563Y-23857368D02*
X11853515Y-23828796D01*
X11853515Y-23828796D02*
X11843992Y-23819272D01*
M02*
