G04 #@! TF.GenerationSoftware,KiCad,Pcbnew,8.0.6*
G04 #@! TF.CreationDate,2024-11-09T01:20:35+01:00*
G04 #@! TF.ProjectId,DMX_MIDI_FIGHTER,444d585f-4d49-4444-995f-464947485445,rev?*
G04 #@! TF.SameCoordinates,Original*
G04 #@! TF.FileFunction,Profile,NP*
%FSLAX46Y46*%
G04 Gerber Fmt 4.6, Leading zero omitted, Abs format (unit mm)*
G04 Created by KiCad (PCBNEW 8.0.6) date 2024-11-09 01:20:35*
%MOMM*%
%LPD*%
G01*
G04 APERTURE LIST*
G04 #@! TA.AperFunction,Profile*
%ADD10C,0.050000*%
G04 #@! TD*
G04 #@! TA.AperFunction,Profile*
%ADD11C,0.120000*%
G04 #@! TD*
G04 APERTURE END LIST*
D10*
X168500000Y-148000000D02*
G75*
G02*
X164500000Y-148000000I-2000000J0D01*
G01*
X164500000Y-148000000D02*
G75*
G02*
X168500000Y-148000000I2000000J0D01*
G01*
X49000000Y-54000000D02*
X284000000Y-54000000D01*
X284000000Y-225000000D01*
X49000000Y-225000000D01*
X49000000Y-54000000D01*
X137500000Y-61000000D02*
G75*
G02*
X133500000Y-61000000I-2000000J0D01*
G01*
X133500000Y-61000000D02*
G75*
G02*
X137500000Y-61000000I2000000J0D01*
G01*
X168500000Y-110000000D02*
G75*
G02*
X164500000Y-110000000I-2000000J0D01*
G01*
X164500000Y-110000000D02*
G75*
G02*
X168500000Y-110000000I2000000J0D01*
G01*
X279000000Y-148000000D02*
G75*
G02*
X275000000Y-148000000I-2000000J0D01*
G01*
X275000000Y-148000000D02*
G75*
G02*
X279000000Y-148000000I2000000J0D01*
G01*
X279000000Y-110000000D02*
G75*
G02*
X275000000Y-110000000I-2000000J0D01*
G01*
X275000000Y-110000000D02*
G75*
G02*
X279000000Y-110000000I2000000J0D01*
G01*
X58000000Y-61000000D02*
G75*
G02*
X54000000Y-61000000I-2000000J0D01*
G01*
X54000000Y-61000000D02*
G75*
G02*
X58000000Y-61000000I2000000J0D01*
G01*
X58000000Y-186000000D02*
G75*
G02*
X54000000Y-186000000I-2000000J0D01*
G01*
X54000000Y-186000000D02*
G75*
G02*
X58000000Y-186000000I2000000J0D01*
G01*
X58000000Y-218000000D02*
G75*
G02*
X54000000Y-218000000I-2000000J0D01*
G01*
X54000000Y-218000000D02*
G75*
G02*
X58000000Y-218000000I2000000J0D01*
G01*
X168500000Y-186000000D02*
G75*
G02*
X164500000Y-186000000I-2000000J0D01*
G01*
X164500000Y-186000000D02*
G75*
G02*
X168500000Y-186000000I2000000J0D01*
G01*
X279000000Y-218000000D02*
G75*
G02*
X275000000Y-218000000I-2000000J0D01*
G01*
X275000000Y-218000000D02*
G75*
G02*
X279000000Y-218000000I2000000J0D01*
G01*
X58000000Y-110000000D02*
G75*
G02*
X54000000Y-110000000I-2000000J0D01*
G01*
X54000000Y-110000000D02*
G75*
G02*
X58000000Y-110000000I2000000J0D01*
G01*
X279000000Y-61000000D02*
G75*
G02*
X275000000Y-61000000I-2000000J0D01*
G01*
X275000000Y-61000000D02*
G75*
G02*
X279000000Y-61000000I2000000J0D01*
G01*
X199000000Y-61000000D02*
G75*
G02*
X195000000Y-61000000I-2000000J0D01*
G01*
X195000000Y-61000000D02*
G75*
G02*
X199000000Y-61000000I2000000J0D01*
G01*
X58000000Y-148000000D02*
G75*
G02*
X54000000Y-148000000I-2000000J0D01*
G01*
X54000000Y-148000000D02*
G75*
G02*
X58000000Y-148000000I2000000J0D01*
G01*
X279000000Y-186000000D02*
G75*
G02*
X275000000Y-186000000I-2000000J0D01*
G01*
X275000000Y-186000000D02*
G75*
G02*
X279000000Y-186000000I2000000J0D01*
G01*
D11*
X104497500Y-207485000D02*
X104497500Y-212775000D01*
X104497500Y-212775000D02*
X109497500Y-212775000D01*
X109497500Y-207485000D02*
X104497500Y-207485000D01*
X109497500Y-212775000D02*
X109497500Y-207485000D01*
X261660000Y-131285000D02*
X261660000Y-136575000D01*
X261660000Y-136575000D02*
X266660000Y-136575000D01*
X266660000Y-131285000D02*
X261660000Y-131285000D01*
X266660000Y-136575000D02*
X266660000Y-131285000D01*
X104497500Y-169385000D02*
X104497500Y-174675000D01*
X104497500Y-174675000D02*
X109497500Y-174675000D01*
X109497500Y-169385000D02*
X104497500Y-169385000D01*
X109497500Y-174675000D02*
X109497500Y-169385000D01*
X223560000Y-131285000D02*
X223560000Y-136575000D01*
X223560000Y-136575000D02*
X228560000Y-136575000D01*
X228560000Y-131285000D02*
X223560000Y-131285000D01*
X228560000Y-136575000D02*
X228560000Y-131285000D01*
X142597500Y-93185000D02*
X142597500Y-98475000D01*
X142597500Y-98475000D02*
X147597500Y-98475000D01*
X147597500Y-93185000D02*
X142597500Y-93185000D01*
X147597500Y-98475000D02*
X147597500Y-93185000D01*
X85447500Y-93185000D02*
X85447500Y-98475000D01*
X85447500Y-98475000D02*
X90447500Y-98475000D01*
X90447500Y-93185000D02*
X85447500Y-93185000D01*
X90447500Y-98475000D02*
X90447500Y-93185000D01*
X185460000Y-207485000D02*
X185460000Y-212775000D01*
X185460000Y-212775000D02*
X190460000Y-212775000D01*
X190460000Y-207485000D02*
X185460000Y-207485000D01*
X190460000Y-212775000D02*
X190460000Y-207485000D01*
X142597500Y-131285000D02*
X142597500Y-136575000D01*
X142597500Y-136575000D02*
X147597500Y-136575000D01*
X147597500Y-131285000D02*
X142597500Y-131285000D01*
X147597500Y-136575000D02*
X147597500Y-131285000D01*
X261660000Y-93185000D02*
X261660000Y-98475000D01*
X261660000Y-98475000D02*
X266660000Y-98475000D01*
X266660000Y-93185000D02*
X261660000Y-93185000D01*
X266660000Y-98475000D02*
X266660000Y-93185000D01*
X204510000Y-207485000D02*
X204510000Y-212775000D01*
X204510000Y-212775000D02*
X209510000Y-212775000D01*
X209510000Y-207485000D02*
X204510000Y-207485000D01*
X209510000Y-212775000D02*
X209510000Y-207485000D01*
X223560000Y-93185000D02*
X223560000Y-98475000D01*
X223560000Y-98475000D02*
X228560000Y-98475000D01*
X228560000Y-93185000D02*
X223560000Y-93185000D01*
X228560000Y-98475000D02*
X228560000Y-93185000D01*
X85447500Y-169385000D02*
X85447500Y-174675000D01*
X85447500Y-174675000D02*
X90447500Y-174675000D01*
X90447500Y-169385000D02*
X85447500Y-169385000D01*
X90447500Y-174675000D02*
X90447500Y-169385000D01*
X185460000Y-93185000D02*
X185460000Y-98475000D01*
X185460000Y-98475000D02*
X190460000Y-98475000D01*
X190460000Y-93185000D02*
X185460000Y-93185000D01*
X190460000Y-98475000D02*
X190460000Y-93185000D01*
X261660000Y-169385000D02*
X261660000Y-174675000D01*
X261660000Y-174675000D02*
X266660000Y-174675000D01*
X266660000Y-169385000D02*
X261660000Y-169385000D01*
X266660000Y-174675000D02*
X266660000Y-169385000D01*
X242610000Y-131285000D02*
X242610000Y-136575000D01*
X242610000Y-136575000D02*
X247610000Y-136575000D01*
X247610000Y-131285000D02*
X242610000Y-131285000D01*
X247610000Y-136575000D02*
X247610000Y-131285000D01*
X104497500Y-131285000D02*
X104497500Y-136575000D01*
X104497500Y-136575000D02*
X109497500Y-136575000D01*
X109497500Y-131285000D02*
X104497500Y-131285000D01*
X109497500Y-136575000D02*
X109497500Y-131285000D01*
X123547500Y-169385000D02*
X123547500Y-174675000D01*
X123547500Y-174675000D02*
X128547500Y-174675000D01*
X128547500Y-169385000D02*
X123547500Y-169385000D01*
X128547500Y-174675000D02*
X128547500Y-169385000D01*
X66397500Y-131285000D02*
X66397500Y-136575000D01*
X66397500Y-136575000D02*
X71397500Y-136575000D01*
X71397500Y-131285000D02*
X66397500Y-131285000D01*
X71397500Y-136575000D02*
X71397500Y-131285000D01*
X123547500Y-207485000D02*
X123547500Y-212775000D01*
X123547500Y-212775000D02*
X128547500Y-212775000D01*
X128547500Y-207485000D02*
X123547500Y-207485000D01*
X128547500Y-212775000D02*
X128547500Y-207485000D01*
X242610000Y-169385000D02*
X242610000Y-174675000D01*
X242610000Y-174675000D02*
X247610000Y-174675000D01*
X247610000Y-169385000D02*
X242610000Y-169385000D01*
X247610000Y-174675000D02*
X247610000Y-169385000D01*
X85447500Y-207485000D02*
X85447500Y-212775000D01*
X85447500Y-212775000D02*
X90447500Y-212775000D01*
X90447500Y-207485000D02*
X85447500Y-207485000D01*
X90447500Y-212775000D02*
X90447500Y-207485000D01*
X123547500Y-93185000D02*
X123547500Y-98475000D01*
X123547500Y-98475000D02*
X128547500Y-98475000D01*
X128547500Y-93185000D02*
X123547500Y-93185000D01*
X128547500Y-98475000D02*
X128547500Y-93185000D01*
X261660000Y-207485000D02*
X261660000Y-212775000D01*
X261660000Y-212775000D02*
X266660000Y-212775000D01*
X266660000Y-207485000D02*
X261660000Y-207485000D01*
X266660000Y-212775000D02*
X266660000Y-207485000D01*
X123547500Y-131285000D02*
X123547500Y-136575000D01*
X123547500Y-136575000D02*
X128547500Y-136575000D01*
X128547500Y-131285000D02*
X123547500Y-131285000D01*
X128547500Y-136575000D02*
X128547500Y-131285000D01*
X242610000Y-93185000D02*
X242610000Y-98475000D01*
X242610000Y-98475000D02*
X247610000Y-98475000D01*
X247610000Y-93185000D02*
X242610000Y-93185000D01*
X247610000Y-98475000D02*
X247610000Y-93185000D01*
X204510000Y-93185000D02*
X204510000Y-98475000D01*
X204510000Y-98475000D02*
X209510000Y-98475000D01*
X209510000Y-93185000D02*
X204510000Y-93185000D01*
X209510000Y-98475000D02*
X209510000Y-93185000D01*
X85447500Y-131285000D02*
X85447500Y-136575000D01*
X85447500Y-136575000D02*
X90447500Y-136575000D01*
X90447500Y-131285000D02*
X85447500Y-131285000D01*
X90447500Y-136575000D02*
X90447500Y-131285000D01*
X66397500Y-207485000D02*
X66397500Y-212775000D01*
X66397500Y-212775000D02*
X71397500Y-212775000D01*
X71397500Y-207485000D02*
X66397500Y-207485000D01*
X71397500Y-212775000D02*
X71397500Y-207485000D01*
X204510000Y-169385000D02*
X204510000Y-174675000D01*
X204510000Y-174675000D02*
X209510000Y-174675000D01*
X209510000Y-169385000D02*
X204510000Y-169385000D01*
X209510000Y-174675000D02*
X209510000Y-169385000D01*
X66397500Y-93185000D02*
X66397500Y-98475000D01*
X66397500Y-98475000D02*
X71397500Y-98475000D01*
X71397500Y-93185000D02*
X66397500Y-93185000D01*
X71397500Y-98475000D02*
X71397500Y-93185000D01*
X185460000Y-131285000D02*
X185460000Y-136575000D01*
X185460000Y-136575000D02*
X190460000Y-136575000D01*
X190460000Y-131285000D02*
X185460000Y-131285000D01*
X190460000Y-136575000D02*
X190460000Y-131285000D01*
X242610000Y-207485000D02*
X242610000Y-212775000D01*
X242610000Y-212775000D02*
X247610000Y-212775000D01*
X247610000Y-207485000D02*
X242610000Y-207485000D01*
X247610000Y-212775000D02*
X247610000Y-207485000D01*
X142597500Y-169385000D02*
X142597500Y-174675000D01*
X142597500Y-174675000D02*
X147597500Y-174675000D01*
X147597500Y-169385000D02*
X142597500Y-169385000D01*
X147597500Y-174675000D02*
X147597500Y-169385000D01*
X204510000Y-131285000D02*
X204510000Y-136575000D01*
X204510000Y-136575000D02*
X209510000Y-136575000D01*
X209510000Y-131285000D02*
X204510000Y-131285000D01*
X209510000Y-136575000D02*
X209510000Y-131285000D01*
X142597500Y-207485000D02*
X142597500Y-212775000D01*
X142597500Y-212775000D02*
X147597500Y-212775000D01*
X147597500Y-207485000D02*
X142597500Y-207485000D01*
X147597500Y-212775000D02*
X147597500Y-207485000D01*
X104497500Y-93185000D02*
X104497500Y-98475000D01*
X104497500Y-98475000D02*
X109497500Y-98475000D01*
X109497500Y-93185000D02*
X104497500Y-93185000D01*
X109497500Y-98475000D02*
X109497500Y-93185000D01*
X66397500Y-169385000D02*
X66397500Y-174675000D01*
X66397500Y-174675000D02*
X71397500Y-174675000D01*
X71397500Y-169385000D02*
X66397500Y-169385000D01*
X71397500Y-174675000D02*
X71397500Y-169385000D01*
X223560000Y-169385000D02*
X223560000Y-174675000D01*
X223560000Y-174675000D02*
X228560000Y-174675000D01*
X228560000Y-169385000D02*
X223560000Y-169385000D01*
X228560000Y-174675000D02*
X228560000Y-169385000D01*
X223560000Y-207485000D02*
X223560000Y-212775000D01*
X223560000Y-212775000D02*
X228560000Y-212775000D01*
X228560000Y-207485000D02*
X223560000Y-207485000D01*
X228560000Y-212775000D02*
X228560000Y-207485000D01*
X185460000Y-169385000D02*
X185460000Y-174675000D01*
X185460000Y-174675000D02*
X190460000Y-174675000D01*
X190460000Y-169385000D02*
X185460000Y-169385000D01*
X190460000Y-174675000D02*
X190460000Y-169385000D01*
M02*
