M48
; DRILL file {KiCad 8.0.6} date 2024-11-09T01:21:00+0100
; FORMAT={-:-/ absolute / metric / decimal}
; #@! TF.CreationDate,2024-11-09T01:21:00+01:00
; #@! TF.GenerationSoftware,Kicad,Pcbnew,8.0.6
; #@! TF.FileFunction,NonPlated,1,2,NPTH
FMAT,2
METRIC
; #@! TA.AperFunction,NonPlated,NPTH,ComponentDrill
T1C1.000
; #@! TA.AperFunction,NonPlated,NPTH,ComponentDrill
T2C1.499
; #@! TA.AperFunction,NonPlated,NPTH,ComponentDrill
T3C1.600
; #@! TA.AperFunction,NonPlated,NPTH,ComponentDrill
T4C3.988
%
G90
G05
T1
X66.397Y-93.185
X66.397Y-98.475
X66.397Y-131.285
X66.397Y-136.575
X66.397Y-169.385
X66.397Y-174.675
X66.397Y-207.485
X66.397Y-212.775
X71.397Y-93.185
X71.397Y-98.475
X71.397Y-131.285
X71.397Y-136.575
X71.397Y-169.385
X71.397Y-174.675
X71.397Y-207.485
X71.397Y-212.775
X85.447Y-93.185
X85.447Y-98.475
X85.447Y-131.285
X85.447Y-136.575
X85.447Y-169.385
X85.447Y-174.675
X85.447Y-207.485
X85.447Y-212.775
X90.447Y-93.185
X90.447Y-98.475
X90.447Y-131.285
X90.447Y-136.575
X90.447Y-169.385
X90.447Y-174.675
X90.447Y-207.485
X90.447Y-212.775
X104.498Y-93.185
X104.498Y-98.475
X104.498Y-131.285
X104.498Y-136.575
X104.498Y-169.385
X104.498Y-174.675
X104.498Y-207.485
X104.498Y-212.775
X109.497Y-93.185
X109.497Y-98.475
X109.497Y-131.285
X109.497Y-136.575
X109.497Y-169.385
X109.497Y-174.675
X109.497Y-207.485
X109.497Y-212.775
X123.547Y-93.185
X123.547Y-98.475
X123.547Y-131.285
X123.547Y-136.575
X123.547Y-169.385
X123.547Y-174.675
X123.547Y-207.485
X123.547Y-212.775
X128.547Y-93.185
X128.547Y-98.475
X128.547Y-131.285
X128.547Y-136.575
X128.547Y-169.385
X128.547Y-174.675
X128.547Y-207.485
X128.547Y-212.775
X142.597Y-93.185
X142.597Y-98.475
X142.597Y-131.285
X142.597Y-136.575
X142.597Y-169.385
X142.597Y-174.675
X142.597Y-207.485
X142.597Y-212.775
X147.597Y-93.185
X147.597Y-98.475
X147.597Y-131.285
X147.597Y-136.575
X147.597Y-169.385
X147.597Y-174.675
X147.597Y-207.485
X147.597Y-212.775
X185.46Y-93.185
X185.46Y-98.475
X185.46Y-131.285
X185.46Y-136.575
X185.46Y-169.385
X185.46Y-174.675
X185.46Y-207.485
X185.46Y-212.775
X190.46Y-93.185
X190.46Y-98.475
X190.46Y-131.285
X190.46Y-136.575
X190.46Y-169.385
X190.46Y-174.675
X190.46Y-207.485
X190.46Y-212.775
X204.51Y-93.185
X204.51Y-98.475
X204.51Y-131.285
X204.51Y-136.575
X204.51Y-169.385
X204.51Y-174.675
X204.51Y-207.485
X204.51Y-212.775
X209.51Y-93.185
X209.51Y-98.475
X209.51Y-131.285
X209.51Y-136.575
X209.51Y-169.385
X209.51Y-174.675
X209.51Y-207.485
X209.51Y-212.775
X223.56Y-93.185
X223.56Y-98.475
X223.56Y-131.285
X223.56Y-136.575
X223.56Y-169.385
X223.56Y-174.675
X223.56Y-207.485
X223.56Y-212.775
X228.56Y-93.185
X228.56Y-98.475
X228.56Y-131.285
X228.56Y-136.575
X228.56Y-169.385
X228.56Y-174.675
X228.56Y-207.485
X228.56Y-212.775
X242.61Y-93.185
X242.61Y-98.475
X242.61Y-131.285
X242.61Y-136.575
X242.61Y-169.385
X242.61Y-174.675
X242.61Y-207.485
X242.61Y-212.775
X247.61Y-93.185
X247.61Y-98.475
X247.61Y-131.285
X247.61Y-136.575
X247.61Y-169.385
X247.61Y-174.675
X247.61Y-207.485
X247.61Y-212.775
X261.66Y-93.185
X261.66Y-98.475
X261.66Y-131.285
X261.66Y-136.575
X261.66Y-169.385
X261.66Y-174.675
X261.66Y-207.485
X261.66Y-212.775
X266.66Y-93.185
X266.66Y-98.475
X266.66Y-131.285
X266.66Y-136.575
X266.66Y-169.385
X266.66Y-174.675
X266.66Y-207.485
X266.66Y-212.775
T2
X63.817Y-90.805
X63.817Y-128.905
X63.817Y-167.005
X63.817Y-205.105
X73.977Y-90.805
X73.977Y-128.905
X73.977Y-167.005
X73.977Y-205.105
X82.867Y-90.805
X82.867Y-128.905
X82.867Y-167.005
X82.867Y-205.105
X93.027Y-90.805
X93.027Y-128.905
X93.027Y-167.005
X93.027Y-205.105
X101.917Y-90.805
X101.917Y-128.905
X101.917Y-167.005
X101.917Y-205.105
X112.078Y-90.805
X112.078Y-128.905
X112.078Y-167.005
X112.078Y-205.105
X120.968Y-90.805
X120.968Y-128.905
X120.968Y-167.005
X120.968Y-205.105
X131.127Y-90.805
X131.127Y-128.905
X131.127Y-167.005
X131.127Y-205.105
X140.017Y-90.805
X140.017Y-128.905
X140.017Y-167.005
X140.017Y-205.105
X150.177Y-90.805
X150.177Y-128.905
X150.177Y-167.005
X150.177Y-205.105
X182.88Y-90.805
X182.88Y-128.905
X182.88Y-167.005
X182.88Y-205.105
X193.04Y-90.805
X193.04Y-128.905
X193.04Y-167.005
X193.04Y-205.105
X201.93Y-90.805
X201.93Y-128.905
X201.93Y-167.005
X201.93Y-205.105
X212.09Y-90.805
X212.09Y-128.905
X212.09Y-167.005
X212.09Y-205.105
X220.98Y-90.805
X220.98Y-128.905
X220.98Y-167.005
X220.98Y-205.105
X231.14Y-90.805
X231.14Y-128.905
X231.14Y-167.005
X231.14Y-205.105
X240.03Y-90.805
X240.03Y-128.905
X240.03Y-167.005
X240.03Y-205.105
X250.19Y-90.805
X250.19Y-128.905
X250.19Y-167.005
X250.19Y-205.105
X259.08Y-90.805
X259.08Y-128.905
X259.08Y-167.005
X259.08Y-205.105
X269.24Y-90.805
X269.24Y-128.905
X269.24Y-167.005
X269.24Y-205.105
T3
X71.12Y-63.5
X78.74Y-58.42
T4
X68.897Y-90.805
X68.897Y-128.905
X68.897Y-167.005
X68.897Y-205.105
X87.947Y-90.805
X87.947Y-128.905
X87.947Y-167.005
X87.947Y-205.105
X106.997Y-90.805
X106.997Y-128.905
X106.997Y-167.005
X106.997Y-205.105
X126.047Y-90.805
X126.047Y-128.905
X126.047Y-167.005
X126.047Y-205.105
X145.097Y-90.805
X145.097Y-128.905
X145.097Y-167.005
X145.097Y-205.105
X187.96Y-90.805
X187.96Y-128.905
X187.96Y-167.005
X187.96Y-205.105
X207.01Y-90.805
X207.01Y-128.905
X207.01Y-167.005
X207.01Y-205.105
X226.06Y-90.805
X226.06Y-128.905
X226.06Y-167.005
X226.06Y-205.105
X245.11Y-90.805
X245.11Y-128.905
X245.11Y-167.005
X245.11Y-205.105
X264.16Y-90.805
X264.16Y-128.905
X264.16Y-167.005
X264.16Y-205.105
M30
